M48
; DRILL file KiCad 10.0.4 date 2026-07-09T13:34:58
; FORMAT={-:-/ absolute / metric / decimal}
; #@! TF.CreationDate,2026-07-09T13:34:58-06:00
; #@! TF.GenerationSoftware,Kicad,Pcbnew,10.0.4
; #@! TF.FileFunction,NonPlated,1,2,NPTH
FMAT,2
METRIC
; #@! TA.AperFunction,NonPlated,NPTH,ComponentDrill
T1C1.750
; #@! TA.AperFunction,NonPlated,NPTH,ComponentDrill
T2C2.200
; #@! TA.AperFunction,NonPlated,NPTH,ComponentDrill
T3C3.048
; #@! TA.AperFunction,NonPlated,NPTH,ComponentDrill
T4C3.988
; #@! TA.AperFunction,NonPlated,NPTH,ComponentDrill
T5C4.000
%
G90
G05
T1
X47.307Y-73.819
X49.689Y-92.869
X54.451Y-111.919
X57.467Y-73.819
X59.849Y-92.869
X64.611Y-111.919
X66.358Y-73.819
X71.12Y-92.869
X76.517Y-73.819
X80.645Y-111.919
X81.28Y-92.869
X85.407Y-73.819
X90.17Y-92.869
X90.805Y-111.919
X95.567Y-73.819
X99.695Y-111.919
X100.33Y-92.869
X104.42Y-73.819
X109.22Y-92.869
X109.22Y-130.969
X109.855Y-111.919
X114.58Y-73.819
X118.745Y-111.919
X119.38Y-92.869
X119.38Y-130.969
X123.5Y-73.819
X128.27Y-92.869
X128.905Y-111.919
X133.66Y-73.819
X137.795Y-111.919
X138.43Y-92.869
X142.558Y-73.819
X147.32Y-92.869
X147.32Y-130.969
X147.955Y-111.919
X152.718Y-73.819
X156.845Y-111.919
X157.48Y-92.869
X157.48Y-130.969
X161.607Y-73.819
X166.37Y-92.869
X167.005Y-111.919
X171.767Y-73.819
X175.895Y-111.919
X176.53Y-92.869
X178.276Y-130.969
X180.657Y-73.819
X185.42Y-92.869
X186.055Y-111.919
X188.436Y-130.969
X190.817Y-73.819
X194.945Y-111.919
X195.58Y-92.869
X197.326Y-130.969
X199.707Y-73.819
X204.47Y-92.869
X205.105Y-111.919
X207.486Y-130.969
X209.867Y-73.819
X214.63Y-92.869
X218.757Y-73.819
X223.52Y-92.869
X225.901Y-111.919
X228.917Y-73.819
X233.68Y-92.869
X236.061Y-111.919
X237.807Y-73.819
X247.968Y-73.819
T2
X50.006Y-38.1
X85.725Y-128.588
X221.456Y-128.588
X247.65Y-38.1
T3
X102.33Y-123.984
X126.206Y-123.984
X140.462Y-123.984
X164.338Y-123.984
X219.043Y-104.934
X242.919Y-104.934
T4
X102.33Y-139.194
X126.206Y-139.194
X140.462Y-139.194
X164.338Y-139.194
X219.043Y-120.144
X242.919Y-120.144
T5
X52.387Y-73.819
X54.769Y-92.869
X59.531Y-111.919
X71.438Y-73.819
X76.2Y-92.869
X85.725Y-111.919
X90.487Y-73.819
X95.25Y-92.869
X104.775Y-111.919
X109.5Y-73.819
X114.3Y-92.869
X114.3Y-130.969
X123.825Y-111.919
X128.58Y-73.819
X133.35Y-92.869
X142.875Y-111.919
X147.637Y-73.819
X152.4Y-92.869
X152.4Y-130.969
X161.925Y-111.919
X166.688Y-73.819
X171.45Y-92.869
X180.975Y-111.919
X183.356Y-130.969
X185.737Y-73.819
X190.5Y-92.869
X200.025Y-111.919
X202.406Y-130.969
X204.787Y-73.819
X209.55Y-92.869
X223.837Y-73.819
X228.6Y-92.869
X230.981Y-111.919
X242.887Y-73.819
M30
