%TF.GenerationSoftware,KiCad,Pcbnew,10.0.4*%
%TF.CreationDate,2026-07-09T13:34:58-06:00*%
%TF.ProjectId,#im_keyboard,23696d5f-6b65-4796-926f-6172642e6b69,rev?*%
%TF.SameCoordinates,Original*%
%TF.FileFunction,Drillmap*%
%TF.FilePolarity,Positive*%
%FSLAX45Y45*%
G04 Gerber Fmt 4.5, Leading zero omitted, Abs format (unit mm)*
G04 Created by KiCad (PCBNEW 10.0.4) date 2026-07-09 13:34:58*
%MOMM*%
%LPD*%
G01*
G04 APERTURE LIST*
%ADD10C,0.050000*%
%ADD11C,0.200000*%
%ADD12C,0.100000*%
%ADD13C,0.109220*%
%ADD14C,0.150000*%
G04 APERTURE END LIST*
D10*
X4047677Y-4142409D02*
X4044446Y-11330174D01*
X4047677Y-4142409D02*
G75*
G02*
X5045365Y-3142861I999999J-449D01*
G01*
X4658757Y-12253252D02*
G75*
G02*
X4044446Y-11330174I385689J922629D01*
G01*
X4658757Y-12253252D02*
X9339916Y-14210129D01*
X9725605Y-14287500D02*
G75*
G02*
X9339917Y-14210127I5J1000000D01*
G01*
X9725605Y-14287500D02*
X20933999Y-14287500D01*
X21419642Y-14161657D02*
G75*
G02*
X20933999Y-14287498I-485642J874167D01*
G01*
X21419642Y-14161657D02*
X24965018Y-12192004D01*
X24477063Y-3097942D02*
X5045365Y-3142861D01*
X24477063Y-3097942D02*
G75*
G02*
X25479381Y-4097939I2317J-999998D01*
G01*
X25479375Y-11317847D02*
G75*
G02*
X24965020Y-12192007I-999985J-13D01*
G01*
X25479375Y-11317847D02*
X25479375Y-4097939D01*
D11*
D12*
X8885000Y-10285000D02*
X8915000Y-10315000D01*
X8915000Y-10285000D02*
X8885000Y-10315000D01*
X11986500Y-11860000D02*
X12016500Y-11890000D01*
X12016500Y-11860000D02*
X11986500Y-11890000D01*
X12689500Y-10380500D02*
X12719500Y-10410500D01*
X12719500Y-10380500D02*
X12689500Y-10410500D01*
X11053284Y-4262438D02*
G75*
G02*
X10973284Y-4262438I-40000J0D01*
G01*
X10973284Y-4262438D02*
G75*
G02*
X11053284Y-4262438I40000J0D01*
G01*
X11053284Y-5024438D02*
G75*
G02*
X10973284Y-5024438I-40000J0D01*
G01*
X10973284Y-5024438D02*
G75*
G02*
X11053284Y-5024438I40000J0D01*
G01*
X11350947Y-4441035D02*
G75*
G02*
X11270947Y-4441035I-40000J0D01*
G01*
X11270947Y-4441035D02*
G75*
G02*
X11350947Y-4441035I40000J0D01*
G01*
X11350947Y-5203035D02*
G75*
G02*
X11270947Y-5203035I-40000J0D01*
G01*
X11270947Y-5203035D02*
G75*
G02*
X11350947Y-5203035I40000J0D01*
G01*
X11648603Y-4619629D02*
G75*
G02*
X11568603Y-4619629I-40000J0D01*
G01*
X11568603Y-4619629D02*
G75*
G02*
X11648603Y-4619629I40000J0D01*
G01*
X11648603Y-5381629D02*
G75*
G02*
X11568603Y-5381629I-40000J0D01*
G01*
X11568603Y-5381629D02*
G75*
G02*
X11648603Y-5381629I40000J0D01*
G01*
X11946260Y-4798223D02*
G75*
G02*
X11866260Y-4798223I-40000J0D01*
G01*
X11866260Y-4798223D02*
G75*
G02*
X11946260Y-4798223I40000J0D01*
G01*
X11946260Y-5560223D02*
G75*
G02*
X11866260Y-5560223I-40000J0D01*
G01*
X11866260Y-5560223D02*
G75*
G02*
X11946260Y-5560223I40000J0D01*
G01*
X12243916Y-4262441D02*
G75*
G02*
X12163916Y-4262441I-40000J0D01*
G01*
X12163916Y-4262441D02*
G75*
G02*
X12243916Y-4262441I40000J0D01*
G01*
X12243916Y-5024441D02*
G75*
G02*
X12163916Y-5024441I-40000J0D01*
G01*
X12163916Y-5024441D02*
G75*
G02*
X12243916Y-5024441I40000J0D01*
G01*
X12541573Y-4441035D02*
G75*
G02*
X12461573Y-4441035I-40000J0D01*
G01*
X12461573Y-4441035D02*
G75*
G02*
X12541573Y-4441035I40000J0D01*
G01*
X12541573Y-5203035D02*
G75*
G02*
X12461573Y-5203035I-40000J0D01*
G01*
X12461573Y-5203035D02*
G75*
G02*
X12541573Y-5203035I40000J0D01*
G01*
X12839229Y-4619629D02*
G75*
G02*
X12759229Y-4619629I-40000J0D01*
G01*
X12759229Y-4619629D02*
G75*
G02*
X12839229Y-4619629I40000J0D01*
G01*
X12839229Y-5381629D02*
G75*
G02*
X12759229Y-5381629I-40000J0D01*
G01*
X12759229Y-5381629D02*
G75*
G02*
X12839229Y-5381629I40000J0D01*
G01*
X13136886Y-4798223D02*
G75*
G02*
X13056886Y-4798223I-40000J0D01*
G01*
X13056886Y-4798223D02*
G75*
G02*
X13136886Y-4798223I40000J0D01*
G01*
X13136886Y-5560223D02*
G75*
G02*
X13056886Y-5560223I-40000J0D01*
G01*
X13056886Y-5560223D02*
G75*
G02*
X13136886Y-5560223I40000J0D01*
G01*
X13434533Y-4262441D02*
G75*
G02*
X13354533Y-4262441I-40000J0D01*
G01*
X13354533Y-4262441D02*
G75*
G02*
X13434533Y-4262441I40000J0D01*
G01*
X13434533Y-5024441D02*
G75*
G02*
X13354533Y-5024441I-40000J0D01*
G01*
X13354533Y-5024441D02*
G75*
G02*
X13434533Y-5024441I40000J0D01*
G01*
X13732199Y-4441035D02*
G75*
G02*
X13652199Y-4441035I-40000J0D01*
G01*
X13652199Y-4441035D02*
G75*
G02*
X13732199Y-4441035I40000J0D01*
G01*
X13732199Y-5203035D02*
G75*
G02*
X13652199Y-5203035I-40000J0D01*
G01*
X13652199Y-5203035D02*
G75*
G02*
X13732199Y-5203035I40000J0D01*
G01*
X14029855Y-4619629D02*
G75*
G02*
X13949855Y-4619629I-40000J0D01*
G01*
X13949855Y-4619629D02*
G75*
G02*
X14029855Y-4619629I40000J0D01*
G01*
X14029855Y-5381629D02*
G75*
G02*
X13949855Y-5381629I-40000J0D01*
G01*
X13949855Y-5381629D02*
G75*
G02*
X14029855Y-5381629I40000J0D01*
G01*
X14327512Y-4798223D02*
G75*
G02*
X14247512Y-4798223I-40000J0D01*
G01*
X14247512Y-4798223D02*
G75*
G02*
X14327512Y-4798223I40000J0D01*
G01*
X14327512Y-5560223D02*
G75*
G02*
X14247512Y-5560223I-40000J0D01*
G01*
X14247512Y-5560223D02*
G75*
G02*
X14327512Y-5560223I40000J0D01*
G01*
X14640000Y-4269000D02*
G75*
G02*
X14560000Y-4269000I-40000J0D01*
G01*
X14560000Y-4269000D02*
G75*
G02*
X14640000Y-4269000I40000J0D01*
G01*
X14640000Y-5031000D02*
G75*
G02*
X14560000Y-5031000I-40000J0D01*
G01*
X14560000Y-5031000D02*
G75*
G02*
X14640000Y-5031000I40000J0D01*
G01*
X14922825Y-4441035D02*
G75*
G02*
X14842825Y-4441035I-40000J0D01*
G01*
X14842825Y-4441035D02*
G75*
G02*
X14922825Y-4441035I40000J0D01*
G01*
X14922825Y-5203035D02*
G75*
G02*
X14842825Y-5203035I-40000J0D01*
G01*
X14842825Y-5203035D02*
G75*
G02*
X14922825Y-5203035I40000J0D01*
G01*
X15215000Y-4594000D02*
G75*
G02*
X15135000Y-4594000I-40000J0D01*
G01*
X15135000Y-4594000D02*
G75*
G02*
X15215000Y-4594000I40000J0D01*
G01*
X15215000Y-5356000D02*
G75*
G02*
X15135000Y-5356000I-40000J0D01*
G01*
X15135000Y-5356000D02*
G75*
G02*
X15215000Y-5356000I40000J0D01*
G01*
X15518138Y-4798223D02*
G75*
G02*
X15438138Y-4798223I-40000J0D01*
G01*
X15438138Y-4798223D02*
G75*
G02*
X15518138Y-4798223I40000J0D01*
G01*
X15518138Y-5560223D02*
G75*
G02*
X15438138Y-5560223I-40000J0D01*
G01*
X15438138Y-5560223D02*
G75*
G02*
X15518138Y-5560223I40000J0D01*
G01*
X15815000Y-4244000D02*
G75*
G02*
X15735000Y-4244000I-40000J0D01*
G01*
X15735000Y-4244000D02*
G75*
G02*
X15815000Y-4244000I40000J0D01*
G01*
X15815000Y-5006000D02*
G75*
G02*
X15735000Y-5006000I-40000J0D01*
G01*
X15735000Y-5006000D02*
G75*
G02*
X15815000Y-5006000I40000J0D01*
G01*
X16113451Y-4441035D02*
G75*
G02*
X16033451Y-4441035I-40000J0D01*
G01*
X16033451Y-4441035D02*
G75*
G02*
X16113451Y-4441035I40000J0D01*
G01*
X16113451Y-5203035D02*
G75*
G02*
X16033451Y-5203035I-40000J0D01*
G01*
X16033451Y-5203035D02*
G75*
G02*
X16113451Y-5203035I40000J0D01*
G01*
X16415000Y-4619000D02*
G75*
G02*
X16335000Y-4619000I-40000J0D01*
G01*
X16335000Y-4619000D02*
G75*
G02*
X16415000Y-4619000I40000J0D01*
G01*
X16415000Y-5381000D02*
G75*
G02*
X16335000Y-5381000I-40000J0D01*
G01*
X16335000Y-5381000D02*
G75*
G02*
X16415000Y-5381000I40000J0D01*
G01*
X16715000Y-4244000D02*
G75*
G02*
X16635000Y-4244000I-40000J0D01*
G01*
X16635000Y-4244000D02*
G75*
G02*
X16715000Y-4244000I40000J0D01*
G01*
X16715000Y-5006000D02*
G75*
G02*
X16635000Y-5006000I-40000J0D01*
G01*
X16635000Y-5006000D02*
G75*
G02*
X16715000Y-5006000I40000J0D01*
G01*
X17006421Y-4441035D02*
G75*
G02*
X16926421Y-4441035I-40000J0D01*
G01*
X16926421Y-4441035D02*
G75*
G02*
X17006421Y-4441035I40000J0D01*
G01*
X17006421Y-5203035D02*
G75*
G02*
X16926421Y-5203035I-40000J0D01*
G01*
X16926421Y-5203035D02*
G75*
G02*
X17006421Y-5203035I40000J0D01*
G01*
X17290000Y-4619000D02*
G75*
G02*
X17210000Y-4619000I-40000J0D01*
G01*
X17210000Y-4619000D02*
G75*
G02*
X17290000Y-4619000I40000J0D01*
G01*
X17290000Y-5381000D02*
G75*
G02*
X17210000Y-5381000I-40000J0D01*
G01*
X17210000Y-5381000D02*
G75*
G02*
X17290000Y-5381000I40000J0D01*
G01*
X17590000Y-4244000D02*
G75*
G02*
X17510000Y-4244000I-40000J0D01*
G01*
X17510000Y-4244000D02*
G75*
G02*
X17590000Y-4244000I40000J0D01*
G01*
X17590000Y-5006000D02*
G75*
G02*
X17510000Y-5006000I-40000J0D01*
G01*
X17510000Y-5006000D02*
G75*
G02*
X17590000Y-5006000I40000J0D01*
G01*
X17899390Y-4441035D02*
G75*
G02*
X17819390Y-4441035I-40000J0D01*
G01*
X17819390Y-4441035D02*
G75*
G02*
X17899390Y-4441035I40000J0D01*
G01*
X17899390Y-5203035D02*
G75*
G02*
X17819390Y-5203035I-40000J0D01*
G01*
X17819390Y-5203035D02*
G75*
G02*
X17899390Y-5203035I40000J0D01*
G01*
X18190000Y-4619000D02*
G75*
G02*
X18110000Y-4619000I-40000J0D01*
G01*
X18110000Y-4619000D02*
G75*
G02*
X18190000Y-4619000I40000J0D01*
G01*
X18190000Y-5381000D02*
G75*
G02*
X18110000Y-5381000I-40000J0D01*
G01*
X18110000Y-5381000D02*
G75*
G02*
X18190000Y-5381000I40000J0D01*
G01*
X18494703Y-4262441D02*
G75*
G02*
X18414703Y-4262441I-40000J0D01*
G01*
X18414703Y-4262441D02*
G75*
G02*
X18494703Y-4262441I40000J0D01*
G01*
X18494703Y-5024441D02*
G75*
G02*
X18414703Y-5024441I-40000J0D01*
G01*
X18414703Y-5024441D02*
G75*
G02*
X18494703Y-5024441I40000J0D01*
G01*
X18792360Y-4441035D02*
G75*
G02*
X18712360Y-4441035I-40000J0D01*
G01*
X18712360Y-4441035D02*
G75*
G02*
X18792360Y-4441035I40000J0D01*
G01*
X18792360Y-5203035D02*
G75*
G02*
X18712360Y-5203035I-40000J0D01*
G01*
X18712360Y-5203035D02*
G75*
G02*
X18792360Y-5203035I40000J0D01*
G01*
X19090000Y-4619000D02*
G75*
G02*
X19010000Y-4619000I-40000J0D01*
G01*
X19010000Y-4619000D02*
G75*
G02*
X19090000Y-4619000I40000J0D01*
G01*
X19090000Y-5381000D02*
G75*
G02*
X19010000Y-5381000I-40000J0D01*
G01*
X19010000Y-5381000D02*
G75*
G02*
X19090000Y-5381000I40000J0D01*
G01*
X19390000Y-4262441D02*
G75*
G02*
X19310000Y-4262441I-40000J0D01*
G01*
X19310000Y-4262441D02*
G75*
G02*
X19390000Y-4262441I40000J0D01*
G01*
X19390000Y-5024441D02*
G75*
G02*
X19310000Y-5024441I-40000J0D01*
G01*
X19310000Y-5024441D02*
G75*
G02*
X19390000Y-5024441I40000J0D01*
G01*
X19685329Y-4441035D02*
G75*
G02*
X19605329Y-4441035I-40000J0D01*
G01*
X19605329Y-4441035D02*
G75*
G02*
X19685329Y-4441035I40000J0D01*
G01*
X19685329Y-5203035D02*
G75*
G02*
X19605329Y-5203035I-40000J0D01*
G01*
X19605329Y-5203035D02*
G75*
G02*
X19685329Y-5203035I40000J0D01*
G01*
X19990000Y-4619000D02*
G75*
G02*
X19910000Y-4619000I-40000J0D01*
G01*
X19910000Y-4619000D02*
G75*
G02*
X19990000Y-4619000I40000J0D01*
G01*
X19990000Y-5381000D02*
G75*
G02*
X19910000Y-5381000I-40000J0D01*
G01*
X19910000Y-5381000D02*
G75*
G02*
X19990000Y-5381000I40000J0D01*
G01*
X20290000Y-4262441D02*
G75*
G02*
X20210000Y-4262441I-40000J0D01*
G01*
X20210000Y-4262441D02*
G75*
G02*
X20290000Y-4262441I40000J0D01*
G01*
X20290000Y-5024441D02*
G75*
G02*
X20210000Y-5024441I-40000J0D01*
G01*
X20210000Y-5024441D02*
G75*
G02*
X20290000Y-5024441I40000J0D01*
G01*
X20578299Y-4441035D02*
G75*
G02*
X20498299Y-4441035I-40000J0D01*
G01*
X20498299Y-4441035D02*
G75*
G02*
X20578299Y-4441035I40000J0D01*
G01*
X20578299Y-5203035D02*
G75*
G02*
X20498299Y-5203035I-40000J0D01*
G01*
X20498299Y-5203035D02*
G75*
G02*
X20578299Y-5203035I40000J0D01*
G01*
X20865000Y-4269000D02*
G75*
G02*
X20785000Y-4269000I-40000J0D01*
G01*
X20785000Y-4269000D02*
G75*
G02*
X20865000Y-4269000I40000J0D01*
G01*
X20865000Y-5031000D02*
G75*
G02*
X20785000Y-5031000I-40000J0D01*
G01*
X20785000Y-5031000D02*
G75*
G02*
X20865000Y-5031000I40000J0D01*
G01*
D13*
X4489000Y-4346390D02*
X4489000Y-4455610D01*
X4434390Y-4401000D02*
X4543610Y-4401000D01*
X4489000Y-5870390D02*
X4489000Y-5979610D01*
X4434390Y-5925000D02*
X4543610Y-5925000D01*
X4743000Y-4346390D02*
X4743000Y-4455610D01*
X4688390Y-4401000D02*
X4797610Y-4401000D01*
X4743000Y-5870390D02*
X4743000Y-5979610D01*
X4688390Y-5925000D02*
X4797610Y-5925000D01*
X4997000Y-4346390D02*
X4997000Y-4455610D01*
X4942390Y-4401000D02*
X5051610Y-4401000D01*
X4997000Y-5870390D02*
X4997000Y-5979610D01*
X4942390Y-5925000D02*
X5051610Y-5925000D01*
X5251000Y-4346390D02*
X5251000Y-4455610D01*
X5196390Y-4401000D02*
X5305610Y-4401000D01*
X5251000Y-5870390D02*
X5251000Y-5979610D01*
X5196390Y-5925000D02*
X5305610Y-5925000D01*
X5505000Y-4346390D02*
X5505000Y-4455610D01*
X5450390Y-4401000D02*
X5559610Y-4401000D01*
X5505000Y-5870390D02*
X5505000Y-5979610D01*
X5450390Y-5925000D02*
X5559610Y-5925000D01*
X5759000Y-4346390D02*
X5759000Y-4455610D01*
X5704390Y-4401000D02*
X5813610Y-4401000D01*
X5759000Y-5870390D02*
X5759000Y-5979610D01*
X5704390Y-5925000D02*
X5813610Y-5925000D01*
X6013000Y-4346390D02*
X6013000Y-4455610D01*
X5958390Y-4401000D02*
X6067610Y-4401000D01*
X6013000Y-5870390D02*
X6013000Y-5979610D01*
X5958390Y-5925000D02*
X6067610Y-5925000D01*
X6267000Y-4346390D02*
X6267000Y-4455610D01*
X6212390Y-4401000D02*
X6321610Y-4401000D01*
X6267000Y-5870390D02*
X6267000Y-5979610D01*
X6212390Y-5925000D02*
X6321610Y-5925000D01*
X6521000Y-4346390D02*
X6521000Y-4455610D01*
X6466390Y-4401000D02*
X6575610Y-4401000D01*
X6521000Y-5870390D02*
X6521000Y-5979610D01*
X6466390Y-5925000D02*
X6575610Y-5925000D01*
X6775000Y-4346390D02*
X6775000Y-4455610D01*
X6720390Y-4401000D02*
X6829610Y-4401000D01*
X6775000Y-5870390D02*
X6775000Y-5979610D01*
X6720390Y-5925000D02*
X6829610Y-5925000D01*
X7029000Y-4346390D02*
X7029000Y-4455610D01*
X6974390Y-4401000D02*
X7083610Y-4401000D01*
X7029000Y-5870390D02*
X7029000Y-5979610D01*
X6974390Y-5925000D02*
X7083610Y-5925000D01*
X7283000Y-4346390D02*
X7283000Y-4455610D01*
X7228390Y-4401000D02*
X7337610Y-4401000D01*
X7283000Y-5870390D02*
X7283000Y-5979610D01*
X7228390Y-5925000D02*
X7337610Y-5925000D01*
D14*
X4910784Y-7180908D02*
X4910784Y-7074841D01*
X4804717Y-7074841D01*
X4804717Y-7180908D01*
X4910784Y-7180908D01*
X5148909Y-9085909D02*
X5148909Y-8979842D01*
X5042842Y-8979842D01*
X5042842Y-9085909D01*
X5148909Y-9085909D01*
X5545784Y-6926908D02*
X5545784Y-6820841D01*
X5439717Y-6820841D01*
X5439717Y-6926908D01*
X5545784Y-6926908D01*
X5625158Y-10990909D02*
X5625158Y-10884842D01*
X5519092Y-10884842D01*
X5519092Y-10990909D01*
X5625158Y-10990909D01*
X5783908Y-8831909D02*
X5783908Y-8725842D01*
X5677841Y-8725842D01*
X5677841Y-8831909D01*
X5783908Y-8831909D01*
X6260158Y-10736909D02*
X6260158Y-10630842D01*
X6154091Y-10630842D01*
X6154091Y-10736909D01*
X6260158Y-10736909D01*
X6815783Y-7180908D02*
X6815783Y-7074841D01*
X6709716Y-7074841D01*
X6709716Y-7180908D01*
X6815783Y-7180908D01*
X7292033Y-9085909D02*
X7292033Y-8979842D01*
X7185966Y-8979842D01*
X7185966Y-9085909D01*
X7292033Y-9085909D01*
X7450783Y-6926908D02*
X7450783Y-6820841D01*
X7344716Y-6820841D01*
X7344716Y-6926908D01*
X7450783Y-6926908D01*
X7927033Y-8831909D02*
X7927033Y-8725842D01*
X7820966Y-8725842D01*
X7820966Y-8831909D01*
X7927033Y-8831909D01*
X8244533Y-10990909D02*
X8244533Y-10884842D01*
X8138466Y-10884842D01*
X8138466Y-10990909D01*
X8244533Y-10990909D01*
X8720784Y-7180908D02*
X8720784Y-7074841D01*
X8614717Y-7074841D01*
X8614717Y-7180908D01*
X8720784Y-7180908D01*
X8879534Y-10736909D02*
X8879534Y-10630842D01*
X8773467Y-10630842D01*
X8773467Y-10736909D01*
X8879534Y-10736909D01*
X9197034Y-9085909D02*
X9197034Y-8979842D01*
X9090967Y-8979842D01*
X9090967Y-9085909D01*
X9197034Y-9085909D01*
X9355784Y-6926908D02*
X9355784Y-6820841D01*
X9249717Y-6820841D01*
X9249717Y-6926908D01*
X9355784Y-6926908D01*
X9832034Y-8831909D02*
X9832034Y-8725842D01*
X9725967Y-8725842D01*
X9725967Y-8831909D01*
X9832034Y-8831909D01*
X10149534Y-10990909D02*
X10149534Y-10884842D01*
X10043467Y-10884842D01*
X10043467Y-10990909D01*
X10149534Y-10990909D01*
X10622034Y-7180908D02*
X10622034Y-7074841D01*
X10515967Y-7074841D01*
X10515967Y-7180908D01*
X10622034Y-7180908D01*
X10784534Y-10736909D02*
X10784534Y-10630842D01*
X10678467Y-10630842D01*
X10678467Y-10736909D01*
X10784534Y-10736909D01*
X11102034Y-9085909D02*
X11102034Y-8979842D01*
X10995967Y-8979842D01*
X10995967Y-9085909D01*
X11102034Y-9085909D01*
X11102034Y-12895908D02*
X11102034Y-12789841D01*
X10995967Y-12789841D01*
X10995967Y-12895908D01*
X11102034Y-12895908D01*
X11257033Y-6926908D02*
X11257033Y-6820841D01*
X11150967Y-6820841D01*
X11150967Y-6926908D01*
X11257033Y-6926908D01*
X11737033Y-8831909D02*
X11737033Y-8725842D01*
X11630966Y-8725842D01*
X11630966Y-8831909D01*
X11737033Y-8831909D01*
X11737033Y-12641908D02*
X11737033Y-12535841D01*
X11630966Y-12535841D01*
X11630966Y-12641908D01*
X11737033Y-12641908D01*
X12054533Y-10990909D02*
X12054533Y-10884842D01*
X11948466Y-10884842D01*
X11948466Y-10990909D01*
X12054533Y-10990909D01*
X12530033Y-7180908D02*
X12530033Y-7074841D01*
X12423966Y-7074841D01*
X12423966Y-7180908D01*
X12530033Y-7180908D01*
X12689533Y-10736909D02*
X12689533Y-10630842D01*
X12583466Y-10630842D01*
X12583466Y-10736909D01*
X12689533Y-10736909D01*
X13007033Y-9085909D02*
X13007033Y-8979842D01*
X12900966Y-8979842D01*
X12900966Y-9085909D01*
X13007033Y-9085909D01*
X13165033Y-6926908D02*
X13165033Y-6820841D01*
X13058966Y-6820841D01*
X13058966Y-6926908D01*
X13165033Y-6926908D01*
X13642033Y-8831909D02*
X13642033Y-8725842D01*
X13535966Y-8725842D01*
X13535966Y-8831909D01*
X13642033Y-8831909D01*
X13959533Y-10990909D02*
X13959533Y-10884842D01*
X13853466Y-10884842D01*
X13853466Y-10990909D01*
X13959533Y-10990909D01*
X14435783Y-7180908D02*
X14435783Y-7074841D01*
X14329716Y-7074841D01*
X14329716Y-7180908D01*
X14435783Y-7180908D01*
X14594533Y-10736909D02*
X14594533Y-10630842D01*
X14488466Y-10630842D01*
X14488466Y-10736909D01*
X14594533Y-10736909D01*
X14912033Y-9085909D02*
X14912033Y-8979842D01*
X14805966Y-8979842D01*
X14805966Y-9085909D01*
X14912033Y-9085909D01*
X14912033Y-12895908D02*
X14912033Y-12789841D01*
X14805966Y-12789841D01*
X14805966Y-12895908D01*
X14912033Y-12895908D01*
X15070783Y-6926908D02*
X15070783Y-6820841D01*
X14964716Y-6820841D01*
X14964716Y-6926908D01*
X15070783Y-6926908D01*
X15547033Y-8831909D02*
X15547033Y-8725842D01*
X15440966Y-8725842D01*
X15440966Y-8831909D01*
X15547033Y-8831909D01*
X15547033Y-12641908D02*
X15547033Y-12535841D01*
X15440966Y-12535841D01*
X15440966Y-12641908D01*
X15547033Y-12641908D01*
X15864533Y-10990909D02*
X15864533Y-10884842D01*
X15758466Y-10884842D01*
X15758466Y-10990909D01*
X15864533Y-10990909D01*
X16340783Y-7180908D02*
X16340783Y-7074841D01*
X16234716Y-7074841D01*
X16234716Y-7180908D01*
X16340783Y-7180908D01*
X16499533Y-10736909D02*
X16499533Y-10630842D01*
X16393466Y-10630842D01*
X16393466Y-10736909D01*
X16499533Y-10736909D01*
X16817034Y-9085909D02*
X16817034Y-8979842D01*
X16710966Y-8979842D01*
X16710966Y-9085909D01*
X16817034Y-9085909D01*
X16975784Y-6926908D02*
X16975784Y-6820841D01*
X16869717Y-6820841D01*
X16869717Y-6926908D01*
X16975784Y-6926908D01*
X17452034Y-8831909D02*
X17452034Y-8725842D01*
X17345967Y-8725842D01*
X17345967Y-8831909D01*
X17452034Y-8831909D01*
X17769534Y-10990909D02*
X17769534Y-10884842D01*
X17663467Y-10884842D01*
X17663467Y-10990909D01*
X17769534Y-10990909D01*
X18007659Y-12895908D02*
X18007659Y-12789841D01*
X17901592Y-12789841D01*
X17901592Y-12895908D01*
X18007659Y-12895908D01*
X18245784Y-7180908D02*
X18245784Y-7074841D01*
X18139717Y-7074841D01*
X18139717Y-7180908D01*
X18245784Y-7180908D01*
X18404534Y-10736909D02*
X18404534Y-10630842D01*
X18298467Y-10630842D01*
X18298467Y-10736909D01*
X18404534Y-10736909D01*
X18642659Y-12641908D02*
X18642659Y-12535841D01*
X18536592Y-12535841D01*
X18536592Y-12641908D01*
X18642659Y-12641908D01*
X18722034Y-9085909D02*
X18722034Y-8979842D01*
X18615967Y-8979842D01*
X18615967Y-9085909D01*
X18722034Y-9085909D01*
X18880784Y-6926908D02*
X18880784Y-6820841D01*
X18774717Y-6820841D01*
X18774717Y-6926908D01*
X18880784Y-6926908D01*
X19357034Y-8831909D02*
X19357034Y-8725842D01*
X19250967Y-8725842D01*
X19250967Y-8831909D01*
X19357034Y-8831909D01*
X19674534Y-10990909D02*
X19674534Y-10884842D01*
X19568467Y-10884842D01*
X19568467Y-10990909D01*
X19674534Y-10990909D01*
X19912659Y-12895908D02*
X19912659Y-12789841D01*
X19806592Y-12789841D01*
X19806592Y-12895908D01*
X19912659Y-12895908D01*
X20150784Y-7180908D02*
X20150784Y-7074841D01*
X20044717Y-7074841D01*
X20044717Y-7180908D01*
X20150784Y-7180908D01*
X20309534Y-10736909D02*
X20309534Y-10630842D01*
X20203467Y-10630842D01*
X20203467Y-10736909D01*
X20309534Y-10736909D01*
X20547659Y-12641908D02*
X20547659Y-12535841D01*
X20441592Y-12535841D01*
X20441592Y-12641908D01*
X20547659Y-12641908D01*
X20627034Y-9085909D02*
X20627034Y-8979842D01*
X20520967Y-8979842D01*
X20520967Y-9085909D01*
X20627034Y-9085909D01*
X20785784Y-6926908D02*
X20785784Y-6820841D01*
X20679717Y-6820841D01*
X20679717Y-6926908D01*
X20785784Y-6926908D01*
X21262034Y-8831909D02*
X21262034Y-8725842D01*
X21155967Y-8725842D01*
X21155967Y-8831909D01*
X21262034Y-8831909D01*
X22055784Y-7180908D02*
X22055784Y-7074841D01*
X21949717Y-7074841D01*
X21949717Y-7180908D01*
X22055784Y-7180908D01*
X22532033Y-9085909D02*
X22532033Y-8979842D01*
X22425966Y-8979842D01*
X22425966Y-9085909D01*
X22532033Y-9085909D01*
X22690783Y-6926908D02*
X22690783Y-6820841D01*
X22584716Y-6820841D01*
X22584716Y-6926908D01*
X22690783Y-6926908D01*
X22770158Y-10990909D02*
X22770158Y-10884842D01*
X22664091Y-10884842D01*
X22664091Y-10990909D01*
X22770158Y-10990909D01*
X23167033Y-8831909D02*
X23167033Y-8725842D01*
X23060966Y-8725842D01*
X23060966Y-8831909D01*
X23167033Y-8831909D01*
X23405158Y-10736909D02*
X23405158Y-10630842D01*
X23299091Y-10630842D01*
X23299091Y-10736909D01*
X23405158Y-10736909D01*
X23960783Y-7180908D02*
X23960783Y-7074841D01*
X23854716Y-7074841D01*
X23854716Y-7180908D01*
X23960783Y-7180908D01*
X24595783Y-6926908D02*
X24595783Y-6820841D01*
X24489716Y-6820841D01*
X24489716Y-6926908D01*
X24595783Y-6926908D01*
D11*
X4302722Y-14601484D02*
X4302722Y-14401484D01*
X4302722Y-14401484D02*
X4350341Y-14401484D01*
X4350341Y-14401484D02*
X4378913Y-14411008D01*
X4378913Y-14411008D02*
X4397961Y-14430055D01*
X4397961Y-14430055D02*
X4407484Y-14449103D01*
X4407484Y-14449103D02*
X4417008Y-14487198D01*
X4417008Y-14487198D02*
X4417008Y-14515769D01*
X4417008Y-14515769D02*
X4407484Y-14553865D01*
X4407484Y-14553865D02*
X4397961Y-14572912D01*
X4397961Y-14572912D02*
X4378913Y-14591960D01*
X4378913Y-14591960D02*
X4350341Y-14601484D01*
X4350341Y-14601484D02*
X4302722Y-14601484D01*
X4502722Y-14601484D02*
X4502722Y-14468150D01*
X4502722Y-14506246D02*
X4512246Y-14487198D01*
X4512246Y-14487198D02*
X4521770Y-14477674D01*
X4521770Y-14477674D02*
X4540818Y-14468150D01*
X4540818Y-14468150D02*
X4559865Y-14468150D01*
X4626532Y-14601484D02*
X4626532Y-14468150D01*
X4626532Y-14401484D02*
X4617008Y-14411008D01*
X4617008Y-14411008D02*
X4626532Y-14420531D01*
X4626532Y-14420531D02*
X4636056Y-14411008D01*
X4636056Y-14411008D02*
X4626532Y-14401484D01*
X4626532Y-14401484D02*
X4626532Y-14420531D01*
X4750341Y-14601484D02*
X4731294Y-14591960D01*
X4731294Y-14591960D02*
X4721770Y-14572912D01*
X4721770Y-14572912D02*
X4721770Y-14401484D01*
X4855103Y-14601484D02*
X4836056Y-14591960D01*
X4836056Y-14591960D02*
X4826532Y-14572912D01*
X4826532Y-14572912D02*
X4826532Y-14401484D01*
X5083675Y-14601484D02*
X5083675Y-14401484D01*
X5083675Y-14401484D02*
X5150342Y-14544341D01*
X5150342Y-14544341D02*
X5217008Y-14401484D01*
X5217008Y-14401484D02*
X5217008Y-14601484D01*
X5397961Y-14601484D02*
X5397961Y-14496722D01*
X5397961Y-14496722D02*
X5388437Y-14477674D01*
X5388437Y-14477674D02*
X5369389Y-14468150D01*
X5369389Y-14468150D02*
X5331294Y-14468150D01*
X5331294Y-14468150D02*
X5312246Y-14477674D01*
X5397961Y-14591960D02*
X5378913Y-14601484D01*
X5378913Y-14601484D02*
X5331294Y-14601484D01*
X5331294Y-14601484D02*
X5312246Y-14591960D01*
X5312246Y-14591960D02*
X5302722Y-14572912D01*
X5302722Y-14572912D02*
X5302722Y-14553865D01*
X5302722Y-14553865D02*
X5312246Y-14534817D01*
X5312246Y-14534817D02*
X5331294Y-14525293D01*
X5331294Y-14525293D02*
X5378913Y-14525293D01*
X5378913Y-14525293D02*
X5397961Y-14515769D01*
X5493199Y-14468150D02*
X5493199Y-14668150D01*
X5493199Y-14477674D02*
X5512246Y-14468150D01*
X5512246Y-14468150D02*
X5550342Y-14468150D01*
X5550342Y-14468150D02*
X5569389Y-14477674D01*
X5569389Y-14477674D02*
X5578913Y-14487198D01*
X5578913Y-14487198D02*
X5588437Y-14506246D01*
X5588437Y-14506246D02*
X5588437Y-14563388D01*
X5588437Y-14563388D02*
X5578913Y-14582436D01*
X5578913Y-14582436D02*
X5569389Y-14591960D01*
X5569389Y-14591960D02*
X5550342Y-14601484D01*
X5550342Y-14601484D02*
X5512246Y-14601484D01*
X5512246Y-14601484D02*
X5493199Y-14591960D01*
X5674151Y-14582436D02*
X5683675Y-14591960D01*
X5683675Y-14591960D02*
X5674151Y-14601484D01*
X5674151Y-14601484D02*
X5664627Y-14591960D01*
X5664627Y-14591960D02*
X5674151Y-14582436D01*
X5674151Y-14582436D02*
X5674151Y-14601484D01*
X5674151Y-14477674D02*
X5683675Y-14487198D01*
X5683675Y-14487198D02*
X5674151Y-14496722D01*
X5674151Y-14496722D02*
X5664627Y-14487198D01*
X5664627Y-14487198D02*
X5674151Y-14477674D01*
X5674151Y-14477674D02*
X5674151Y-14496722D01*
D12*
X4011946Y-14915000D02*
X4041946Y-14945000D01*
X4041946Y-14915000D02*
X4011946Y-14945000D01*
D11*
X4340818Y-14821484D02*
X4359865Y-14821484D01*
X4359865Y-14821484D02*
X4378913Y-14831008D01*
X4378913Y-14831008D02*
X4388437Y-14840531D01*
X4388437Y-14840531D02*
X4397961Y-14859579D01*
X4397961Y-14859579D02*
X4407484Y-14897674D01*
X4407484Y-14897674D02*
X4407484Y-14945293D01*
X4407484Y-14945293D02*
X4397961Y-14983388D01*
X4397961Y-14983388D02*
X4388437Y-15002436D01*
X4388437Y-15002436D02*
X4378913Y-15011960D01*
X4378913Y-15011960D02*
X4359865Y-15021484D01*
X4359865Y-15021484D02*
X4340818Y-15021484D01*
X4340818Y-15021484D02*
X4321770Y-15011960D01*
X4321770Y-15011960D02*
X4312246Y-15002436D01*
X4312246Y-15002436D02*
X4302722Y-14983388D01*
X4302722Y-14983388D02*
X4293199Y-14945293D01*
X4293199Y-14945293D02*
X4293199Y-14897674D01*
X4293199Y-14897674D02*
X4302722Y-14859579D01*
X4302722Y-14859579D02*
X4312246Y-14840531D01*
X4312246Y-14840531D02*
X4321770Y-14831008D01*
X4321770Y-14831008D02*
X4340818Y-14821484D01*
X4493199Y-15002436D02*
X4502722Y-15011960D01*
X4502722Y-15011960D02*
X4493199Y-15021484D01*
X4493199Y-15021484D02*
X4483675Y-15011960D01*
X4483675Y-15011960D02*
X4493199Y-15002436D01*
X4493199Y-15002436D02*
X4493199Y-15021484D01*
X4569389Y-14821484D02*
X4693199Y-14821484D01*
X4693199Y-14821484D02*
X4626532Y-14897674D01*
X4626532Y-14897674D02*
X4655103Y-14897674D01*
X4655103Y-14897674D02*
X4674151Y-14907198D01*
X4674151Y-14907198D02*
X4683675Y-14916722D01*
X4683675Y-14916722D02*
X4693199Y-14935769D01*
X4693199Y-14935769D02*
X4693199Y-14983388D01*
X4693199Y-14983388D02*
X4683675Y-15002436D01*
X4683675Y-15002436D02*
X4674151Y-15011960D01*
X4674151Y-15011960D02*
X4655103Y-15021484D01*
X4655103Y-15021484D02*
X4597961Y-15021484D01*
X4597961Y-15021484D02*
X4578913Y-15011960D01*
X4578913Y-15011960D02*
X4569389Y-15002436D01*
X4817008Y-14821484D02*
X4836056Y-14821484D01*
X4836056Y-14821484D02*
X4855103Y-14831008D01*
X4855103Y-14831008D02*
X4864627Y-14840531D01*
X4864627Y-14840531D02*
X4874151Y-14859579D01*
X4874151Y-14859579D02*
X4883675Y-14897674D01*
X4883675Y-14897674D02*
X4883675Y-14945293D01*
X4883675Y-14945293D02*
X4874151Y-14983388D01*
X4874151Y-14983388D02*
X4864627Y-15002436D01*
X4864627Y-15002436D02*
X4855103Y-15011960D01*
X4855103Y-15011960D02*
X4836056Y-15021484D01*
X4836056Y-15021484D02*
X4817008Y-15021484D01*
X4817008Y-15021484D02*
X4797961Y-15011960D01*
X4797961Y-15011960D02*
X4788437Y-15002436D01*
X4788437Y-15002436D02*
X4778913Y-14983388D01*
X4778913Y-14983388D02*
X4769389Y-14945293D01*
X4769389Y-14945293D02*
X4769389Y-14897674D01*
X4769389Y-14897674D02*
X4778913Y-14859579D01*
X4778913Y-14859579D02*
X4788437Y-14840531D01*
X4788437Y-14840531D02*
X4797961Y-14831008D01*
X4797961Y-14831008D02*
X4817008Y-14821484D01*
X5007484Y-14821484D02*
X5026532Y-14821484D01*
X5026532Y-14821484D02*
X5045580Y-14831008D01*
X5045580Y-14831008D02*
X5055103Y-14840531D01*
X5055103Y-14840531D02*
X5064627Y-14859579D01*
X5064627Y-14859579D02*
X5074151Y-14897674D01*
X5074151Y-14897674D02*
X5074151Y-14945293D01*
X5074151Y-14945293D02*
X5064627Y-14983388D01*
X5064627Y-14983388D02*
X5055103Y-15002436D01*
X5055103Y-15002436D02*
X5045580Y-15011960D01*
X5045580Y-15011960D02*
X5026532Y-15021484D01*
X5026532Y-15021484D02*
X5007484Y-15021484D01*
X5007484Y-15021484D02*
X4988437Y-15011960D01*
X4988437Y-15011960D02*
X4978913Y-15002436D01*
X4978913Y-15002436D02*
X4969389Y-14983388D01*
X4969389Y-14983388D02*
X4959865Y-14945293D01*
X4959865Y-14945293D02*
X4959865Y-14897674D01*
X4959865Y-14897674D02*
X4969389Y-14859579D01*
X4969389Y-14859579D02*
X4978913Y-14840531D01*
X4978913Y-14840531D02*
X4988437Y-14831008D01*
X4988437Y-14831008D02*
X5007484Y-14821484D01*
X5159865Y-15021484D02*
X5159865Y-14888150D01*
X5159865Y-14907198D02*
X5169389Y-14897674D01*
X5169389Y-14897674D02*
X5188437Y-14888150D01*
X5188437Y-14888150D02*
X5217008Y-14888150D01*
X5217008Y-14888150D02*
X5236056Y-14897674D01*
X5236056Y-14897674D02*
X5245580Y-14916722D01*
X5245580Y-14916722D02*
X5245580Y-15021484D01*
X5245580Y-14916722D02*
X5255103Y-14897674D01*
X5255103Y-14897674D02*
X5274151Y-14888150D01*
X5274151Y-14888150D02*
X5302722Y-14888150D01*
X5302722Y-14888150D02*
X5321770Y-14897674D01*
X5321770Y-14897674D02*
X5331294Y-14916722D01*
X5331294Y-14916722D02*
X5331294Y-15021484D01*
X5426532Y-15021484D02*
X5426532Y-14888150D01*
X5426532Y-14907198D02*
X5436056Y-14897674D01*
X5436056Y-14897674D02*
X5455103Y-14888150D01*
X5455103Y-14888150D02*
X5483675Y-14888150D01*
X5483675Y-14888150D02*
X5502723Y-14897674D01*
X5502723Y-14897674D02*
X5512246Y-14916722D01*
X5512246Y-14916722D02*
X5512246Y-15021484D01*
X5512246Y-14916722D02*
X5521770Y-14897674D01*
X5521770Y-14897674D02*
X5540818Y-14888150D01*
X5540818Y-14888150D02*
X5569389Y-14888150D01*
X5569389Y-14888150D02*
X5588437Y-14897674D01*
X5588437Y-14897674D02*
X5597961Y-14916722D01*
X5597961Y-14916722D02*
X5597961Y-15021484D01*
X5988437Y-14811960D02*
X5817008Y-15069103D01*
X6245580Y-14821484D02*
X6264627Y-14821484D01*
X6264627Y-14821484D02*
X6283675Y-14831008D01*
X6283675Y-14831008D02*
X6293199Y-14840531D01*
X6293199Y-14840531D02*
X6302723Y-14859579D01*
X6302723Y-14859579D02*
X6312246Y-14897674D01*
X6312246Y-14897674D02*
X6312246Y-14945293D01*
X6312246Y-14945293D02*
X6302723Y-14983388D01*
X6302723Y-14983388D02*
X6293199Y-15002436D01*
X6293199Y-15002436D02*
X6283675Y-15011960D01*
X6283675Y-15011960D02*
X6264627Y-15021484D01*
X6264627Y-15021484D02*
X6245580Y-15021484D01*
X6245580Y-15021484D02*
X6226532Y-15011960D01*
X6226532Y-15011960D02*
X6217008Y-15002436D01*
X6217008Y-15002436D02*
X6207484Y-14983388D01*
X6207484Y-14983388D02*
X6197961Y-14945293D01*
X6197961Y-14945293D02*
X6197961Y-14897674D01*
X6197961Y-14897674D02*
X6207484Y-14859579D01*
X6207484Y-14859579D02*
X6217008Y-14840531D01*
X6217008Y-14840531D02*
X6226532Y-14831008D01*
X6226532Y-14831008D02*
X6245580Y-14821484D01*
X6397961Y-15002436D02*
X6407484Y-15011960D01*
X6407484Y-15011960D02*
X6397961Y-15021484D01*
X6397961Y-15021484D02*
X6388437Y-15011960D01*
X6388437Y-15011960D02*
X6397961Y-15002436D01*
X6397961Y-15002436D02*
X6397961Y-15021484D01*
X6531294Y-14821484D02*
X6550342Y-14821484D01*
X6550342Y-14821484D02*
X6569389Y-14831008D01*
X6569389Y-14831008D02*
X6578913Y-14840531D01*
X6578913Y-14840531D02*
X6588437Y-14859579D01*
X6588437Y-14859579D02*
X6597961Y-14897674D01*
X6597961Y-14897674D02*
X6597961Y-14945293D01*
X6597961Y-14945293D02*
X6588437Y-14983388D01*
X6588437Y-14983388D02*
X6578913Y-15002436D01*
X6578913Y-15002436D02*
X6569389Y-15011960D01*
X6569389Y-15011960D02*
X6550342Y-15021484D01*
X6550342Y-15021484D02*
X6531294Y-15021484D01*
X6531294Y-15021484D02*
X6512246Y-15011960D01*
X6512246Y-15011960D02*
X6502723Y-15002436D01*
X6502723Y-15002436D02*
X6493199Y-14983388D01*
X6493199Y-14983388D02*
X6483675Y-14945293D01*
X6483675Y-14945293D02*
X6483675Y-14897674D01*
X6483675Y-14897674D02*
X6493199Y-14859579D01*
X6493199Y-14859579D02*
X6502723Y-14840531D01*
X6502723Y-14840531D02*
X6512246Y-14831008D01*
X6512246Y-14831008D02*
X6531294Y-14821484D01*
X6788437Y-15021484D02*
X6674151Y-15021484D01*
X6731294Y-15021484D02*
X6731294Y-14821484D01*
X6731294Y-14821484D02*
X6712246Y-14850055D01*
X6712246Y-14850055D02*
X6693199Y-14869103D01*
X6693199Y-14869103D02*
X6674151Y-14878627D01*
X6978913Y-15021484D02*
X6864627Y-15021484D01*
X6921770Y-15021484D02*
X6921770Y-14821484D01*
X6921770Y-14821484D02*
X6902723Y-14850055D01*
X6902723Y-14850055D02*
X6883675Y-14869103D01*
X6883675Y-14869103D02*
X6864627Y-14878627D01*
X7093199Y-14907198D02*
X7074151Y-14897674D01*
X7074151Y-14897674D02*
X7064627Y-14888150D01*
X7064627Y-14888150D02*
X7055104Y-14869103D01*
X7055104Y-14869103D02*
X7055104Y-14859579D01*
X7055104Y-14859579D02*
X7064627Y-14840531D01*
X7064627Y-14840531D02*
X7074151Y-14831008D01*
X7074151Y-14831008D02*
X7093199Y-14821484D01*
X7093199Y-14821484D02*
X7131294Y-14821484D01*
X7131294Y-14821484D02*
X7150342Y-14831008D01*
X7150342Y-14831008D02*
X7159865Y-14840531D01*
X7159865Y-14840531D02*
X7169389Y-14859579D01*
X7169389Y-14859579D02*
X7169389Y-14869103D01*
X7169389Y-14869103D02*
X7159865Y-14888150D01*
X7159865Y-14888150D02*
X7150342Y-14897674D01*
X7150342Y-14897674D02*
X7131294Y-14907198D01*
X7131294Y-14907198D02*
X7093199Y-14907198D01*
X7093199Y-14907198D02*
X7074151Y-14916722D01*
X7074151Y-14916722D02*
X7064627Y-14926246D01*
X7064627Y-14926246D02*
X7055104Y-14945293D01*
X7055104Y-14945293D02*
X7055104Y-14983388D01*
X7055104Y-14983388D02*
X7064627Y-15002436D01*
X7064627Y-15002436D02*
X7074151Y-15011960D01*
X7074151Y-15011960D02*
X7093199Y-15021484D01*
X7093199Y-15021484D02*
X7131294Y-15021484D01*
X7131294Y-15021484D02*
X7150342Y-15011960D01*
X7150342Y-15011960D02*
X7159865Y-15002436D01*
X7159865Y-15002436D02*
X7169389Y-14983388D01*
X7169389Y-14983388D02*
X7169389Y-14945293D01*
X7169389Y-14945293D02*
X7159865Y-14926246D01*
X7159865Y-14926246D02*
X7150342Y-14916722D01*
X7150342Y-14916722D02*
X7131294Y-14907198D01*
X7245580Y-14821484D02*
X7245580Y-14859579D01*
X7321770Y-14821484D02*
X7321770Y-14859579D01*
X7617008Y-15097674D02*
X7607485Y-15088150D01*
X7607485Y-15088150D02*
X7588437Y-15059579D01*
X7588437Y-15059579D02*
X7578913Y-15040531D01*
X7578913Y-15040531D02*
X7569389Y-15011960D01*
X7569389Y-15011960D02*
X7559866Y-14964341D01*
X7559866Y-14964341D02*
X7559866Y-14926246D01*
X7559866Y-14926246D02*
X7569389Y-14878627D01*
X7569389Y-14878627D02*
X7578913Y-14850055D01*
X7578913Y-14850055D02*
X7588437Y-14831008D01*
X7588437Y-14831008D02*
X7607485Y-14802436D01*
X7607485Y-14802436D02*
X7617008Y-14792912D01*
X7674151Y-14821484D02*
X7797961Y-14821484D01*
X7797961Y-14821484D02*
X7731294Y-14897674D01*
X7731294Y-14897674D02*
X7759866Y-14897674D01*
X7759866Y-14897674D02*
X7778913Y-14907198D01*
X7778913Y-14907198D02*
X7788437Y-14916722D01*
X7788437Y-14916722D02*
X7797961Y-14935769D01*
X7797961Y-14935769D02*
X7797961Y-14983388D01*
X7797961Y-14983388D02*
X7788437Y-15002436D01*
X7788437Y-15002436D02*
X7778913Y-15011960D01*
X7778913Y-15011960D02*
X7759866Y-15021484D01*
X7759866Y-15021484D02*
X7702723Y-15021484D01*
X7702723Y-15021484D02*
X7683675Y-15011960D01*
X7683675Y-15011960D02*
X7674151Y-15002436D01*
X8036056Y-15021484D02*
X8036056Y-14821484D01*
X8121770Y-15021484D02*
X8121770Y-14916722D01*
X8121770Y-14916722D02*
X8112247Y-14897674D01*
X8112247Y-14897674D02*
X8093199Y-14888150D01*
X8093199Y-14888150D02*
X8064627Y-14888150D01*
X8064627Y-14888150D02*
X8045580Y-14897674D01*
X8045580Y-14897674D02*
X8036056Y-14907198D01*
X8245580Y-15021484D02*
X8226532Y-15011960D01*
X8226532Y-15011960D02*
X8217008Y-15002436D01*
X8217008Y-15002436D02*
X8207485Y-14983388D01*
X8207485Y-14983388D02*
X8207485Y-14926246D01*
X8207485Y-14926246D02*
X8217008Y-14907198D01*
X8217008Y-14907198D02*
X8226532Y-14897674D01*
X8226532Y-14897674D02*
X8245580Y-14888150D01*
X8245580Y-14888150D02*
X8274151Y-14888150D01*
X8274151Y-14888150D02*
X8293199Y-14897674D01*
X8293199Y-14897674D02*
X8302723Y-14907198D01*
X8302723Y-14907198D02*
X8312247Y-14926246D01*
X8312247Y-14926246D02*
X8312247Y-14983388D01*
X8312247Y-14983388D02*
X8302723Y-15002436D01*
X8302723Y-15002436D02*
X8293199Y-15011960D01*
X8293199Y-15011960D02*
X8274151Y-15021484D01*
X8274151Y-15021484D02*
X8245580Y-15021484D01*
X8426532Y-15021484D02*
X8407485Y-15011960D01*
X8407485Y-15011960D02*
X8397961Y-14992912D01*
X8397961Y-14992912D02*
X8397961Y-14821484D01*
X8578913Y-15011960D02*
X8559866Y-15021484D01*
X8559866Y-15021484D02*
X8521770Y-15021484D01*
X8521770Y-15021484D02*
X8502723Y-15011960D01*
X8502723Y-15011960D02*
X8493199Y-14992912D01*
X8493199Y-14992912D02*
X8493199Y-14916722D01*
X8493199Y-14916722D02*
X8502723Y-14897674D01*
X8502723Y-14897674D02*
X8521770Y-14888150D01*
X8521770Y-14888150D02*
X8559866Y-14888150D01*
X8559866Y-14888150D02*
X8578913Y-14897674D01*
X8578913Y-14897674D02*
X8588437Y-14916722D01*
X8588437Y-14916722D02*
X8588437Y-14935769D01*
X8588437Y-14935769D02*
X8493199Y-14954817D01*
X8664628Y-15011960D02*
X8683675Y-15021484D01*
X8683675Y-15021484D02*
X8721770Y-15021484D01*
X8721770Y-15021484D02*
X8740818Y-15011960D01*
X8740818Y-15011960D02*
X8750342Y-14992912D01*
X8750342Y-14992912D02*
X8750342Y-14983388D01*
X8750342Y-14983388D02*
X8740818Y-14964341D01*
X8740818Y-14964341D02*
X8721770Y-14954817D01*
X8721770Y-14954817D02*
X8693199Y-14954817D01*
X8693199Y-14954817D02*
X8674151Y-14945293D01*
X8674151Y-14945293D02*
X8664628Y-14926246D01*
X8664628Y-14926246D02*
X8664628Y-14916722D01*
X8664628Y-14916722D02*
X8674151Y-14897674D01*
X8674151Y-14897674D02*
X8693199Y-14888150D01*
X8693199Y-14888150D02*
X8721770Y-14888150D01*
X8721770Y-14888150D02*
X8740818Y-14897674D01*
X8817009Y-15097674D02*
X8826532Y-15088150D01*
X8826532Y-15088150D02*
X8845580Y-15059579D01*
X8845580Y-15059579D02*
X8855104Y-15040531D01*
X8855104Y-15040531D02*
X8864628Y-15011960D01*
X8864628Y-15011960D02*
X8874151Y-14964341D01*
X8874151Y-14964341D02*
X8874151Y-14926246D01*
X8874151Y-14926246D02*
X8864628Y-14878627D01*
X8864628Y-14878627D02*
X8855104Y-14850055D01*
X8855104Y-14850055D02*
X8845580Y-14831008D01*
X8845580Y-14831008D02*
X8826532Y-14802436D01*
X8826532Y-14802436D02*
X8817009Y-14792912D01*
D12*
X4041946Y-15194000D02*
G75*
G02*
X3961946Y-15194000I-40000J0D01*
G01*
X3961946Y-15194000D02*
G75*
G02*
X4041946Y-15194000I40000J0D01*
G01*
D11*
X4340818Y-15085484D02*
X4359865Y-15085484D01*
X4359865Y-15085484D02*
X4378913Y-15095008D01*
X4378913Y-15095008D02*
X4388437Y-15104531D01*
X4388437Y-15104531D02*
X4397961Y-15123579D01*
X4397961Y-15123579D02*
X4407484Y-15161674D01*
X4407484Y-15161674D02*
X4407484Y-15209293D01*
X4407484Y-15209293D02*
X4397961Y-15247388D01*
X4397961Y-15247388D02*
X4388437Y-15266436D01*
X4388437Y-15266436D02*
X4378913Y-15275960D01*
X4378913Y-15275960D02*
X4359865Y-15285484D01*
X4359865Y-15285484D02*
X4340818Y-15285484D01*
X4340818Y-15285484D02*
X4321770Y-15275960D01*
X4321770Y-15275960D02*
X4312246Y-15266436D01*
X4312246Y-15266436D02*
X4302722Y-15247388D01*
X4302722Y-15247388D02*
X4293199Y-15209293D01*
X4293199Y-15209293D02*
X4293199Y-15161674D01*
X4293199Y-15161674D02*
X4302722Y-15123579D01*
X4302722Y-15123579D02*
X4312246Y-15104531D01*
X4312246Y-15104531D02*
X4321770Y-15095008D01*
X4321770Y-15095008D02*
X4340818Y-15085484D01*
X4493199Y-15266436D02*
X4502722Y-15275960D01*
X4502722Y-15275960D02*
X4493199Y-15285484D01*
X4493199Y-15285484D02*
X4483675Y-15275960D01*
X4483675Y-15275960D02*
X4493199Y-15266436D01*
X4493199Y-15266436D02*
X4493199Y-15285484D01*
X4617008Y-15171198D02*
X4597961Y-15161674D01*
X4597961Y-15161674D02*
X4588437Y-15152150D01*
X4588437Y-15152150D02*
X4578913Y-15133103D01*
X4578913Y-15133103D02*
X4578913Y-15123579D01*
X4578913Y-15123579D02*
X4588437Y-15104531D01*
X4588437Y-15104531D02*
X4597961Y-15095008D01*
X4597961Y-15095008D02*
X4617008Y-15085484D01*
X4617008Y-15085484D02*
X4655103Y-15085484D01*
X4655103Y-15085484D02*
X4674151Y-15095008D01*
X4674151Y-15095008D02*
X4683675Y-15104531D01*
X4683675Y-15104531D02*
X4693199Y-15123579D01*
X4693199Y-15123579D02*
X4693199Y-15133103D01*
X4693199Y-15133103D02*
X4683675Y-15152150D01*
X4683675Y-15152150D02*
X4674151Y-15161674D01*
X4674151Y-15161674D02*
X4655103Y-15171198D01*
X4655103Y-15171198D02*
X4617008Y-15171198D01*
X4617008Y-15171198D02*
X4597961Y-15180722D01*
X4597961Y-15180722D02*
X4588437Y-15190246D01*
X4588437Y-15190246D02*
X4578913Y-15209293D01*
X4578913Y-15209293D02*
X4578913Y-15247388D01*
X4578913Y-15247388D02*
X4588437Y-15266436D01*
X4588437Y-15266436D02*
X4597961Y-15275960D01*
X4597961Y-15275960D02*
X4617008Y-15285484D01*
X4617008Y-15285484D02*
X4655103Y-15285484D01*
X4655103Y-15285484D02*
X4674151Y-15275960D01*
X4674151Y-15275960D02*
X4683675Y-15266436D01*
X4683675Y-15266436D02*
X4693199Y-15247388D01*
X4693199Y-15247388D02*
X4693199Y-15209293D01*
X4693199Y-15209293D02*
X4683675Y-15190246D01*
X4683675Y-15190246D02*
X4674151Y-15180722D01*
X4674151Y-15180722D02*
X4655103Y-15171198D01*
X4817008Y-15085484D02*
X4836056Y-15085484D01*
X4836056Y-15085484D02*
X4855103Y-15095008D01*
X4855103Y-15095008D02*
X4864627Y-15104531D01*
X4864627Y-15104531D02*
X4874151Y-15123579D01*
X4874151Y-15123579D02*
X4883675Y-15161674D01*
X4883675Y-15161674D02*
X4883675Y-15209293D01*
X4883675Y-15209293D02*
X4874151Y-15247388D01*
X4874151Y-15247388D02*
X4864627Y-15266436D01*
X4864627Y-15266436D02*
X4855103Y-15275960D01*
X4855103Y-15275960D02*
X4836056Y-15285484D01*
X4836056Y-15285484D02*
X4817008Y-15285484D01*
X4817008Y-15285484D02*
X4797961Y-15275960D01*
X4797961Y-15275960D02*
X4788437Y-15266436D01*
X4788437Y-15266436D02*
X4778913Y-15247388D01*
X4778913Y-15247388D02*
X4769389Y-15209293D01*
X4769389Y-15209293D02*
X4769389Y-15161674D01*
X4769389Y-15161674D02*
X4778913Y-15123579D01*
X4778913Y-15123579D02*
X4788437Y-15104531D01*
X4788437Y-15104531D02*
X4797961Y-15095008D01*
X4797961Y-15095008D02*
X4817008Y-15085484D01*
X5007484Y-15085484D02*
X5026532Y-15085484D01*
X5026532Y-15085484D02*
X5045580Y-15095008D01*
X5045580Y-15095008D02*
X5055103Y-15104531D01*
X5055103Y-15104531D02*
X5064627Y-15123579D01*
X5064627Y-15123579D02*
X5074151Y-15161674D01*
X5074151Y-15161674D02*
X5074151Y-15209293D01*
X5074151Y-15209293D02*
X5064627Y-15247388D01*
X5064627Y-15247388D02*
X5055103Y-15266436D01*
X5055103Y-15266436D02*
X5045580Y-15275960D01*
X5045580Y-15275960D02*
X5026532Y-15285484D01*
X5026532Y-15285484D02*
X5007484Y-15285484D01*
X5007484Y-15285484D02*
X4988437Y-15275960D01*
X4988437Y-15275960D02*
X4978913Y-15266436D01*
X4978913Y-15266436D02*
X4969389Y-15247388D01*
X4969389Y-15247388D02*
X4959865Y-15209293D01*
X4959865Y-15209293D02*
X4959865Y-15161674D01*
X4959865Y-15161674D02*
X4969389Y-15123579D01*
X4969389Y-15123579D02*
X4978913Y-15104531D01*
X4978913Y-15104531D02*
X4988437Y-15095008D01*
X4988437Y-15095008D02*
X5007484Y-15085484D01*
X5159865Y-15285484D02*
X5159865Y-15152150D01*
X5159865Y-15171198D02*
X5169389Y-15161674D01*
X5169389Y-15161674D02*
X5188437Y-15152150D01*
X5188437Y-15152150D02*
X5217008Y-15152150D01*
X5217008Y-15152150D02*
X5236056Y-15161674D01*
X5236056Y-15161674D02*
X5245580Y-15180722D01*
X5245580Y-15180722D02*
X5245580Y-15285484D01*
X5245580Y-15180722D02*
X5255103Y-15161674D01*
X5255103Y-15161674D02*
X5274151Y-15152150D01*
X5274151Y-15152150D02*
X5302722Y-15152150D01*
X5302722Y-15152150D02*
X5321770Y-15161674D01*
X5321770Y-15161674D02*
X5331294Y-15180722D01*
X5331294Y-15180722D02*
X5331294Y-15285484D01*
X5426532Y-15285484D02*
X5426532Y-15152150D01*
X5426532Y-15171198D02*
X5436056Y-15161674D01*
X5436056Y-15161674D02*
X5455103Y-15152150D01*
X5455103Y-15152150D02*
X5483675Y-15152150D01*
X5483675Y-15152150D02*
X5502723Y-15161674D01*
X5502723Y-15161674D02*
X5512246Y-15180722D01*
X5512246Y-15180722D02*
X5512246Y-15285484D01*
X5512246Y-15180722D02*
X5521770Y-15161674D01*
X5521770Y-15161674D02*
X5540818Y-15152150D01*
X5540818Y-15152150D02*
X5569389Y-15152150D01*
X5569389Y-15152150D02*
X5588437Y-15161674D01*
X5588437Y-15161674D02*
X5597961Y-15180722D01*
X5597961Y-15180722D02*
X5597961Y-15285484D01*
X5988437Y-15075960D02*
X5817008Y-15333103D01*
X6245580Y-15085484D02*
X6264627Y-15085484D01*
X6264627Y-15085484D02*
X6283675Y-15095008D01*
X6283675Y-15095008D02*
X6293199Y-15104531D01*
X6293199Y-15104531D02*
X6302723Y-15123579D01*
X6302723Y-15123579D02*
X6312246Y-15161674D01*
X6312246Y-15161674D02*
X6312246Y-15209293D01*
X6312246Y-15209293D02*
X6302723Y-15247388D01*
X6302723Y-15247388D02*
X6293199Y-15266436D01*
X6293199Y-15266436D02*
X6283675Y-15275960D01*
X6283675Y-15275960D02*
X6264627Y-15285484D01*
X6264627Y-15285484D02*
X6245580Y-15285484D01*
X6245580Y-15285484D02*
X6226532Y-15275960D01*
X6226532Y-15275960D02*
X6217008Y-15266436D01*
X6217008Y-15266436D02*
X6207484Y-15247388D01*
X6207484Y-15247388D02*
X6197961Y-15209293D01*
X6197961Y-15209293D02*
X6197961Y-15161674D01*
X6197961Y-15161674D02*
X6207484Y-15123579D01*
X6207484Y-15123579D02*
X6217008Y-15104531D01*
X6217008Y-15104531D02*
X6226532Y-15095008D01*
X6226532Y-15095008D02*
X6245580Y-15085484D01*
X6397961Y-15266436D02*
X6407484Y-15275960D01*
X6407484Y-15275960D02*
X6397961Y-15285484D01*
X6397961Y-15285484D02*
X6388437Y-15275960D01*
X6388437Y-15275960D02*
X6397961Y-15266436D01*
X6397961Y-15266436D02*
X6397961Y-15285484D01*
X6531294Y-15085484D02*
X6550342Y-15085484D01*
X6550342Y-15085484D02*
X6569389Y-15095008D01*
X6569389Y-15095008D02*
X6578913Y-15104531D01*
X6578913Y-15104531D02*
X6588437Y-15123579D01*
X6588437Y-15123579D02*
X6597961Y-15161674D01*
X6597961Y-15161674D02*
X6597961Y-15209293D01*
X6597961Y-15209293D02*
X6588437Y-15247388D01*
X6588437Y-15247388D02*
X6578913Y-15266436D01*
X6578913Y-15266436D02*
X6569389Y-15275960D01*
X6569389Y-15275960D02*
X6550342Y-15285484D01*
X6550342Y-15285484D02*
X6531294Y-15285484D01*
X6531294Y-15285484D02*
X6512246Y-15275960D01*
X6512246Y-15275960D02*
X6502723Y-15266436D01*
X6502723Y-15266436D02*
X6493199Y-15247388D01*
X6493199Y-15247388D02*
X6483675Y-15209293D01*
X6483675Y-15209293D02*
X6483675Y-15161674D01*
X6483675Y-15161674D02*
X6493199Y-15123579D01*
X6493199Y-15123579D02*
X6502723Y-15104531D01*
X6502723Y-15104531D02*
X6512246Y-15095008D01*
X6512246Y-15095008D02*
X6531294Y-15085484D01*
X6664627Y-15085484D02*
X6788437Y-15085484D01*
X6788437Y-15085484D02*
X6721770Y-15161674D01*
X6721770Y-15161674D02*
X6750342Y-15161674D01*
X6750342Y-15161674D02*
X6769389Y-15171198D01*
X6769389Y-15171198D02*
X6778913Y-15180722D01*
X6778913Y-15180722D02*
X6788437Y-15199769D01*
X6788437Y-15199769D02*
X6788437Y-15247388D01*
X6788437Y-15247388D02*
X6778913Y-15266436D01*
X6778913Y-15266436D02*
X6769389Y-15275960D01*
X6769389Y-15275960D02*
X6750342Y-15285484D01*
X6750342Y-15285484D02*
X6693199Y-15285484D01*
X6693199Y-15285484D02*
X6674151Y-15275960D01*
X6674151Y-15275960D02*
X6664627Y-15266436D01*
X6978913Y-15285484D02*
X6864627Y-15285484D01*
X6921770Y-15285484D02*
X6921770Y-15085484D01*
X6921770Y-15085484D02*
X6902723Y-15114055D01*
X6902723Y-15114055D02*
X6883675Y-15133103D01*
X6883675Y-15133103D02*
X6864627Y-15142627D01*
X7159865Y-15085484D02*
X7064627Y-15085484D01*
X7064627Y-15085484D02*
X7055104Y-15180722D01*
X7055104Y-15180722D02*
X7064627Y-15171198D01*
X7064627Y-15171198D02*
X7083675Y-15161674D01*
X7083675Y-15161674D02*
X7131294Y-15161674D01*
X7131294Y-15161674D02*
X7150342Y-15171198D01*
X7150342Y-15171198D02*
X7159865Y-15180722D01*
X7159865Y-15180722D02*
X7169389Y-15199769D01*
X7169389Y-15199769D02*
X7169389Y-15247388D01*
X7169389Y-15247388D02*
X7159865Y-15266436D01*
X7159865Y-15266436D02*
X7150342Y-15275960D01*
X7150342Y-15275960D02*
X7131294Y-15285484D01*
X7131294Y-15285484D02*
X7083675Y-15285484D01*
X7083675Y-15285484D02*
X7064627Y-15275960D01*
X7064627Y-15275960D02*
X7055104Y-15266436D01*
X7245580Y-15085484D02*
X7245580Y-15123579D01*
X7321770Y-15085484D02*
X7321770Y-15123579D01*
X7617008Y-15361674D02*
X7607485Y-15352150D01*
X7607485Y-15352150D02*
X7588437Y-15323579D01*
X7588437Y-15323579D02*
X7578913Y-15304531D01*
X7578913Y-15304531D02*
X7569389Y-15275960D01*
X7569389Y-15275960D02*
X7559866Y-15228341D01*
X7559866Y-15228341D02*
X7559866Y-15190246D01*
X7559866Y-15190246D02*
X7569389Y-15142627D01*
X7569389Y-15142627D02*
X7578913Y-15114055D01*
X7578913Y-15114055D02*
X7588437Y-15095008D01*
X7588437Y-15095008D02*
X7607485Y-15066436D01*
X7607485Y-15066436D02*
X7617008Y-15056912D01*
X7778913Y-15085484D02*
X7740818Y-15085484D01*
X7740818Y-15085484D02*
X7721770Y-15095008D01*
X7721770Y-15095008D02*
X7712246Y-15104531D01*
X7712246Y-15104531D02*
X7693199Y-15133103D01*
X7693199Y-15133103D02*
X7683675Y-15171198D01*
X7683675Y-15171198D02*
X7683675Y-15247388D01*
X7683675Y-15247388D02*
X7693199Y-15266436D01*
X7693199Y-15266436D02*
X7702723Y-15275960D01*
X7702723Y-15275960D02*
X7721770Y-15285484D01*
X7721770Y-15285484D02*
X7759866Y-15285484D01*
X7759866Y-15285484D02*
X7778913Y-15275960D01*
X7778913Y-15275960D02*
X7788437Y-15266436D01*
X7788437Y-15266436D02*
X7797961Y-15247388D01*
X7797961Y-15247388D02*
X7797961Y-15199769D01*
X7797961Y-15199769D02*
X7788437Y-15180722D01*
X7788437Y-15180722D02*
X7778913Y-15171198D01*
X7778913Y-15171198D02*
X7759866Y-15161674D01*
X7759866Y-15161674D02*
X7721770Y-15161674D01*
X7721770Y-15161674D02*
X7702723Y-15171198D01*
X7702723Y-15171198D02*
X7693199Y-15180722D01*
X7693199Y-15180722D02*
X7683675Y-15199769D01*
X7912246Y-15171198D02*
X7893199Y-15161674D01*
X7893199Y-15161674D02*
X7883675Y-15152150D01*
X7883675Y-15152150D02*
X7874151Y-15133103D01*
X7874151Y-15133103D02*
X7874151Y-15123579D01*
X7874151Y-15123579D02*
X7883675Y-15104531D01*
X7883675Y-15104531D02*
X7893199Y-15095008D01*
X7893199Y-15095008D02*
X7912246Y-15085484D01*
X7912246Y-15085484D02*
X7950342Y-15085484D01*
X7950342Y-15085484D02*
X7969389Y-15095008D01*
X7969389Y-15095008D02*
X7978913Y-15104531D01*
X7978913Y-15104531D02*
X7988437Y-15123579D01*
X7988437Y-15123579D02*
X7988437Y-15133103D01*
X7988437Y-15133103D02*
X7978913Y-15152150D01*
X7978913Y-15152150D02*
X7969389Y-15161674D01*
X7969389Y-15161674D02*
X7950342Y-15171198D01*
X7950342Y-15171198D02*
X7912246Y-15171198D01*
X7912246Y-15171198D02*
X7893199Y-15180722D01*
X7893199Y-15180722D02*
X7883675Y-15190246D01*
X7883675Y-15190246D02*
X7874151Y-15209293D01*
X7874151Y-15209293D02*
X7874151Y-15247388D01*
X7874151Y-15247388D02*
X7883675Y-15266436D01*
X7883675Y-15266436D02*
X7893199Y-15275960D01*
X7893199Y-15275960D02*
X7912246Y-15285484D01*
X7912246Y-15285484D02*
X7950342Y-15285484D01*
X7950342Y-15285484D02*
X7969389Y-15275960D01*
X7969389Y-15275960D02*
X7978913Y-15266436D01*
X7978913Y-15266436D02*
X7988437Y-15247388D01*
X7988437Y-15247388D02*
X7988437Y-15209293D01*
X7988437Y-15209293D02*
X7978913Y-15190246D01*
X7978913Y-15190246D02*
X7969389Y-15180722D01*
X7969389Y-15180722D02*
X7950342Y-15171198D01*
X8226532Y-15285484D02*
X8226532Y-15085484D01*
X8312247Y-15285484D02*
X8312247Y-15180722D01*
X8312247Y-15180722D02*
X8302723Y-15161674D01*
X8302723Y-15161674D02*
X8283675Y-15152150D01*
X8283675Y-15152150D02*
X8255104Y-15152150D01*
X8255104Y-15152150D02*
X8236056Y-15161674D01*
X8236056Y-15161674D02*
X8226532Y-15171198D01*
X8436056Y-15285484D02*
X8417009Y-15275960D01*
X8417009Y-15275960D02*
X8407485Y-15266436D01*
X8407485Y-15266436D02*
X8397961Y-15247388D01*
X8397961Y-15247388D02*
X8397961Y-15190246D01*
X8397961Y-15190246D02*
X8407485Y-15171198D01*
X8407485Y-15171198D02*
X8417009Y-15161674D01*
X8417009Y-15161674D02*
X8436056Y-15152150D01*
X8436056Y-15152150D02*
X8464628Y-15152150D01*
X8464628Y-15152150D02*
X8483675Y-15161674D01*
X8483675Y-15161674D02*
X8493199Y-15171198D01*
X8493199Y-15171198D02*
X8502723Y-15190246D01*
X8502723Y-15190246D02*
X8502723Y-15247388D01*
X8502723Y-15247388D02*
X8493199Y-15266436D01*
X8493199Y-15266436D02*
X8483675Y-15275960D01*
X8483675Y-15275960D02*
X8464628Y-15285484D01*
X8464628Y-15285484D02*
X8436056Y-15285484D01*
X8617009Y-15285484D02*
X8597961Y-15275960D01*
X8597961Y-15275960D02*
X8588437Y-15256912D01*
X8588437Y-15256912D02*
X8588437Y-15085484D01*
X8769390Y-15275960D02*
X8750342Y-15285484D01*
X8750342Y-15285484D02*
X8712247Y-15285484D01*
X8712247Y-15285484D02*
X8693199Y-15275960D01*
X8693199Y-15275960D02*
X8683675Y-15256912D01*
X8683675Y-15256912D02*
X8683675Y-15180722D01*
X8683675Y-15180722D02*
X8693199Y-15161674D01*
X8693199Y-15161674D02*
X8712247Y-15152150D01*
X8712247Y-15152150D02*
X8750342Y-15152150D01*
X8750342Y-15152150D02*
X8769390Y-15161674D01*
X8769390Y-15161674D02*
X8778913Y-15180722D01*
X8778913Y-15180722D02*
X8778913Y-15199769D01*
X8778913Y-15199769D02*
X8683675Y-15218817D01*
X8855104Y-15275960D02*
X8874151Y-15285484D01*
X8874151Y-15285484D02*
X8912247Y-15285484D01*
X8912247Y-15285484D02*
X8931294Y-15275960D01*
X8931294Y-15275960D02*
X8940818Y-15256912D01*
X8940818Y-15256912D02*
X8940818Y-15247388D01*
X8940818Y-15247388D02*
X8931294Y-15228341D01*
X8931294Y-15228341D02*
X8912247Y-15218817D01*
X8912247Y-15218817D02*
X8883675Y-15218817D01*
X8883675Y-15218817D02*
X8864628Y-15209293D01*
X8864628Y-15209293D02*
X8855104Y-15190246D01*
X8855104Y-15190246D02*
X8855104Y-15180722D01*
X8855104Y-15180722D02*
X8864628Y-15161674D01*
X8864628Y-15161674D02*
X8883675Y-15152150D01*
X8883675Y-15152150D02*
X8912247Y-15152150D01*
X8912247Y-15152150D02*
X8931294Y-15161674D01*
X9007485Y-15361674D02*
X9017009Y-15352150D01*
X9017009Y-15352150D02*
X9036056Y-15323579D01*
X9036056Y-15323579D02*
X9045580Y-15304531D01*
X9045580Y-15304531D02*
X9055104Y-15275960D01*
X9055104Y-15275960D02*
X9064628Y-15228341D01*
X9064628Y-15228341D02*
X9064628Y-15190246D01*
X9064628Y-15190246D02*
X9055104Y-15142627D01*
X9055104Y-15142627D02*
X9045580Y-15114055D01*
X9045580Y-15114055D02*
X9036056Y-15095008D01*
X9036056Y-15095008D02*
X9017009Y-15066436D01*
X9017009Y-15066436D02*
X9007485Y-15056912D01*
D13*
X3987336Y-15403390D02*
X3987336Y-15512610D01*
X3932726Y-15458000D02*
X4041946Y-15458000D01*
D11*
X4407484Y-15549484D02*
X4293199Y-15549484D01*
X4350341Y-15549484D02*
X4350341Y-15349484D01*
X4350341Y-15349484D02*
X4331294Y-15378055D01*
X4331294Y-15378055D02*
X4312246Y-15397103D01*
X4312246Y-15397103D02*
X4293199Y-15406627D01*
X4493199Y-15530436D02*
X4502722Y-15539960D01*
X4502722Y-15539960D02*
X4493199Y-15549484D01*
X4493199Y-15549484D02*
X4483675Y-15539960D01*
X4483675Y-15539960D02*
X4493199Y-15530436D01*
X4493199Y-15530436D02*
X4493199Y-15549484D01*
X4626532Y-15349484D02*
X4645580Y-15349484D01*
X4645580Y-15349484D02*
X4664627Y-15359008D01*
X4664627Y-15359008D02*
X4674151Y-15368531D01*
X4674151Y-15368531D02*
X4683675Y-15387579D01*
X4683675Y-15387579D02*
X4693199Y-15425674D01*
X4693199Y-15425674D02*
X4693199Y-15473293D01*
X4693199Y-15473293D02*
X4683675Y-15511388D01*
X4683675Y-15511388D02*
X4674151Y-15530436D01*
X4674151Y-15530436D02*
X4664627Y-15539960D01*
X4664627Y-15539960D02*
X4645580Y-15549484D01*
X4645580Y-15549484D02*
X4626532Y-15549484D01*
X4626532Y-15549484D02*
X4607484Y-15539960D01*
X4607484Y-15539960D02*
X4597961Y-15530436D01*
X4597961Y-15530436D02*
X4588437Y-15511388D01*
X4588437Y-15511388D02*
X4578913Y-15473293D01*
X4578913Y-15473293D02*
X4578913Y-15425674D01*
X4578913Y-15425674D02*
X4588437Y-15387579D01*
X4588437Y-15387579D02*
X4597961Y-15368531D01*
X4597961Y-15368531D02*
X4607484Y-15359008D01*
X4607484Y-15359008D02*
X4626532Y-15349484D01*
X4788437Y-15549484D02*
X4826532Y-15549484D01*
X4826532Y-15549484D02*
X4845580Y-15539960D01*
X4845580Y-15539960D02*
X4855103Y-15530436D01*
X4855103Y-15530436D02*
X4874151Y-15501865D01*
X4874151Y-15501865D02*
X4883675Y-15463769D01*
X4883675Y-15463769D02*
X4883675Y-15387579D01*
X4883675Y-15387579D02*
X4874151Y-15368531D01*
X4874151Y-15368531D02*
X4864627Y-15359008D01*
X4864627Y-15359008D02*
X4845580Y-15349484D01*
X4845580Y-15349484D02*
X4807484Y-15349484D01*
X4807484Y-15349484D02*
X4788437Y-15359008D01*
X4788437Y-15359008D02*
X4778913Y-15368531D01*
X4778913Y-15368531D02*
X4769389Y-15387579D01*
X4769389Y-15387579D02*
X4769389Y-15435198D01*
X4769389Y-15435198D02*
X4778913Y-15454246D01*
X4778913Y-15454246D02*
X4788437Y-15463769D01*
X4788437Y-15463769D02*
X4807484Y-15473293D01*
X4807484Y-15473293D02*
X4845580Y-15473293D01*
X4845580Y-15473293D02*
X4864627Y-15463769D01*
X4864627Y-15463769D02*
X4874151Y-15454246D01*
X4874151Y-15454246D02*
X4883675Y-15435198D01*
X4959865Y-15368531D02*
X4969389Y-15359008D01*
X4969389Y-15359008D02*
X4988437Y-15349484D01*
X4988437Y-15349484D02*
X5036056Y-15349484D01*
X5036056Y-15349484D02*
X5055103Y-15359008D01*
X5055103Y-15359008D02*
X5064627Y-15368531D01*
X5064627Y-15368531D02*
X5074151Y-15387579D01*
X5074151Y-15387579D02*
X5074151Y-15406627D01*
X5074151Y-15406627D02*
X5064627Y-15435198D01*
X5064627Y-15435198D02*
X4950342Y-15549484D01*
X4950342Y-15549484D02*
X5074151Y-15549484D01*
X5159865Y-15549484D02*
X5159865Y-15416150D01*
X5159865Y-15435198D02*
X5169389Y-15425674D01*
X5169389Y-15425674D02*
X5188437Y-15416150D01*
X5188437Y-15416150D02*
X5217008Y-15416150D01*
X5217008Y-15416150D02*
X5236056Y-15425674D01*
X5236056Y-15425674D02*
X5245580Y-15444722D01*
X5245580Y-15444722D02*
X5245580Y-15549484D01*
X5245580Y-15444722D02*
X5255103Y-15425674D01*
X5255103Y-15425674D02*
X5274151Y-15416150D01*
X5274151Y-15416150D02*
X5302722Y-15416150D01*
X5302722Y-15416150D02*
X5321770Y-15425674D01*
X5321770Y-15425674D02*
X5331294Y-15444722D01*
X5331294Y-15444722D02*
X5331294Y-15549484D01*
X5426532Y-15549484D02*
X5426532Y-15416150D01*
X5426532Y-15435198D02*
X5436056Y-15425674D01*
X5436056Y-15425674D02*
X5455103Y-15416150D01*
X5455103Y-15416150D02*
X5483675Y-15416150D01*
X5483675Y-15416150D02*
X5502723Y-15425674D01*
X5502723Y-15425674D02*
X5512246Y-15444722D01*
X5512246Y-15444722D02*
X5512246Y-15549484D01*
X5512246Y-15444722D02*
X5521770Y-15425674D01*
X5521770Y-15425674D02*
X5540818Y-15416150D01*
X5540818Y-15416150D02*
X5569389Y-15416150D01*
X5569389Y-15416150D02*
X5588437Y-15425674D01*
X5588437Y-15425674D02*
X5597961Y-15444722D01*
X5597961Y-15444722D02*
X5597961Y-15549484D01*
X5988437Y-15339960D02*
X5817008Y-15597103D01*
X6245580Y-15349484D02*
X6264627Y-15349484D01*
X6264627Y-15349484D02*
X6283675Y-15359008D01*
X6283675Y-15359008D02*
X6293199Y-15368531D01*
X6293199Y-15368531D02*
X6302723Y-15387579D01*
X6302723Y-15387579D02*
X6312246Y-15425674D01*
X6312246Y-15425674D02*
X6312246Y-15473293D01*
X6312246Y-15473293D02*
X6302723Y-15511388D01*
X6302723Y-15511388D02*
X6293199Y-15530436D01*
X6293199Y-15530436D02*
X6283675Y-15539960D01*
X6283675Y-15539960D02*
X6264627Y-15549484D01*
X6264627Y-15549484D02*
X6245580Y-15549484D01*
X6245580Y-15549484D02*
X6226532Y-15539960D01*
X6226532Y-15539960D02*
X6217008Y-15530436D01*
X6217008Y-15530436D02*
X6207484Y-15511388D01*
X6207484Y-15511388D02*
X6197961Y-15473293D01*
X6197961Y-15473293D02*
X6197961Y-15425674D01*
X6197961Y-15425674D02*
X6207484Y-15387579D01*
X6207484Y-15387579D02*
X6217008Y-15368531D01*
X6217008Y-15368531D02*
X6226532Y-15359008D01*
X6226532Y-15359008D02*
X6245580Y-15349484D01*
X6397961Y-15530436D02*
X6407484Y-15539960D01*
X6407484Y-15539960D02*
X6397961Y-15549484D01*
X6397961Y-15549484D02*
X6388437Y-15539960D01*
X6388437Y-15539960D02*
X6397961Y-15530436D01*
X6397961Y-15530436D02*
X6397961Y-15549484D01*
X6531294Y-15349484D02*
X6550342Y-15349484D01*
X6550342Y-15349484D02*
X6569389Y-15359008D01*
X6569389Y-15359008D02*
X6578913Y-15368531D01*
X6578913Y-15368531D02*
X6588437Y-15387579D01*
X6588437Y-15387579D02*
X6597961Y-15425674D01*
X6597961Y-15425674D02*
X6597961Y-15473293D01*
X6597961Y-15473293D02*
X6588437Y-15511388D01*
X6588437Y-15511388D02*
X6578913Y-15530436D01*
X6578913Y-15530436D02*
X6569389Y-15539960D01*
X6569389Y-15539960D02*
X6550342Y-15549484D01*
X6550342Y-15549484D02*
X6531294Y-15549484D01*
X6531294Y-15549484D02*
X6512246Y-15539960D01*
X6512246Y-15539960D02*
X6502723Y-15530436D01*
X6502723Y-15530436D02*
X6493199Y-15511388D01*
X6493199Y-15511388D02*
X6483675Y-15473293D01*
X6483675Y-15473293D02*
X6483675Y-15425674D01*
X6483675Y-15425674D02*
X6493199Y-15387579D01*
X6493199Y-15387579D02*
X6502723Y-15368531D01*
X6502723Y-15368531D02*
X6512246Y-15359008D01*
X6512246Y-15359008D02*
X6531294Y-15349484D01*
X6769389Y-15416150D02*
X6769389Y-15549484D01*
X6721770Y-15339960D02*
X6674151Y-15482817D01*
X6674151Y-15482817D02*
X6797961Y-15482817D01*
X6855104Y-15349484D02*
X6978913Y-15349484D01*
X6978913Y-15349484D02*
X6912246Y-15425674D01*
X6912246Y-15425674D02*
X6940818Y-15425674D01*
X6940818Y-15425674D02*
X6959865Y-15435198D01*
X6959865Y-15435198D02*
X6969389Y-15444722D01*
X6969389Y-15444722D02*
X6978913Y-15463769D01*
X6978913Y-15463769D02*
X6978913Y-15511388D01*
X6978913Y-15511388D02*
X6969389Y-15530436D01*
X6969389Y-15530436D02*
X6959865Y-15539960D01*
X6959865Y-15539960D02*
X6940818Y-15549484D01*
X6940818Y-15549484D02*
X6883675Y-15549484D01*
X6883675Y-15549484D02*
X6864627Y-15539960D01*
X6864627Y-15539960D02*
X6855104Y-15530436D01*
X7102723Y-15349484D02*
X7121770Y-15349484D01*
X7121770Y-15349484D02*
X7140818Y-15359008D01*
X7140818Y-15359008D02*
X7150342Y-15368531D01*
X7150342Y-15368531D02*
X7159865Y-15387579D01*
X7159865Y-15387579D02*
X7169389Y-15425674D01*
X7169389Y-15425674D02*
X7169389Y-15473293D01*
X7169389Y-15473293D02*
X7159865Y-15511388D01*
X7159865Y-15511388D02*
X7150342Y-15530436D01*
X7150342Y-15530436D02*
X7140818Y-15539960D01*
X7140818Y-15539960D02*
X7121770Y-15549484D01*
X7121770Y-15549484D02*
X7102723Y-15549484D01*
X7102723Y-15549484D02*
X7083675Y-15539960D01*
X7083675Y-15539960D02*
X7074151Y-15530436D01*
X7074151Y-15530436D02*
X7064627Y-15511388D01*
X7064627Y-15511388D02*
X7055104Y-15473293D01*
X7055104Y-15473293D02*
X7055104Y-15425674D01*
X7055104Y-15425674D02*
X7064627Y-15387579D01*
X7064627Y-15387579D02*
X7074151Y-15368531D01*
X7074151Y-15368531D02*
X7083675Y-15359008D01*
X7083675Y-15359008D02*
X7102723Y-15349484D01*
X7245580Y-15349484D02*
X7245580Y-15387579D01*
X7321770Y-15349484D02*
X7321770Y-15387579D01*
X7617008Y-15625674D02*
X7607485Y-15616150D01*
X7607485Y-15616150D02*
X7588437Y-15587579D01*
X7588437Y-15587579D02*
X7578913Y-15568531D01*
X7578913Y-15568531D02*
X7569389Y-15539960D01*
X7569389Y-15539960D02*
X7559866Y-15492341D01*
X7559866Y-15492341D02*
X7559866Y-15454246D01*
X7559866Y-15454246D02*
X7569389Y-15406627D01*
X7569389Y-15406627D02*
X7578913Y-15378055D01*
X7578913Y-15378055D02*
X7588437Y-15359008D01*
X7588437Y-15359008D02*
X7607485Y-15330436D01*
X7607485Y-15330436D02*
X7617008Y-15320912D01*
X7683675Y-15368531D02*
X7693199Y-15359008D01*
X7693199Y-15359008D02*
X7712246Y-15349484D01*
X7712246Y-15349484D02*
X7759866Y-15349484D01*
X7759866Y-15349484D02*
X7778913Y-15359008D01*
X7778913Y-15359008D02*
X7788437Y-15368531D01*
X7788437Y-15368531D02*
X7797961Y-15387579D01*
X7797961Y-15387579D02*
X7797961Y-15406627D01*
X7797961Y-15406627D02*
X7788437Y-15435198D01*
X7788437Y-15435198D02*
X7674151Y-15549484D01*
X7674151Y-15549484D02*
X7797961Y-15549484D01*
X7969389Y-15416150D02*
X7969389Y-15549484D01*
X7921770Y-15339960D02*
X7874151Y-15482817D01*
X7874151Y-15482817D02*
X7997961Y-15482817D01*
X8226532Y-15549484D02*
X8226532Y-15349484D01*
X8312247Y-15549484D02*
X8312247Y-15444722D01*
X8312247Y-15444722D02*
X8302723Y-15425674D01*
X8302723Y-15425674D02*
X8283675Y-15416150D01*
X8283675Y-15416150D02*
X8255104Y-15416150D01*
X8255104Y-15416150D02*
X8236056Y-15425674D01*
X8236056Y-15425674D02*
X8226532Y-15435198D01*
X8436056Y-15549484D02*
X8417009Y-15539960D01*
X8417009Y-15539960D02*
X8407485Y-15530436D01*
X8407485Y-15530436D02*
X8397961Y-15511388D01*
X8397961Y-15511388D02*
X8397961Y-15454246D01*
X8397961Y-15454246D02*
X8407485Y-15435198D01*
X8407485Y-15435198D02*
X8417009Y-15425674D01*
X8417009Y-15425674D02*
X8436056Y-15416150D01*
X8436056Y-15416150D02*
X8464628Y-15416150D01*
X8464628Y-15416150D02*
X8483675Y-15425674D01*
X8483675Y-15425674D02*
X8493199Y-15435198D01*
X8493199Y-15435198D02*
X8502723Y-15454246D01*
X8502723Y-15454246D02*
X8502723Y-15511388D01*
X8502723Y-15511388D02*
X8493199Y-15530436D01*
X8493199Y-15530436D02*
X8483675Y-15539960D01*
X8483675Y-15539960D02*
X8464628Y-15549484D01*
X8464628Y-15549484D02*
X8436056Y-15549484D01*
X8617009Y-15549484D02*
X8597961Y-15539960D01*
X8597961Y-15539960D02*
X8588437Y-15520912D01*
X8588437Y-15520912D02*
X8588437Y-15349484D01*
X8769390Y-15539960D02*
X8750342Y-15549484D01*
X8750342Y-15549484D02*
X8712247Y-15549484D01*
X8712247Y-15549484D02*
X8693199Y-15539960D01*
X8693199Y-15539960D02*
X8683675Y-15520912D01*
X8683675Y-15520912D02*
X8683675Y-15444722D01*
X8683675Y-15444722D02*
X8693199Y-15425674D01*
X8693199Y-15425674D02*
X8712247Y-15416150D01*
X8712247Y-15416150D02*
X8750342Y-15416150D01*
X8750342Y-15416150D02*
X8769390Y-15425674D01*
X8769390Y-15425674D02*
X8778913Y-15444722D01*
X8778913Y-15444722D02*
X8778913Y-15463769D01*
X8778913Y-15463769D02*
X8683675Y-15482817D01*
X8855104Y-15539960D02*
X8874151Y-15549484D01*
X8874151Y-15549484D02*
X8912247Y-15549484D01*
X8912247Y-15549484D02*
X8931294Y-15539960D01*
X8931294Y-15539960D02*
X8940818Y-15520912D01*
X8940818Y-15520912D02*
X8940818Y-15511388D01*
X8940818Y-15511388D02*
X8931294Y-15492341D01*
X8931294Y-15492341D02*
X8912247Y-15482817D01*
X8912247Y-15482817D02*
X8883675Y-15482817D01*
X8883675Y-15482817D02*
X8864628Y-15473293D01*
X8864628Y-15473293D02*
X8855104Y-15454246D01*
X8855104Y-15454246D02*
X8855104Y-15444722D01*
X8855104Y-15444722D02*
X8864628Y-15425674D01*
X8864628Y-15425674D02*
X8883675Y-15416150D01*
X8883675Y-15416150D02*
X8912247Y-15416150D01*
X8912247Y-15416150D02*
X8931294Y-15425674D01*
X9007485Y-15625674D02*
X9017009Y-15616150D01*
X9017009Y-15616150D02*
X9036056Y-15587579D01*
X9036056Y-15587579D02*
X9045580Y-15568531D01*
X9045580Y-15568531D02*
X9055104Y-15539960D01*
X9055104Y-15539960D02*
X9064628Y-15492341D01*
X9064628Y-15492341D02*
X9064628Y-15454246D01*
X9064628Y-15454246D02*
X9055104Y-15406627D01*
X9055104Y-15406627D02*
X9045580Y-15378055D01*
X9045580Y-15378055D02*
X9036056Y-15359008D01*
X9036056Y-15359008D02*
X9017009Y-15330436D01*
X9017009Y-15330436D02*
X9007485Y-15320912D01*
D14*
X4019979Y-15775033D02*
X4019979Y-15668966D01*
X3913912Y-15668966D01*
X3913912Y-15775033D01*
X4019979Y-15775033D01*
D11*
X4407484Y-15813484D02*
X4293199Y-15813484D01*
X4350341Y-15813484D02*
X4350341Y-15613484D01*
X4350341Y-15613484D02*
X4331294Y-15642055D01*
X4331294Y-15642055D02*
X4312246Y-15661103D01*
X4312246Y-15661103D02*
X4293199Y-15670627D01*
X4493199Y-15794436D02*
X4502722Y-15803960D01*
X4502722Y-15803960D02*
X4493199Y-15813484D01*
X4493199Y-15813484D02*
X4483675Y-15803960D01*
X4483675Y-15803960D02*
X4493199Y-15794436D01*
X4493199Y-15794436D02*
X4493199Y-15813484D01*
X4683675Y-15613484D02*
X4588437Y-15613484D01*
X4588437Y-15613484D02*
X4578913Y-15708722D01*
X4578913Y-15708722D02*
X4588437Y-15699198D01*
X4588437Y-15699198D02*
X4607484Y-15689674D01*
X4607484Y-15689674D02*
X4655103Y-15689674D01*
X4655103Y-15689674D02*
X4674151Y-15699198D01*
X4674151Y-15699198D02*
X4683675Y-15708722D01*
X4683675Y-15708722D02*
X4693199Y-15727769D01*
X4693199Y-15727769D02*
X4693199Y-15775388D01*
X4693199Y-15775388D02*
X4683675Y-15794436D01*
X4683675Y-15794436D02*
X4674151Y-15803960D01*
X4674151Y-15803960D02*
X4655103Y-15813484D01*
X4655103Y-15813484D02*
X4607484Y-15813484D01*
X4607484Y-15813484D02*
X4588437Y-15803960D01*
X4588437Y-15803960D02*
X4578913Y-15794436D01*
X4817008Y-15613484D02*
X4836056Y-15613484D01*
X4836056Y-15613484D02*
X4855103Y-15623008D01*
X4855103Y-15623008D02*
X4864627Y-15632531D01*
X4864627Y-15632531D02*
X4874151Y-15651579D01*
X4874151Y-15651579D02*
X4883675Y-15689674D01*
X4883675Y-15689674D02*
X4883675Y-15737293D01*
X4883675Y-15737293D02*
X4874151Y-15775388D01*
X4874151Y-15775388D02*
X4864627Y-15794436D01*
X4864627Y-15794436D02*
X4855103Y-15803960D01*
X4855103Y-15803960D02*
X4836056Y-15813484D01*
X4836056Y-15813484D02*
X4817008Y-15813484D01*
X4817008Y-15813484D02*
X4797961Y-15803960D01*
X4797961Y-15803960D02*
X4788437Y-15794436D01*
X4788437Y-15794436D02*
X4778913Y-15775388D01*
X4778913Y-15775388D02*
X4769389Y-15737293D01*
X4769389Y-15737293D02*
X4769389Y-15689674D01*
X4769389Y-15689674D02*
X4778913Y-15651579D01*
X4778913Y-15651579D02*
X4788437Y-15632531D01*
X4788437Y-15632531D02*
X4797961Y-15623008D01*
X4797961Y-15623008D02*
X4817008Y-15613484D01*
X5007484Y-15613484D02*
X5026532Y-15613484D01*
X5026532Y-15613484D02*
X5045580Y-15623008D01*
X5045580Y-15623008D02*
X5055103Y-15632531D01*
X5055103Y-15632531D02*
X5064627Y-15651579D01*
X5064627Y-15651579D02*
X5074151Y-15689674D01*
X5074151Y-15689674D02*
X5074151Y-15737293D01*
X5074151Y-15737293D02*
X5064627Y-15775388D01*
X5064627Y-15775388D02*
X5055103Y-15794436D01*
X5055103Y-15794436D02*
X5045580Y-15803960D01*
X5045580Y-15803960D02*
X5026532Y-15813484D01*
X5026532Y-15813484D02*
X5007484Y-15813484D01*
X5007484Y-15813484D02*
X4988437Y-15803960D01*
X4988437Y-15803960D02*
X4978913Y-15794436D01*
X4978913Y-15794436D02*
X4969389Y-15775388D01*
X4969389Y-15775388D02*
X4959865Y-15737293D01*
X4959865Y-15737293D02*
X4959865Y-15689674D01*
X4959865Y-15689674D02*
X4969389Y-15651579D01*
X4969389Y-15651579D02*
X4978913Y-15632531D01*
X4978913Y-15632531D02*
X4988437Y-15623008D01*
X4988437Y-15623008D02*
X5007484Y-15613484D01*
X5159865Y-15813484D02*
X5159865Y-15680150D01*
X5159865Y-15699198D02*
X5169389Y-15689674D01*
X5169389Y-15689674D02*
X5188437Y-15680150D01*
X5188437Y-15680150D02*
X5217008Y-15680150D01*
X5217008Y-15680150D02*
X5236056Y-15689674D01*
X5236056Y-15689674D02*
X5245580Y-15708722D01*
X5245580Y-15708722D02*
X5245580Y-15813484D01*
X5245580Y-15708722D02*
X5255103Y-15689674D01*
X5255103Y-15689674D02*
X5274151Y-15680150D01*
X5274151Y-15680150D02*
X5302722Y-15680150D01*
X5302722Y-15680150D02*
X5321770Y-15689674D01*
X5321770Y-15689674D02*
X5331294Y-15708722D01*
X5331294Y-15708722D02*
X5331294Y-15813484D01*
X5426532Y-15813484D02*
X5426532Y-15680150D01*
X5426532Y-15699198D02*
X5436056Y-15689674D01*
X5436056Y-15689674D02*
X5455103Y-15680150D01*
X5455103Y-15680150D02*
X5483675Y-15680150D01*
X5483675Y-15680150D02*
X5502723Y-15689674D01*
X5502723Y-15689674D02*
X5512246Y-15708722D01*
X5512246Y-15708722D02*
X5512246Y-15813484D01*
X5512246Y-15708722D02*
X5521770Y-15689674D01*
X5521770Y-15689674D02*
X5540818Y-15680150D01*
X5540818Y-15680150D02*
X5569389Y-15680150D01*
X5569389Y-15680150D02*
X5588437Y-15689674D01*
X5588437Y-15689674D02*
X5597961Y-15708722D01*
X5597961Y-15708722D02*
X5597961Y-15813484D01*
X5988437Y-15603960D02*
X5817008Y-15861103D01*
X6245580Y-15613484D02*
X6264627Y-15613484D01*
X6264627Y-15613484D02*
X6283675Y-15623008D01*
X6283675Y-15623008D02*
X6293199Y-15632531D01*
X6293199Y-15632531D02*
X6302723Y-15651579D01*
X6302723Y-15651579D02*
X6312246Y-15689674D01*
X6312246Y-15689674D02*
X6312246Y-15737293D01*
X6312246Y-15737293D02*
X6302723Y-15775388D01*
X6302723Y-15775388D02*
X6293199Y-15794436D01*
X6293199Y-15794436D02*
X6283675Y-15803960D01*
X6283675Y-15803960D02*
X6264627Y-15813484D01*
X6264627Y-15813484D02*
X6245580Y-15813484D01*
X6245580Y-15813484D02*
X6226532Y-15803960D01*
X6226532Y-15803960D02*
X6217008Y-15794436D01*
X6217008Y-15794436D02*
X6207484Y-15775388D01*
X6207484Y-15775388D02*
X6197961Y-15737293D01*
X6197961Y-15737293D02*
X6197961Y-15689674D01*
X6197961Y-15689674D02*
X6207484Y-15651579D01*
X6207484Y-15651579D02*
X6217008Y-15632531D01*
X6217008Y-15632531D02*
X6226532Y-15623008D01*
X6226532Y-15623008D02*
X6245580Y-15613484D01*
X6397961Y-15794436D02*
X6407484Y-15803960D01*
X6407484Y-15803960D02*
X6397961Y-15813484D01*
X6397961Y-15813484D02*
X6388437Y-15803960D01*
X6388437Y-15803960D02*
X6397961Y-15794436D01*
X6397961Y-15794436D02*
X6397961Y-15813484D01*
X6531294Y-15613484D02*
X6550342Y-15613484D01*
X6550342Y-15613484D02*
X6569389Y-15623008D01*
X6569389Y-15623008D02*
X6578913Y-15632531D01*
X6578913Y-15632531D02*
X6588437Y-15651579D01*
X6588437Y-15651579D02*
X6597961Y-15689674D01*
X6597961Y-15689674D02*
X6597961Y-15737293D01*
X6597961Y-15737293D02*
X6588437Y-15775388D01*
X6588437Y-15775388D02*
X6578913Y-15794436D01*
X6578913Y-15794436D02*
X6569389Y-15803960D01*
X6569389Y-15803960D02*
X6550342Y-15813484D01*
X6550342Y-15813484D02*
X6531294Y-15813484D01*
X6531294Y-15813484D02*
X6512246Y-15803960D01*
X6512246Y-15803960D02*
X6502723Y-15794436D01*
X6502723Y-15794436D02*
X6493199Y-15775388D01*
X6493199Y-15775388D02*
X6483675Y-15737293D01*
X6483675Y-15737293D02*
X6483675Y-15689674D01*
X6483675Y-15689674D02*
X6493199Y-15651579D01*
X6493199Y-15651579D02*
X6502723Y-15632531D01*
X6502723Y-15632531D02*
X6512246Y-15623008D01*
X6512246Y-15623008D02*
X6531294Y-15613484D01*
X6778913Y-15613484D02*
X6683675Y-15613484D01*
X6683675Y-15613484D02*
X6674151Y-15708722D01*
X6674151Y-15708722D02*
X6683675Y-15699198D01*
X6683675Y-15699198D02*
X6702723Y-15689674D01*
X6702723Y-15689674D02*
X6750342Y-15689674D01*
X6750342Y-15689674D02*
X6769389Y-15699198D01*
X6769389Y-15699198D02*
X6778913Y-15708722D01*
X6778913Y-15708722D02*
X6788437Y-15727769D01*
X6788437Y-15727769D02*
X6788437Y-15775388D01*
X6788437Y-15775388D02*
X6778913Y-15794436D01*
X6778913Y-15794436D02*
X6769389Y-15803960D01*
X6769389Y-15803960D02*
X6750342Y-15813484D01*
X6750342Y-15813484D02*
X6702723Y-15813484D01*
X6702723Y-15813484D02*
X6683675Y-15803960D01*
X6683675Y-15803960D02*
X6674151Y-15794436D01*
X6883675Y-15813484D02*
X6921770Y-15813484D01*
X6921770Y-15813484D02*
X6940818Y-15803960D01*
X6940818Y-15803960D02*
X6950342Y-15794436D01*
X6950342Y-15794436D02*
X6969389Y-15765865D01*
X6969389Y-15765865D02*
X6978913Y-15727769D01*
X6978913Y-15727769D02*
X6978913Y-15651579D01*
X6978913Y-15651579D02*
X6969389Y-15632531D01*
X6969389Y-15632531D02*
X6959865Y-15623008D01*
X6959865Y-15623008D02*
X6940818Y-15613484D01*
X6940818Y-15613484D02*
X6902723Y-15613484D01*
X6902723Y-15613484D02*
X6883675Y-15623008D01*
X6883675Y-15623008D02*
X6874151Y-15632531D01*
X6874151Y-15632531D02*
X6864627Y-15651579D01*
X6864627Y-15651579D02*
X6864627Y-15699198D01*
X6864627Y-15699198D02*
X6874151Y-15718246D01*
X6874151Y-15718246D02*
X6883675Y-15727769D01*
X6883675Y-15727769D02*
X6902723Y-15737293D01*
X6902723Y-15737293D02*
X6940818Y-15737293D01*
X6940818Y-15737293D02*
X6959865Y-15727769D01*
X6959865Y-15727769D02*
X6969389Y-15718246D01*
X6969389Y-15718246D02*
X6978913Y-15699198D01*
X7169389Y-15813484D02*
X7055104Y-15813484D01*
X7112246Y-15813484D02*
X7112246Y-15613484D01*
X7112246Y-15613484D02*
X7093199Y-15642055D01*
X7093199Y-15642055D02*
X7074151Y-15661103D01*
X7074151Y-15661103D02*
X7055104Y-15670627D01*
X7245580Y-15613484D02*
X7245580Y-15651579D01*
X7321770Y-15613484D02*
X7321770Y-15651579D01*
X7617008Y-15889674D02*
X7607485Y-15880150D01*
X7607485Y-15880150D02*
X7588437Y-15851579D01*
X7588437Y-15851579D02*
X7578913Y-15832531D01*
X7578913Y-15832531D02*
X7569389Y-15803960D01*
X7569389Y-15803960D02*
X7559866Y-15756341D01*
X7559866Y-15756341D02*
X7559866Y-15718246D01*
X7559866Y-15718246D02*
X7569389Y-15670627D01*
X7569389Y-15670627D02*
X7578913Y-15642055D01*
X7578913Y-15642055D02*
X7588437Y-15623008D01*
X7588437Y-15623008D02*
X7607485Y-15594436D01*
X7607485Y-15594436D02*
X7617008Y-15584912D01*
X7778913Y-15613484D02*
X7740818Y-15613484D01*
X7740818Y-15613484D02*
X7721770Y-15623008D01*
X7721770Y-15623008D02*
X7712246Y-15632531D01*
X7712246Y-15632531D02*
X7693199Y-15661103D01*
X7693199Y-15661103D02*
X7683675Y-15699198D01*
X7683675Y-15699198D02*
X7683675Y-15775388D01*
X7683675Y-15775388D02*
X7693199Y-15794436D01*
X7693199Y-15794436D02*
X7702723Y-15803960D01*
X7702723Y-15803960D02*
X7721770Y-15813484D01*
X7721770Y-15813484D02*
X7759866Y-15813484D01*
X7759866Y-15813484D02*
X7778913Y-15803960D01*
X7778913Y-15803960D02*
X7788437Y-15794436D01*
X7788437Y-15794436D02*
X7797961Y-15775388D01*
X7797961Y-15775388D02*
X7797961Y-15727769D01*
X7797961Y-15727769D02*
X7788437Y-15708722D01*
X7788437Y-15708722D02*
X7778913Y-15699198D01*
X7778913Y-15699198D02*
X7759866Y-15689674D01*
X7759866Y-15689674D02*
X7721770Y-15689674D01*
X7721770Y-15689674D02*
X7702723Y-15699198D01*
X7702723Y-15699198D02*
X7693199Y-15708722D01*
X7693199Y-15708722D02*
X7683675Y-15727769D01*
X7912246Y-15699198D02*
X7893199Y-15689674D01*
X7893199Y-15689674D02*
X7883675Y-15680150D01*
X7883675Y-15680150D02*
X7874151Y-15661103D01*
X7874151Y-15661103D02*
X7874151Y-15651579D01*
X7874151Y-15651579D02*
X7883675Y-15632531D01*
X7883675Y-15632531D02*
X7893199Y-15623008D01*
X7893199Y-15623008D02*
X7912246Y-15613484D01*
X7912246Y-15613484D02*
X7950342Y-15613484D01*
X7950342Y-15613484D02*
X7969389Y-15623008D01*
X7969389Y-15623008D02*
X7978913Y-15632531D01*
X7978913Y-15632531D02*
X7988437Y-15651579D01*
X7988437Y-15651579D02*
X7988437Y-15661103D01*
X7988437Y-15661103D02*
X7978913Y-15680150D01*
X7978913Y-15680150D02*
X7969389Y-15689674D01*
X7969389Y-15689674D02*
X7950342Y-15699198D01*
X7950342Y-15699198D02*
X7912246Y-15699198D01*
X7912246Y-15699198D02*
X7893199Y-15708722D01*
X7893199Y-15708722D02*
X7883675Y-15718246D01*
X7883675Y-15718246D02*
X7874151Y-15737293D01*
X7874151Y-15737293D02*
X7874151Y-15775388D01*
X7874151Y-15775388D02*
X7883675Y-15794436D01*
X7883675Y-15794436D02*
X7893199Y-15803960D01*
X7893199Y-15803960D02*
X7912246Y-15813484D01*
X7912246Y-15813484D02*
X7950342Y-15813484D01*
X7950342Y-15813484D02*
X7969389Y-15803960D01*
X7969389Y-15803960D02*
X7978913Y-15794436D01*
X7978913Y-15794436D02*
X7988437Y-15775388D01*
X7988437Y-15775388D02*
X7988437Y-15737293D01*
X7988437Y-15737293D02*
X7978913Y-15718246D01*
X7978913Y-15718246D02*
X7969389Y-15708722D01*
X7969389Y-15708722D02*
X7950342Y-15699198D01*
X8226532Y-15813484D02*
X8226532Y-15613484D01*
X8312247Y-15813484D02*
X8312247Y-15708722D01*
X8312247Y-15708722D02*
X8302723Y-15689674D01*
X8302723Y-15689674D02*
X8283675Y-15680150D01*
X8283675Y-15680150D02*
X8255104Y-15680150D01*
X8255104Y-15680150D02*
X8236056Y-15689674D01*
X8236056Y-15689674D02*
X8226532Y-15699198D01*
X8436056Y-15813484D02*
X8417009Y-15803960D01*
X8417009Y-15803960D02*
X8407485Y-15794436D01*
X8407485Y-15794436D02*
X8397961Y-15775388D01*
X8397961Y-15775388D02*
X8397961Y-15718246D01*
X8397961Y-15718246D02*
X8407485Y-15699198D01*
X8407485Y-15699198D02*
X8417009Y-15689674D01*
X8417009Y-15689674D02*
X8436056Y-15680150D01*
X8436056Y-15680150D02*
X8464628Y-15680150D01*
X8464628Y-15680150D02*
X8483675Y-15689674D01*
X8483675Y-15689674D02*
X8493199Y-15699198D01*
X8493199Y-15699198D02*
X8502723Y-15718246D01*
X8502723Y-15718246D02*
X8502723Y-15775388D01*
X8502723Y-15775388D02*
X8493199Y-15794436D01*
X8493199Y-15794436D02*
X8483675Y-15803960D01*
X8483675Y-15803960D02*
X8464628Y-15813484D01*
X8464628Y-15813484D02*
X8436056Y-15813484D01*
X8617009Y-15813484D02*
X8597961Y-15803960D01*
X8597961Y-15803960D02*
X8588437Y-15784912D01*
X8588437Y-15784912D02*
X8588437Y-15613484D01*
X8769390Y-15803960D02*
X8750342Y-15813484D01*
X8750342Y-15813484D02*
X8712247Y-15813484D01*
X8712247Y-15813484D02*
X8693199Y-15803960D01*
X8693199Y-15803960D02*
X8683675Y-15784912D01*
X8683675Y-15784912D02*
X8683675Y-15708722D01*
X8683675Y-15708722D02*
X8693199Y-15689674D01*
X8693199Y-15689674D02*
X8712247Y-15680150D01*
X8712247Y-15680150D02*
X8750342Y-15680150D01*
X8750342Y-15680150D02*
X8769390Y-15689674D01*
X8769390Y-15689674D02*
X8778913Y-15708722D01*
X8778913Y-15708722D02*
X8778913Y-15727769D01*
X8778913Y-15727769D02*
X8683675Y-15746817D01*
X8855104Y-15803960D02*
X8874151Y-15813484D01*
X8874151Y-15813484D02*
X8912247Y-15813484D01*
X8912247Y-15813484D02*
X8931294Y-15803960D01*
X8931294Y-15803960D02*
X8940818Y-15784912D01*
X8940818Y-15784912D02*
X8940818Y-15775388D01*
X8940818Y-15775388D02*
X8931294Y-15756341D01*
X8931294Y-15756341D02*
X8912247Y-15746817D01*
X8912247Y-15746817D02*
X8883675Y-15746817D01*
X8883675Y-15746817D02*
X8864628Y-15737293D01*
X8864628Y-15737293D02*
X8855104Y-15718246D01*
X8855104Y-15718246D02*
X8855104Y-15708722D01*
X8855104Y-15708722D02*
X8864628Y-15689674D01*
X8864628Y-15689674D02*
X8883675Y-15680150D01*
X8883675Y-15680150D02*
X8912247Y-15680150D01*
X8912247Y-15680150D02*
X8931294Y-15689674D01*
X9007485Y-15889674D02*
X9017009Y-15880150D01*
X9017009Y-15880150D02*
X9036056Y-15851579D01*
X9036056Y-15851579D02*
X9045580Y-15832531D01*
X9045580Y-15832531D02*
X9055104Y-15803960D01*
X9055104Y-15803960D02*
X9064628Y-15756341D01*
X9064628Y-15756341D02*
X9064628Y-15718246D01*
X9064628Y-15718246D02*
X9055104Y-15670627D01*
X9055104Y-15670627D02*
X9045580Y-15642055D01*
X9045580Y-15642055D02*
X9036056Y-15623008D01*
X9036056Y-15623008D02*
X9017009Y-15594436D01*
X9017009Y-15594436D02*
X9007485Y-15584912D01*
M02*
