M48
; DRILL file KiCad 10.0.4 date 2026-07-09T13:34:58
; FORMAT={-:-/ absolute / metric / decimal}
; #@! TF.CreationDate,2026-07-09T13:34:58-06:00
; #@! TF.GenerationSoftware,Kicad,Pcbnew,10.0.4
; #@! TF.FileFunction,Plated,1,2,PTH
FMAT,2
METRIC
; #@! TA.AperFunction,Plated,PTH,ViaDrill
T1C0.300
; #@! TA.AperFunction,Plated,PTH,ComponentDrill
T2C0.800
; #@! TA.AperFunction,Plated,PTH,ComponentDrill
T3C1.092
; #@! TA.AperFunction,Plated,PTH,ComponentDrill
T4C1.500
%
G90
G05
T1
X89.0Y-103.0
X120.015Y-118.75
X127.045Y-103.955
T2
X110.133Y-42.624
X110.133Y-50.244
X113.109Y-44.41
X113.109Y-52.03
X116.086Y-46.196
X116.086Y-53.816
X119.063Y-47.982
X119.063Y-55.602
X122.039Y-42.624
X122.039Y-50.244
X125.016Y-44.41
X125.016Y-52.03
X127.992Y-46.196
X127.992Y-53.816
X130.969Y-47.982
X130.969Y-55.602
X133.945Y-42.624
X133.945Y-50.244
X136.922Y-44.41
X136.922Y-52.03
X139.899Y-46.196
X139.899Y-53.816
X142.875Y-47.982
X142.875Y-55.602
X146.0Y-42.69
X146.0Y-50.31
X148.828Y-44.41
X148.828Y-52.03
X151.75Y-45.94
X151.75Y-53.56
X154.781Y-47.982
X154.781Y-55.602
X157.75Y-42.44
X157.75Y-50.06
X160.735Y-44.41
X160.735Y-52.03
X163.75Y-46.19
X163.75Y-53.81
X166.75Y-42.44
X166.75Y-50.06
X169.664Y-44.41
X169.664Y-52.03
X172.5Y-46.19
X172.5Y-53.81
X175.5Y-42.44
X175.5Y-50.06
X178.594Y-44.41
X178.594Y-52.03
X181.5Y-46.19
X181.5Y-53.81
X184.547Y-42.624
X184.547Y-50.244
X187.524Y-44.41
X187.524Y-52.03
X190.5Y-46.19
X190.5Y-53.81
X193.5Y-42.624
X193.5Y-50.244
X196.453Y-44.41
X196.453Y-52.03
X199.5Y-46.19
X199.5Y-53.81
X202.5Y-42.624
X202.5Y-50.244
X205.383Y-44.41
X205.383Y-52.03
X208.25Y-42.69
X208.25Y-50.31
T3
X44.89Y-44.01
X44.89Y-59.25
X47.43Y-44.01
X47.43Y-59.25
X49.97Y-44.01
X49.97Y-59.25
X52.51Y-44.01
X52.51Y-59.25
X55.05Y-44.01
X55.05Y-59.25
X57.59Y-44.01
X57.59Y-59.25
X60.13Y-44.01
X60.13Y-59.25
X62.67Y-44.01
X62.67Y-59.25
X65.21Y-44.01
X65.21Y-59.25
X67.75Y-44.01
X67.75Y-59.25
X70.29Y-44.01
X70.29Y-59.25
X72.83Y-44.01
X72.83Y-59.25
T4
X48.578Y-71.279
X50.959Y-90.329
X54.927Y-68.739
X55.721Y-109.379
X57.309Y-87.789
X62.071Y-106.839
X67.627Y-71.279
X72.39Y-90.329
X73.977Y-68.739
X78.74Y-87.789
X81.915Y-109.379
X86.677Y-71.279
X88.265Y-106.839
X91.44Y-90.329
X93.027Y-68.739
X97.79Y-87.789
X100.965Y-109.379
X105.69Y-71.279
X107.315Y-106.839
X110.49Y-90.329
X110.49Y-128.429
X112.04Y-68.739
X116.84Y-87.789
X116.84Y-125.889
X120.015Y-109.379
X124.77Y-71.279
X126.365Y-106.839
X129.54Y-90.329
X131.12Y-68.739
X135.89Y-87.789
X139.065Y-109.379
X143.827Y-71.279
X145.415Y-106.839
X148.59Y-90.329
X148.59Y-128.429
X150.177Y-68.739
X154.94Y-87.789
X154.94Y-125.889
X158.115Y-109.379
X162.877Y-71.279
X164.465Y-106.839
X167.64Y-90.329
X169.227Y-68.739
X173.99Y-87.789
X177.165Y-109.379
X179.546Y-128.429
X181.927Y-71.279
X183.515Y-106.839
X185.896Y-125.889
X186.69Y-90.329
X188.278Y-68.739
X193.04Y-87.789
X196.215Y-109.379
X198.596Y-128.429
X200.977Y-71.279
X202.565Y-106.839
X204.946Y-125.889
X205.74Y-90.329
X207.327Y-68.739
X212.09Y-87.789
X220.028Y-71.279
X224.79Y-90.329
X226.377Y-68.739
X227.171Y-109.379
X231.14Y-87.789
X233.521Y-106.839
X239.077Y-71.279
X245.427Y-68.739
M30
