G04 #@! TF.GenerationSoftware,KiCad,Pcbnew,10.0.4*
G04 #@! TF.CreationDate,2026-07-09T13:35:05-06:00*
G04 #@! TF.ProjectId,#im_keyboard,23696d5f-6b65-4796-926f-6172642e6b69,rev?*
G04 #@! TF.SameCoordinates,Original*
G04 #@! TF.FileFunction,Legend,Bot*
G04 #@! TF.FilePolarity,Positive*
%FSLAX46Y46*%
G04 Gerber Fmt 4.6, Leading zero omitted, Abs format (unit mm)*
G04 Created by KiCad (PCBNEW 10.0.4) date 2026-07-09 13:35:05*
%MOMM*%
%LPD*%
G01*
G04 APERTURE LIST*
%ADD10C,0.150000*%
%ADD11C,0.200000*%
%ADD12R,1.752600X1.752600*%
%ADD13C,1.752600*%
%ADD14C,1.750000*%
%ADD15C,4.000000*%
%ADD16C,2.500000*%
%ADD17R,1.600000X1.600000*%
%ADD18O,1.600000X1.600000*%
%ADD19C,2.200000*%
%ADD20C,3.048000*%
%ADD21C,3.987800*%
G04 APERTURE END LIST*
D10*
X45252295Y-45616619D02*
X44871342Y-45349952D01*
X45252295Y-45159476D02*
X44452295Y-45159476D01*
X44452295Y-45159476D02*
X44452295Y-45464238D01*
X44452295Y-45464238D02*
X44490390Y-45540428D01*
X44490390Y-45540428D02*
X44528485Y-45578523D01*
X44528485Y-45578523D02*
X44604676Y-45616619D01*
X44604676Y-45616619D02*
X44718961Y-45616619D01*
X44718961Y-45616619D02*
X44795152Y-45578523D01*
X44795152Y-45578523D02*
X44833247Y-45540428D01*
X44833247Y-45540428D02*
X44871342Y-45464238D01*
X44871342Y-45464238D02*
X44871342Y-45159476D01*
X45023723Y-45921380D02*
X45023723Y-46302333D01*
X45252295Y-45845190D02*
X44452295Y-46111857D01*
X44452295Y-46111857D02*
X45252295Y-46378523D01*
X44452295Y-46568999D02*
X45252295Y-46759475D01*
X45252295Y-46759475D02*
X44680866Y-46911856D01*
X44680866Y-46911856D02*
X45252295Y-47064237D01*
X45252295Y-47064237D02*
X44452295Y-47254714D01*
X44452295Y-53011395D02*
X44452295Y-53468538D01*
X45252295Y-53239966D02*
X44452295Y-53239966D01*
X44452295Y-53659014D02*
X45252295Y-54192348D01*
X44452295Y-54192348D02*
X45252295Y-53659014D01*
X44452295Y-54649491D02*
X44452295Y-54725681D01*
X44452295Y-54725681D02*
X44490390Y-54801872D01*
X44490390Y-54801872D02*
X44528485Y-54839967D01*
X44528485Y-54839967D02*
X44604676Y-54878062D01*
X44604676Y-54878062D02*
X44757057Y-54916157D01*
X44757057Y-54916157D02*
X44947533Y-54916157D01*
X44947533Y-54916157D02*
X45099914Y-54878062D01*
X45099914Y-54878062D02*
X45176104Y-54839967D01*
X45176104Y-54839967D02*
X45214200Y-54801872D01*
X45214200Y-54801872D02*
X45252295Y-54725681D01*
X45252295Y-54725681D02*
X45252295Y-54649491D01*
X45252295Y-54649491D02*
X45214200Y-54573300D01*
X45214200Y-54573300D02*
X45176104Y-54535205D01*
X45176104Y-54535205D02*
X45099914Y-54497110D01*
X45099914Y-54497110D02*
X44947533Y-54459014D01*
X44947533Y-54459014D02*
X44757057Y-54459014D01*
X44757057Y-54459014D02*
X44604676Y-54497110D01*
X44604676Y-54497110D02*
X44528485Y-54535205D01*
X44528485Y-54535205D02*
X44490390Y-54573300D01*
X44490390Y-54573300D02*
X44452295Y-54649491D01*
X44414200Y-55830443D02*
X45442771Y-55144729D01*
X45252295Y-56097110D02*
X44452295Y-56097110D01*
X44452295Y-56097110D02*
X44452295Y-56287586D01*
X44452295Y-56287586D02*
X44490390Y-56401872D01*
X44490390Y-56401872D02*
X44566580Y-56478062D01*
X44566580Y-56478062D02*
X44642771Y-56516157D01*
X44642771Y-56516157D02*
X44795152Y-56554253D01*
X44795152Y-56554253D02*
X44909438Y-56554253D01*
X44909438Y-56554253D02*
X45061819Y-56516157D01*
X45061819Y-56516157D02*
X45138009Y-56478062D01*
X45138009Y-56478062D02*
X45214200Y-56401872D01*
X45214200Y-56401872D02*
X45252295Y-56287586D01*
X45252295Y-56287586D02*
X45252295Y-56097110D01*
X44452295Y-56820919D02*
X44452295Y-57316157D01*
X44452295Y-57316157D02*
X44757057Y-57049491D01*
X44757057Y-57049491D02*
X44757057Y-57163776D01*
X44757057Y-57163776D02*
X44795152Y-57239967D01*
X44795152Y-57239967D02*
X44833247Y-57278062D01*
X44833247Y-57278062D02*
X44909438Y-57316157D01*
X44909438Y-57316157D02*
X45099914Y-57316157D01*
X45099914Y-57316157D02*
X45176104Y-57278062D01*
X45176104Y-57278062D02*
X45214200Y-57239967D01*
X45214200Y-57239967D02*
X45252295Y-57163776D01*
X45252295Y-57163776D02*
X45252295Y-56935205D01*
X45252295Y-56935205D02*
X45214200Y-56859014D01*
X45214200Y-56859014D02*
X45176104Y-56820919D01*
X47030390Y-45559476D02*
X46992295Y-45483286D01*
X46992295Y-45483286D02*
X46992295Y-45369000D01*
X46992295Y-45369000D02*
X47030390Y-45254714D01*
X47030390Y-45254714D02*
X47106580Y-45178524D01*
X47106580Y-45178524D02*
X47182771Y-45140429D01*
X47182771Y-45140429D02*
X47335152Y-45102333D01*
X47335152Y-45102333D02*
X47449438Y-45102333D01*
X47449438Y-45102333D02*
X47601819Y-45140429D01*
X47601819Y-45140429D02*
X47678009Y-45178524D01*
X47678009Y-45178524D02*
X47754200Y-45254714D01*
X47754200Y-45254714D02*
X47792295Y-45369000D01*
X47792295Y-45369000D02*
X47792295Y-45445191D01*
X47792295Y-45445191D02*
X47754200Y-45559476D01*
X47754200Y-45559476D02*
X47716104Y-45597572D01*
X47716104Y-45597572D02*
X47449438Y-45597572D01*
X47449438Y-45597572D02*
X47449438Y-45445191D01*
X47792295Y-45940429D02*
X46992295Y-45940429D01*
X46992295Y-45940429D02*
X47792295Y-46397572D01*
X47792295Y-46397572D02*
X46992295Y-46397572D01*
X47792295Y-46778524D02*
X46992295Y-46778524D01*
X46992295Y-46778524D02*
X46992295Y-46969000D01*
X46992295Y-46969000D02*
X47030390Y-47083286D01*
X47030390Y-47083286D02*
X47106580Y-47159476D01*
X47106580Y-47159476D02*
X47182771Y-47197571D01*
X47182771Y-47197571D02*
X47335152Y-47235667D01*
X47335152Y-47235667D02*
X47449438Y-47235667D01*
X47449438Y-47235667D02*
X47601819Y-47197571D01*
X47601819Y-47197571D02*
X47678009Y-47159476D01*
X47678009Y-47159476D02*
X47754200Y-47083286D01*
X47754200Y-47083286D02*
X47792295Y-46969000D01*
X47792295Y-46969000D02*
X47792295Y-46778524D01*
X47792295Y-56500524D02*
X46992295Y-56500524D01*
X46992295Y-56500524D02*
X46992295Y-56691000D01*
X46992295Y-56691000D02*
X47030390Y-56805286D01*
X47030390Y-56805286D02*
X47106580Y-56881476D01*
X47106580Y-56881476D02*
X47182771Y-56919571D01*
X47182771Y-56919571D02*
X47335152Y-56957667D01*
X47335152Y-56957667D02*
X47449438Y-56957667D01*
X47449438Y-56957667D02*
X47601819Y-56919571D01*
X47601819Y-56919571D02*
X47678009Y-56881476D01*
X47678009Y-56881476D02*
X47754200Y-56805286D01*
X47754200Y-56805286D02*
X47792295Y-56691000D01*
X47792295Y-56691000D02*
X47792295Y-56500524D01*
X47068485Y-57262428D02*
X47030390Y-57300524D01*
X47030390Y-57300524D02*
X46992295Y-57376714D01*
X46992295Y-57376714D02*
X46992295Y-57567190D01*
X46992295Y-57567190D02*
X47030390Y-57643381D01*
X47030390Y-57643381D02*
X47068485Y-57681476D01*
X47068485Y-57681476D02*
X47144676Y-57719571D01*
X47144676Y-57719571D02*
X47220866Y-57719571D01*
X47220866Y-57719571D02*
X47335152Y-57681476D01*
X47335152Y-57681476D02*
X47792295Y-57224333D01*
X47792295Y-57224333D02*
X47792295Y-57719571D01*
X50274200Y-46056666D02*
X50312295Y-46170952D01*
X50312295Y-46170952D02*
X50312295Y-46361428D01*
X50312295Y-46361428D02*
X50274200Y-46437619D01*
X50274200Y-46437619D02*
X50236104Y-46475714D01*
X50236104Y-46475714D02*
X50159914Y-46513809D01*
X50159914Y-46513809D02*
X50083723Y-46513809D01*
X50083723Y-46513809D02*
X50007533Y-46475714D01*
X50007533Y-46475714D02*
X49969438Y-46437619D01*
X49969438Y-46437619D02*
X49931342Y-46361428D01*
X49931342Y-46361428D02*
X49893247Y-46209047D01*
X49893247Y-46209047D02*
X49855152Y-46132857D01*
X49855152Y-46132857D02*
X49817057Y-46094762D01*
X49817057Y-46094762D02*
X49740866Y-46056666D01*
X49740866Y-46056666D02*
X49664676Y-46056666D01*
X49664676Y-46056666D02*
X49588485Y-46094762D01*
X49588485Y-46094762D02*
X49550390Y-46132857D01*
X49550390Y-46132857D02*
X49512295Y-46209047D01*
X49512295Y-46209047D02*
X49512295Y-46399524D01*
X49512295Y-46399524D02*
X49550390Y-46513809D01*
X49512295Y-46742381D02*
X49512295Y-47199524D01*
X50312295Y-46970952D02*
X49512295Y-46970952D01*
X49570390Y-56481476D02*
X49532295Y-56405286D01*
X49532295Y-56405286D02*
X49532295Y-56291000D01*
X49532295Y-56291000D02*
X49570390Y-56176714D01*
X49570390Y-56176714D02*
X49646580Y-56100524D01*
X49646580Y-56100524D02*
X49722771Y-56062429D01*
X49722771Y-56062429D02*
X49875152Y-56024333D01*
X49875152Y-56024333D02*
X49989438Y-56024333D01*
X49989438Y-56024333D02*
X50141819Y-56062429D01*
X50141819Y-56062429D02*
X50218009Y-56100524D01*
X50218009Y-56100524D02*
X50294200Y-56176714D01*
X50294200Y-56176714D02*
X50332295Y-56291000D01*
X50332295Y-56291000D02*
X50332295Y-56367191D01*
X50332295Y-56367191D02*
X50294200Y-56481476D01*
X50294200Y-56481476D02*
X50256104Y-56519572D01*
X50256104Y-56519572D02*
X49989438Y-56519572D01*
X49989438Y-56519572D02*
X49989438Y-56367191D01*
X50332295Y-56862429D02*
X49532295Y-56862429D01*
X49532295Y-56862429D02*
X50332295Y-57319572D01*
X50332295Y-57319572D02*
X49532295Y-57319572D01*
X50332295Y-57700524D02*
X49532295Y-57700524D01*
X49532295Y-57700524D02*
X49532295Y-57891000D01*
X49532295Y-57891000D02*
X49570390Y-58005286D01*
X49570390Y-58005286D02*
X49646580Y-58081476D01*
X49646580Y-58081476D02*
X49722771Y-58119571D01*
X49722771Y-58119571D02*
X49875152Y-58157667D01*
X49875152Y-58157667D02*
X49989438Y-58157667D01*
X49989438Y-58157667D02*
X50141819Y-58119571D01*
X50141819Y-58119571D02*
X50218009Y-58081476D01*
X50218009Y-58081476D02*
X50294200Y-58005286D01*
X50294200Y-58005286D02*
X50332295Y-57891000D01*
X50332295Y-57891000D02*
X50332295Y-57700524D01*
X52072295Y-45102333D02*
X52872295Y-45369000D01*
X52872295Y-45369000D02*
X52072295Y-45635666D01*
X52796104Y-46359476D02*
X52834200Y-46321380D01*
X52834200Y-46321380D02*
X52872295Y-46207095D01*
X52872295Y-46207095D02*
X52872295Y-46130904D01*
X52872295Y-46130904D02*
X52834200Y-46016618D01*
X52834200Y-46016618D02*
X52758009Y-45940428D01*
X52758009Y-45940428D02*
X52681819Y-45902333D01*
X52681819Y-45902333D02*
X52529438Y-45864237D01*
X52529438Y-45864237D02*
X52415152Y-45864237D01*
X52415152Y-45864237D02*
X52262771Y-45902333D01*
X52262771Y-45902333D02*
X52186580Y-45940428D01*
X52186580Y-45940428D02*
X52110390Y-46016618D01*
X52110390Y-46016618D02*
X52072295Y-46130904D01*
X52072295Y-46130904D02*
X52072295Y-46207095D01*
X52072295Y-46207095D02*
X52110390Y-46321380D01*
X52110390Y-46321380D02*
X52148485Y-46359476D01*
X52796104Y-47159476D02*
X52834200Y-47121380D01*
X52834200Y-47121380D02*
X52872295Y-47007095D01*
X52872295Y-47007095D02*
X52872295Y-46930904D01*
X52872295Y-46930904D02*
X52834200Y-46816618D01*
X52834200Y-46816618D02*
X52758009Y-46740428D01*
X52758009Y-46740428D02*
X52681819Y-46702333D01*
X52681819Y-46702333D02*
X52529438Y-46664237D01*
X52529438Y-46664237D02*
X52415152Y-46664237D01*
X52415152Y-46664237D02*
X52262771Y-46702333D01*
X52262771Y-46702333D02*
X52186580Y-46740428D01*
X52186580Y-46740428D02*
X52110390Y-46816618D01*
X52110390Y-46816618D02*
X52072295Y-46930904D01*
X52072295Y-46930904D02*
X52072295Y-47007095D01*
X52072295Y-47007095D02*
X52110390Y-47121380D01*
X52110390Y-47121380D02*
X52148485Y-47159476D01*
X54993247Y-45902333D02*
X54993247Y-45635667D01*
X55412295Y-45635667D02*
X54612295Y-45635667D01*
X54612295Y-45635667D02*
X54612295Y-46016619D01*
X54878961Y-46664238D02*
X55412295Y-46664238D01*
X54574200Y-46473762D02*
X55145628Y-46283285D01*
X55145628Y-46283285D02*
X55145628Y-46778524D01*
X55412295Y-56500524D02*
X54612295Y-56500524D01*
X54612295Y-56500524D02*
X54612295Y-56691000D01*
X54612295Y-56691000D02*
X54650390Y-56805286D01*
X54650390Y-56805286D02*
X54726580Y-56881476D01*
X54726580Y-56881476D02*
X54802771Y-56919571D01*
X54802771Y-56919571D02*
X54955152Y-56957667D01*
X54955152Y-56957667D02*
X55069438Y-56957667D01*
X55069438Y-56957667D02*
X55221819Y-56919571D01*
X55221819Y-56919571D02*
X55298009Y-56881476D01*
X55298009Y-56881476D02*
X55374200Y-56805286D01*
X55374200Y-56805286D02*
X55412295Y-56691000D01*
X55412295Y-56691000D02*
X55412295Y-56500524D01*
X55412295Y-57719571D02*
X55412295Y-57262428D01*
X55412295Y-57491000D02*
X54612295Y-57491000D01*
X54612295Y-57491000D02*
X54726580Y-57414809D01*
X54726580Y-57414809D02*
X54802771Y-57338619D01*
X54802771Y-57338619D02*
X54840866Y-57262428D01*
X57533247Y-45902333D02*
X57533247Y-45635667D01*
X57952295Y-45635667D02*
X57152295Y-45635667D01*
X57152295Y-45635667D02*
X57152295Y-46016619D01*
X57152295Y-46702333D02*
X57152295Y-46321381D01*
X57152295Y-46321381D02*
X57533247Y-46283285D01*
X57533247Y-46283285D02*
X57495152Y-46321381D01*
X57495152Y-46321381D02*
X57457057Y-46397571D01*
X57457057Y-46397571D02*
X57457057Y-46588047D01*
X57457057Y-46588047D02*
X57495152Y-46664238D01*
X57495152Y-46664238D02*
X57533247Y-46702333D01*
X57533247Y-46702333D02*
X57609438Y-46740428D01*
X57609438Y-46740428D02*
X57799914Y-46740428D01*
X57799914Y-46740428D02*
X57876104Y-46702333D01*
X57876104Y-46702333D02*
X57914200Y-46664238D01*
X57914200Y-46664238D02*
X57952295Y-46588047D01*
X57952295Y-46588047D02*
X57952295Y-46397571D01*
X57952295Y-46397571D02*
X57914200Y-46321381D01*
X57914200Y-46321381D02*
X57876104Y-46283285D01*
X57952295Y-56500524D02*
X57152295Y-56500524D01*
X57152295Y-56500524D02*
X57152295Y-56691000D01*
X57152295Y-56691000D02*
X57190390Y-56805286D01*
X57190390Y-56805286D02*
X57266580Y-56881476D01*
X57266580Y-56881476D02*
X57342771Y-56919571D01*
X57342771Y-56919571D02*
X57495152Y-56957667D01*
X57495152Y-56957667D02*
X57609438Y-56957667D01*
X57609438Y-56957667D02*
X57761819Y-56919571D01*
X57761819Y-56919571D02*
X57838009Y-56881476D01*
X57838009Y-56881476D02*
X57914200Y-56805286D01*
X57914200Y-56805286D02*
X57952295Y-56691000D01*
X57952295Y-56691000D02*
X57952295Y-56500524D01*
X57152295Y-57452905D02*
X57152295Y-57529095D01*
X57152295Y-57529095D02*
X57190390Y-57605286D01*
X57190390Y-57605286D02*
X57228485Y-57643381D01*
X57228485Y-57643381D02*
X57304676Y-57681476D01*
X57304676Y-57681476D02*
X57457057Y-57719571D01*
X57457057Y-57719571D02*
X57647533Y-57719571D01*
X57647533Y-57719571D02*
X57799914Y-57681476D01*
X57799914Y-57681476D02*
X57876104Y-57643381D01*
X57876104Y-57643381D02*
X57914200Y-57605286D01*
X57914200Y-57605286D02*
X57952295Y-57529095D01*
X57952295Y-57529095D02*
X57952295Y-57452905D01*
X57952295Y-57452905D02*
X57914200Y-57376714D01*
X57914200Y-57376714D02*
X57876104Y-57338619D01*
X57876104Y-57338619D02*
X57799914Y-57300524D01*
X57799914Y-57300524D02*
X57647533Y-57262428D01*
X57647533Y-57262428D02*
X57457057Y-57262428D01*
X57457057Y-57262428D02*
X57304676Y-57300524D01*
X57304676Y-57300524D02*
X57228485Y-57338619D01*
X57228485Y-57338619D02*
X57190390Y-57376714D01*
X57190390Y-57376714D02*
X57152295Y-57452905D01*
X60073247Y-45902333D02*
X60073247Y-45635667D01*
X60492295Y-45635667D02*
X59692295Y-45635667D01*
X59692295Y-45635667D02*
X59692295Y-46016619D01*
X59692295Y-46664238D02*
X59692295Y-46511857D01*
X59692295Y-46511857D02*
X59730390Y-46435666D01*
X59730390Y-46435666D02*
X59768485Y-46397571D01*
X59768485Y-46397571D02*
X59882771Y-46321381D01*
X59882771Y-46321381D02*
X60035152Y-46283285D01*
X60035152Y-46283285D02*
X60339914Y-46283285D01*
X60339914Y-46283285D02*
X60416104Y-46321381D01*
X60416104Y-46321381D02*
X60454200Y-46359476D01*
X60454200Y-46359476D02*
X60492295Y-46435666D01*
X60492295Y-46435666D02*
X60492295Y-46588047D01*
X60492295Y-46588047D02*
X60454200Y-46664238D01*
X60454200Y-46664238D02*
X60416104Y-46702333D01*
X60416104Y-46702333D02*
X60339914Y-46740428D01*
X60339914Y-46740428D02*
X60149438Y-46740428D01*
X60149438Y-46740428D02*
X60073247Y-46702333D01*
X60073247Y-46702333D02*
X60035152Y-46664238D01*
X60035152Y-46664238D02*
X59997057Y-46588047D01*
X59997057Y-46588047D02*
X59997057Y-46435666D01*
X59997057Y-46435666D02*
X60035152Y-46359476D01*
X60035152Y-46359476D02*
X60073247Y-46321381D01*
X60073247Y-46321381D02*
X60149438Y-46283285D01*
X60492295Y-56500524D02*
X59692295Y-56500524D01*
X59692295Y-56500524D02*
X59692295Y-56691000D01*
X59692295Y-56691000D02*
X59730390Y-56805286D01*
X59730390Y-56805286D02*
X59806580Y-56881476D01*
X59806580Y-56881476D02*
X59882771Y-56919571D01*
X59882771Y-56919571D02*
X60035152Y-56957667D01*
X60035152Y-56957667D02*
X60149438Y-56957667D01*
X60149438Y-56957667D02*
X60301819Y-56919571D01*
X60301819Y-56919571D02*
X60378009Y-56881476D01*
X60378009Y-56881476D02*
X60454200Y-56805286D01*
X60454200Y-56805286D02*
X60492295Y-56691000D01*
X60492295Y-56691000D02*
X60492295Y-56500524D01*
X59958961Y-57643381D02*
X60492295Y-57643381D01*
X59654200Y-57452905D02*
X60225628Y-57262428D01*
X60225628Y-57262428D02*
X60225628Y-57757667D01*
X62613247Y-45902333D02*
X62613247Y-45635667D01*
X63032295Y-45635667D02*
X62232295Y-45635667D01*
X62232295Y-45635667D02*
X62232295Y-46016619D01*
X62232295Y-46245190D02*
X62232295Y-46778524D01*
X62232295Y-46778524D02*
X63032295Y-46435666D01*
X62956104Y-56957667D02*
X62994200Y-56919571D01*
X62994200Y-56919571D02*
X63032295Y-56805286D01*
X63032295Y-56805286D02*
X63032295Y-56729095D01*
X63032295Y-56729095D02*
X62994200Y-56614809D01*
X62994200Y-56614809D02*
X62918009Y-56538619D01*
X62918009Y-56538619D02*
X62841819Y-56500524D01*
X62841819Y-56500524D02*
X62689438Y-56462428D01*
X62689438Y-56462428D02*
X62575152Y-56462428D01*
X62575152Y-56462428D02*
X62422771Y-56500524D01*
X62422771Y-56500524D02*
X62346580Y-56538619D01*
X62346580Y-56538619D02*
X62270390Y-56614809D01*
X62270390Y-56614809D02*
X62232295Y-56729095D01*
X62232295Y-56729095D02*
X62232295Y-56805286D01*
X62232295Y-56805286D02*
X62270390Y-56919571D01*
X62270390Y-56919571D02*
X62308485Y-56957667D01*
X62232295Y-57643381D02*
X62232295Y-57491000D01*
X62232295Y-57491000D02*
X62270390Y-57414809D01*
X62270390Y-57414809D02*
X62308485Y-57376714D01*
X62308485Y-57376714D02*
X62422771Y-57300524D01*
X62422771Y-57300524D02*
X62575152Y-57262428D01*
X62575152Y-57262428D02*
X62879914Y-57262428D01*
X62879914Y-57262428D02*
X62956104Y-57300524D01*
X62956104Y-57300524D02*
X62994200Y-57338619D01*
X62994200Y-57338619D02*
X63032295Y-57414809D01*
X63032295Y-57414809D02*
X63032295Y-57567190D01*
X63032295Y-57567190D02*
X62994200Y-57643381D01*
X62994200Y-57643381D02*
X62956104Y-57681476D01*
X62956104Y-57681476D02*
X62879914Y-57719571D01*
X62879914Y-57719571D02*
X62689438Y-57719571D01*
X62689438Y-57719571D02*
X62613247Y-57681476D01*
X62613247Y-57681476D02*
X62575152Y-57643381D01*
X62575152Y-57643381D02*
X62537057Y-57567190D01*
X62537057Y-57567190D02*
X62537057Y-57414809D01*
X62537057Y-57414809D02*
X62575152Y-57338619D01*
X62575152Y-57338619D02*
X62613247Y-57300524D01*
X62613247Y-57300524D02*
X62689438Y-57262428D01*
X65153247Y-45845190D02*
X65191342Y-45959476D01*
X65191342Y-45959476D02*
X65229438Y-45997571D01*
X65229438Y-45997571D02*
X65305628Y-46035667D01*
X65305628Y-46035667D02*
X65419914Y-46035667D01*
X65419914Y-46035667D02*
X65496104Y-45997571D01*
X65496104Y-45997571D02*
X65534200Y-45959476D01*
X65534200Y-45959476D02*
X65572295Y-45883286D01*
X65572295Y-45883286D02*
X65572295Y-45578524D01*
X65572295Y-45578524D02*
X64772295Y-45578524D01*
X64772295Y-45578524D02*
X64772295Y-45845190D01*
X64772295Y-45845190D02*
X64810390Y-45921381D01*
X64810390Y-45921381D02*
X64848485Y-45959476D01*
X64848485Y-45959476D02*
X64924676Y-45997571D01*
X64924676Y-45997571D02*
X65000866Y-45997571D01*
X65000866Y-45997571D02*
X65077057Y-45959476D01*
X65077057Y-45959476D02*
X65115152Y-45921381D01*
X65115152Y-45921381D02*
X65153247Y-45845190D01*
X65153247Y-45845190D02*
X65153247Y-45578524D01*
X65572295Y-46797571D02*
X65572295Y-46340428D01*
X65572295Y-46569000D02*
X64772295Y-46569000D01*
X64772295Y-46569000D02*
X64886580Y-46492809D01*
X64886580Y-46492809D02*
X64962771Y-46416619D01*
X64962771Y-46416619D02*
X65000866Y-46340428D01*
X67693247Y-45845190D02*
X67731342Y-45959476D01*
X67731342Y-45959476D02*
X67769438Y-45997571D01*
X67769438Y-45997571D02*
X67845628Y-46035667D01*
X67845628Y-46035667D02*
X67959914Y-46035667D01*
X67959914Y-46035667D02*
X68036104Y-45997571D01*
X68036104Y-45997571D02*
X68074200Y-45959476D01*
X68074200Y-45959476D02*
X68112295Y-45883286D01*
X68112295Y-45883286D02*
X68112295Y-45578524D01*
X68112295Y-45578524D02*
X67312295Y-45578524D01*
X67312295Y-45578524D02*
X67312295Y-45845190D01*
X67312295Y-45845190D02*
X67350390Y-45921381D01*
X67350390Y-45921381D02*
X67388485Y-45959476D01*
X67388485Y-45959476D02*
X67464676Y-45997571D01*
X67464676Y-45997571D02*
X67540866Y-45997571D01*
X67540866Y-45997571D02*
X67617057Y-45959476D01*
X67617057Y-45959476D02*
X67655152Y-45921381D01*
X67655152Y-45921381D02*
X67693247Y-45845190D01*
X67693247Y-45845190D02*
X67693247Y-45578524D01*
X67312295Y-46302333D02*
X67312295Y-46797571D01*
X67312295Y-46797571D02*
X67617057Y-46530905D01*
X67617057Y-46530905D02*
X67617057Y-46645190D01*
X67617057Y-46645190D02*
X67655152Y-46721381D01*
X67655152Y-46721381D02*
X67693247Y-46759476D01*
X67693247Y-46759476D02*
X67769438Y-46797571D01*
X67769438Y-46797571D02*
X67959914Y-46797571D01*
X67959914Y-46797571D02*
X68036104Y-46759476D01*
X68036104Y-46759476D02*
X68074200Y-46721381D01*
X68074200Y-46721381D02*
X68112295Y-46645190D01*
X68112295Y-46645190D02*
X68112295Y-46416619D01*
X68112295Y-46416619D02*
X68074200Y-46340428D01*
X68074200Y-46340428D02*
X68036104Y-46302333D01*
X67693247Y-56538619D02*
X67693247Y-56805285D01*
X68112295Y-56919571D02*
X68112295Y-56538619D01*
X68112295Y-56538619D02*
X67312295Y-56538619D01*
X67312295Y-56538619D02*
X67312295Y-56919571D01*
X67312295Y-57605286D02*
X67312295Y-57452905D01*
X67312295Y-57452905D02*
X67350390Y-57376714D01*
X67350390Y-57376714D02*
X67388485Y-57338619D01*
X67388485Y-57338619D02*
X67502771Y-57262429D01*
X67502771Y-57262429D02*
X67655152Y-57224333D01*
X67655152Y-57224333D02*
X67959914Y-57224333D01*
X67959914Y-57224333D02*
X68036104Y-57262429D01*
X68036104Y-57262429D02*
X68074200Y-57300524D01*
X68074200Y-57300524D02*
X68112295Y-57376714D01*
X68112295Y-57376714D02*
X68112295Y-57529095D01*
X68112295Y-57529095D02*
X68074200Y-57605286D01*
X68074200Y-57605286D02*
X68036104Y-57643381D01*
X68036104Y-57643381D02*
X67959914Y-57681476D01*
X67959914Y-57681476D02*
X67769438Y-57681476D01*
X67769438Y-57681476D02*
X67693247Y-57643381D01*
X67693247Y-57643381D02*
X67655152Y-57605286D01*
X67655152Y-57605286D02*
X67617057Y-57529095D01*
X67617057Y-57529095D02*
X67617057Y-57376714D01*
X67617057Y-57376714D02*
X67655152Y-57300524D01*
X67655152Y-57300524D02*
X67693247Y-57262429D01*
X67693247Y-57262429D02*
X67769438Y-57224333D01*
X70233247Y-45845190D02*
X70271342Y-45959476D01*
X70271342Y-45959476D02*
X70309438Y-45997571D01*
X70309438Y-45997571D02*
X70385628Y-46035667D01*
X70385628Y-46035667D02*
X70499914Y-46035667D01*
X70499914Y-46035667D02*
X70576104Y-45997571D01*
X70576104Y-45997571D02*
X70614200Y-45959476D01*
X70614200Y-45959476D02*
X70652295Y-45883286D01*
X70652295Y-45883286D02*
X70652295Y-45578524D01*
X70652295Y-45578524D02*
X69852295Y-45578524D01*
X69852295Y-45578524D02*
X69852295Y-45845190D01*
X69852295Y-45845190D02*
X69890390Y-45921381D01*
X69890390Y-45921381D02*
X69928485Y-45959476D01*
X69928485Y-45959476D02*
X70004676Y-45997571D01*
X70004676Y-45997571D02*
X70080866Y-45997571D01*
X70080866Y-45997571D02*
X70157057Y-45959476D01*
X70157057Y-45959476D02*
X70195152Y-45921381D01*
X70195152Y-45921381D02*
X70233247Y-45845190D01*
X70233247Y-45845190D02*
X70233247Y-45578524D01*
X69928485Y-46340428D02*
X69890390Y-46378524D01*
X69890390Y-46378524D02*
X69852295Y-46454714D01*
X69852295Y-46454714D02*
X69852295Y-46645190D01*
X69852295Y-46645190D02*
X69890390Y-46721381D01*
X69890390Y-46721381D02*
X69928485Y-46759476D01*
X69928485Y-46759476D02*
X70004676Y-46797571D01*
X70004676Y-46797571D02*
X70080866Y-46797571D01*
X70080866Y-46797571D02*
X70195152Y-46759476D01*
X70195152Y-46759476D02*
X70652295Y-46302333D01*
X70652295Y-46302333D02*
X70652295Y-46797571D01*
X70233247Y-56767190D02*
X70271342Y-56881476D01*
X70271342Y-56881476D02*
X70309438Y-56919571D01*
X70309438Y-56919571D02*
X70385628Y-56957667D01*
X70385628Y-56957667D02*
X70499914Y-56957667D01*
X70499914Y-56957667D02*
X70576104Y-56919571D01*
X70576104Y-56919571D02*
X70614200Y-56881476D01*
X70614200Y-56881476D02*
X70652295Y-56805286D01*
X70652295Y-56805286D02*
X70652295Y-56500524D01*
X70652295Y-56500524D02*
X69852295Y-56500524D01*
X69852295Y-56500524D02*
X69852295Y-56767190D01*
X69852295Y-56767190D02*
X69890390Y-56843381D01*
X69890390Y-56843381D02*
X69928485Y-56881476D01*
X69928485Y-56881476D02*
X70004676Y-56919571D01*
X70004676Y-56919571D02*
X70080866Y-56919571D01*
X70080866Y-56919571D02*
X70157057Y-56881476D01*
X70157057Y-56881476D02*
X70195152Y-56843381D01*
X70195152Y-56843381D02*
X70233247Y-56767190D01*
X70233247Y-56767190D02*
X70233247Y-56500524D01*
X70118961Y-57643381D02*
X70652295Y-57643381D01*
X69814200Y-57452905D02*
X70385628Y-57262428D01*
X70385628Y-57262428D02*
X70385628Y-57757667D01*
X72773247Y-45845190D02*
X72811342Y-45959476D01*
X72811342Y-45959476D02*
X72849438Y-45997571D01*
X72849438Y-45997571D02*
X72925628Y-46035667D01*
X72925628Y-46035667D02*
X73039914Y-46035667D01*
X73039914Y-46035667D02*
X73116104Y-45997571D01*
X73116104Y-45997571D02*
X73154200Y-45959476D01*
X73154200Y-45959476D02*
X73192295Y-45883286D01*
X73192295Y-45883286D02*
X73192295Y-45578524D01*
X73192295Y-45578524D02*
X72392295Y-45578524D01*
X72392295Y-45578524D02*
X72392295Y-45845190D01*
X72392295Y-45845190D02*
X72430390Y-45921381D01*
X72430390Y-45921381D02*
X72468485Y-45959476D01*
X72468485Y-45959476D02*
X72544676Y-45997571D01*
X72544676Y-45997571D02*
X72620866Y-45997571D01*
X72620866Y-45997571D02*
X72697057Y-45959476D01*
X72697057Y-45959476D02*
X72735152Y-45921381D01*
X72735152Y-45921381D02*
X72773247Y-45845190D01*
X72773247Y-45845190D02*
X72773247Y-45578524D01*
X72392295Y-46721381D02*
X72392295Y-46569000D01*
X72392295Y-46569000D02*
X72430390Y-46492809D01*
X72430390Y-46492809D02*
X72468485Y-46454714D01*
X72468485Y-46454714D02*
X72582771Y-46378524D01*
X72582771Y-46378524D02*
X72735152Y-46340428D01*
X72735152Y-46340428D02*
X73039914Y-46340428D01*
X73039914Y-46340428D02*
X73116104Y-46378524D01*
X73116104Y-46378524D02*
X73154200Y-46416619D01*
X73154200Y-46416619D02*
X73192295Y-46492809D01*
X73192295Y-46492809D02*
X73192295Y-46645190D01*
X73192295Y-46645190D02*
X73154200Y-46721381D01*
X73154200Y-46721381D02*
X73116104Y-46759476D01*
X73116104Y-46759476D02*
X73039914Y-46797571D01*
X73039914Y-46797571D02*
X72849438Y-46797571D01*
X72849438Y-46797571D02*
X72773247Y-46759476D01*
X72773247Y-46759476D02*
X72735152Y-46721381D01*
X72735152Y-46721381D02*
X72697057Y-46645190D01*
X72697057Y-46645190D02*
X72697057Y-46492809D01*
X72697057Y-46492809D02*
X72735152Y-46416619D01*
X72735152Y-46416619D02*
X72773247Y-46378524D01*
X72773247Y-46378524D02*
X72849438Y-46340428D01*
X72773247Y-56767190D02*
X72811342Y-56881476D01*
X72811342Y-56881476D02*
X72849438Y-56919571D01*
X72849438Y-56919571D02*
X72925628Y-56957667D01*
X72925628Y-56957667D02*
X73039914Y-56957667D01*
X73039914Y-56957667D02*
X73116104Y-56919571D01*
X73116104Y-56919571D02*
X73154200Y-56881476D01*
X73154200Y-56881476D02*
X73192295Y-56805286D01*
X73192295Y-56805286D02*
X73192295Y-56500524D01*
X73192295Y-56500524D02*
X72392295Y-56500524D01*
X72392295Y-56500524D02*
X72392295Y-56767190D01*
X72392295Y-56767190D02*
X72430390Y-56843381D01*
X72430390Y-56843381D02*
X72468485Y-56881476D01*
X72468485Y-56881476D02*
X72544676Y-56919571D01*
X72544676Y-56919571D02*
X72620866Y-56919571D01*
X72620866Y-56919571D02*
X72697057Y-56881476D01*
X72697057Y-56881476D02*
X72735152Y-56843381D01*
X72735152Y-56843381D02*
X72773247Y-56767190D01*
X72773247Y-56767190D02*
X72773247Y-56500524D01*
X72392295Y-57681476D02*
X72392295Y-57300524D01*
X72392295Y-57300524D02*
X72773247Y-57262428D01*
X72773247Y-57262428D02*
X72735152Y-57300524D01*
X72735152Y-57300524D02*
X72697057Y-57376714D01*
X72697057Y-57376714D02*
X72697057Y-57567190D01*
X72697057Y-57567190D02*
X72735152Y-57643381D01*
X72735152Y-57643381D02*
X72773247Y-57681476D01*
X72773247Y-57681476D02*
X72849438Y-57719571D01*
X72849438Y-57719571D02*
X73039914Y-57719571D01*
X73039914Y-57719571D02*
X73116104Y-57681476D01*
X73116104Y-57681476D02*
X73154200Y-57643381D01*
X73154200Y-57643381D02*
X73192295Y-57567190D01*
X73192295Y-57567190D02*
X73192295Y-57376714D01*
X73192295Y-57376714D02*
X73154200Y-57300524D01*
X73154200Y-57300524D02*
X73116104Y-57262428D01*
D11*
X41080000Y-42740000D02*
X41080000Y-60520000D01*
X41080000Y-60520000D02*
X74100000Y-60520000D01*
X43620000Y-57980000D02*
X43620000Y-60520000D01*
X43620000Y-57980000D02*
X46160000Y-57980000D01*
X46160000Y-57980000D02*
X46160000Y-60520000D01*
X74100000Y-42740000D02*
X41080000Y-42740000D01*
X74100000Y-60520000D02*
X74100000Y-42740000D01*
D10*
X49509030Y-45385365D02*
X50309030Y-45385365D01*
X50309030Y-45285365D01*
X49509030Y-45285365D01*
X49509030Y-45385365D01*
G36*
X50309030Y-45385365D02*
G01*
X49509030Y-45385365D01*
X49509030Y-45285365D01*
X50309030Y-45285365D01*
X50309030Y-45385365D01*
G37*
X49509030Y-45785365D02*
X49609030Y-45785365D01*
X49609030Y-45285365D01*
X49509030Y-45285365D01*
X49509030Y-45785365D01*
G36*
X49609030Y-45785365D02*
G01*
X49509030Y-45785365D01*
X49509030Y-45285365D01*
X49609030Y-45285365D01*
X49609030Y-45785365D01*
G37*
X49509030Y-45785365D02*
X49809030Y-45785365D01*
X49809030Y-45685365D01*
X49509030Y-45685365D01*
X49509030Y-45785365D01*
G36*
X49809030Y-45785365D02*
G01*
X49509030Y-45785365D01*
X49509030Y-45685365D01*
X49809030Y-45685365D01*
X49809030Y-45785365D01*
G37*
X49909030Y-45585365D02*
X50009030Y-45585365D01*
X50009030Y-45485365D01*
X49909030Y-45485365D01*
X49909030Y-45585365D01*
G36*
X50009030Y-45585365D02*
G01*
X49909030Y-45585365D01*
X49909030Y-45485365D01*
X50009030Y-45485365D01*
X50009030Y-45585365D01*
G37*
X50109030Y-45785365D02*
X50309030Y-45785365D01*
X50309030Y-45685365D01*
X50109030Y-45685365D01*
X50109030Y-45785365D01*
G36*
X50309030Y-45785365D02*
G01*
X50109030Y-45785365D01*
X50109030Y-45685365D01*
X50309030Y-45685365D01*
X50309030Y-45785365D01*
G37*
D12*
X44890000Y-59250000D03*
D13*
X47430000Y-59250000D03*
X49970000Y-59250000D03*
X52510000Y-59250000D03*
X55050000Y-59250000D03*
X57590000Y-59250000D03*
X60130000Y-59250000D03*
X62670000Y-59250000D03*
X65210000Y-59250000D03*
X67750000Y-59250000D03*
X70290000Y-59250000D03*
X72830000Y-59250000D03*
X72830000Y-44010000D03*
X70290000Y-44010000D03*
X67750000Y-44010000D03*
X65210000Y-44010000D03*
X62670000Y-44010000D03*
X60130000Y-44010000D03*
X57590000Y-44010000D03*
X55050000Y-44010000D03*
X52510000Y-44010000D03*
X49970000Y-44010000D03*
X47430000Y-44010000D03*
X44890000Y-44010000D03*
%LPC*%
D14*
X185420000Y-92868750D03*
D15*
X190500000Y-92868750D03*
D14*
X195580000Y-92868750D03*
D16*
X186690000Y-90328750D03*
X193040000Y-87788750D03*
D17*
X172500000Y-46190000D03*
D18*
X172500000Y-53810000D03*
D17*
X130968860Y-47982231D03*
D18*
X130968860Y-55602231D03*
D17*
X139898555Y-46196292D03*
D18*
X139898555Y-53816292D03*
D14*
X123500000Y-73818750D03*
D15*
X128580000Y-73818750D03*
D14*
X133660000Y-73818750D03*
D16*
X124770000Y-71278750D03*
X131120000Y-68738750D03*
D14*
X147320000Y-130968750D03*
D15*
X152400000Y-130968750D03*
D14*
X157480000Y-130968750D03*
D16*
X148590000Y-128428750D03*
X154940000Y-125888750D03*
D17*
X190500000Y-46190000D03*
D18*
X190500000Y-53810000D03*
D14*
X237807500Y-73818750D03*
D15*
X242887500Y-73818750D03*
D14*
X247967500Y-73818750D03*
D16*
X239077500Y-71278750D03*
X245427500Y-68738750D03*
D14*
X223520000Y-92868750D03*
D15*
X228600000Y-92868750D03*
D14*
X233680000Y-92868750D03*
D16*
X224790000Y-90328750D03*
X231140000Y-87788750D03*
D17*
X133945335Y-42624414D03*
D18*
X133945335Y-50244414D03*
D17*
X166750000Y-42440000D03*
D18*
X166750000Y-50060000D03*
D14*
X197326250Y-130968750D03*
D15*
X202406250Y-130968750D03*
D14*
X207486250Y-130968750D03*
D16*
X198596250Y-128428750D03*
X204946250Y-125888750D03*
D14*
X156845000Y-111918750D03*
D15*
X161925000Y-111918750D03*
D14*
X167005000Y-111918750D03*
D16*
X158115000Y-109378750D03*
X164465000Y-106838750D03*
D14*
X166370000Y-92868750D03*
D15*
X171450000Y-92868750D03*
D14*
X176530000Y-92868750D03*
D16*
X167640000Y-90328750D03*
X173990000Y-87788750D03*
D17*
X125015730Y-44410353D03*
D18*
X125015730Y-52030353D03*
D17*
X148828250Y-44410353D03*
D18*
X148828250Y-52030353D03*
D17*
X116086035Y-46196292D03*
D18*
X116086035Y-53816292D03*
D19*
X85725000Y-128587500D03*
D14*
X54451250Y-111918750D03*
D15*
X59531250Y-111918750D03*
D14*
X64611250Y-111918750D03*
D16*
X55721250Y-109378750D03*
X62071250Y-106838750D03*
D20*
X140462000Y-123983750D03*
D21*
X140462000Y-139193750D03*
D20*
X164338000Y-123983750D03*
D21*
X164338000Y-139193750D03*
D17*
X187523595Y-44410353D03*
D18*
X187523595Y-52030353D03*
D17*
X193500000Y-42624414D03*
D18*
X193500000Y-50244414D03*
D14*
X47307500Y-73818750D03*
D15*
X52387500Y-73818750D03*
D14*
X57467500Y-73818750D03*
D16*
X48577500Y-71278750D03*
X54927500Y-68738750D03*
D14*
X104420000Y-73818750D03*
D15*
X109500000Y-73818750D03*
D14*
X114580000Y-73818750D03*
D16*
X105690000Y-71278750D03*
X112040000Y-68738750D03*
D14*
X137795000Y-111918750D03*
D15*
X142875000Y-111918750D03*
D14*
X147955000Y-111918750D03*
D16*
X139065000Y-109378750D03*
X145415000Y-106838750D03*
D14*
X204470000Y-92868750D03*
D15*
X209550000Y-92868750D03*
D14*
X214630000Y-92868750D03*
D16*
X205740000Y-90328750D03*
X212090000Y-87788750D03*
D17*
X196453290Y-44410353D03*
D18*
X196453290Y-52030353D03*
D14*
X225901250Y-111918750D03*
D15*
X230981250Y-111918750D03*
D14*
X236061250Y-111918750D03*
D16*
X227171250Y-109378750D03*
X233521250Y-106838750D03*
D17*
X127992295Y-46196292D03*
D18*
X127992295Y-53816292D03*
D17*
X169664205Y-44410353D03*
D18*
X169664205Y-52030353D03*
D14*
X180657500Y-73818750D03*
D15*
X185737500Y-73818750D03*
D14*
X190817500Y-73818750D03*
D16*
X181927500Y-71278750D03*
X188277500Y-68738750D03*
D19*
X221456250Y-128587500D03*
X247650000Y-38100000D03*
D17*
X154781380Y-47982231D03*
D18*
X154781380Y-55602231D03*
D19*
X50006250Y-38100000D03*
D14*
X49688750Y-92868750D03*
D15*
X54768750Y-92868750D03*
D14*
X59848750Y-92868750D03*
D16*
X50958750Y-90328750D03*
X57308750Y-87788750D03*
D14*
X161607500Y-73818750D03*
D15*
X166687500Y-73818750D03*
D14*
X171767500Y-73818750D03*
D16*
X162877500Y-71278750D03*
X169227500Y-68738750D03*
D17*
X151750000Y-45940000D03*
D18*
X151750000Y-53560000D03*
D17*
X110132835Y-42624377D03*
D18*
X110132835Y-50244377D03*
D17*
X146000000Y-42690000D03*
D18*
X146000000Y-50310000D03*
D17*
X136921990Y-44410353D03*
D18*
X136921990Y-52030353D03*
D17*
X178593900Y-44410353D03*
D18*
X178593900Y-52030353D03*
D14*
X99695000Y-111918750D03*
D15*
X104775000Y-111918750D03*
D14*
X109855000Y-111918750D03*
D16*
X100965000Y-109378750D03*
X107315000Y-106838750D03*
D14*
X71120000Y-92868750D03*
D15*
X76200000Y-92868750D03*
D14*
X81280000Y-92868750D03*
D16*
X72390000Y-90328750D03*
X78740000Y-87788750D03*
D17*
X122039165Y-42624414D03*
D18*
X122039165Y-50244414D03*
D20*
X219043250Y-104933750D03*
D21*
X219043250Y-120143750D03*
D20*
X242919250Y-104933750D03*
D21*
X242919250Y-120143750D03*
D14*
X128270000Y-92868750D03*
D15*
X133350000Y-92868750D03*
D14*
X138430000Y-92868750D03*
D16*
X129540000Y-90328750D03*
X135890000Y-87788750D03*
D14*
X194945000Y-111918750D03*
D15*
X200025000Y-111918750D03*
D14*
X205105000Y-111918750D03*
D16*
X196215000Y-109378750D03*
X202565000Y-106838750D03*
D17*
X113109470Y-44410353D03*
D18*
X113109470Y-52030353D03*
D14*
X85407500Y-73818750D03*
D15*
X90487500Y-73818750D03*
D14*
X95567500Y-73818750D03*
D16*
X86677500Y-71278750D03*
X93027500Y-68738750D03*
D14*
X218757500Y-73818750D03*
D15*
X223837500Y-73818750D03*
D14*
X228917500Y-73818750D03*
D16*
X220027500Y-71278750D03*
X226377500Y-68738750D03*
D17*
X163750000Y-46190000D03*
D18*
X163750000Y-53810000D03*
D17*
X199500000Y-46190000D03*
D18*
X199500000Y-53810000D03*
D14*
X118745000Y-111918750D03*
D15*
X123825000Y-111918750D03*
D14*
X128905000Y-111918750D03*
D16*
X120015000Y-109378750D03*
X126365000Y-106838750D03*
D12*
X44890000Y-59250000D03*
D13*
X47430000Y-59250000D03*
X49970000Y-59250000D03*
X52510000Y-59250000D03*
X55050000Y-59250000D03*
X57590000Y-59250000D03*
X60130000Y-59250000D03*
X62670000Y-59250000D03*
X65210000Y-59250000D03*
X67750000Y-59250000D03*
X70290000Y-59250000D03*
X72830000Y-59250000D03*
X72830000Y-44010000D03*
X70290000Y-44010000D03*
X67750000Y-44010000D03*
X65210000Y-44010000D03*
X62670000Y-44010000D03*
X60130000Y-44010000D03*
X57590000Y-44010000D03*
X55050000Y-44010000D03*
X52510000Y-44010000D03*
X49970000Y-44010000D03*
X47430000Y-44010000D03*
X44890000Y-44010000D03*
D20*
X102330250Y-123983750D03*
D21*
X102330250Y-139193750D03*
D20*
X126206250Y-123983750D03*
D21*
X126206250Y-139193750D03*
D17*
X181500000Y-46190000D03*
D18*
X181500000Y-53810000D03*
D17*
X160734510Y-44410353D03*
D18*
X160734510Y-52030353D03*
D14*
X199707500Y-73818750D03*
D15*
X204787500Y-73818750D03*
D14*
X209867500Y-73818750D03*
D16*
X200977500Y-71278750D03*
X207327500Y-68738750D03*
D17*
X184547030Y-42624414D03*
D18*
X184547030Y-50244414D03*
D14*
X175895000Y-111918750D03*
D15*
X180975000Y-111918750D03*
D14*
X186055000Y-111918750D03*
D16*
X177165000Y-109378750D03*
X183515000Y-106838750D03*
D17*
X202500000Y-42624414D03*
D18*
X202500000Y-50244414D03*
D17*
X205382985Y-44410353D03*
D18*
X205382985Y-52030353D03*
D17*
X142875120Y-47982231D03*
D18*
X142875120Y-55602231D03*
D14*
X80645000Y-111918750D03*
D15*
X85725000Y-111918750D03*
D14*
X90805000Y-111918750D03*
D16*
X81915000Y-109378750D03*
X88265000Y-106838750D03*
D17*
X157750000Y-42440000D03*
D18*
X157750000Y-50060000D03*
D14*
X90170000Y-92868750D03*
D15*
X95250000Y-92868750D03*
D14*
X100330000Y-92868750D03*
D16*
X91440000Y-90328750D03*
X97790000Y-87788750D03*
D14*
X109220000Y-92868750D03*
D15*
X114300000Y-92868750D03*
D14*
X119380000Y-92868750D03*
D16*
X110490000Y-90328750D03*
X116840000Y-87788750D03*
D17*
X208250000Y-42690000D03*
D18*
X208250000Y-50310000D03*
D14*
X142557500Y-73818750D03*
D15*
X147637500Y-73818750D03*
D14*
X152717500Y-73818750D03*
D16*
X143827500Y-71278750D03*
X150177500Y-68738750D03*
D14*
X109220000Y-130968750D03*
D15*
X114300000Y-130968750D03*
D14*
X119380000Y-130968750D03*
D16*
X110490000Y-128428750D03*
X116840000Y-125888750D03*
D17*
X175500000Y-42440000D03*
D18*
X175500000Y-50060000D03*
D17*
X119062600Y-47982231D03*
D18*
X119062600Y-55602231D03*
D14*
X178276250Y-130968750D03*
D15*
X183356250Y-130968750D03*
D14*
X188436250Y-130968750D03*
D16*
X179546250Y-128428750D03*
X185896250Y-125888750D03*
D14*
X66357500Y-73818750D03*
D15*
X71437500Y-73818750D03*
D14*
X76517500Y-73818750D03*
D16*
X67627500Y-71278750D03*
X73977500Y-68738750D03*
D14*
X147320000Y-92868750D03*
D15*
X152400000Y-92868750D03*
D14*
X157480000Y-92868750D03*
D16*
X148590000Y-90328750D03*
X154940000Y-87788750D03*
%LPD*%
M02*
