G04 #@! TF.GenerationSoftware,KiCad,Pcbnew,10.0.4*
G04 #@! TF.CreationDate,2026-07-09T13:35:05-06:00*
G04 #@! TF.ProjectId,#im_keyboard,23696d5f-6b65-4796-926f-6172642e6b69,rev?*
G04 #@! TF.SameCoordinates,Original*
G04 #@! TF.FileFunction,Legend,Top*
G04 #@! TF.FilePolarity,Positive*
%FSLAX46Y46*%
G04 Gerber Fmt 4.6, Leading zero omitted, Abs format (unit mm)*
G04 Created by KiCad (PCBNEW 10.0.4) date 2026-07-09 13:35:05*
%MOMM*%
%LPD*%
G01*
G04 APERTURE LIST*
%ADD10C,0.200000*%
%ADD11C,0.150000*%
%ADD12C,0.120000*%
%ADD13C,0.100000*%
%ADD14C,0.000000*%
%ADD15R,1.752600X1.752600*%
%ADD16C,1.752600*%
%ADD17C,1.750000*%
%ADD18C,4.000000*%
%ADD19C,2.500000*%
%ADD20R,1.600000X1.600000*%
%ADD21O,1.600000X1.600000*%
%ADD22C,2.200000*%
%ADD23C,3.048000*%
%ADD24C,3.987800*%
G04 APERTURE END LIST*
D10*
X131671756Y-35722457D02*
X133814613Y-35722457D01*
X132528899Y-34436742D02*
X131671756Y-38293885D01*
X133528899Y-37008171D02*
X131386042Y-37008171D01*
X132671756Y-38293885D02*
X133528899Y-34436742D01*
X134814613Y-37722457D02*
X134814613Y-34722457D01*
X136243184Y-37722457D02*
X136243184Y-35722457D01*
X136243184Y-36008171D02*
X136386041Y-35865314D01*
X136386041Y-35865314D02*
X136671756Y-35722457D01*
X136671756Y-35722457D02*
X137100327Y-35722457D01*
X137100327Y-35722457D02*
X137386041Y-35865314D01*
X137386041Y-35865314D02*
X137528899Y-36151028D01*
X137528899Y-36151028D02*
X137528899Y-37722457D01*
X137528899Y-36151028D02*
X137671756Y-35865314D01*
X137671756Y-35865314D02*
X137957470Y-35722457D01*
X137957470Y-35722457D02*
X138386041Y-35722457D01*
X138386041Y-35722457D02*
X138671756Y-35865314D01*
X138671756Y-35865314D02*
X138814613Y-36151028D01*
X138814613Y-36151028D02*
X138814613Y-37722457D01*
X139528899Y-38008171D02*
X141814613Y-38008171D01*
X142528898Y-37722457D02*
X142528898Y-34722457D01*
X144243184Y-37722457D02*
X142957470Y-36008171D01*
X144243184Y-34722457D02*
X142528898Y-36436742D01*
X146671755Y-37579600D02*
X146386041Y-37722457D01*
X146386041Y-37722457D02*
X145814613Y-37722457D01*
X145814613Y-37722457D02*
X145528898Y-37579600D01*
X145528898Y-37579600D02*
X145386041Y-37293885D01*
X145386041Y-37293885D02*
X145386041Y-36151028D01*
X145386041Y-36151028D02*
X145528898Y-35865314D01*
X145528898Y-35865314D02*
X145814613Y-35722457D01*
X145814613Y-35722457D02*
X146386041Y-35722457D01*
X146386041Y-35722457D02*
X146671755Y-35865314D01*
X146671755Y-35865314D02*
X146814613Y-36151028D01*
X146814613Y-36151028D02*
X146814613Y-36436742D01*
X146814613Y-36436742D02*
X145386041Y-36722457D01*
X147814613Y-35722457D02*
X148528899Y-37722457D01*
X149243184Y-35722457D02*
X148528899Y-37722457D01*
X148528899Y-37722457D02*
X148243184Y-38436742D01*
X148243184Y-38436742D02*
X148100327Y-38579600D01*
X148100327Y-38579600D02*
X147814613Y-38722457D01*
X150386041Y-37722457D02*
X150386041Y-34722457D01*
X150386041Y-35865314D02*
X150671756Y-35722457D01*
X150671756Y-35722457D02*
X151243184Y-35722457D01*
X151243184Y-35722457D02*
X151528898Y-35865314D01*
X151528898Y-35865314D02*
X151671756Y-36008171D01*
X151671756Y-36008171D02*
X151814613Y-36293885D01*
X151814613Y-36293885D02*
X151814613Y-37151028D01*
X151814613Y-37151028D02*
X151671756Y-37436742D01*
X151671756Y-37436742D02*
X151528898Y-37579600D01*
X151528898Y-37579600D02*
X151243184Y-37722457D01*
X151243184Y-37722457D02*
X150671756Y-37722457D01*
X150671756Y-37722457D02*
X150386041Y-37579600D01*
X153528899Y-37722457D02*
X153243184Y-37579600D01*
X153243184Y-37579600D02*
X153100327Y-37436742D01*
X153100327Y-37436742D02*
X152957470Y-37151028D01*
X152957470Y-37151028D02*
X152957470Y-36293885D01*
X152957470Y-36293885D02*
X153100327Y-36008171D01*
X153100327Y-36008171D02*
X153243184Y-35865314D01*
X153243184Y-35865314D02*
X153528899Y-35722457D01*
X153528899Y-35722457D02*
X153957470Y-35722457D01*
X153957470Y-35722457D02*
X154243184Y-35865314D01*
X154243184Y-35865314D02*
X154386042Y-36008171D01*
X154386042Y-36008171D02*
X154528899Y-36293885D01*
X154528899Y-36293885D02*
X154528899Y-37151028D01*
X154528899Y-37151028D02*
X154386042Y-37436742D01*
X154386042Y-37436742D02*
X154243184Y-37579600D01*
X154243184Y-37579600D02*
X153957470Y-37722457D01*
X153957470Y-37722457D02*
X153528899Y-37722457D01*
X157100328Y-37722457D02*
X157100328Y-36151028D01*
X157100328Y-36151028D02*
X156957470Y-35865314D01*
X156957470Y-35865314D02*
X156671756Y-35722457D01*
X156671756Y-35722457D02*
X156100328Y-35722457D01*
X156100328Y-35722457D02*
X155814613Y-35865314D01*
X157100328Y-37579600D02*
X156814613Y-37722457D01*
X156814613Y-37722457D02*
X156100328Y-37722457D01*
X156100328Y-37722457D02*
X155814613Y-37579600D01*
X155814613Y-37579600D02*
X155671756Y-37293885D01*
X155671756Y-37293885D02*
X155671756Y-37008171D01*
X155671756Y-37008171D02*
X155814613Y-36722457D01*
X155814613Y-36722457D02*
X156100328Y-36579600D01*
X156100328Y-36579600D02*
X156814613Y-36579600D01*
X156814613Y-36579600D02*
X157100328Y-36436742D01*
X158528899Y-37722457D02*
X158528899Y-35722457D01*
X158528899Y-36293885D02*
X158671756Y-36008171D01*
X158671756Y-36008171D02*
X158814614Y-35865314D01*
X158814614Y-35865314D02*
X159100328Y-35722457D01*
X159100328Y-35722457D02*
X159386042Y-35722457D01*
X161671757Y-37722457D02*
X161671757Y-34722457D01*
X161671757Y-37579600D02*
X161386042Y-37722457D01*
X161386042Y-37722457D02*
X160814614Y-37722457D01*
X160814614Y-37722457D02*
X160528899Y-37579600D01*
X160528899Y-37579600D02*
X160386042Y-37436742D01*
X160386042Y-37436742D02*
X160243185Y-37151028D01*
X160243185Y-37151028D02*
X160243185Y-36293885D01*
X160243185Y-36293885D02*
X160386042Y-36008171D01*
X160386042Y-36008171D02*
X160528899Y-35865314D01*
X160528899Y-35865314D02*
X160814614Y-35722457D01*
X160814614Y-35722457D02*
X161386042Y-35722457D01*
X161386042Y-35722457D02*
X161671757Y-35865314D01*
X165386042Y-35722457D02*
X165386042Y-38722457D01*
X165386042Y-35865314D02*
X165671757Y-35722457D01*
X165671757Y-35722457D02*
X166243185Y-35722457D01*
X166243185Y-35722457D02*
X166528899Y-35865314D01*
X166528899Y-35865314D02*
X166671757Y-36008171D01*
X166671757Y-36008171D02*
X166814614Y-36293885D01*
X166814614Y-36293885D02*
X166814614Y-37151028D01*
X166814614Y-37151028D02*
X166671757Y-37436742D01*
X166671757Y-37436742D02*
X166528899Y-37579600D01*
X166528899Y-37579600D02*
X166243185Y-37722457D01*
X166243185Y-37722457D02*
X165671757Y-37722457D01*
X165671757Y-37722457D02*
X165386042Y-37579600D01*
X168100328Y-37722457D02*
X168100328Y-35722457D01*
X168100328Y-36293885D02*
X168243185Y-36008171D01*
X168243185Y-36008171D02*
X168386043Y-35865314D01*
X168386043Y-35865314D02*
X168671757Y-35722457D01*
X168671757Y-35722457D02*
X168957471Y-35722457D01*
X170386043Y-37722457D02*
X170100328Y-37579600D01*
X170100328Y-37579600D02*
X169957471Y-37436742D01*
X169957471Y-37436742D02*
X169814614Y-37151028D01*
X169814614Y-37151028D02*
X169814614Y-36293885D01*
X169814614Y-36293885D02*
X169957471Y-36008171D01*
X169957471Y-36008171D02*
X170100328Y-35865314D01*
X170100328Y-35865314D02*
X170386043Y-35722457D01*
X170386043Y-35722457D02*
X170814614Y-35722457D01*
X170814614Y-35722457D02*
X171100328Y-35865314D01*
X171100328Y-35865314D02*
X171243186Y-36008171D01*
X171243186Y-36008171D02*
X171386043Y-36293885D01*
X171386043Y-36293885D02*
X171386043Y-37151028D01*
X171386043Y-37151028D02*
X171243186Y-37436742D01*
X171243186Y-37436742D02*
X171100328Y-37579600D01*
X171100328Y-37579600D02*
X170814614Y-37722457D01*
X170814614Y-37722457D02*
X170386043Y-37722457D01*
X172243186Y-35722457D02*
X173386043Y-35722457D01*
X172671757Y-34722457D02*
X172671757Y-37293885D01*
X172671757Y-37293885D02*
X172814614Y-37579600D01*
X172814614Y-37579600D02*
X173100329Y-37722457D01*
X173100329Y-37722457D02*
X173386043Y-37722457D01*
X174814615Y-37722457D02*
X174528900Y-37579600D01*
X174528900Y-37579600D02*
X174386043Y-37436742D01*
X174386043Y-37436742D02*
X174243186Y-37151028D01*
X174243186Y-37151028D02*
X174243186Y-36293885D01*
X174243186Y-36293885D02*
X174386043Y-36008171D01*
X174386043Y-36008171D02*
X174528900Y-35865314D01*
X174528900Y-35865314D02*
X174814615Y-35722457D01*
X174814615Y-35722457D02*
X175243186Y-35722457D01*
X175243186Y-35722457D02*
X175528900Y-35865314D01*
X175528900Y-35865314D02*
X175671758Y-36008171D01*
X175671758Y-36008171D02*
X175814615Y-36293885D01*
X175814615Y-36293885D02*
X175814615Y-37151028D01*
X175814615Y-37151028D02*
X175671758Y-37436742D01*
X175671758Y-37436742D02*
X175528900Y-37579600D01*
X175528900Y-37579600D02*
X175243186Y-37722457D01*
X175243186Y-37722457D02*
X174814615Y-37722457D01*
X179957472Y-34722457D02*
X180243186Y-34722457D01*
X180243186Y-34722457D02*
X180528900Y-34865314D01*
X180528900Y-34865314D02*
X180671758Y-35008171D01*
X180671758Y-35008171D02*
X180814615Y-35293885D01*
X180814615Y-35293885D02*
X180957472Y-35865314D01*
X180957472Y-35865314D02*
X180957472Y-36579600D01*
X180957472Y-36579600D02*
X180814615Y-37151028D01*
X180814615Y-37151028D02*
X180671758Y-37436742D01*
X180671758Y-37436742D02*
X180528900Y-37579600D01*
X180528900Y-37579600D02*
X180243186Y-37722457D01*
X180243186Y-37722457D02*
X179957472Y-37722457D01*
X179957472Y-37722457D02*
X179671758Y-37579600D01*
X179671758Y-37579600D02*
X179528900Y-37436742D01*
X179528900Y-37436742D02*
X179386043Y-37151028D01*
X179386043Y-37151028D02*
X179243186Y-36579600D01*
X179243186Y-36579600D02*
X179243186Y-35865314D01*
X179243186Y-35865314D02*
X179386043Y-35293885D01*
X179386043Y-35293885D02*
X179528900Y-35008171D01*
X179528900Y-35008171D02*
X179671758Y-34865314D01*
X179671758Y-34865314D02*
X179957472Y-34722457D01*
X182814615Y-34722457D02*
X183100329Y-34722457D01*
X183100329Y-34722457D02*
X183386043Y-34865314D01*
X183386043Y-34865314D02*
X183528901Y-35008171D01*
X183528901Y-35008171D02*
X183671758Y-35293885D01*
X183671758Y-35293885D02*
X183814615Y-35865314D01*
X183814615Y-35865314D02*
X183814615Y-36579600D01*
X183814615Y-36579600D02*
X183671758Y-37151028D01*
X183671758Y-37151028D02*
X183528901Y-37436742D01*
X183528901Y-37436742D02*
X183386043Y-37579600D01*
X183386043Y-37579600D02*
X183100329Y-37722457D01*
X183100329Y-37722457D02*
X182814615Y-37722457D01*
X182814615Y-37722457D02*
X182528901Y-37579600D01*
X182528901Y-37579600D02*
X182386043Y-37436742D01*
X182386043Y-37436742D02*
X182243186Y-37151028D01*
X182243186Y-37151028D02*
X182100329Y-36579600D01*
X182100329Y-36579600D02*
X182100329Y-35865314D01*
X182100329Y-35865314D02*
X182243186Y-35293885D01*
X182243186Y-35293885D02*
X182386043Y-35008171D01*
X182386043Y-35008171D02*
X182528901Y-34865314D01*
X182528901Y-34865314D02*
X182814615Y-34722457D01*
X186671758Y-37722457D02*
X184957472Y-37722457D01*
X185814615Y-37722457D02*
X185814615Y-34722457D01*
X185814615Y-34722457D02*
X185528901Y-35151028D01*
X185528901Y-35151028D02*
X185243186Y-35436742D01*
X185243186Y-35436742D02*
X184957472Y-35579600D01*
D11*
X189261905Y-85275950D02*
X189404762Y-85323569D01*
X189404762Y-85323569D02*
X189642857Y-85323569D01*
X189642857Y-85323569D02*
X189738095Y-85275950D01*
X189738095Y-85275950D02*
X189785714Y-85228330D01*
X189785714Y-85228330D02*
X189833333Y-85133092D01*
X189833333Y-85133092D02*
X189833333Y-85037854D01*
X189833333Y-85037854D02*
X189785714Y-84942616D01*
X189785714Y-84942616D02*
X189738095Y-84894997D01*
X189738095Y-84894997D02*
X189642857Y-84847378D01*
X189642857Y-84847378D02*
X189452381Y-84799759D01*
X189452381Y-84799759D02*
X189357143Y-84752140D01*
X189357143Y-84752140D02*
X189309524Y-84704521D01*
X189309524Y-84704521D02*
X189261905Y-84609283D01*
X189261905Y-84609283D02*
X189261905Y-84514045D01*
X189261905Y-84514045D02*
X189309524Y-84418807D01*
X189309524Y-84418807D02*
X189357143Y-84371188D01*
X189357143Y-84371188D02*
X189452381Y-84323569D01*
X189452381Y-84323569D02*
X189690476Y-84323569D01*
X189690476Y-84323569D02*
X189833333Y-84371188D01*
X190785714Y-85323569D02*
X190214286Y-85323569D01*
X190500000Y-85323569D02*
X190500000Y-84323569D01*
X190500000Y-84323569D02*
X190404762Y-84466426D01*
X190404762Y-84466426D02*
X190309524Y-84561664D01*
X190309524Y-84561664D02*
X190214286Y-84609283D01*
X191261905Y-85323569D02*
X191452381Y-85323569D01*
X191452381Y-85323569D02*
X191547619Y-85275950D01*
X191547619Y-85275950D02*
X191595238Y-85228330D01*
X191595238Y-85228330D02*
X191690476Y-85085473D01*
X191690476Y-85085473D02*
X191738095Y-84894997D01*
X191738095Y-84894997D02*
X191738095Y-84514045D01*
X191738095Y-84514045D02*
X191690476Y-84418807D01*
X191690476Y-84418807D02*
X191642857Y-84371188D01*
X191642857Y-84371188D02*
X191547619Y-84323569D01*
X191547619Y-84323569D02*
X191357143Y-84323569D01*
X191357143Y-84323569D02*
X191261905Y-84371188D01*
X191261905Y-84371188D02*
X191214286Y-84418807D01*
X191214286Y-84418807D02*
X191166667Y-84514045D01*
X191166667Y-84514045D02*
X191166667Y-84752140D01*
X191166667Y-84752140D02*
X191214286Y-84847378D01*
X191214286Y-84847378D02*
X191261905Y-84894997D01*
X191261905Y-84894997D02*
X191357143Y-84942616D01*
X191357143Y-84942616D02*
X191547619Y-84942616D01*
X191547619Y-84942616D02*
X191642857Y-84894997D01*
X191642857Y-84894997D02*
X191690476Y-84847378D01*
X191690476Y-84847378D02*
X191738095Y-84752140D01*
X127818095Y-66225950D02*
X127960952Y-66273569D01*
X127960952Y-66273569D02*
X128199047Y-66273569D01*
X128199047Y-66273569D02*
X128294285Y-66225950D01*
X128294285Y-66225950D02*
X128341904Y-66178330D01*
X128341904Y-66178330D02*
X128389523Y-66083092D01*
X128389523Y-66083092D02*
X128389523Y-65987854D01*
X128389523Y-65987854D02*
X128341904Y-65892616D01*
X128341904Y-65892616D02*
X128294285Y-65844997D01*
X128294285Y-65844997D02*
X128199047Y-65797378D01*
X128199047Y-65797378D02*
X128008571Y-65749759D01*
X128008571Y-65749759D02*
X127913333Y-65702140D01*
X127913333Y-65702140D02*
X127865714Y-65654521D01*
X127865714Y-65654521D02*
X127818095Y-65559283D01*
X127818095Y-65559283D02*
X127818095Y-65464045D01*
X127818095Y-65464045D02*
X127865714Y-65368807D01*
X127865714Y-65368807D02*
X127913333Y-65321188D01*
X127913333Y-65321188D02*
X128008571Y-65273569D01*
X128008571Y-65273569D02*
X128246666Y-65273569D01*
X128246666Y-65273569D02*
X128389523Y-65321188D01*
X129294285Y-65273569D02*
X128818095Y-65273569D01*
X128818095Y-65273569D02*
X128770476Y-65749759D01*
X128770476Y-65749759D02*
X128818095Y-65702140D01*
X128818095Y-65702140D02*
X128913333Y-65654521D01*
X128913333Y-65654521D02*
X129151428Y-65654521D01*
X129151428Y-65654521D02*
X129246666Y-65702140D01*
X129246666Y-65702140D02*
X129294285Y-65749759D01*
X129294285Y-65749759D02*
X129341904Y-65844997D01*
X129341904Y-65844997D02*
X129341904Y-66083092D01*
X129341904Y-66083092D02*
X129294285Y-66178330D01*
X129294285Y-66178330D02*
X129246666Y-66225950D01*
X129246666Y-66225950D02*
X129151428Y-66273569D01*
X129151428Y-66273569D02*
X128913333Y-66273569D01*
X128913333Y-66273569D02*
X128818095Y-66225950D01*
X128818095Y-66225950D02*
X128770476Y-66178330D01*
X151161905Y-123375950D02*
X151304762Y-123423569D01*
X151304762Y-123423569D02*
X151542857Y-123423569D01*
X151542857Y-123423569D02*
X151638095Y-123375950D01*
X151638095Y-123375950D02*
X151685714Y-123328330D01*
X151685714Y-123328330D02*
X151733333Y-123233092D01*
X151733333Y-123233092D02*
X151733333Y-123137854D01*
X151733333Y-123137854D02*
X151685714Y-123042616D01*
X151685714Y-123042616D02*
X151638095Y-122994997D01*
X151638095Y-122994997D02*
X151542857Y-122947378D01*
X151542857Y-122947378D02*
X151352381Y-122899759D01*
X151352381Y-122899759D02*
X151257143Y-122852140D01*
X151257143Y-122852140D02*
X151209524Y-122804521D01*
X151209524Y-122804521D02*
X151161905Y-122709283D01*
X151161905Y-122709283D02*
X151161905Y-122614045D01*
X151161905Y-122614045D02*
X151209524Y-122518807D01*
X151209524Y-122518807D02*
X151257143Y-122471188D01*
X151257143Y-122471188D02*
X151352381Y-122423569D01*
X151352381Y-122423569D02*
X151590476Y-122423569D01*
X151590476Y-122423569D02*
X151733333Y-122471188D01*
X152066667Y-122423569D02*
X152685714Y-122423569D01*
X152685714Y-122423569D02*
X152352381Y-122804521D01*
X152352381Y-122804521D02*
X152495238Y-122804521D01*
X152495238Y-122804521D02*
X152590476Y-122852140D01*
X152590476Y-122852140D02*
X152638095Y-122899759D01*
X152638095Y-122899759D02*
X152685714Y-122994997D01*
X152685714Y-122994997D02*
X152685714Y-123233092D01*
X152685714Y-123233092D02*
X152638095Y-123328330D01*
X152638095Y-123328330D02*
X152590476Y-123375950D01*
X152590476Y-123375950D02*
X152495238Y-123423569D01*
X152495238Y-123423569D02*
X152209524Y-123423569D01*
X152209524Y-123423569D02*
X152114286Y-123375950D01*
X152114286Y-123375950D02*
X152066667Y-123328330D01*
X153066667Y-122518807D02*
X153114286Y-122471188D01*
X153114286Y-122471188D02*
X153209524Y-122423569D01*
X153209524Y-122423569D02*
X153447619Y-122423569D01*
X153447619Y-122423569D02*
X153542857Y-122471188D01*
X153542857Y-122471188D02*
X153590476Y-122518807D01*
X153590476Y-122518807D02*
X153638095Y-122614045D01*
X153638095Y-122614045D02*
X153638095Y-122709283D01*
X153638095Y-122709283D02*
X153590476Y-122852140D01*
X153590476Y-122852140D02*
X153019048Y-123423569D01*
X153019048Y-123423569D02*
X153638095Y-123423569D01*
X241649405Y-66225950D02*
X241792262Y-66273569D01*
X241792262Y-66273569D02*
X242030357Y-66273569D01*
X242030357Y-66273569D02*
X242125595Y-66225950D01*
X242125595Y-66225950D02*
X242173214Y-66178330D01*
X242173214Y-66178330D02*
X242220833Y-66083092D01*
X242220833Y-66083092D02*
X242220833Y-65987854D01*
X242220833Y-65987854D02*
X242173214Y-65892616D01*
X242173214Y-65892616D02*
X242125595Y-65844997D01*
X242125595Y-65844997D02*
X242030357Y-65797378D01*
X242030357Y-65797378D02*
X241839881Y-65749759D01*
X241839881Y-65749759D02*
X241744643Y-65702140D01*
X241744643Y-65702140D02*
X241697024Y-65654521D01*
X241697024Y-65654521D02*
X241649405Y-65559283D01*
X241649405Y-65559283D02*
X241649405Y-65464045D01*
X241649405Y-65464045D02*
X241697024Y-65368807D01*
X241697024Y-65368807D02*
X241744643Y-65321188D01*
X241744643Y-65321188D02*
X241839881Y-65273569D01*
X241839881Y-65273569D02*
X242077976Y-65273569D01*
X242077976Y-65273569D02*
X242220833Y-65321188D01*
X243173214Y-66273569D02*
X242601786Y-66273569D01*
X242887500Y-66273569D02*
X242887500Y-65273569D01*
X242887500Y-65273569D02*
X242792262Y-65416426D01*
X242792262Y-65416426D02*
X242697024Y-65511664D01*
X242697024Y-65511664D02*
X242601786Y-65559283D01*
X244125595Y-66273569D02*
X243554167Y-66273569D01*
X243839881Y-66273569D02*
X243839881Y-65273569D01*
X243839881Y-65273569D02*
X243744643Y-65416426D01*
X243744643Y-65416426D02*
X243649405Y-65511664D01*
X243649405Y-65511664D02*
X243554167Y-65559283D01*
X227361905Y-85275950D02*
X227504762Y-85323569D01*
X227504762Y-85323569D02*
X227742857Y-85323569D01*
X227742857Y-85323569D02*
X227838095Y-85275950D01*
X227838095Y-85275950D02*
X227885714Y-85228330D01*
X227885714Y-85228330D02*
X227933333Y-85133092D01*
X227933333Y-85133092D02*
X227933333Y-85037854D01*
X227933333Y-85037854D02*
X227885714Y-84942616D01*
X227885714Y-84942616D02*
X227838095Y-84894997D01*
X227838095Y-84894997D02*
X227742857Y-84847378D01*
X227742857Y-84847378D02*
X227552381Y-84799759D01*
X227552381Y-84799759D02*
X227457143Y-84752140D01*
X227457143Y-84752140D02*
X227409524Y-84704521D01*
X227409524Y-84704521D02*
X227361905Y-84609283D01*
X227361905Y-84609283D02*
X227361905Y-84514045D01*
X227361905Y-84514045D02*
X227409524Y-84418807D01*
X227409524Y-84418807D02*
X227457143Y-84371188D01*
X227457143Y-84371188D02*
X227552381Y-84323569D01*
X227552381Y-84323569D02*
X227790476Y-84323569D01*
X227790476Y-84323569D02*
X227933333Y-84371188D01*
X228314286Y-84418807D02*
X228361905Y-84371188D01*
X228361905Y-84371188D02*
X228457143Y-84323569D01*
X228457143Y-84323569D02*
X228695238Y-84323569D01*
X228695238Y-84323569D02*
X228790476Y-84371188D01*
X228790476Y-84371188D02*
X228838095Y-84418807D01*
X228838095Y-84418807D02*
X228885714Y-84514045D01*
X228885714Y-84514045D02*
X228885714Y-84609283D01*
X228885714Y-84609283D02*
X228838095Y-84752140D01*
X228838095Y-84752140D02*
X228266667Y-85323569D01*
X228266667Y-85323569D02*
X228885714Y-85323569D01*
X229838095Y-85323569D02*
X229266667Y-85323569D01*
X229552381Y-85323569D02*
X229552381Y-84323569D01*
X229552381Y-84323569D02*
X229457143Y-84466426D01*
X229457143Y-84466426D02*
X229361905Y-84561664D01*
X229361905Y-84561664D02*
X229266667Y-84609283D01*
X201168155Y-123375950D02*
X201311012Y-123423569D01*
X201311012Y-123423569D02*
X201549107Y-123423569D01*
X201549107Y-123423569D02*
X201644345Y-123375950D01*
X201644345Y-123375950D02*
X201691964Y-123328330D01*
X201691964Y-123328330D02*
X201739583Y-123233092D01*
X201739583Y-123233092D02*
X201739583Y-123137854D01*
X201739583Y-123137854D02*
X201691964Y-123042616D01*
X201691964Y-123042616D02*
X201644345Y-122994997D01*
X201644345Y-122994997D02*
X201549107Y-122947378D01*
X201549107Y-122947378D02*
X201358631Y-122899759D01*
X201358631Y-122899759D02*
X201263393Y-122852140D01*
X201263393Y-122852140D02*
X201215774Y-122804521D01*
X201215774Y-122804521D02*
X201168155Y-122709283D01*
X201168155Y-122709283D02*
X201168155Y-122614045D01*
X201168155Y-122614045D02*
X201215774Y-122518807D01*
X201215774Y-122518807D02*
X201263393Y-122471188D01*
X201263393Y-122471188D02*
X201358631Y-122423569D01*
X201358631Y-122423569D02*
X201596726Y-122423569D01*
X201596726Y-122423569D02*
X201739583Y-122471188D01*
X202072917Y-122423569D02*
X202691964Y-122423569D01*
X202691964Y-122423569D02*
X202358631Y-122804521D01*
X202358631Y-122804521D02*
X202501488Y-122804521D01*
X202501488Y-122804521D02*
X202596726Y-122852140D01*
X202596726Y-122852140D02*
X202644345Y-122899759D01*
X202644345Y-122899759D02*
X202691964Y-122994997D01*
X202691964Y-122994997D02*
X202691964Y-123233092D01*
X202691964Y-123233092D02*
X202644345Y-123328330D01*
X202644345Y-123328330D02*
X202596726Y-123375950D01*
X202596726Y-123375950D02*
X202501488Y-123423569D01*
X202501488Y-123423569D02*
X202215774Y-123423569D01*
X202215774Y-123423569D02*
X202120536Y-123375950D01*
X202120536Y-123375950D02*
X202072917Y-123328330D01*
X203549107Y-122756902D02*
X203549107Y-123423569D01*
X203311012Y-122375950D02*
X203072917Y-123090235D01*
X203072917Y-123090235D02*
X203691964Y-123090235D01*
X160686905Y-104325950D02*
X160829762Y-104373569D01*
X160829762Y-104373569D02*
X161067857Y-104373569D01*
X161067857Y-104373569D02*
X161163095Y-104325950D01*
X161163095Y-104325950D02*
X161210714Y-104278330D01*
X161210714Y-104278330D02*
X161258333Y-104183092D01*
X161258333Y-104183092D02*
X161258333Y-104087854D01*
X161258333Y-104087854D02*
X161210714Y-103992616D01*
X161210714Y-103992616D02*
X161163095Y-103944997D01*
X161163095Y-103944997D02*
X161067857Y-103897378D01*
X161067857Y-103897378D02*
X160877381Y-103849759D01*
X160877381Y-103849759D02*
X160782143Y-103802140D01*
X160782143Y-103802140D02*
X160734524Y-103754521D01*
X160734524Y-103754521D02*
X160686905Y-103659283D01*
X160686905Y-103659283D02*
X160686905Y-103564045D01*
X160686905Y-103564045D02*
X160734524Y-103468807D01*
X160734524Y-103468807D02*
X160782143Y-103421188D01*
X160782143Y-103421188D02*
X160877381Y-103373569D01*
X160877381Y-103373569D02*
X161115476Y-103373569D01*
X161115476Y-103373569D02*
X161258333Y-103421188D01*
X161639286Y-103468807D02*
X161686905Y-103421188D01*
X161686905Y-103421188D02*
X161782143Y-103373569D01*
X161782143Y-103373569D02*
X162020238Y-103373569D01*
X162020238Y-103373569D02*
X162115476Y-103421188D01*
X162115476Y-103421188D02*
X162163095Y-103468807D01*
X162163095Y-103468807D02*
X162210714Y-103564045D01*
X162210714Y-103564045D02*
X162210714Y-103659283D01*
X162210714Y-103659283D02*
X162163095Y-103802140D01*
X162163095Y-103802140D02*
X161591667Y-104373569D01*
X161591667Y-104373569D02*
X162210714Y-104373569D01*
X162544048Y-103373569D02*
X163210714Y-103373569D01*
X163210714Y-103373569D02*
X162782143Y-104373569D01*
X170211905Y-85275950D02*
X170354762Y-85323569D01*
X170354762Y-85323569D02*
X170592857Y-85323569D01*
X170592857Y-85323569D02*
X170688095Y-85275950D01*
X170688095Y-85275950D02*
X170735714Y-85228330D01*
X170735714Y-85228330D02*
X170783333Y-85133092D01*
X170783333Y-85133092D02*
X170783333Y-85037854D01*
X170783333Y-85037854D02*
X170735714Y-84942616D01*
X170735714Y-84942616D02*
X170688095Y-84894997D01*
X170688095Y-84894997D02*
X170592857Y-84847378D01*
X170592857Y-84847378D02*
X170402381Y-84799759D01*
X170402381Y-84799759D02*
X170307143Y-84752140D01*
X170307143Y-84752140D02*
X170259524Y-84704521D01*
X170259524Y-84704521D02*
X170211905Y-84609283D01*
X170211905Y-84609283D02*
X170211905Y-84514045D01*
X170211905Y-84514045D02*
X170259524Y-84418807D01*
X170259524Y-84418807D02*
X170307143Y-84371188D01*
X170307143Y-84371188D02*
X170402381Y-84323569D01*
X170402381Y-84323569D02*
X170640476Y-84323569D01*
X170640476Y-84323569D02*
X170783333Y-84371188D01*
X171735714Y-85323569D02*
X171164286Y-85323569D01*
X171450000Y-85323569D02*
X171450000Y-84323569D01*
X171450000Y-84323569D02*
X171354762Y-84466426D01*
X171354762Y-84466426D02*
X171259524Y-84561664D01*
X171259524Y-84561664D02*
X171164286Y-84609283D01*
X172307143Y-84752140D02*
X172211905Y-84704521D01*
X172211905Y-84704521D02*
X172164286Y-84656902D01*
X172164286Y-84656902D02*
X172116667Y-84561664D01*
X172116667Y-84561664D02*
X172116667Y-84514045D01*
X172116667Y-84514045D02*
X172164286Y-84418807D01*
X172164286Y-84418807D02*
X172211905Y-84371188D01*
X172211905Y-84371188D02*
X172307143Y-84323569D01*
X172307143Y-84323569D02*
X172497619Y-84323569D01*
X172497619Y-84323569D02*
X172592857Y-84371188D01*
X172592857Y-84371188D02*
X172640476Y-84418807D01*
X172640476Y-84418807D02*
X172688095Y-84514045D01*
X172688095Y-84514045D02*
X172688095Y-84561664D01*
X172688095Y-84561664D02*
X172640476Y-84656902D01*
X172640476Y-84656902D02*
X172592857Y-84704521D01*
X172592857Y-84704521D02*
X172497619Y-84752140D01*
X172497619Y-84752140D02*
X172307143Y-84752140D01*
X172307143Y-84752140D02*
X172211905Y-84799759D01*
X172211905Y-84799759D02*
X172164286Y-84847378D01*
X172164286Y-84847378D02*
X172116667Y-84942616D01*
X172116667Y-84942616D02*
X172116667Y-85133092D01*
X172116667Y-85133092D02*
X172164286Y-85228330D01*
X172164286Y-85228330D02*
X172211905Y-85275950D01*
X172211905Y-85275950D02*
X172307143Y-85323569D01*
X172307143Y-85323569D02*
X172497619Y-85323569D01*
X172497619Y-85323569D02*
X172592857Y-85275950D01*
X172592857Y-85275950D02*
X172640476Y-85228330D01*
X172640476Y-85228330D02*
X172688095Y-85133092D01*
X172688095Y-85133092D02*
X172688095Y-84942616D01*
X172688095Y-84942616D02*
X172640476Y-84847378D01*
X172640476Y-84847378D02*
X172592857Y-84799759D01*
X172592857Y-84799759D02*
X172497619Y-84752140D01*
X58293155Y-104325950D02*
X58436012Y-104373569D01*
X58436012Y-104373569D02*
X58674107Y-104373569D01*
X58674107Y-104373569D02*
X58769345Y-104325950D01*
X58769345Y-104325950D02*
X58816964Y-104278330D01*
X58816964Y-104278330D02*
X58864583Y-104183092D01*
X58864583Y-104183092D02*
X58864583Y-104087854D01*
X58864583Y-104087854D02*
X58816964Y-103992616D01*
X58816964Y-103992616D02*
X58769345Y-103944997D01*
X58769345Y-103944997D02*
X58674107Y-103897378D01*
X58674107Y-103897378D02*
X58483631Y-103849759D01*
X58483631Y-103849759D02*
X58388393Y-103802140D01*
X58388393Y-103802140D02*
X58340774Y-103754521D01*
X58340774Y-103754521D02*
X58293155Y-103659283D01*
X58293155Y-103659283D02*
X58293155Y-103564045D01*
X58293155Y-103564045D02*
X58340774Y-103468807D01*
X58340774Y-103468807D02*
X58388393Y-103421188D01*
X58388393Y-103421188D02*
X58483631Y-103373569D01*
X58483631Y-103373569D02*
X58721726Y-103373569D01*
X58721726Y-103373569D02*
X58864583Y-103421188D01*
X59245536Y-103468807D02*
X59293155Y-103421188D01*
X59293155Y-103421188D02*
X59388393Y-103373569D01*
X59388393Y-103373569D02*
X59626488Y-103373569D01*
X59626488Y-103373569D02*
X59721726Y-103421188D01*
X59721726Y-103421188D02*
X59769345Y-103468807D01*
X59769345Y-103468807D02*
X59816964Y-103564045D01*
X59816964Y-103564045D02*
X59816964Y-103659283D01*
X59816964Y-103659283D02*
X59769345Y-103802140D01*
X59769345Y-103802140D02*
X59197917Y-104373569D01*
X59197917Y-104373569D02*
X59816964Y-104373569D01*
X60197917Y-103468807D02*
X60245536Y-103421188D01*
X60245536Y-103421188D02*
X60340774Y-103373569D01*
X60340774Y-103373569D02*
X60578869Y-103373569D01*
X60578869Y-103373569D02*
X60674107Y-103421188D01*
X60674107Y-103421188D02*
X60721726Y-103468807D01*
X60721726Y-103468807D02*
X60769345Y-103564045D01*
X60769345Y-103564045D02*
X60769345Y-103659283D01*
X60769345Y-103659283D02*
X60721726Y-103802140D01*
X60721726Y-103802140D02*
X60150298Y-104373569D01*
X60150298Y-104373569D02*
X60769345Y-104373569D01*
X51625595Y-66225950D02*
X51768452Y-66273569D01*
X51768452Y-66273569D02*
X52006547Y-66273569D01*
X52006547Y-66273569D02*
X52101785Y-66225950D01*
X52101785Y-66225950D02*
X52149404Y-66178330D01*
X52149404Y-66178330D02*
X52197023Y-66083092D01*
X52197023Y-66083092D02*
X52197023Y-65987854D01*
X52197023Y-65987854D02*
X52149404Y-65892616D01*
X52149404Y-65892616D02*
X52101785Y-65844997D01*
X52101785Y-65844997D02*
X52006547Y-65797378D01*
X52006547Y-65797378D02*
X51816071Y-65749759D01*
X51816071Y-65749759D02*
X51720833Y-65702140D01*
X51720833Y-65702140D02*
X51673214Y-65654521D01*
X51673214Y-65654521D02*
X51625595Y-65559283D01*
X51625595Y-65559283D02*
X51625595Y-65464045D01*
X51625595Y-65464045D02*
X51673214Y-65368807D01*
X51673214Y-65368807D02*
X51720833Y-65321188D01*
X51720833Y-65321188D02*
X51816071Y-65273569D01*
X51816071Y-65273569D02*
X52054166Y-65273569D01*
X52054166Y-65273569D02*
X52197023Y-65321188D01*
X53149404Y-66273569D02*
X52577976Y-66273569D01*
X52863690Y-66273569D02*
X52863690Y-65273569D01*
X52863690Y-65273569D02*
X52768452Y-65416426D01*
X52768452Y-65416426D02*
X52673214Y-65511664D01*
X52673214Y-65511664D02*
X52577976Y-65559283D01*
X108738095Y-66225950D02*
X108880952Y-66273569D01*
X108880952Y-66273569D02*
X109119047Y-66273569D01*
X109119047Y-66273569D02*
X109214285Y-66225950D01*
X109214285Y-66225950D02*
X109261904Y-66178330D01*
X109261904Y-66178330D02*
X109309523Y-66083092D01*
X109309523Y-66083092D02*
X109309523Y-65987854D01*
X109309523Y-65987854D02*
X109261904Y-65892616D01*
X109261904Y-65892616D02*
X109214285Y-65844997D01*
X109214285Y-65844997D02*
X109119047Y-65797378D01*
X109119047Y-65797378D02*
X108928571Y-65749759D01*
X108928571Y-65749759D02*
X108833333Y-65702140D01*
X108833333Y-65702140D02*
X108785714Y-65654521D01*
X108785714Y-65654521D02*
X108738095Y-65559283D01*
X108738095Y-65559283D02*
X108738095Y-65464045D01*
X108738095Y-65464045D02*
X108785714Y-65368807D01*
X108785714Y-65368807D02*
X108833333Y-65321188D01*
X108833333Y-65321188D02*
X108928571Y-65273569D01*
X108928571Y-65273569D02*
X109166666Y-65273569D01*
X109166666Y-65273569D02*
X109309523Y-65321188D01*
X110166666Y-65606902D02*
X110166666Y-66273569D01*
X109928571Y-65225950D02*
X109690476Y-65940235D01*
X109690476Y-65940235D02*
X110309523Y-65940235D01*
X141636905Y-104325950D02*
X141779762Y-104373569D01*
X141779762Y-104373569D02*
X142017857Y-104373569D01*
X142017857Y-104373569D02*
X142113095Y-104325950D01*
X142113095Y-104325950D02*
X142160714Y-104278330D01*
X142160714Y-104278330D02*
X142208333Y-104183092D01*
X142208333Y-104183092D02*
X142208333Y-104087854D01*
X142208333Y-104087854D02*
X142160714Y-103992616D01*
X142160714Y-103992616D02*
X142113095Y-103944997D01*
X142113095Y-103944997D02*
X142017857Y-103897378D01*
X142017857Y-103897378D02*
X141827381Y-103849759D01*
X141827381Y-103849759D02*
X141732143Y-103802140D01*
X141732143Y-103802140D02*
X141684524Y-103754521D01*
X141684524Y-103754521D02*
X141636905Y-103659283D01*
X141636905Y-103659283D02*
X141636905Y-103564045D01*
X141636905Y-103564045D02*
X141684524Y-103468807D01*
X141684524Y-103468807D02*
X141732143Y-103421188D01*
X141732143Y-103421188D02*
X141827381Y-103373569D01*
X141827381Y-103373569D02*
X142065476Y-103373569D01*
X142065476Y-103373569D02*
X142208333Y-103421188D01*
X142589286Y-103468807D02*
X142636905Y-103421188D01*
X142636905Y-103421188D02*
X142732143Y-103373569D01*
X142732143Y-103373569D02*
X142970238Y-103373569D01*
X142970238Y-103373569D02*
X143065476Y-103421188D01*
X143065476Y-103421188D02*
X143113095Y-103468807D01*
X143113095Y-103468807D02*
X143160714Y-103564045D01*
X143160714Y-103564045D02*
X143160714Y-103659283D01*
X143160714Y-103659283D02*
X143113095Y-103802140D01*
X143113095Y-103802140D02*
X142541667Y-104373569D01*
X142541667Y-104373569D02*
X143160714Y-104373569D01*
X144017857Y-103373569D02*
X143827381Y-103373569D01*
X143827381Y-103373569D02*
X143732143Y-103421188D01*
X143732143Y-103421188D02*
X143684524Y-103468807D01*
X143684524Y-103468807D02*
X143589286Y-103611664D01*
X143589286Y-103611664D02*
X143541667Y-103802140D01*
X143541667Y-103802140D02*
X143541667Y-104183092D01*
X143541667Y-104183092D02*
X143589286Y-104278330D01*
X143589286Y-104278330D02*
X143636905Y-104325950D01*
X143636905Y-104325950D02*
X143732143Y-104373569D01*
X143732143Y-104373569D02*
X143922619Y-104373569D01*
X143922619Y-104373569D02*
X144017857Y-104325950D01*
X144017857Y-104325950D02*
X144065476Y-104278330D01*
X144065476Y-104278330D02*
X144113095Y-104183092D01*
X144113095Y-104183092D02*
X144113095Y-103944997D01*
X144113095Y-103944997D02*
X144065476Y-103849759D01*
X144065476Y-103849759D02*
X144017857Y-103802140D01*
X144017857Y-103802140D02*
X143922619Y-103754521D01*
X143922619Y-103754521D02*
X143732143Y-103754521D01*
X143732143Y-103754521D02*
X143636905Y-103802140D01*
X143636905Y-103802140D02*
X143589286Y-103849759D01*
X143589286Y-103849759D02*
X143541667Y-103944997D01*
X208311905Y-85275950D02*
X208454762Y-85323569D01*
X208454762Y-85323569D02*
X208692857Y-85323569D01*
X208692857Y-85323569D02*
X208788095Y-85275950D01*
X208788095Y-85275950D02*
X208835714Y-85228330D01*
X208835714Y-85228330D02*
X208883333Y-85133092D01*
X208883333Y-85133092D02*
X208883333Y-85037854D01*
X208883333Y-85037854D02*
X208835714Y-84942616D01*
X208835714Y-84942616D02*
X208788095Y-84894997D01*
X208788095Y-84894997D02*
X208692857Y-84847378D01*
X208692857Y-84847378D02*
X208502381Y-84799759D01*
X208502381Y-84799759D02*
X208407143Y-84752140D01*
X208407143Y-84752140D02*
X208359524Y-84704521D01*
X208359524Y-84704521D02*
X208311905Y-84609283D01*
X208311905Y-84609283D02*
X208311905Y-84514045D01*
X208311905Y-84514045D02*
X208359524Y-84418807D01*
X208359524Y-84418807D02*
X208407143Y-84371188D01*
X208407143Y-84371188D02*
X208502381Y-84323569D01*
X208502381Y-84323569D02*
X208740476Y-84323569D01*
X208740476Y-84323569D02*
X208883333Y-84371188D01*
X209264286Y-84418807D02*
X209311905Y-84371188D01*
X209311905Y-84371188D02*
X209407143Y-84323569D01*
X209407143Y-84323569D02*
X209645238Y-84323569D01*
X209645238Y-84323569D02*
X209740476Y-84371188D01*
X209740476Y-84371188D02*
X209788095Y-84418807D01*
X209788095Y-84418807D02*
X209835714Y-84514045D01*
X209835714Y-84514045D02*
X209835714Y-84609283D01*
X209835714Y-84609283D02*
X209788095Y-84752140D01*
X209788095Y-84752140D02*
X209216667Y-85323569D01*
X209216667Y-85323569D02*
X209835714Y-85323569D01*
X210454762Y-84323569D02*
X210550000Y-84323569D01*
X210550000Y-84323569D02*
X210645238Y-84371188D01*
X210645238Y-84371188D02*
X210692857Y-84418807D01*
X210692857Y-84418807D02*
X210740476Y-84514045D01*
X210740476Y-84514045D02*
X210788095Y-84704521D01*
X210788095Y-84704521D02*
X210788095Y-84942616D01*
X210788095Y-84942616D02*
X210740476Y-85133092D01*
X210740476Y-85133092D02*
X210692857Y-85228330D01*
X210692857Y-85228330D02*
X210645238Y-85275950D01*
X210645238Y-85275950D02*
X210550000Y-85323569D01*
X210550000Y-85323569D02*
X210454762Y-85323569D01*
X210454762Y-85323569D02*
X210359524Y-85275950D01*
X210359524Y-85275950D02*
X210311905Y-85228330D01*
X210311905Y-85228330D02*
X210264286Y-85133092D01*
X210264286Y-85133092D02*
X210216667Y-84942616D01*
X210216667Y-84942616D02*
X210216667Y-84704521D01*
X210216667Y-84704521D02*
X210264286Y-84514045D01*
X210264286Y-84514045D02*
X210311905Y-84418807D01*
X210311905Y-84418807D02*
X210359524Y-84371188D01*
X210359524Y-84371188D02*
X210454762Y-84323569D01*
X229743155Y-104325950D02*
X229886012Y-104373569D01*
X229886012Y-104373569D02*
X230124107Y-104373569D01*
X230124107Y-104373569D02*
X230219345Y-104325950D01*
X230219345Y-104325950D02*
X230266964Y-104278330D01*
X230266964Y-104278330D02*
X230314583Y-104183092D01*
X230314583Y-104183092D02*
X230314583Y-104087854D01*
X230314583Y-104087854D02*
X230266964Y-103992616D01*
X230266964Y-103992616D02*
X230219345Y-103944997D01*
X230219345Y-103944997D02*
X230124107Y-103897378D01*
X230124107Y-103897378D02*
X229933631Y-103849759D01*
X229933631Y-103849759D02*
X229838393Y-103802140D01*
X229838393Y-103802140D02*
X229790774Y-103754521D01*
X229790774Y-103754521D02*
X229743155Y-103659283D01*
X229743155Y-103659283D02*
X229743155Y-103564045D01*
X229743155Y-103564045D02*
X229790774Y-103468807D01*
X229790774Y-103468807D02*
X229838393Y-103421188D01*
X229838393Y-103421188D02*
X229933631Y-103373569D01*
X229933631Y-103373569D02*
X230171726Y-103373569D01*
X230171726Y-103373569D02*
X230314583Y-103421188D01*
X230647917Y-103373569D02*
X231266964Y-103373569D01*
X231266964Y-103373569D02*
X230933631Y-103754521D01*
X230933631Y-103754521D02*
X231076488Y-103754521D01*
X231076488Y-103754521D02*
X231171726Y-103802140D01*
X231171726Y-103802140D02*
X231219345Y-103849759D01*
X231219345Y-103849759D02*
X231266964Y-103944997D01*
X231266964Y-103944997D02*
X231266964Y-104183092D01*
X231266964Y-104183092D02*
X231219345Y-104278330D01*
X231219345Y-104278330D02*
X231171726Y-104325950D01*
X231171726Y-104325950D02*
X231076488Y-104373569D01*
X231076488Y-104373569D02*
X230790774Y-104373569D01*
X230790774Y-104373569D02*
X230695536Y-104325950D01*
X230695536Y-104325950D02*
X230647917Y-104278330D01*
X231886012Y-103373569D02*
X231981250Y-103373569D01*
X231981250Y-103373569D02*
X232076488Y-103421188D01*
X232076488Y-103421188D02*
X232124107Y-103468807D01*
X232124107Y-103468807D02*
X232171726Y-103564045D01*
X232171726Y-103564045D02*
X232219345Y-103754521D01*
X232219345Y-103754521D02*
X232219345Y-103992616D01*
X232219345Y-103992616D02*
X232171726Y-104183092D01*
X232171726Y-104183092D02*
X232124107Y-104278330D01*
X232124107Y-104278330D02*
X232076488Y-104325950D01*
X232076488Y-104325950D02*
X231981250Y-104373569D01*
X231981250Y-104373569D02*
X231886012Y-104373569D01*
X231886012Y-104373569D02*
X231790774Y-104325950D01*
X231790774Y-104325950D02*
X231743155Y-104278330D01*
X231743155Y-104278330D02*
X231695536Y-104183092D01*
X231695536Y-104183092D02*
X231647917Y-103992616D01*
X231647917Y-103992616D02*
X231647917Y-103754521D01*
X231647917Y-103754521D02*
X231695536Y-103564045D01*
X231695536Y-103564045D02*
X231743155Y-103468807D01*
X231743155Y-103468807D02*
X231790774Y-103421188D01*
X231790774Y-103421188D02*
X231886012Y-103373569D01*
X184975595Y-66225950D02*
X185118452Y-66273569D01*
X185118452Y-66273569D02*
X185356547Y-66273569D01*
X185356547Y-66273569D02*
X185451785Y-66225950D01*
X185451785Y-66225950D02*
X185499404Y-66178330D01*
X185499404Y-66178330D02*
X185547023Y-66083092D01*
X185547023Y-66083092D02*
X185547023Y-65987854D01*
X185547023Y-65987854D02*
X185499404Y-65892616D01*
X185499404Y-65892616D02*
X185451785Y-65844997D01*
X185451785Y-65844997D02*
X185356547Y-65797378D01*
X185356547Y-65797378D02*
X185166071Y-65749759D01*
X185166071Y-65749759D02*
X185070833Y-65702140D01*
X185070833Y-65702140D02*
X185023214Y-65654521D01*
X185023214Y-65654521D02*
X184975595Y-65559283D01*
X184975595Y-65559283D02*
X184975595Y-65464045D01*
X184975595Y-65464045D02*
X185023214Y-65368807D01*
X185023214Y-65368807D02*
X185070833Y-65321188D01*
X185070833Y-65321188D02*
X185166071Y-65273569D01*
X185166071Y-65273569D02*
X185404166Y-65273569D01*
X185404166Y-65273569D02*
X185547023Y-65321188D01*
X186118452Y-65702140D02*
X186023214Y-65654521D01*
X186023214Y-65654521D02*
X185975595Y-65606902D01*
X185975595Y-65606902D02*
X185927976Y-65511664D01*
X185927976Y-65511664D02*
X185927976Y-65464045D01*
X185927976Y-65464045D02*
X185975595Y-65368807D01*
X185975595Y-65368807D02*
X186023214Y-65321188D01*
X186023214Y-65321188D02*
X186118452Y-65273569D01*
X186118452Y-65273569D02*
X186308928Y-65273569D01*
X186308928Y-65273569D02*
X186404166Y-65321188D01*
X186404166Y-65321188D02*
X186451785Y-65368807D01*
X186451785Y-65368807D02*
X186499404Y-65464045D01*
X186499404Y-65464045D02*
X186499404Y-65511664D01*
X186499404Y-65511664D02*
X186451785Y-65606902D01*
X186451785Y-65606902D02*
X186404166Y-65654521D01*
X186404166Y-65654521D02*
X186308928Y-65702140D01*
X186308928Y-65702140D02*
X186118452Y-65702140D01*
X186118452Y-65702140D02*
X186023214Y-65749759D01*
X186023214Y-65749759D02*
X185975595Y-65797378D01*
X185975595Y-65797378D02*
X185927976Y-65892616D01*
X185927976Y-65892616D02*
X185927976Y-66083092D01*
X185927976Y-66083092D02*
X185975595Y-66178330D01*
X185975595Y-66178330D02*
X186023214Y-66225950D01*
X186023214Y-66225950D02*
X186118452Y-66273569D01*
X186118452Y-66273569D02*
X186308928Y-66273569D01*
X186308928Y-66273569D02*
X186404166Y-66225950D01*
X186404166Y-66225950D02*
X186451785Y-66178330D01*
X186451785Y-66178330D02*
X186499404Y-66083092D01*
X186499404Y-66083092D02*
X186499404Y-65892616D01*
X186499404Y-65892616D02*
X186451785Y-65797378D01*
X186451785Y-65797378D02*
X186404166Y-65749759D01*
X186404166Y-65749759D02*
X186308928Y-65702140D01*
X53530655Y-85275950D02*
X53673512Y-85323569D01*
X53673512Y-85323569D02*
X53911607Y-85323569D01*
X53911607Y-85323569D02*
X54006845Y-85275950D01*
X54006845Y-85275950D02*
X54054464Y-85228330D01*
X54054464Y-85228330D02*
X54102083Y-85133092D01*
X54102083Y-85133092D02*
X54102083Y-85037854D01*
X54102083Y-85037854D02*
X54054464Y-84942616D01*
X54054464Y-84942616D02*
X54006845Y-84894997D01*
X54006845Y-84894997D02*
X53911607Y-84847378D01*
X53911607Y-84847378D02*
X53721131Y-84799759D01*
X53721131Y-84799759D02*
X53625893Y-84752140D01*
X53625893Y-84752140D02*
X53578274Y-84704521D01*
X53578274Y-84704521D02*
X53530655Y-84609283D01*
X53530655Y-84609283D02*
X53530655Y-84514045D01*
X53530655Y-84514045D02*
X53578274Y-84418807D01*
X53578274Y-84418807D02*
X53625893Y-84371188D01*
X53625893Y-84371188D02*
X53721131Y-84323569D01*
X53721131Y-84323569D02*
X53959226Y-84323569D01*
X53959226Y-84323569D02*
X54102083Y-84371188D01*
X55054464Y-85323569D02*
X54483036Y-85323569D01*
X54768750Y-85323569D02*
X54768750Y-84323569D01*
X54768750Y-84323569D02*
X54673512Y-84466426D01*
X54673512Y-84466426D02*
X54578274Y-84561664D01*
X54578274Y-84561664D02*
X54483036Y-84609283D01*
X55435417Y-84418807D02*
X55483036Y-84371188D01*
X55483036Y-84371188D02*
X55578274Y-84323569D01*
X55578274Y-84323569D02*
X55816369Y-84323569D01*
X55816369Y-84323569D02*
X55911607Y-84371188D01*
X55911607Y-84371188D02*
X55959226Y-84418807D01*
X55959226Y-84418807D02*
X56006845Y-84514045D01*
X56006845Y-84514045D02*
X56006845Y-84609283D01*
X56006845Y-84609283D02*
X55959226Y-84752140D01*
X55959226Y-84752140D02*
X55387798Y-85323569D01*
X55387798Y-85323569D02*
X56006845Y-85323569D01*
X165925595Y-66225950D02*
X166068452Y-66273569D01*
X166068452Y-66273569D02*
X166306547Y-66273569D01*
X166306547Y-66273569D02*
X166401785Y-66225950D01*
X166401785Y-66225950D02*
X166449404Y-66178330D01*
X166449404Y-66178330D02*
X166497023Y-66083092D01*
X166497023Y-66083092D02*
X166497023Y-65987854D01*
X166497023Y-65987854D02*
X166449404Y-65892616D01*
X166449404Y-65892616D02*
X166401785Y-65844997D01*
X166401785Y-65844997D02*
X166306547Y-65797378D01*
X166306547Y-65797378D02*
X166116071Y-65749759D01*
X166116071Y-65749759D02*
X166020833Y-65702140D01*
X166020833Y-65702140D02*
X165973214Y-65654521D01*
X165973214Y-65654521D02*
X165925595Y-65559283D01*
X165925595Y-65559283D02*
X165925595Y-65464045D01*
X165925595Y-65464045D02*
X165973214Y-65368807D01*
X165973214Y-65368807D02*
X166020833Y-65321188D01*
X166020833Y-65321188D02*
X166116071Y-65273569D01*
X166116071Y-65273569D02*
X166354166Y-65273569D01*
X166354166Y-65273569D02*
X166497023Y-65321188D01*
X166830357Y-65273569D02*
X167497023Y-65273569D01*
X167497023Y-65273569D02*
X167068452Y-66273569D01*
X103536905Y-104325950D02*
X103679762Y-104373569D01*
X103679762Y-104373569D02*
X103917857Y-104373569D01*
X103917857Y-104373569D02*
X104013095Y-104325950D01*
X104013095Y-104325950D02*
X104060714Y-104278330D01*
X104060714Y-104278330D02*
X104108333Y-104183092D01*
X104108333Y-104183092D02*
X104108333Y-104087854D01*
X104108333Y-104087854D02*
X104060714Y-103992616D01*
X104060714Y-103992616D02*
X104013095Y-103944997D01*
X104013095Y-103944997D02*
X103917857Y-103897378D01*
X103917857Y-103897378D02*
X103727381Y-103849759D01*
X103727381Y-103849759D02*
X103632143Y-103802140D01*
X103632143Y-103802140D02*
X103584524Y-103754521D01*
X103584524Y-103754521D02*
X103536905Y-103659283D01*
X103536905Y-103659283D02*
X103536905Y-103564045D01*
X103536905Y-103564045D02*
X103584524Y-103468807D01*
X103584524Y-103468807D02*
X103632143Y-103421188D01*
X103632143Y-103421188D02*
X103727381Y-103373569D01*
X103727381Y-103373569D02*
X103965476Y-103373569D01*
X103965476Y-103373569D02*
X104108333Y-103421188D01*
X104489286Y-103468807D02*
X104536905Y-103421188D01*
X104536905Y-103421188D02*
X104632143Y-103373569D01*
X104632143Y-103373569D02*
X104870238Y-103373569D01*
X104870238Y-103373569D02*
X104965476Y-103421188D01*
X104965476Y-103421188D02*
X105013095Y-103468807D01*
X105013095Y-103468807D02*
X105060714Y-103564045D01*
X105060714Y-103564045D02*
X105060714Y-103659283D01*
X105060714Y-103659283D02*
X105013095Y-103802140D01*
X105013095Y-103802140D02*
X104441667Y-104373569D01*
X104441667Y-104373569D02*
X105060714Y-104373569D01*
X105917857Y-103706902D02*
X105917857Y-104373569D01*
X105679762Y-103325950D02*
X105441667Y-104040235D01*
X105441667Y-104040235D02*
X106060714Y-104040235D01*
X74961905Y-85275950D02*
X75104762Y-85323569D01*
X75104762Y-85323569D02*
X75342857Y-85323569D01*
X75342857Y-85323569D02*
X75438095Y-85275950D01*
X75438095Y-85275950D02*
X75485714Y-85228330D01*
X75485714Y-85228330D02*
X75533333Y-85133092D01*
X75533333Y-85133092D02*
X75533333Y-85037854D01*
X75533333Y-85037854D02*
X75485714Y-84942616D01*
X75485714Y-84942616D02*
X75438095Y-84894997D01*
X75438095Y-84894997D02*
X75342857Y-84847378D01*
X75342857Y-84847378D02*
X75152381Y-84799759D01*
X75152381Y-84799759D02*
X75057143Y-84752140D01*
X75057143Y-84752140D02*
X75009524Y-84704521D01*
X75009524Y-84704521D02*
X74961905Y-84609283D01*
X74961905Y-84609283D02*
X74961905Y-84514045D01*
X74961905Y-84514045D02*
X75009524Y-84418807D01*
X75009524Y-84418807D02*
X75057143Y-84371188D01*
X75057143Y-84371188D02*
X75152381Y-84323569D01*
X75152381Y-84323569D02*
X75390476Y-84323569D01*
X75390476Y-84323569D02*
X75533333Y-84371188D01*
X76485714Y-85323569D02*
X75914286Y-85323569D01*
X76200000Y-85323569D02*
X76200000Y-84323569D01*
X76200000Y-84323569D02*
X76104762Y-84466426D01*
X76104762Y-84466426D02*
X76009524Y-84561664D01*
X76009524Y-84561664D02*
X75914286Y-84609283D01*
X76819048Y-84323569D02*
X77438095Y-84323569D01*
X77438095Y-84323569D02*
X77104762Y-84704521D01*
X77104762Y-84704521D02*
X77247619Y-84704521D01*
X77247619Y-84704521D02*
X77342857Y-84752140D01*
X77342857Y-84752140D02*
X77390476Y-84799759D01*
X77390476Y-84799759D02*
X77438095Y-84894997D01*
X77438095Y-84894997D02*
X77438095Y-85133092D01*
X77438095Y-85133092D02*
X77390476Y-85228330D01*
X77390476Y-85228330D02*
X77342857Y-85275950D01*
X77342857Y-85275950D02*
X77247619Y-85323569D01*
X77247619Y-85323569D02*
X76961905Y-85323569D01*
X76961905Y-85323569D02*
X76866667Y-85275950D01*
X76866667Y-85275950D02*
X76819048Y-85228330D01*
X132111905Y-85275950D02*
X132254762Y-85323569D01*
X132254762Y-85323569D02*
X132492857Y-85323569D01*
X132492857Y-85323569D02*
X132588095Y-85275950D01*
X132588095Y-85275950D02*
X132635714Y-85228330D01*
X132635714Y-85228330D02*
X132683333Y-85133092D01*
X132683333Y-85133092D02*
X132683333Y-85037854D01*
X132683333Y-85037854D02*
X132635714Y-84942616D01*
X132635714Y-84942616D02*
X132588095Y-84894997D01*
X132588095Y-84894997D02*
X132492857Y-84847378D01*
X132492857Y-84847378D02*
X132302381Y-84799759D01*
X132302381Y-84799759D02*
X132207143Y-84752140D01*
X132207143Y-84752140D02*
X132159524Y-84704521D01*
X132159524Y-84704521D02*
X132111905Y-84609283D01*
X132111905Y-84609283D02*
X132111905Y-84514045D01*
X132111905Y-84514045D02*
X132159524Y-84418807D01*
X132159524Y-84418807D02*
X132207143Y-84371188D01*
X132207143Y-84371188D02*
X132302381Y-84323569D01*
X132302381Y-84323569D02*
X132540476Y-84323569D01*
X132540476Y-84323569D02*
X132683333Y-84371188D01*
X133635714Y-85323569D02*
X133064286Y-85323569D01*
X133350000Y-85323569D02*
X133350000Y-84323569D01*
X133350000Y-84323569D02*
X133254762Y-84466426D01*
X133254762Y-84466426D02*
X133159524Y-84561664D01*
X133159524Y-84561664D02*
X133064286Y-84609283D01*
X134492857Y-84323569D02*
X134302381Y-84323569D01*
X134302381Y-84323569D02*
X134207143Y-84371188D01*
X134207143Y-84371188D02*
X134159524Y-84418807D01*
X134159524Y-84418807D02*
X134064286Y-84561664D01*
X134064286Y-84561664D02*
X134016667Y-84752140D01*
X134016667Y-84752140D02*
X134016667Y-85133092D01*
X134016667Y-85133092D02*
X134064286Y-85228330D01*
X134064286Y-85228330D02*
X134111905Y-85275950D01*
X134111905Y-85275950D02*
X134207143Y-85323569D01*
X134207143Y-85323569D02*
X134397619Y-85323569D01*
X134397619Y-85323569D02*
X134492857Y-85275950D01*
X134492857Y-85275950D02*
X134540476Y-85228330D01*
X134540476Y-85228330D02*
X134588095Y-85133092D01*
X134588095Y-85133092D02*
X134588095Y-84894997D01*
X134588095Y-84894997D02*
X134540476Y-84799759D01*
X134540476Y-84799759D02*
X134492857Y-84752140D01*
X134492857Y-84752140D02*
X134397619Y-84704521D01*
X134397619Y-84704521D02*
X134207143Y-84704521D01*
X134207143Y-84704521D02*
X134111905Y-84752140D01*
X134111905Y-84752140D02*
X134064286Y-84799759D01*
X134064286Y-84799759D02*
X134016667Y-84894997D01*
X198786905Y-104325950D02*
X198929762Y-104373569D01*
X198929762Y-104373569D02*
X199167857Y-104373569D01*
X199167857Y-104373569D02*
X199263095Y-104325950D01*
X199263095Y-104325950D02*
X199310714Y-104278330D01*
X199310714Y-104278330D02*
X199358333Y-104183092D01*
X199358333Y-104183092D02*
X199358333Y-104087854D01*
X199358333Y-104087854D02*
X199310714Y-103992616D01*
X199310714Y-103992616D02*
X199263095Y-103944997D01*
X199263095Y-103944997D02*
X199167857Y-103897378D01*
X199167857Y-103897378D02*
X198977381Y-103849759D01*
X198977381Y-103849759D02*
X198882143Y-103802140D01*
X198882143Y-103802140D02*
X198834524Y-103754521D01*
X198834524Y-103754521D02*
X198786905Y-103659283D01*
X198786905Y-103659283D02*
X198786905Y-103564045D01*
X198786905Y-103564045D02*
X198834524Y-103468807D01*
X198834524Y-103468807D02*
X198882143Y-103421188D01*
X198882143Y-103421188D02*
X198977381Y-103373569D01*
X198977381Y-103373569D02*
X199215476Y-103373569D01*
X199215476Y-103373569D02*
X199358333Y-103421188D01*
X199739286Y-103468807D02*
X199786905Y-103421188D01*
X199786905Y-103421188D02*
X199882143Y-103373569D01*
X199882143Y-103373569D02*
X200120238Y-103373569D01*
X200120238Y-103373569D02*
X200215476Y-103421188D01*
X200215476Y-103421188D02*
X200263095Y-103468807D01*
X200263095Y-103468807D02*
X200310714Y-103564045D01*
X200310714Y-103564045D02*
X200310714Y-103659283D01*
X200310714Y-103659283D02*
X200263095Y-103802140D01*
X200263095Y-103802140D02*
X199691667Y-104373569D01*
X199691667Y-104373569D02*
X200310714Y-104373569D01*
X200786905Y-104373569D02*
X200977381Y-104373569D01*
X200977381Y-104373569D02*
X201072619Y-104325950D01*
X201072619Y-104325950D02*
X201120238Y-104278330D01*
X201120238Y-104278330D02*
X201215476Y-104135473D01*
X201215476Y-104135473D02*
X201263095Y-103944997D01*
X201263095Y-103944997D02*
X201263095Y-103564045D01*
X201263095Y-103564045D02*
X201215476Y-103468807D01*
X201215476Y-103468807D02*
X201167857Y-103421188D01*
X201167857Y-103421188D02*
X201072619Y-103373569D01*
X201072619Y-103373569D02*
X200882143Y-103373569D01*
X200882143Y-103373569D02*
X200786905Y-103421188D01*
X200786905Y-103421188D02*
X200739286Y-103468807D01*
X200739286Y-103468807D02*
X200691667Y-103564045D01*
X200691667Y-103564045D02*
X200691667Y-103802140D01*
X200691667Y-103802140D02*
X200739286Y-103897378D01*
X200739286Y-103897378D02*
X200786905Y-103944997D01*
X200786905Y-103944997D02*
X200882143Y-103992616D01*
X200882143Y-103992616D02*
X201072619Y-103992616D01*
X201072619Y-103992616D02*
X201167857Y-103944997D01*
X201167857Y-103944997D02*
X201215476Y-103897378D01*
X201215476Y-103897378D02*
X201263095Y-103802140D01*
X89725595Y-66225950D02*
X89868452Y-66273569D01*
X89868452Y-66273569D02*
X90106547Y-66273569D01*
X90106547Y-66273569D02*
X90201785Y-66225950D01*
X90201785Y-66225950D02*
X90249404Y-66178330D01*
X90249404Y-66178330D02*
X90297023Y-66083092D01*
X90297023Y-66083092D02*
X90297023Y-65987854D01*
X90297023Y-65987854D02*
X90249404Y-65892616D01*
X90249404Y-65892616D02*
X90201785Y-65844997D01*
X90201785Y-65844997D02*
X90106547Y-65797378D01*
X90106547Y-65797378D02*
X89916071Y-65749759D01*
X89916071Y-65749759D02*
X89820833Y-65702140D01*
X89820833Y-65702140D02*
X89773214Y-65654521D01*
X89773214Y-65654521D02*
X89725595Y-65559283D01*
X89725595Y-65559283D02*
X89725595Y-65464045D01*
X89725595Y-65464045D02*
X89773214Y-65368807D01*
X89773214Y-65368807D02*
X89820833Y-65321188D01*
X89820833Y-65321188D02*
X89916071Y-65273569D01*
X89916071Y-65273569D02*
X90154166Y-65273569D01*
X90154166Y-65273569D02*
X90297023Y-65321188D01*
X90630357Y-65273569D02*
X91249404Y-65273569D01*
X91249404Y-65273569D02*
X90916071Y-65654521D01*
X90916071Y-65654521D02*
X91058928Y-65654521D01*
X91058928Y-65654521D02*
X91154166Y-65702140D01*
X91154166Y-65702140D02*
X91201785Y-65749759D01*
X91201785Y-65749759D02*
X91249404Y-65844997D01*
X91249404Y-65844997D02*
X91249404Y-66083092D01*
X91249404Y-66083092D02*
X91201785Y-66178330D01*
X91201785Y-66178330D02*
X91154166Y-66225950D01*
X91154166Y-66225950D02*
X91058928Y-66273569D01*
X91058928Y-66273569D02*
X90773214Y-66273569D01*
X90773214Y-66273569D02*
X90677976Y-66225950D01*
X90677976Y-66225950D02*
X90630357Y-66178330D01*
X122586905Y-104325950D02*
X122729762Y-104373569D01*
X122729762Y-104373569D02*
X122967857Y-104373569D01*
X122967857Y-104373569D02*
X123063095Y-104325950D01*
X123063095Y-104325950D02*
X123110714Y-104278330D01*
X123110714Y-104278330D02*
X123158333Y-104183092D01*
X123158333Y-104183092D02*
X123158333Y-104087854D01*
X123158333Y-104087854D02*
X123110714Y-103992616D01*
X123110714Y-103992616D02*
X123063095Y-103944997D01*
X123063095Y-103944997D02*
X122967857Y-103897378D01*
X122967857Y-103897378D02*
X122777381Y-103849759D01*
X122777381Y-103849759D02*
X122682143Y-103802140D01*
X122682143Y-103802140D02*
X122634524Y-103754521D01*
X122634524Y-103754521D02*
X122586905Y-103659283D01*
X122586905Y-103659283D02*
X122586905Y-103564045D01*
X122586905Y-103564045D02*
X122634524Y-103468807D01*
X122634524Y-103468807D02*
X122682143Y-103421188D01*
X122682143Y-103421188D02*
X122777381Y-103373569D01*
X122777381Y-103373569D02*
X123015476Y-103373569D01*
X123015476Y-103373569D02*
X123158333Y-103421188D01*
X123539286Y-103468807D02*
X123586905Y-103421188D01*
X123586905Y-103421188D02*
X123682143Y-103373569D01*
X123682143Y-103373569D02*
X123920238Y-103373569D01*
X123920238Y-103373569D02*
X124015476Y-103421188D01*
X124015476Y-103421188D02*
X124063095Y-103468807D01*
X124063095Y-103468807D02*
X124110714Y-103564045D01*
X124110714Y-103564045D02*
X124110714Y-103659283D01*
X124110714Y-103659283D02*
X124063095Y-103802140D01*
X124063095Y-103802140D02*
X123491667Y-104373569D01*
X123491667Y-104373569D02*
X124110714Y-104373569D01*
X125015476Y-103373569D02*
X124539286Y-103373569D01*
X124539286Y-103373569D02*
X124491667Y-103849759D01*
X124491667Y-103849759D02*
X124539286Y-103802140D01*
X124539286Y-103802140D02*
X124634524Y-103754521D01*
X124634524Y-103754521D02*
X124872619Y-103754521D01*
X124872619Y-103754521D02*
X124967857Y-103802140D01*
X124967857Y-103802140D02*
X125015476Y-103849759D01*
X125015476Y-103849759D02*
X125063095Y-103944997D01*
X125063095Y-103944997D02*
X125063095Y-104183092D01*
X125063095Y-104183092D02*
X125015476Y-104278330D01*
X125015476Y-104278330D02*
X124967857Y-104325950D01*
X124967857Y-104325950D02*
X124872619Y-104373569D01*
X124872619Y-104373569D02*
X124634524Y-104373569D01*
X124634524Y-104373569D02*
X124539286Y-104325950D01*
X124539286Y-104325950D02*
X124491667Y-104278330D01*
X45252295Y-46721380D02*
X44871342Y-46988047D01*
X45252295Y-47178523D02*
X44452295Y-47178523D01*
X44452295Y-47178523D02*
X44452295Y-46873761D01*
X44452295Y-46873761D02*
X44490390Y-46797571D01*
X44490390Y-46797571D02*
X44528485Y-46759476D01*
X44528485Y-46759476D02*
X44604676Y-46721380D01*
X44604676Y-46721380D02*
X44718961Y-46721380D01*
X44718961Y-46721380D02*
X44795152Y-46759476D01*
X44795152Y-46759476D02*
X44833247Y-46797571D01*
X44833247Y-46797571D02*
X44871342Y-46873761D01*
X44871342Y-46873761D02*
X44871342Y-47178523D01*
X45023723Y-46416619D02*
X45023723Y-46035666D01*
X45252295Y-46492809D02*
X44452295Y-46226142D01*
X44452295Y-46226142D02*
X45252295Y-45959476D01*
X44452295Y-45769000D02*
X45252295Y-45578524D01*
X45252295Y-45578524D02*
X44680866Y-45426143D01*
X44680866Y-45426143D02*
X45252295Y-45273762D01*
X45252295Y-45273762D02*
X44452295Y-45083286D01*
X44452295Y-57392348D02*
X44452295Y-56935205D01*
X45252295Y-57163777D02*
X44452295Y-57163777D01*
X44452295Y-56744729D02*
X45252295Y-56211395D01*
X44452295Y-56211395D02*
X45252295Y-56744729D01*
X44452295Y-55754252D02*
X44452295Y-55678062D01*
X44452295Y-55678062D02*
X44490390Y-55601871D01*
X44490390Y-55601871D02*
X44528485Y-55563776D01*
X44528485Y-55563776D02*
X44604676Y-55525681D01*
X44604676Y-55525681D02*
X44757057Y-55487586D01*
X44757057Y-55487586D02*
X44947533Y-55487586D01*
X44947533Y-55487586D02*
X45099914Y-55525681D01*
X45099914Y-55525681D02*
X45176104Y-55563776D01*
X45176104Y-55563776D02*
X45214200Y-55601871D01*
X45214200Y-55601871D02*
X45252295Y-55678062D01*
X45252295Y-55678062D02*
X45252295Y-55754252D01*
X45252295Y-55754252D02*
X45214200Y-55830443D01*
X45214200Y-55830443D02*
X45176104Y-55868538D01*
X45176104Y-55868538D02*
X45099914Y-55906633D01*
X45099914Y-55906633D02*
X44947533Y-55944729D01*
X44947533Y-55944729D02*
X44757057Y-55944729D01*
X44757057Y-55944729D02*
X44604676Y-55906633D01*
X44604676Y-55906633D02*
X44528485Y-55868538D01*
X44528485Y-55868538D02*
X44490390Y-55830443D01*
X44490390Y-55830443D02*
X44452295Y-55754252D01*
X44414200Y-54573300D02*
X45442771Y-55259014D01*
X45252295Y-54306633D02*
X44452295Y-54306633D01*
X44452295Y-54306633D02*
X44452295Y-54116157D01*
X44452295Y-54116157D02*
X44490390Y-54001871D01*
X44490390Y-54001871D02*
X44566580Y-53925681D01*
X44566580Y-53925681D02*
X44642771Y-53887586D01*
X44642771Y-53887586D02*
X44795152Y-53849490D01*
X44795152Y-53849490D02*
X44909438Y-53849490D01*
X44909438Y-53849490D02*
X45061819Y-53887586D01*
X45061819Y-53887586D02*
X45138009Y-53925681D01*
X45138009Y-53925681D02*
X45214200Y-54001871D01*
X45214200Y-54001871D02*
X45252295Y-54116157D01*
X45252295Y-54116157D02*
X45252295Y-54306633D01*
X44452295Y-53582824D02*
X44452295Y-53087586D01*
X44452295Y-53087586D02*
X44757057Y-53354252D01*
X44757057Y-53354252D02*
X44757057Y-53239967D01*
X44757057Y-53239967D02*
X44795152Y-53163776D01*
X44795152Y-53163776D02*
X44833247Y-53125681D01*
X44833247Y-53125681D02*
X44909438Y-53087586D01*
X44909438Y-53087586D02*
X45099914Y-53087586D01*
X45099914Y-53087586D02*
X45176104Y-53125681D01*
X45176104Y-53125681D02*
X45214200Y-53163776D01*
X45214200Y-53163776D02*
X45252295Y-53239967D01*
X45252295Y-53239967D02*
X45252295Y-53468538D01*
X45252295Y-53468538D02*
X45214200Y-53544729D01*
X45214200Y-53544729D02*
X45176104Y-53582824D01*
X47030390Y-46778523D02*
X46992295Y-46854713D01*
X46992295Y-46854713D02*
X46992295Y-46968999D01*
X46992295Y-46968999D02*
X47030390Y-47083285D01*
X47030390Y-47083285D02*
X47106580Y-47159475D01*
X47106580Y-47159475D02*
X47182771Y-47197570D01*
X47182771Y-47197570D02*
X47335152Y-47235666D01*
X47335152Y-47235666D02*
X47449438Y-47235666D01*
X47449438Y-47235666D02*
X47601819Y-47197570D01*
X47601819Y-47197570D02*
X47678009Y-47159475D01*
X47678009Y-47159475D02*
X47754200Y-47083285D01*
X47754200Y-47083285D02*
X47792295Y-46968999D01*
X47792295Y-46968999D02*
X47792295Y-46892808D01*
X47792295Y-46892808D02*
X47754200Y-46778523D01*
X47754200Y-46778523D02*
X47716104Y-46740427D01*
X47716104Y-46740427D02*
X47449438Y-46740427D01*
X47449438Y-46740427D02*
X47449438Y-46892808D01*
X47792295Y-46397570D02*
X46992295Y-46397570D01*
X46992295Y-46397570D02*
X47792295Y-45940427D01*
X47792295Y-45940427D02*
X46992295Y-45940427D01*
X47792295Y-45559475D02*
X46992295Y-45559475D01*
X46992295Y-45559475D02*
X46992295Y-45368999D01*
X46992295Y-45368999D02*
X47030390Y-45254713D01*
X47030390Y-45254713D02*
X47106580Y-45178523D01*
X47106580Y-45178523D02*
X47182771Y-45140428D01*
X47182771Y-45140428D02*
X47335152Y-45102332D01*
X47335152Y-45102332D02*
X47449438Y-45102332D01*
X47449438Y-45102332D02*
X47601819Y-45140428D01*
X47601819Y-45140428D02*
X47678009Y-45178523D01*
X47678009Y-45178523D02*
X47754200Y-45254713D01*
X47754200Y-45254713D02*
X47792295Y-45368999D01*
X47792295Y-45368999D02*
X47792295Y-45559475D01*
X47792295Y-57681475D02*
X46992295Y-57681475D01*
X46992295Y-57681475D02*
X46992295Y-57490999D01*
X46992295Y-57490999D02*
X47030390Y-57376713D01*
X47030390Y-57376713D02*
X47106580Y-57300523D01*
X47106580Y-57300523D02*
X47182771Y-57262428D01*
X47182771Y-57262428D02*
X47335152Y-57224332D01*
X47335152Y-57224332D02*
X47449438Y-57224332D01*
X47449438Y-57224332D02*
X47601819Y-57262428D01*
X47601819Y-57262428D02*
X47678009Y-57300523D01*
X47678009Y-57300523D02*
X47754200Y-57376713D01*
X47754200Y-57376713D02*
X47792295Y-57490999D01*
X47792295Y-57490999D02*
X47792295Y-57681475D01*
X47068485Y-56919571D02*
X47030390Y-56881475D01*
X47030390Y-56881475D02*
X46992295Y-56805285D01*
X46992295Y-56805285D02*
X46992295Y-56614809D01*
X46992295Y-56614809D02*
X47030390Y-56538618D01*
X47030390Y-56538618D02*
X47068485Y-56500523D01*
X47068485Y-56500523D02*
X47144676Y-56462428D01*
X47144676Y-56462428D02*
X47220866Y-56462428D01*
X47220866Y-56462428D02*
X47335152Y-56500523D01*
X47335152Y-56500523D02*
X47792295Y-56957666D01*
X47792295Y-56957666D02*
X47792295Y-56462428D01*
X50264200Y-46430213D02*
X50302295Y-46315927D01*
X50302295Y-46315927D02*
X50302295Y-46125451D01*
X50302295Y-46125451D02*
X50264200Y-46049260D01*
X50264200Y-46049260D02*
X50226104Y-46011165D01*
X50226104Y-46011165D02*
X50149914Y-45973070D01*
X50149914Y-45973070D02*
X50073723Y-45973070D01*
X50073723Y-45973070D02*
X49997533Y-46011165D01*
X49997533Y-46011165D02*
X49959438Y-46049260D01*
X49959438Y-46049260D02*
X49921342Y-46125451D01*
X49921342Y-46125451D02*
X49883247Y-46277832D01*
X49883247Y-46277832D02*
X49845152Y-46354022D01*
X49845152Y-46354022D02*
X49807057Y-46392117D01*
X49807057Y-46392117D02*
X49730866Y-46430213D01*
X49730866Y-46430213D02*
X49654676Y-46430213D01*
X49654676Y-46430213D02*
X49578485Y-46392117D01*
X49578485Y-46392117D02*
X49540390Y-46354022D01*
X49540390Y-46354022D02*
X49502295Y-46277832D01*
X49502295Y-46277832D02*
X49502295Y-46087355D01*
X49502295Y-46087355D02*
X49540390Y-45973070D01*
X49502295Y-45744498D02*
X49502295Y-45287355D01*
X50302295Y-45515927D02*
X49502295Y-45515927D01*
X49570390Y-57700523D02*
X49532295Y-57776713D01*
X49532295Y-57776713D02*
X49532295Y-57890999D01*
X49532295Y-57890999D02*
X49570390Y-58005285D01*
X49570390Y-58005285D02*
X49646580Y-58081475D01*
X49646580Y-58081475D02*
X49722771Y-58119570D01*
X49722771Y-58119570D02*
X49875152Y-58157666D01*
X49875152Y-58157666D02*
X49989438Y-58157666D01*
X49989438Y-58157666D02*
X50141819Y-58119570D01*
X50141819Y-58119570D02*
X50218009Y-58081475D01*
X50218009Y-58081475D02*
X50294200Y-58005285D01*
X50294200Y-58005285D02*
X50332295Y-57890999D01*
X50332295Y-57890999D02*
X50332295Y-57814808D01*
X50332295Y-57814808D02*
X50294200Y-57700523D01*
X50294200Y-57700523D02*
X50256104Y-57662427D01*
X50256104Y-57662427D02*
X49989438Y-57662427D01*
X49989438Y-57662427D02*
X49989438Y-57814808D01*
X50332295Y-57319570D02*
X49532295Y-57319570D01*
X49532295Y-57319570D02*
X50332295Y-56862427D01*
X50332295Y-56862427D02*
X49532295Y-56862427D01*
X50332295Y-56481475D02*
X49532295Y-56481475D01*
X49532295Y-56481475D02*
X49532295Y-56290999D01*
X49532295Y-56290999D02*
X49570390Y-56176713D01*
X49570390Y-56176713D02*
X49646580Y-56100523D01*
X49646580Y-56100523D02*
X49722771Y-56062428D01*
X49722771Y-56062428D02*
X49875152Y-56024332D01*
X49875152Y-56024332D02*
X49989438Y-56024332D01*
X49989438Y-56024332D02*
X50141819Y-56062428D01*
X50141819Y-56062428D02*
X50218009Y-56100523D01*
X50218009Y-56100523D02*
X50294200Y-56176713D01*
X50294200Y-56176713D02*
X50332295Y-56290999D01*
X50332295Y-56290999D02*
X50332295Y-56481475D01*
X52072295Y-47235666D02*
X52872295Y-46968999D01*
X52872295Y-46968999D02*
X52072295Y-46702333D01*
X52796104Y-45978523D02*
X52834200Y-46016619D01*
X52834200Y-46016619D02*
X52872295Y-46130904D01*
X52872295Y-46130904D02*
X52872295Y-46207095D01*
X52872295Y-46207095D02*
X52834200Y-46321381D01*
X52834200Y-46321381D02*
X52758009Y-46397571D01*
X52758009Y-46397571D02*
X52681819Y-46435666D01*
X52681819Y-46435666D02*
X52529438Y-46473762D01*
X52529438Y-46473762D02*
X52415152Y-46473762D01*
X52415152Y-46473762D02*
X52262771Y-46435666D01*
X52262771Y-46435666D02*
X52186580Y-46397571D01*
X52186580Y-46397571D02*
X52110390Y-46321381D01*
X52110390Y-46321381D02*
X52072295Y-46207095D01*
X52072295Y-46207095D02*
X52072295Y-46130904D01*
X52072295Y-46130904D02*
X52110390Y-46016619D01*
X52110390Y-46016619D02*
X52148485Y-45978523D01*
X52796104Y-45178523D02*
X52834200Y-45216619D01*
X52834200Y-45216619D02*
X52872295Y-45330904D01*
X52872295Y-45330904D02*
X52872295Y-45407095D01*
X52872295Y-45407095D02*
X52834200Y-45521381D01*
X52834200Y-45521381D02*
X52758009Y-45597571D01*
X52758009Y-45597571D02*
X52681819Y-45635666D01*
X52681819Y-45635666D02*
X52529438Y-45673762D01*
X52529438Y-45673762D02*
X52415152Y-45673762D01*
X52415152Y-45673762D02*
X52262771Y-45635666D01*
X52262771Y-45635666D02*
X52186580Y-45597571D01*
X52186580Y-45597571D02*
X52110390Y-45521381D01*
X52110390Y-45521381D02*
X52072295Y-45407095D01*
X52072295Y-45407095D02*
X52072295Y-45330904D01*
X52072295Y-45330904D02*
X52110390Y-45216619D01*
X52110390Y-45216619D02*
X52148485Y-45178523D01*
X52110390Y-57700523D02*
X52072295Y-57776713D01*
X52072295Y-57776713D02*
X52072295Y-57890999D01*
X52072295Y-57890999D02*
X52110390Y-58005285D01*
X52110390Y-58005285D02*
X52186580Y-58081475D01*
X52186580Y-58081475D02*
X52262771Y-58119570D01*
X52262771Y-58119570D02*
X52415152Y-58157666D01*
X52415152Y-58157666D02*
X52529438Y-58157666D01*
X52529438Y-58157666D02*
X52681819Y-58119570D01*
X52681819Y-58119570D02*
X52758009Y-58081475D01*
X52758009Y-58081475D02*
X52834200Y-58005285D01*
X52834200Y-58005285D02*
X52872295Y-57890999D01*
X52872295Y-57890999D02*
X52872295Y-57814808D01*
X52872295Y-57814808D02*
X52834200Y-57700523D01*
X52834200Y-57700523D02*
X52796104Y-57662427D01*
X52796104Y-57662427D02*
X52529438Y-57662427D01*
X52529438Y-57662427D02*
X52529438Y-57814808D01*
X52872295Y-57319570D02*
X52072295Y-57319570D01*
X52072295Y-57319570D02*
X52872295Y-56862427D01*
X52872295Y-56862427D02*
X52072295Y-56862427D01*
X52872295Y-56481475D02*
X52072295Y-56481475D01*
X52072295Y-56481475D02*
X52072295Y-56290999D01*
X52072295Y-56290999D02*
X52110390Y-56176713D01*
X52110390Y-56176713D02*
X52186580Y-56100523D01*
X52186580Y-56100523D02*
X52262771Y-56062428D01*
X52262771Y-56062428D02*
X52415152Y-56024332D01*
X52415152Y-56024332D02*
X52529438Y-56024332D01*
X52529438Y-56024332D02*
X52681819Y-56062428D01*
X52681819Y-56062428D02*
X52758009Y-56100523D01*
X52758009Y-56100523D02*
X52834200Y-56176713D01*
X52834200Y-56176713D02*
X52872295Y-56290999D01*
X52872295Y-56290999D02*
X52872295Y-56481475D01*
X54993247Y-46435666D02*
X54993247Y-46702332D01*
X55412295Y-46702332D02*
X54612295Y-46702332D01*
X54612295Y-46702332D02*
X54612295Y-46321380D01*
X54878961Y-45673761D02*
X55412295Y-45673761D01*
X54574200Y-45864237D02*
X55145628Y-46054714D01*
X55145628Y-46054714D02*
X55145628Y-45559475D01*
X55412295Y-57681475D02*
X54612295Y-57681475D01*
X54612295Y-57681475D02*
X54612295Y-57490999D01*
X54612295Y-57490999D02*
X54650390Y-57376713D01*
X54650390Y-57376713D02*
X54726580Y-57300523D01*
X54726580Y-57300523D02*
X54802771Y-57262428D01*
X54802771Y-57262428D02*
X54955152Y-57224332D01*
X54955152Y-57224332D02*
X55069438Y-57224332D01*
X55069438Y-57224332D02*
X55221819Y-57262428D01*
X55221819Y-57262428D02*
X55298009Y-57300523D01*
X55298009Y-57300523D02*
X55374200Y-57376713D01*
X55374200Y-57376713D02*
X55412295Y-57490999D01*
X55412295Y-57490999D02*
X55412295Y-57681475D01*
X55412295Y-56462428D02*
X55412295Y-56919571D01*
X55412295Y-56690999D02*
X54612295Y-56690999D01*
X54612295Y-56690999D02*
X54726580Y-56767190D01*
X54726580Y-56767190D02*
X54802771Y-56843380D01*
X54802771Y-56843380D02*
X54840866Y-56919571D01*
X57533247Y-46435666D02*
X57533247Y-46702332D01*
X57952295Y-46702332D02*
X57152295Y-46702332D01*
X57152295Y-46702332D02*
X57152295Y-46321380D01*
X57152295Y-45635666D02*
X57152295Y-46016618D01*
X57152295Y-46016618D02*
X57533247Y-46054714D01*
X57533247Y-46054714D02*
X57495152Y-46016618D01*
X57495152Y-46016618D02*
X57457057Y-45940428D01*
X57457057Y-45940428D02*
X57457057Y-45749952D01*
X57457057Y-45749952D02*
X57495152Y-45673761D01*
X57495152Y-45673761D02*
X57533247Y-45635666D01*
X57533247Y-45635666D02*
X57609438Y-45597571D01*
X57609438Y-45597571D02*
X57799914Y-45597571D01*
X57799914Y-45597571D02*
X57876104Y-45635666D01*
X57876104Y-45635666D02*
X57914200Y-45673761D01*
X57914200Y-45673761D02*
X57952295Y-45749952D01*
X57952295Y-45749952D02*
X57952295Y-45940428D01*
X57952295Y-45940428D02*
X57914200Y-46016618D01*
X57914200Y-46016618D02*
X57876104Y-46054714D01*
X57952295Y-57681475D02*
X57152295Y-57681475D01*
X57152295Y-57681475D02*
X57152295Y-57490999D01*
X57152295Y-57490999D02*
X57190390Y-57376713D01*
X57190390Y-57376713D02*
X57266580Y-57300523D01*
X57266580Y-57300523D02*
X57342771Y-57262428D01*
X57342771Y-57262428D02*
X57495152Y-57224332D01*
X57495152Y-57224332D02*
X57609438Y-57224332D01*
X57609438Y-57224332D02*
X57761819Y-57262428D01*
X57761819Y-57262428D02*
X57838009Y-57300523D01*
X57838009Y-57300523D02*
X57914200Y-57376713D01*
X57914200Y-57376713D02*
X57952295Y-57490999D01*
X57952295Y-57490999D02*
X57952295Y-57681475D01*
X57152295Y-56729094D02*
X57152295Y-56652904D01*
X57152295Y-56652904D02*
X57190390Y-56576713D01*
X57190390Y-56576713D02*
X57228485Y-56538618D01*
X57228485Y-56538618D02*
X57304676Y-56500523D01*
X57304676Y-56500523D02*
X57457057Y-56462428D01*
X57457057Y-56462428D02*
X57647533Y-56462428D01*
X57647533Y-56462428D02*
X57799914Y-56500523D01*
X57799914Y-56500523D02*
X57876104Y-56538618D01*
X57876104Y-56538618D02*
X57914200Y-56576713D01*
X57914200Y-56576713D02*
X57952295Y-56652904D01*
X57952295Y-56652904D02*
X57952295Y-56729094D01*
X57952295Y-56729094D02*
X57914200Y-56805285D01*
X57914200Y-56805285D02*
X57876104Y-56843380D01*
X57876104Y-56843380D02*
X57799914Y-56881475D01*
X57799914Y-56881475D02*
X57647533Y-56919571D01*
X57647533Y-56919571D02*
X57457057Y-56919571D01*
X57457057Y-56919571D02*
X57304676Y-56881475D01*
X57304676Y-56881475D02*
X57228485Y-56843380D01*
X57228485Y-56843380D02*
X57190390Y-56805285D01*
X57190390Y-56805285D02*
X57152295Y-56729094D01*
X60073247Y-46435666D02*
X60073247Y-46702332D01*
X60492295Y-46702332D02*
X59692295Y-46702332D01*
X59692295Y-46702332D02*
X59692295Y-46321380D01*
X59692295Y-45673761D02*
X59692295Y-45826142D01*
X59692295Y-45826142D02*
X59730390Y-45902333D01*
X59730390Y-45902333D02*
X59768485Y-45940428D01*
X59768485Y-45940428D02*
X59882771Y-46016618D01*
X59882771Y-46016618D02*
X60035152Y-46054714D01*
X60035152Y-46054714D02*
X60339914Y-46054714D01*
X60339914Y-46054714D02*
X60416104Y-46016618D01*
X60416104Y-46016618D02*
X60454200Y-45978523D01*
X60454200Y-45978523D02*
X60492295Y-45902333D01*
X60492295Y-45902333D02*
X60492295Y-45749952D01*
X60492295Y-45749952D02*
X60454200Y-45673761D01*
X60454200Y-45673761D02*
X60416104Y-45635666D01*
X60416104Y-45635666D02*
X60339914Y-45597571D01*
X60339914Y-45597571D02*
X60149438Y-45597571D01*
X60149438Y-45597571D02*
X60073247Y-45635666D01*
X60073247Y-45635666D02*
X60035152Y-45673761D01*
X60035152Y-45673761D02*
X59997057Y-45749952D01*
X59997057Y-45749952D02*
X59997057Y-45902333D01*
X59997057Y-45902333D02*
X60035152Y-45978523D01*
X60035152Y-45978523D02*
X60073247Y-46016618D01*
X60073247Y-46016618D02*
X60149438Y-46054714D01*
X60492295Y-57681475D02*
X59692295Y-57681475D01*
X59692295Y-57681475D02*
X59692295Y-57490999D01*
X59692295Y-57490999D02*
X59730390Y-57376713D01*
X59730390Y-57376713D02*
X59806580Y-57300523D01*
X59806580Y-57300523D02*
X59882771Y-57262428D01*
X59882771Y-57262428D02*
X60035152Y-57224332D01*
X60035152Y-57224332D02*
X60149438Y-57224332D01*
X60149438Y-57224332D02*
X60301819Y-57262428D01*
X60301819Y-57262428D02*
X60378009Y-57300523D01*
X60378009Y-57300523D02*
X60454200Y-57376713D01*
X60454200Y-57376713D02*
X60492295Y-57490999D01*
X60492295Y-57490999D02*
X60492295Y-57681475D01*
X59958961Y-56538618D02*
X60492295Y-56538618D01*
X59654200Y-56729094D02*
X60225628Y-56919571D01*
X60225628Y-56919571D02*
X60225628Y-56424332D01*
X62613247Y-46435666D02*
X62613247Y-46702332D01*
X63032295Y-46702332D02*
X62232295Y-46702332D01*
X62232295Y-46702332D02*
X62232295Y-46321380D01*
X62232295Y-46092809D02*
X62232295Y-45559475D01*
X62232295Y-45559475D02*
X63032295Y-45902333D01*
X62956104Y-57224332D02*
X62994200Y-57262428D01*
X62994200Y-57262428D02*
X63032295Y-57376713D01*
X63032295Y-57376713D02*
X63032295Y-57452904D01*
X63032295Y-57452904D02*
X62994200Y-57567190D01*
X62994200Y-57567190D02*
X62918009Y-57643380D01*
X62918009Y-57643380D02*
X62841819Y-57681475D01*
X62841819Y-57681475D02*
X62689438Y-57719571D01*
X62689438Y-57719571D02*
X62575152Y-57719571D01*
X62575152Y-57719571D02*
X62422771Y-57681475D01*
X62422771Y-57681475D02*
X62346580Y-57643380D01*
X62346580Y-57643380D02*
X62270390Y-57567190D01*
X62270390Y-57567190D02*
X62232295Y-57452904D01*
X62232295Y-57452904D02*
X62232295Y-57376713D01*
X62232295Y-57376713D02*
X62270390Y-57262428D01*
X62270390Y-57262428D02*
X62308485Y-57224332D01*
X62232295Y-56538618D02*
X62232295Y-56690999D01*
X62232295Y-56690999D02*
X62270390Y-56767190D01*
X62270390Y-56767190D02*
X62308485Y-56805285D01*
X62308485Y-56805285D02*
X62422771Y-56881475D01*
X62422771Y-56881475D02*
X62575152Y-56919571D01*
X62575152Y-56919571D02*
X62879914Y-56919571D01*
X62879914Y-56919571D02*
X62956104Y-56881475D01*
X62956104Y-56881475D02*
X62994200Y-56843380D01*
X62994200Y-56843380D02*
X63032295Y-56767190D01*
X63032295Y-56767190D02*
X63032295Y-56614809D01*
X63032295Y-56614809D02*
X62994200Y-56538618D01*
X62994200Y-56538618D02*
X62956104Y-56500523D01*
X62956104Y-56500523D02*
X62879914Y-56462428D01*
X62879914Y-56462428D02*
X62689438Y-56462428D01*
X62689438Y-56462428D02*
X62613247Y-56500523D01*
X62613247Y-56500523D02*
X62575152Y-56538618D01*
X62575152Y-56538618D02*
X62537057Y-56614809D01*
X62537057Y-56614809D02*
X62537057Y-56767190D01*
X62537057Y-56767190D02*
X62575152Y-56843380D01*
X62575152Y-56843380D02*
X62613247Y-56881475D01*
X62613247Y-56881475D02*
X62689438Y-56919571D01*
X65153247Y-46492809D02*
X65191342Y-46378523D01*
X65191342Y-46378523D02*
X65229438Y-46340428D01*
X65229438Y-46340428D02*
X65305628Y-46302332D01*
X65305628Y-46302332D02*
X65419914Y-46302332D01*
X65419914Y-46302332D02*
X65496104Y-46340428D01*
X65496104Y-46340428D02*
X65534200Y-46378523D01*
X65534200Y-46378523D02*
X65572295Y-46454713D01*
X65572295Y-46454713D02*
X65572295Y-46759475D01*
X65572295Y-46759475D02*
X64772295Y-46759475D01*
X64772295Y-46759475D02*
X64772295Y-46492809D01*
X64772295Y-46492809D02*
X64810390Y-46416618D01*
X64810390Y-46416618D02*
X64848485Y-46378523D01*
X64848485Y-46378523D02*
X64924676Y-46340428D01*
X64924676Y-46340428D02*
X65000866Y-46340428D01*
X65000866Y-46340428D02*
X65077057Y-46378523D01*
X65077057Y-46378523D02*
X65115152Y-46416618D01*
X65115152Y-46416618D02*
X65153247Y-46492809D01*
X65153247Y-46492809D02*
X65153247Y-46759475D01*
X65572295Y-45540428D02*
X65572295Y-45997571D01*
X65572295Y-45768999D02*
X64772295Y-45768999D01*
X64772295Y-45768999D02*
X64886580Y-45845190D01*
X64886580Y-45845190D02*
X64962771Y-45921380D01*
X64962771Y-45921380D02*
X65000866Y-45997571D01*
X65572295Y-57681475D02*
X64772295Y-57681475D01*
X64772295Y-57681475D02*
X64772295Y-57490999D01*
X64772295Y-57490999D02*
X64810390Y-57376713D01*
X64810390Y-57376713D02*
X64886580Y-57300523D01*
X64886580Y-57300523D02*
X64962771Y-57262428D01*
X64962771Y-57262428D02*
X65115152Y-57224332D01*
X65115152Y-57224332D02*
X65229438Y-57224332D01*
X65229438Y-57224332D02*
X65381819Y-57262428D01*
X65381819Y-57262428D02*
X65458009Y-57300523D01*
X65458009Y-57300523D02*
X65534200Y-57376713D01*
X65534200Y-57376713D02*
X65572295Y-57490999D01*
X65572295Y-57490999D02*
X65572295Y-57681475D01*
X64772295Y-56957666D02*
X64772295Y-56424332D01*
X64772295Y-56424332D02*
X65572295Y-56767190D01*
X67693247Y-46492809D02*
X67731342Y-46378523D01*
X67731342Y-46378523D02*
X67769438Y-46340428D01*
X67769438Y-46340428D02*
X67845628Y-46302332D01*
X67845628Y-46302332D02*
X67959914Y-46302332D01*
X67959914Y-46302332D02*
X68036104Y-46340428D01*
X68036104Y-46340428D02*
X68074200Y-46378523D01*
X68074200Y-46378523D02*
X68112295Y-46454713D01*
X68112295Y-46454713D02*
X68112295Y-46759475D01*
X68112295Y-46759475D02*
X67312295Y-46759475D01*
X67312295Y-46759475D02*
X67312295Y-46492809D01*
X67312295Y-46492809D02*
X67350390Y-46416618D01*
X67350390Y-46416618D02*
X67388485Y-46378523D01*
X67388485Y-46378523D02*
X67464676Y-46340428D01*
X67464676Y-46340428D02*
X67540866Y-46340428D01*
X67540866Y-46340428D02*
X67617057Y-46378523D01*
X67617057Y-46378523D02*
X67655152Y-46416618D01*
X67655152Y-46416618D02*
X67693247Y-46492809D01*
X67693247Y-46492809D02*
X67693247Y-46759475D01*
X67312295Y-46035666D02*
X67312295Y-45540428D01*
X67312295Y-45540428D02*
X67617057Y-45807094D01*
X67617057Y-45807094D02*
X67617057Y-45692809D01*
X67617057Y-45692809D02*
X67655152Y-45616618D01*
X67655152Y-45616618D02*
X67693247Y-45578523D01*
X67693247Y-45578523D02*
X67769438Y-45540428D01*
X67769438Y-45540428D02*
X67959914Y-45540428D01*
X67959914Y-45540428D02*
X68036104Y-45578523D01*
X68036104Y-45578523D02*
X68074200Y-45616618D01*
X68074200Y-45616618D02*
X68112295Y-45692809D01*
X68112295Y-45692809D02*
X68112295Y-45921380D01*
X68112295Y-45921380D02*
X68074200Y-45997571D01*
X68074200Y-45997571D02*
X68036104Y-46035666D01*
X67693247Y-57643380D02*
X67693247Y-57376714D01*
X68112295Y-57262428D02*
X68112295Y-57643380D01*
X68112295Y-57643380D02*
X67312295Y-57643380D01*
X67312295Y-57643380D02*
X67312295Y-57262428D01*
X67312295Y-56576713D02*
X67312295Y-56729094D01*
X67312295Y-56729094D02*
X67350390Y-56805285D01*
X67350390Y-56805285D02*
X67388485Y-56843380D01*
X67388485Y-56843380D02*
X67502771Y-56919570D01*
X67502771Y-56919570D02*
X67655152Y-56957666D01*
X67655152Y-56957666D02*
X67959914Y-56957666D01*
X67959914Y-56957666D02*
X68036104Y-56919570D01*
X68036104Y-56919570D02*
X68074200Y-56881475D01*
X68074200Y-56881475D02*
X68112295Y-56805285D01*
X68112295Y-56805285D02*
X68112295Y-56652904D01*
X68112295Y-56652904D02*
X68074200Y-56576713D01*
X68074200Y-56576713D02*
X68036104Y-56538618D01*
X68036104Y-56538618D02*
X67959914Y-56500523D01*
X67959914Y-56500523D02*
X67769438Y-56500523D01*
X67769438Y-56500523D02*
X67693247Y-56538618D01*
X67693247Y-56538618D02*
X67655152Y-56576713D01*
X67655152Y-56576713D02*
X67617057Y-56652904D01*
X67617057Y-56652904D02*
X67617057Y-56805285D01*
X67617057Y-56805285D02*
X67655152Y-56881475D01*
X67655152Y-56881475D02*
X67693247Y-56919570D01*
X67693247Y-56919570D02*
X67769438Y-56957666D01*
X70233247Y-46492809D02*
X70271342Y-46378523D01*
X70271342Y-46378523D02*
X70309438Y-46340428D01*
X70309438Y-46340428D02*
X70385628Y-46302332D01*
X70385628Y-46302332D02*
X70499914Y-46302332D01*
X70499914Y-46302332D02*
X70576104Y-46340428D01*
X70576104Y-46340428D02*
X70614200Y-46378523D01*
X70614200Y-46378523D02*
X70652295Y-46454713D01*
X70652295Y-46454713D02*
X70652295Y-46759475D01*
X70652295Y-46759475D02*
X69852295Y-46759475D01*
X69852295Y-46759475D02*
X69852295Y-46492809D01*
X69852295Y-46492809D02*
X69890390Y-46416618D01*
X69890390Y-46416618D02*
X69928485Y-46378523D01*
X69928485Y-46378523D02*
X70004676Y-46340428D01*
X70004676Y-46340428D02*
X70080866Y-46340428D01*
X70080866Y-46340428D02*
X70157057Y-46378523D01*
X70157057Y-46378523D02*
X70195152Y-46416618D01*
X70195152Y-46416618D02*
X70233247Y-46492809D01*
X70233247Y-46492809D02*
X70233247Y-46759475D01*
X69928485Y-45997571D02*
X69890390Y-45959475D01*
X69890390Y-45959475D02*
X69852295Y-45883285D01*
X69852295Y-45883285D02*
X69852295Y-45692809D01*
X69852295Y-45692809D02*
X69890390Y-45616618D01*
X69890390Y-45616618D02*
X69928485Y-45578523D01*
X69928485Y-45578523D02*
X70004676Y-45540428D01*
X70004676Y-45540428D02*
X70080866Y-45540428D01*
X70080866Y-45540428D02*
X70195152Y-45578523D01*
X70195152Y-45578523D02*
X70652295Y-46035666D01*
X70652295Y-46035666D02*
X70652295Y-45540428D01*
X70233247Y-57414809D02*
X70271342Y-57300523D01*
X70271342Y-57300523D02*
X70309438Y-57262428D01*
X70309438Y-57262428D02*
X70385628Y-57224332D01*
X70385628Y-57224332D02*
X70499914Y-57224332D01*
X70499914Y-57224332D02*
X70576104Y-57262428D01*
X70576104Y-57262428D02*
X70614200Y-57300523D01*
X70614200Y-57300523D02*
X70652295Y-57376713D01*
X70652295Y-57376713D02*
X70652295Y-57681475D01*
X70652295Y-57681475D02*
X69852295Y-57681475D01*
X69852295Y-57681475D02*
X69852295Y-57414809D01*
X69852295Y-57414809D02*
X69890390Y-57338618D01*
X69890390Y-57338618D02*
X69928485Y-57300523D01*
X69928485Y-57300523D02*
X70004676Y-57262428D01*
X70004676Y-57262428D02*
X70080866Y-57262428D01*
X70080866Y-57262428D02*
X70157057Y-57300523D01*
X70157057Y-57300523D02*
X70195152Y-57338618D01*
X70195152Y-57338618D02*
X70233247Y-57414809D01*
X70233247Y-57414809D02*
X70233247Y-57681475D01*
X70118961Y-56538618D02*
X70652295Y-56538618D01*
X69814200Y-56729094D02*
X70385628Y-56919571D01*
X70385628Y-56919571D02*
X70385628Y-56424332D01*
X72773247Y-46492809D02*
X72811342Y-46378523D01*
X72811342Y-46378523D02*
X72849438Y-46340428D01*
X72849438Y-46340428D02*
X72925628Y-46302332D01*
X72925628Y-46302332D02*
X73039914Y-46302332D01*
X73039914Y-46302332D02*
X73116104Y-46340428D01*
X73116104Y-46340428D02*
X73154200Y-46378523D01*
X73154200Y-46378523D02*
X73192295Y-46454713D01*
X73192295Y-46454713D02*
X73192295Y-46759475D01*
X73192295Y-46759475D02*
X72392295Y-46759475D01*
X72392295Y-46759475D02*
X72392295Y-46492809D01*
X72392295Y-46492809D02*
X72430390Y-46416618D01*
X72430390Y-46416618D02*
X72468485Y-46378523D01*
X72468485Y-46378523D02*
X72544676Y-46340428D01*
X72544676Y-46340428D02*
X72620866Y-46340428D01*
X72620866Y-46340428D02*
X72697057Y-46378523D01*
X72697057Y-46378523D02*
X72735152Y-46416618D01*
X72735152Y-46416618D02*
X72773247Y-46492809D01*
X72773247Y-46492809D02*
X72773247Y-46759475D01*
X72392295Y-45616618D02*
X72392295Y-45768999D01*
X72392295Y-45768999D02*
X72430390Y-45845190D01*
X72430390Y-45845190D02*
X72468485Y-45883285D01*
X72468485Y-45883285D02*
X72582771Y-45959475D01*
X72582771Y-45959475D02*
X72735152Y-45997571D01*
X72735152Y-45997571D02*
X73039914Y-45997571D01*
X73039914Y-45997571D02*
X73116104Y-45959475D01*
X73116104Y-45959475D02*
X73154200Y-45921380D01*
X73154200Y-45921380D02*
X73192295Y-45845190D01*
X73192295Y-45845190D02*
X73192295Y-45692809D01*
X73192295Y-45692809D02*
X73154200Y-45616618D01*
X73154200Y-45616618D02*
X73116104Y-45578523D01*
X73116104Y-45578523D02*
X73039914Y-45540428D01*
X73039914Y-45540428D02*
X72849438Y-45540428D01*
X72849438Y-45540428D02*
X72773247Y-45578523D01*
X72773247Y-45578523D02*
X72735152Y-45616618D01*
X72735152Y-45616618D02*
X72697057Y-45692809D01*
X72697057Y-45692809D02*
X72697057Y-45845190D01*
X72697057Y-45845190D02*
X72735152Y-45921380D01*
X72735152Y-45921380D02*
X72773247Y-45959475D01*
X72773247Y-45959475D02*
X72849438Y-45997571D01*
X72773247Y-57414809D02*
X72811342Y-57300523D01*
X72811342Y-57300523D02*
X72849438Y-57262428D01*
X72849438Y-57262428D02*
X72925628Y-57224332D01*
X72925628Y-57224332D02*
X73039914Y-57224332D01*
X73039914Y-57224332D02*
X73116104Y-57262428D01*
X73116104Y-57262428D02*
X73154200Y-57300523D01*
X73154200Y-57300523D02*
X73192295Y-57376713D01*
X73192295Y-57376713D02*
X73192295Y-57681475D01*
X73192295Y-57681475D02*
X72392295Y-57681475D01*
X72392295Y-57681475D02*
X72392295Y-57414809D01*
X72392295Y-57414809D02*
X72430390Y-57338618D01*
X72430390Y-57338618D02*
X72468485Y-57300523D01*
X72468485Y-57300523D02*
X72544676Y-57262428D01*
X72544676Y-57262428D02*
X72620866Y-57262428D01*
X72620866Y-57262428D02*
X72697057Y-57300523D01*
X72697057Y-57300523D02*
X72735152Y-57338618D01*
X72735152Y-57338618D02*
X72773247Y-57414809D01*
X72773247Y-57414809D02*
X72773247Y-57681475D01*
X72392295Y-56500523D02*
X72392295Y-56881475D01*
X72392295Y-56881475D02*
X72773247Y-56919571D01*
X72773247Y-56919571D02*
X72735152Y-56881475D01*
X72735152Y-56881475D02*
X72697057Y-56805285D01*
X72697057Y-56805285D02*
X72697057Y-56614809D01*
X72697057Y-56614809D02*
X72735152Y-56538618D01*
X72735152Y-56538618D02*
X72773247Y-56500523D01*
X72773247Y-56500523D02*
X72849438Y-56462428D01*
X72849438Y-56462428D02*
X73039914Y-56462428D01*
X73039914Y-56462428D02*
X73116104Y-56500523D01*
X73116104Y-56500523D02*
X73154200Y-56538618D01*
X73154200Y-56538618D02*
X73192295Y-56614809D01*
X73192295Y-56614809D02*
X73192295Y-56805285D01*
X73192295Y-56805285D02*
X73154200Y-56881475D01*
X73154200Y-56881475D02*
X73116104Y-56919571D01*
X204025595Y-66225950D02*
X204168452Y-66273569D01*
X204168452Y-66273569D02*
X204406547Y-66273569D01*
X204406547Y-66273569D02*
X204501785Y-66225950D01*
X204501785Y-66225950D02*
X204549404Y-66178330D01*
X204549404Y-66178330D02*
X204597023Y-66083092D01*
X204597023Y-66083092D02*
X204597023Y-65987854D01*
X204597023Y-65987854D02*
X204549404Y-65892616D01*
X204549404Y-65892616D02*
X204501785Y-65844997D01*
X204501785Y-65844997D02*
X204406547Y-65797378D01*
X204406547Y-65797378D02*
X204216071Y-65749759D01*
X204216071Y-65749759D02*
X204120833Y-65702140D01*
X204120833Y-65702140D02*
X204073214Y-65654521D01*
X204073214Y-65654521D02*
X204025595Y-65559283D01*
X204025595Y-65559283D02*
X204025595Y-65464045D01*
X204025595Y-65464045D02*
X204073214Y-65368807D01*
X204073214Y-65368807D02*
X204120833Y-65321188D01*
X204120833Y-65321188D02*
X204216071Y-65273569D01*
X204216071Y-65273569D02*
X204454166Y-65273569D01*
X204454166Y-65273569D02*
X204597023Y-65321188D01*
X205073214Y-66273569D02*
X205263690Y-66273569D01*
X205263690Y-66273569D02*
X205358928Y-66225950D01*
X205358928Y-66225950D02*
X205406547Y-66178330D01*
X205406547Y-66178330D02*
X205501785Y-66035473D01*
X205501785Y-66035473D02*
X205549404Y-65844997D01*
X205549404Y-65844997D02*
X205549404Y-65464045D01*
X205549404Y-65464045D02*
X205501785Y-65368807D01*
X205501785Y-65368807D02*
X205454166Y-65321188D01*
X205454166Y-65321188D02*
X205358928Y-65273569D01*
X205358928Y-65273569D02*
X205168452Y-65273569D01*
X205168452Y-65273569D02*
X205073214Y-65321188D01*
X205073214Y-65321188D02*
X205025595Y-65368807D01*
X205025595Y-65368807D02*
X204977976Y-65464045D01*
X204977976Y-65464045D02*
X204977976Y-65702140D01*
X204977976Y-65702140D02*
X205025595Y-65797378D01*
X205025595Y-65797378D02*
X205073214Y-65844997D01*
X205073214Y-65844997D02*
X205168452Y-65892616D01*
X205168452Y-65892616D02*
X205358928Y-65892616D01*
X205358928Y-65892616D02*
X205454166Y-65844997D01*
X205454166Y-65844997D02*
X205501785Y-65797378D01*
X205501785Y-65797378D02*
X205549404Y-65702140D01*
X179736905Y-104325950D02*
X179879762Y-104373569D01*
X179879762Y-104373569D02*
X180117857Y-104373569D01*
X180117857Y-104373569D02*
X180213095Y-104325950D01*
X180213095Y-104325950D02*
X180260714Y-104278330D01*
X180260714Y-104278330D02*
X180308333Y-104183092D01*
X180308333Y-104183092D02*
X180308333Y-104087854D01*
X180308333Y-104087854D02*
X180260714Y-103992616D01*
X180260714Y-103992616D02*
X180213095Y-103944997D01*
X180213095Y-103944997D02*
X180117857Y-103897378D01*
X180117857Y-103897378D02*
X179927381Y-103849759D01*
X179927381Y-103849759D02*
X179832143Y-103802140D01*
X179832143Y-103802140D02*
X179784524Y-103754521D01*
X179784524Y-103754521D02*
X179736905Y-103659283D01*
X179736905Y-103659283D02*
X179736905Y-103564045D01*
X179736905Y-103564045D02*
X179784524Y-103468807D01*
X179784524Y-103468807D02*
X179832143Y-103421188D01*
X179832143Y-103421188D02*
X179927381Y-103373569D01*
X179927381Y-103373569D02*
X180165476Y-103373569D01*
X180165476Y-103373569D02*
X180308333Y-103421188D01*
X180689286Y-103468807D02*
X180736905Y-103421188D01*
X180736905Y-103421188D02*
X180832143Y-103373569D01*
X180832143Y-103373569D02*
X181070238Y-103373569D01*
X181070238Y-103373569D02*
X181165476Y-103421188D01*
X181165476Y-103421188D02*
X181213095Y-103468807D01*
X181213095Y-103468807D02*
X181260714Y-103564045D01*
X181260714Y-103564045D02*
X181260714Y-103659283D01*
X181260714Y-103659283D02*
X181213095Y-103802140D01*
X181213095Y-103802140D02*
X180641667Y-104373569D01*
X180641667Y-104373569D02*
X181260714Y-104373569D01*
X181832143Y-103802140D02*
X181736905Y-103754521D01*
X181736905Y-103754521D02*
X181689286Y-103706902D01*
X181689286Y-103706902D02*
X181641667Y-103611664D01*
X181641667Y-103611664D02*
X181641667Y-103564045D01*
X181641667Y-103564045D02*
X181689286Y-103468807D01*
X181689286Y-103468807D02*
X181736905Y-103421188D01*
X181736905Y-103421188D02*
X181832143Y-103373569D01*
X181832143Y-103373569D02*
X182022619Y-103373569D01*
X182022619Y-103373569D02*
X182117857Y-103421188D01*
X182117857Y-103421188D02*
X182165476Y-103468807D01*
X182165476Y-103468807D02*
X182213095Y-103564045D01*
X182213095Y-103564045D02*
X182213095Y-103611664D01*
X182213095Y-103611664D02*
X182165476Y-103706902D01*
X182165476Y-103706902D02*
X182117857Y-103754521D01*
X182117857Y-103754521D02*
X182022619Y-103802140D01*
X182022619Y-103802140D02*
X181832143Y-103802140D01*
X181832143Y-103802140D02*
X181736905Y-103849759D01*
X181736905Y-103849759D02*
X181689286Y-103897378D01*
X181689286Y-103897378D02*
X181641667Y-103992616D01*
X181641667Y-103992616D02*
X181641667Y-104183092D01*
X181641667Y-104183092D02*
X181689286Y-104278330D01*
X181689286Y-104278330D02*
X181736905Y-104325950D01*
X181736905Y-104325950D02*
X181832143Y-104373569D01*
X181832143Y-104373569D02*
X182022619Y-104373569D01*
X182022619Y-104373569D02*
X182117857Y-104325950D01*
X182117857Y-104325950D02*
X182165476Y-104278330D01*
X182165476Y-104278330D02*
X182213095Y-104183092D01*
X182213095Y-104183092D02*
X182213095Y-103992616D01*
X182213095Y-103992616D02*
X182165476Y-103897378D01*
X182165476Y-103897378D02*
X182117857Y-103849759D01*
X182117857Y-103849759D02*
X182022619Y-103802140D01*
X84486905Y-104325950D02*
X84629762Y-104373569D01*
X84629762Y-104373569D02*
X84867857Y-104373569D01*
X84867857Y-104373569D02*
X84963095Y-104325950D01*
X84963095Y-104325950D02*
X85010714Y-104278330D01*
X85010714Y-104278330D02*
X85058333Y-104183092D01*
X85058333Y-104183092D02*
X85058333Y-104087854D01*
X85058333Y-104087854D02*
X85010714Y-103992616D01*
X85010714Y-103992616D02*
X84963095Y-103944997D01*
X84963095Y-103944997D02*
X84867857Y-103897378D01*
X84867857Y-103897378D02*
X84677381Y-103849759D01*
X84677381Y-103849759D02*
X84582143Y-103802140D01*
X84582143Y-103802140D02*
X84534524Y-103754521D01*
X84534524Y-103754521D02*
X84486905Y-103659283D01*
X84486905Y-103659283D02*
X84486905Y-103564045D01*
X84486905Y-103564045D02*
X84534524Y-103468807D01*
X84534524Y-103468807D02*
X84582143Y-103421188D01*
X84582143Y-103421188D02*
X84677381Y-103373569D01*
X84677381Y-103373569D02*
X84915476Y-103373569D01*
X84915476Y-103373569D02*
X85058333Y-103421188D01*
X85439286Y-103468807D02*
X85486905Y-103421188D01*
X85486905Y-103421188D02*
X85582143Y-103373569D01*
X85582143Y-103373569D02*
X85820238Y-103373569D01*
X85820238Y-103373569D02*
X85915476Y-103421188D01*
X85915476Y-103421188D02*
X85963095Y-103468807D01*
X85963095Y-103468807D02*
X86010714Y-103564045D01*
X86010714Y-103564045D02*
X86010714Y-103659283D01*
X86010714Y-103659283D02*
X85963095Y-103802140D01*
X85963095Y-103802140D02*
X85391667Y-104373569D01*
X85391667Y-104373569D02*
X86010714Y-104373569D01*
X86344048Y-103373569D02*
X86963095Y-103373569D01*
X86963095Y-103373569D02*
X86629762Y-103754521D01*
X86629762Y-103754521D02*
X86772619Y-103754521D01*
X86772619Y-103754521D02*
X86867857Y-103802140D01*
X86867857Y-103802140D02*
X86915476Y-103849759D01*
X86915476Y-103849759D02*
X86963095Y-103944997D01*
X86963095Y-103944997D02*
X86963095Y-104183092D01*
X86963095Y-104183092D02*
X86915476Y-104278330D01*
X86915476Y-104278330D02*
X86867857Y-104325950D01*
X86867857Y-104325950D02*
X86772619Y-104373569D01*
X86772619Y-104373569D02*
X86486905Y-104373569D01*
X86486905Y-104373569D02*
X86391667Y-104325950D01*
X86391667Y-104325950D02*
X86344048Y-104278330D01*
X94011905Y-85275950D02*
X94154762Y-85323569D01*
X94154762Y-85323569D02*
X94392857Y-85323569D01*
X94392857Y-85323569D02*
X94488095Y-85275950D01*
X94488095Y-85275950D02*
X94535714Y-85228330D01*
X94535714Y-85228330D02*
X94583333Y-85133092D01*
X94583333Y-85133092D02*
X94583333Y-85037854D01*
X94583333Y-85037854D02*
X94535714Y-84942616D01*
X94535714Y-84942616D02*
X94488095Y-84894997D01*
X94488095Y-84894997D02*
X94392857Y-84847378D01*
X94392857Y-84847378D02*
X94202381Y-84799759D01*
X94202381Y-84799759D02*
X94107143Y-84752140D01*
X94107143Y-84752140D02*
X94059524Y-84704521D01*
X94059524Y-84704521D02*
X94011905Y-84609283D01*
X94011905Y-84609283D02*
X94011905Y-84514045D01*
X94011905Y-84514045D02*
X94059524Y-84418807D01*
X94059524Y-84418807D02*
X94107143Y-84371188D01*
X94107143Y-84371188D02*
X94202381Y-84323569D01*
X94202381Y-84323569D02*
X94440476Y-84323569D01*
X94440476Y-84323569D02*
X94583333Y-84371188D01*
X95535714Y-85323569D02*
X94964286Y-85323569D01*
X95250000Y-85323569D02*
X95250000Y-84323569D01*
X95250000Y-84323569D02*
X95154762Y-84466426D01*
X95154762Y-84466426D02*
X95059524Y-84561664D01*
X95059524Y-84561664D02*
X94964286Y-84609283D01*
X96392857Y-84656902D02*
X96392857Y-85323569D01*
X96154762Y-84275950D02*
X95916667Y-84990235D01*
X95916667Y-84990235D02*
X96535714Y-84990235D01*
X113061905Y-85275950D02*
X113204762Y-85323569D01*
X113204762Y-85323569D02*
X113442857Y-85323569D01*
X113442857Y-85323569D02*
X113538095Y-85275950D01*
X113538095Y-85275950D02*
X113585714Y-85228330D01*
X113585714Y-85228330D02*
X113633333Y-85133092D01*
X113633333Y-85133092D02*
X113633333Y-85037854D01*
X113633333Y-85037854D02*
X113585714Y-84942616D01*
X113585714Y-84942616D02*
X113538095Y-84894997D01*
X113538095Y-84894997D02*
X113442857Y-84847378D01*
X113442857Y-84847378D02*
X113252381Y-84799759D01*
X113252381Y-84799759D02*
X113157143Y-84752140D01*
X113157143Y-84752140D02*
X113109524Y-84704521D01*
X113109524Y-84704521D02*
X113061905Y-84609283D01*
X113061905Y-84609283D02*
X113061905Y-84514045D01*
X113061905Y-84514045D02*
X113109524Y-84418807D01*
X113109524Y-84418807D02*
X113157143Y-84371188D01*
X113157143Y-84371188D02*
X113252381Y-84323569D01*
X113252381Y-84323569D02*
X113490476Y-84323569D01*
X113490476Y-84323569D02*
X113633333Y-84371188D01*
X114585714Y-85323569D02*
X114014286Y-85323569D01*
X114300000Y-85323569D02*
X114300000Y-84323569D01*
X114300000Y-84323569D02*
X114204762Y-84466426D01*
X114204762Y-84466426D02*
X114109524Y-84561664D01*
X114109524Y-84561664D02*
X114014286Y-84609283D01*
X115490476Y-84323569D02*
X115014286Y-84323569D01*
X115014286Y-84323569D02*
X114966667Y-84799759D01*
X114966667Y-84799759D02*
X115014286Y-84752140D01*
X115014286Y-84752140D02*
X115109524Y-84704521D01*
X115109524Y-84704521D02*
X115347619Y-84704521D01*
X115347619Y-84704521D02*
X115442857Y-84752140D01*
X115442857Y-84752140D02*
X115490476Y-84799759D01*
X115490476Y-84799759D02*
X115538095Y-84894997D01*
X115538095Y-84894997D02*
X115538095Y-85133092D01*
X115538095Y-85133092D02*
X115490476Y-85228330D01*
X115490476Y-85228330D02*
X115442857Y-85275950D01*
X115442857Y-85275950D02*
X115347619Y-85323569D01*
X115347619Y-85323569D02*
X115109524Y-85323569D01*
X115109524Y-85323569D02*
X115014286Y-85275950D01*
X115014286Y-85275950D02*
X114966667Y-85228330D01*
X146875595Y-66225950D02*
X147018452Y-66273569D01*
X147018452Y-66273569D02*
X147256547Y-66273569D01*
X147256547Y-66273569D02*
X147351785Y-66225950D01*
X147351785Y-66225950D02*
X147399404Y-66178330D01*
X147399404Y-66178330D02*
X147447023Y-66083092D01*
X147447023Y-66083092D02*
X147447023Y-65987854D01*
X147447023Y-65987854D02*
X147399404Y-65892616D01*
X147399404Y-65892616D02*
X147351785Y-65844997D01*
X147351785Y-65844997D02*
X147256547Y-65797378D01*
X147256547Y-65797378D02*
X147066071Y-65749759D01*
X147066071Y-65749759D02*
X146970833Y-65702140D01*
X146970833Y-65702140D02*
X146923214Y-65654521D01*
X146923214Y-65654521D02*
X146875595Y-65559283D01*
X146875595Y-65559283D02*
X146875595Y-65464045D01*
X146875595Y-65464045D02*
X146923214Y-65368807D01*
X146923214Y-65368807D02*
X146970833Y-65321188D01*
X146970833Y-65321188D02*
X147066071Y-65273569D01*
X147066071Y-65273569D02*
X147304166Y-65273569D01*
X147304166Y-65273569D02*
X147447023Y-65321188D01*
X148304166Y-65273569D02*
X148113690Y-65273569D01*
X148113690Y-65273569D02*
X148018452Y-65321188D01*
X148018452Y-65321188D02*
X147970833Y-65368807D01*
X147970833Y-65368807D02*
X147875595Y-65511664D01*
X147875595Y-65511664D02*
X147827976Y-65702140D01*
X147827976Y-65702140D02*
X147827976Y-66083092D01*
X147827976Y-66083092D02*
X147875595Y-66178330D01*
X147875595Y-66178330D02*
X147923214Y-66225950D01*
X147923214Y-66225950D02*
X148018452Y-66273569D01*
X148018452Y-66273569D02*
X148208928Y-66273569D01*
X148208928Y-66273569D02*
X148304166Y-66225950D01*
X148304166Y-66225950D02*
X148351785Y-66178330D01*
X148351785Y-66178330D02*
X148399404Y-66083092D01*
X148399404Y-66083092D02*
X148399404Y-65844997D01*
X148399404Y-65844997D02*
X148351785Y-65749759D01*
X148351785Y-65749759D02*
X148304166Y-65702140D01*
X148304166Y-65702140D02*
X148208928Y-65654521D01*
X148208928Y-65654521D02*
X148018452Y-65654521D01*
X148018452Y-65654521D02*
X147923214Y-65702140D01*
X147923214Y-65702140D02*
X147875595Y-65749759D01*
X147875595Y-65749759D02*
X147827976Y-65844997D01*
X113061905Y-123375950D02*
X113204762Y-123423569D01*
X113204762Y-123423569D02*
X113442857Y-123423569D01*
X113442857Y-123423569D02*
X113538095Y-123375950D01*
X113538095Y-123375950D02*
X113585714Y-123328330D01*
X113585714Y-123328330D02*
X113633333Y-123233092D01*
X113633333Y-123233092D02*
X113633333Y-123137854D01*
X113633333Y-123137854D02*
X113585714Y-123042616D01*
X113585714Y-123042616D02*
X113538095Y-122994997D01*
X113538095Y-122994997D02*
X113442857Y-122947378D01*
X113442857Y-122947378D02*
X113252381Y-122899759D01*
X113252381Y-122899759D02*
X113157143Y-122852140D01*
X113157143Y-122852140D02*
X113109524Y-122804521D01*
X113109524Y-122804521D02*
X113061905Y-122709283D01*
X113061905Y-122709283D02*
X113061905Y-122614045D01*
X113061905Y-122614045D02*
X113109524Y-122518807D01*
X113109524Y-122518807D02*
X113157143Y-122471188D01*
X113157143Y-122471188D02*
X113252381Y-122423569D01*
X113252381Y-122423569D02*
X113490476Y-122423569D01*
X113490476Y-122423569D02*
X113633333Y-122471188D01*
X113966667Y-122423569D02*
X114585714Y-122423569D01*
X114585714Y-122423569D02*
X114252381Y-122804521D01*
X114252381Y-122804521D02*
X114395238Y-122804521D01*
X114395238Y-122804521D02*
X114490476Y-122852140D01*
X114490476Y-122852140D02*
X114538095Y-122899759D01*
X114538095Y-122899759D02*
X114585714Y-122994997D01*
X114585714Y-122994997D02*
X114585714Y-123233092D01*
X114585714Y-123233092D02*
X114538095Y-123328330D01*
X114538095Y-123328330D02*
X114490476Y-123375950D01*
X114490476Y-123375950D02*
X114395238Y-123423569D01*
X114395238Y-123423569D02*
X114109524Y-123423569D01*
X114109524Y-123423569D02*
X114014286Y-123375950D01*
X114014286Y-123375950D02*
X113966667Y-123328330D01*
X115538095Y-123423569D02*
X114966667Y-123423569D01*
X115252381Y-123423569D02*
X115252381Y-122423569D01*
X115252381Y-122423569D02*
X115157143Y-122566426D01*
X115157143Y-122566426D02*
X115061905Y-122661664D01*
X115061905Y-122661664D02*
X114966667Y-122709283D01*
X182118155Y-123375950D02*
X182261012Y-123423569D01*
X182261012Y-123423569D02*
X182499107Y-123423569D01*
X182499107Y-123423569D02*
X182594345Y-123375950D01*
X182594345Y-123375950D02*
X182641964Y-123328330D01*
X182641964Y-123328330D02*
X182689583Y-123233092D01*
X182689583Y-123233092D02*
X182689583Y-123137854D01*
X182689583Y-123137854D02*
X182641964Y-123042616D01*
X182641964Y-123042616D02*
X182594345Y-122994997D01*
X182594345Y-122994997D02*
X182499107Y-122947378D01*
X182499107Y-122947378D02*
X182308631Y-122899759D01*
X182308631Y-122899759D02*
X182213393Y-122852140D01*
X182213393Y-122852140D02*
X182165774Y-122804521D01*
X182165774Y-122804521D02*
X182118155Y-122709283D01*
X182118155Y-122709283D02*
X182118155Y-122614045D01*
X182118155Y-122614045D02*
X182165774Y-122518807D01*
X182165774Y-122518807D02*
X182213393Y-122471188D01*
X182213393Y-122471188D02*
X182308631Y-122423569D01*
X182308631Y-122423569D02*
X182546726Y-122423569D01*
X182546726Y-122423569D02*
X182689583Y-122471188D01*
X183022917Y-122423569D02*
X183641964Y-122423569D01*
X183641964Y-122423569D02*
X183308631Y-122804521D01*
X183308631Y-122804521D02*
X183451488Y-122804521D01*
X183451488Y-122804521D02*
X183546726Y-122852140D01*
X183546726Y-122852140D02*
X183594345Y-122899759D01*
X183594345Y-122899759D02*
X183641964Y-122994997D01*
X183641964Y-122994997D02*
X183641964Y-123233092D01*
X183641964Y-123233092D02*
X183594345Y-123328330D01*
X183594345Y-123328330D02*
X183546726Y-123375950D01*
X183546726Y-123375950D02*
X183451488Y-123423569D01*
X183451488Y-123423569D02*
X183165774Y-123423569D01*
X183165774Y-123423569D02*
X183070536Y-123375950D01*
X183070536Y-123375950D02*
X183022917Y-123328330D01*
X183975298Y-122423569D02*
X184594345Y-122423569D01*
X184594345Y-122423569D02*
X184261012Y-122804521D01*
X184261012Y-122804521D02*
X184403869Y-122804521D01*
X184403869Y-122804521D02*
X184499107Y-122852140D01*
X184499107Y-122852140D02*
X184546726Y-122899759D01*
X184546726Y-122899759D02*
X184594345Y-122994997D01*
X184594345Y-122994997D02*
X184594345Y-123233092D01*
X184594345Y-123233092D02*
X184546726Y-123328330D01*
X184546726Y-123328330D02*
X184499107Y-123375950D01*
X184499107Y-123375950D02*
X184403869Y-123423569D01*
X184403869Y-123423569D02*
X184118155Y-123423569D01*
X184118155Y-123423569D02*
X184022917Y-123375950D01*
X184022917Y-123375950D02*
X183975298Y-123328330D01*
X70675595Y-66225950D02*
X70818452Y-66273569D01*
X70818452Y-66273569D02*
X71056547Y-66273569D01*
X71056547Y-66273569D02*
X71151785Y-66225950D01*
X71151785Y-66225950D02*
X71199404Y-66178330D01*
X71199404Y-66178330D02*
X71247023Y-66083092D01*
X71247023Y-66083092D02*
X71247023Y-65987854D01*
X71247023Y-65987854D02*
X71199404Y-65892616D01*
X71199404Y-65892616D02*
X71151785Y-65844997D01*
X71151785Y-65844997D02*
X71056547Y-65797378D01*
X71056547Y-65797378D02*
X70866071Y-65749759D01*
X70866071Y-65749759D02*
X70770833Y-65702140D01*
X70770833Y-65702140D02*
X70723214Y-65654521D01*
X70723214Y-65654521D02*
X70675595Y-65559283D01*
X70675595Y-65559283D02*
X70675595Y-65464045D01*
X70675595Y-65464045D02*
X70723214Y-65368807D01*
X70723214Y-65368807D02*
X70770833Y-65321188D01*
X70770833Y-65321188D02*
X70866071Y-65273569D01*
X70866071Y-65273569D02*
X71104166Y-65273569D01*
X71104166Y-65273569D02*
X71247023Y-65321188D01*
X71627976Y-65368807D02*
X71675595Y-65321188D01*
X71675595Y-65321188D02*
X71770833Y-65273569D01*
X71770833Y-65273569D02*
X72008928Y-65273569D01*
X72008928Y-65273569D02*
X72104166Y-65321188D01*
X72104166Y-65321188D02*
X72151785Y-65368807D01*
X72151785Y-65368807D02*
X72199404Y-65464045D01*
X72199404Y-65464045D02*
X72199404Y-65559283D01*
X72199404Y-65559283D02*
X72151785Y-65702140D01*
X72151785Y-65702140D02*
X71580357Y-66273569D01*
X71580357Y-66273569D02*
X72199404Y-66273569D01*
X151161905Y-85275950D02*
X151304762Y-85323569D01*
X151304762Y-85323569D02*
X151542857Y-85323569D01*
X151542857Y-85323569D02*
X151638095Y-85275950D01*
X151638095Y-85275950D02*
X151685714Y-85228330D01*
X151685714Y-85228330D02*
X151733333Y-85133092D01*
X151733333Y-85133092D02*
X151733333Y-85037854D01*
X151733333Y-85037854D02*
X151685714Y-84942616D01*
X151685714Y-84942616D02*
X151638095Y-84894997D01*
X151638095Y-84894997D02*
X151542857Y-84847378D01*
X151542857Y-84847378D02*
X151352381Y-84799759D01*
X151352381Y-84799759D02*
X151257143Y-84752140D01*
X151257143Y-84752140D02*
X151209524Y-84704521D01*
X151209524Y-84704521D02*
X151161905Y-84609283D01*
X151161905Y-84609283D02*
X151161905Y-84514045D01*
X151161905Y-84514045D02*
X151209524Y-84418807D01*
X151209524Y-84418807D02*
X151257143Y-84371188D01*
X151257143Y-84371188D02*
X151352381Y-84323569D01*
X151352381Y-84323569D02*
X151590476Y-84323569D01*
X151590476Y-84323569D02*
X151733333Y-84371188D01*
X152685714Y-85323569D02*
X152114286Y-85323569D01*
X152400000Y-85323569D02*
X152400000Y-84323569D01*
X152400000Y-84323569D02*
X152304762Y-84466426D01*
X152304762Y-84466426D02*
X152209524Y-84561664D01*
X152209524Y-84561664D02*
X152114286Y-84609283D01*
X153019048Y-84323569D02*
X153685714Y-84323569D01*
X153685714Y-84323569D02*
X153257143Y-85323569D01*
D12*
X183400000Y-85768750D02*
X183400000Y-99968750D01*
X183400000Y-99968750D02*
X197600000Y-99968750D01*
X197600000Y-85768750D02*
X183400000Y-85768750D01*
X197600000Y-99968750D02*
X197600000Y-85768750D01*
D13*
X172100000Y-50250000D02*
X172500000Y-49650000D01*
X172500000Y-49250000D02*
X172500000Y-49650000D01*
X172500000Y-49650000D02*
X172900000Y-50250000D01*
X172500000Y-50250000D02*
X172500000Y-50750000D01*
X172900000Y-50250000D02*
X172100000Y-50250000D01*
X173050000Y-49650000D02*
X171950000Y-49650000D01*
X130568860Y-52042231D02*
X130968860Y-51442231D01*
X130968860Y-51042231D02*
X130968860Y-51442231D01*
X130968860Y-51442231D02*
X131368860Y-52042231D01*
X130968860Y-52042231D02*
X130968860Y-52542231D01*
X131368860Y-52042231D02*
X130568860Y-52042231D01*
X131518860Y-51442231D02*
X130418860Y-51442231D01*
X139498555Y-50256292D02*
X139898555Y-49656292D01*
X139898555Y-49256292D02*
X139898555Y-49656292D01*
X139898555Y-49656292D02*
X140298555Y-50256292D01*
X139898555Y-50256292D02*
X139898555Y-50756292D01*
X140298555Y-50256292D02*
X139498555Y-50256292D01*
X140448555Y-49656292D02*
X139348555Y-49656292D01*
D12*
X121480000Y-66718750D02*
X121480000Y-80918750D01*
X121480000Y-80918750D02*
X135680000Y-80918750D01*
X135680000Y-66718750D02*
X121480000Y-66718750D01*
X135680000Y-80918750D02*
X135680000Y-66718750D01*
X145300000Y-123868750D02*
X145300000Y-138068750D01*
X145300000Y-138068750D02*
X159500000Y-138068750D01*
X159500000Y-123868750D02*
X145300000Y-123868750D01*
X159500000Y-138068750D02*
X159500000Y-123868750D01*
D13*
X190100000Y-50250000D02*
X190500000Y-49650000D01*
X190500000Y-49250000D02*
X190500000Y-49650000D01*
X190500000Y-49650000D02*
X190900000Y-50250000D01*
X190500000Y-50250000D02*
X190500000Y-50750000D01*
X190900000Y-50250000D02*
X190100000Y-50250000D01*
X191050000Y-49650000D02*
X189950000Y-49650000D01*
D12*
X235787500Y-66718750D02*
X235787500Y-80918750D01*
X235787500Y-80918750D02*
X249987500Y-80918750D01*
X249987500Y-66718750D02*
X235787500Y-66718750D01*
X249987500Y-80918750D02*
X249987500Y-66718750D01*
X221500000Y-85768750D02*
X221500000Y-99968750D01*
X221500000Y-99968750D02*
X235700000Y-99968750D01*
X235700000Y-85768750D02*
X221500000Y-85768750D01*
X235700000Y-99968750D02*
X235700000Y-85768750D01*
D13*
X133545335Y-46684414D02*
X133945335Y-46084414D01*
X133945335Y-45684414D02*
X133945335Y-46084414D01*
X133945335Y-46084414D02*
X134345335Y-46684414D01*
X133945335Y-46684414D02*
X133945335Y-47184414D01*
X134345335Y-46684414D02*
X133545335Y-46684414D01*
X134495335Y-46084414D02*
X133395335Y-46084414D01*
X166350000Y-46500000D02*
X166750000Y-45900000D01*
X166750000Y-45500000D02*
X166750000Y-45900000D01*
X166750000Y-45900000D02*
X167150000Y-46500000D01*
X166750000Y-46500000D02*
X166750000Y-47000000D01*
X167150000Y-46500000D02*
X166350000Y-46500000D01*
X167300000Y-45900000D02*
X166200000Y-45900000D01*
D12*
X195306250Y-123868750D02*
X195306250Y-138068750D01*
X195306250Y-138068750D02*
X209506250Y-138068750D01*
X209506250Y-123868750D02*
X195306250Y-123868750D01*
X209506250Y-138068750D02*
X209506250Y-123868750D01*
X154825000Y-104818750D02*
X154825000Y-119018750D01*
X154825000Y-119018750D02*
X169025000Y-119018750D01*
X169025000Y-104818750D02*
X154825000Y-104818750D01*
X169025000Y-119018750D02*
X169025000Y-104818750D01*
X164350000Y-85768750D02*
X164350000Y-99968750D01*
X164350000Y-99968750D02*
X178550000Y-99968750D01*
X178550000Y-85768750D02*
X164350000Y-85768750D01*
X178550000Y-99968750D02*
X178550000Y-85768750D01*
D13*
X124615730Y-48470353D02*
X125015730Y-47870353D01*
X125015730Y-47470353D02*
X125015730Y-47870353D01*
X125015730Y-47870353D02*
X125415730Y-48470353D01*
X125015730Y-48470353D02*
X125015730Y-48970353D01*
X125415730Y-48470353D02*
X124615730Y-48470353D01*
X125565730Y-47870353D02*
X124465730Y-47870353D01*
X148428250Y-48470353D02*
X148828250Y-47870353D01*
X148828250Y-47470353D02*
X148828250Y-47870353D01*
X148828250Y-47870353D02*
X149228250Y-48470353D01*
X148828250Y-48470353D02*
X148828250Y-48970353D01*
X149228250Y-48470353D02*
X148428250Y-48470353D01*
X149378250Y-47870353D02*
X148278250Y-47870353D01*
X115686035Y-50256292D02*
X116086035Y-49656292D01*
X116086035Y-49256292D02*
X116086035Y-49656292D01*
X116086035Y-49656292D02*
X116486035Y-50256292D01*
X116086035Y-50256292D02*
X116086035Y-50756292D01*
X116486035Y-50256292D02*
X115686035Y-50256292D01*
X116636035Y-49656292D02*
X115536035Y-49656292D01*
D12*
X52431250Y-104818750D02*
X52431250Y-119018750D01*
X52431250Y-119018750D02*
X66631250Y-119018750D01*
X66631250Y-104818750D02*
X52431250Y-104818750D01*
X66631250Y-119018750D02*
X66631250Y-104818750D01*
D13*
X187123595Y-48470353D02*
X187523595Y-47870353D01*
X187523595Y-47470353D02*
X187523595Y-47870353D01*
X187523595Y-47870353D02*
X187923595Y-48470353D01*
X187523595Y-48470353D02*
X187523595Y-48970353D01*
X187923595Y-48470353D02*
X187123595Y-48470353D01*
X188073595Y-47870353D02*
X186973595Y-47870353D01*
X193100000Y-46684414D02*
X193500000Y-46084414D01*
X193500000Y-45684414D02*
X193500000Y-46084414D01*
X193500000Y-46084414D02*
X193900000Y-46684414D01*
X193500000Y-46684414D02*
X193500000Y-47184414D01*
X193900000Y-46684414D02*
X193100000Y-46684414D01*
X194050000Y-46084414D02*
X192950000Y-46084414D01*
D12*
X45287500Y-66718750D02*
X45287500Y-80918750D01*
X45287500Y-80918750D02*
X59487500Y-80918750D01*
X59487500Y-66718750D02*
X45287500Y-66718750D01*
X59487500Y-80918750D02*
X59487500Y-66718750D01*
X102400000Y-66718750D02*
X102400000Y-80918750D01*
X102400000Y-80918750D02*
X116600000Y-80918750D01*
X116600000Y-66718750D02*
X102400000Y-66718750D01*
X116600000Y-80918750D02*
X116600000Y-66718750D01*
X135775000Y-104818750D02*
X135775000Y-119018750D01*
X135775000Y-119018750D02*
X149975000Y-119018750D01*
X149975000Y-104818750D02*
X135775000Y-104818750D01*
X149975000Y-119018750D02*
X149975000Y-104818750D01*
X202450000Y-85768750D02*
X202450000Y-99968750D01*
X202450000Y-99968750D02*
X216650000Y-99968750D01*
X216650000Y-85768750D02*
X202450000Y-85768750D01*
X216650000Y-99968750D02*
X216650000Y-85768750D01*
D13*
X196053290Y-48470353D02*
X196453290Y-47870353D01*
X196453290Y-47470353D02*
X196453290Y-47870353D01*
X196453290Y-47870353D02*
X196853290Y-48470353D01*
X196453290Y-48470353D02*
X196453290Y-48970353D01*
X196853290Y-48470353D02*
X196053290Y-48470353D01*
X197003290Y-47870353D02*
X195903290Y-47870353D01*
D12*
X223881250Y-104818750D02*
X223881250Y-119018750D01*
X223881250Y-119018750D02*
X238081250Y-119018750D01*
X238081250Y-104818750D02*
X223881250Y-104818750D01*
X238081250Y-119018750D02*
X238081250Y-104818750D01*
D13*
X127592295Y-50256292D02*
X127992295Y-49656292D01*
X127992295Y-49256292D02*
X127992295Y-49656292D01*
X127992295Y-49656292D02*
X128392295Y-50256292D01*
X127992295Y-50256292D02*
X127992295Y-50756292D01*
X128392295Y-50256292D02*
X127592295Y-50256292D01*
X128542295Y-49656292D02*
X127442295Y-49656292D01*
X169264205Y-48470353D02*
X169664205Y-47870353D01*
X169664205Y-47470353D02*
X169664205Y-47870353D01*
X169664205Y-47870353D02*
X170064205Y-48470353D01*
X169664205Y-48470353D02*
X169664205Y-48970353D01*
X170064205Y-48470353D02*
X169264205Y-48470353D01*
X170214205Y-47870353D02*
X169114205Y-47870353D01*
D12*
X178637500Y-66718750D02*
X178637500Y-80918750D01*
X178637500Y-80918750D02*
X192837500Y-80918750D01*
X192837500Y-66718750D02*
X178637500Y-66718750D01*
X192837500Y-80918750D02*
X192837500Y-66718750D01*
D13*
X154381380Y-52042231D02*
X154781380Y-51442231D01*
X154781380Y-51042231D02*
X154781380Y-51442231D01*
X154781380Y-51442231D02*
X155181380Y-52042231D01*
X154781380Y-52042231D02*
X154781380Y-52542231D01*
X155181380Y-52042231D02*
X154381380Y-52042231D01*
X155331380Y-51442231D02*
X154231380Y-51442231D01*
D12*
X47668750Y-85768750D02*
X47668750Y-99968750D01*
X47668750Y-99968750D02*
X61868750Y-99968750D01*
X61868750Y-85768750D02*
X47668750Y-85768750D01*
X61868750Y-99968750D02*
X61868750Y-85768750D01*
X159587500Y-66718750D02*
X159587500Y-80918750D01*
X159587500Y-80918750D02*
X173787500Y-80918750D01*
X173787500Y-66718750D02*
X159587500Y-66718750D01*
X173787500Y-80918750D02*
X173787500Y-66718750D01*
D13*
X151350000Y-50000000D02*
X151750000Y-49400000D01*
X151750000Y-49000000D02*
X151750000Y-49400000D01*
X151750000Y-49400000D02*
X152150000Y-50000000D01*
X151750000Y-50000000D02*
X151750000Y-50500000D01*
X152150000Y-50000000D02*
X151350000Y-50000000D01*
X152300000Y-49400000D02*
X151200000Y-49400000D01*
X109732835Y-46684377D02*
X110132835Y-46084377D01*
X110132835Y-45684377D02*
X110132835Y-46084377D01*
X110132835Y-46084377D02*
X110532835Y-46684377D01*
X110132835Y-46684377D02*
X110132835Y-47184377D01*
X110532835Y-46684377D02*
X109732835Y-46684377D01*
X110682835Y-46084377D02*
X109582835Y-46084377D01*
X145600000Y-46750000D02*
X146000000Y-46150000D01*
X146000000Y-45750000D02*
X146000000Y-46150000D01*
X146000000Y-46150000D02*
X146400000Y-46750000D01*
X146000000Y-46750000D02*
X146000000Y-47250000D01*
X146400000Y-46750000D02*
X145600000Y-46750000D01*
X146550000Y-46150000D02*
X145450000Y-46150000D01*
X136521990Y-48470353D02*
X136921990Y-47870353D01*
X136921990Y-47470353D02*
X136921990Y-47870353D01*
X136921990Y-47870353D02*
X137321990Y-48470353D01*
X136921990Y-48470353D02*
X136921990Y-48970353D01*
X137321990Y-48470353D02*
X136521990Y-48470353D01*
X137471990Y-47870353D02*
X136371990Y-47870353D01*
X178193900Y-48470353D02*
X178593900Y-47870353D01*
X178593900Y-47470353D02*
X178593900Y-47870353D01*
X178593900Y-47870353D02*
X178993900Y-48470353D01*
X178593900Y-48470353D02*
X178593900Y-48970353D01*
X178993900Y-48470353D02*
X178193900Y-48470353D01*
X179143900Y-47870353D02*
X178043900Y-47870353D01*
D12*
X97675000Y-104818750D02*
X97675000Y-119018750D01*
X97675000Y-119018750D02*
X111875000Y-119018750D01*
X111875000Y-104818750D02*
X97675000Y-104818750D01*
X111875000Y-119018750D02*
X111875000Y-104818750D01*
X69100000Y-85768750D02*
X69100000Y-99968750D01*
X69100000Y-99968750D02*
X83300000Y-99968750D01*
X83300000Y-85768750D02*
X69100000Y-85768750D01*
X83300000Y-99968750D02*
X83300000Y-85768750D01*
D13*
X121639165Y-46684414D02*
X122039165Y-46084414D01*
X122039165Y-45684414D02*
X122039165Y-46084414D01*
X122039165Y-46084414D02*
X122439165Y-46684414D01*
X122039165Y-46684414D02*
X122039165Y-47184414D01*
X122439165Y-46684414D02*
X121639165Y-46684414D01*
X122589165Y-46084414D02*
X121489165Y-46084414D01*
D12*
X126250000Y-85768750D02*
X126250000Y-99968750D01*
X126250000Y-99968750D02*
X140450000Y-99968750D01*
X140450000Y-85768750D02*
X126250000Y-85768750D01*
X140450000Y-99968750D02*
X140450000Y-85768750D01*
X192925000Y-104818750D02*
X192925000Y-119018750D01*
X192925000Y-119018750D02*
X207125000Y-119018750D01*
X207125000Y-104818750D02*
X192925000Y-104818750D01*
X207125000Y-119018750D02*
X207125000Y-104818750D01*
D13*
X112709470Y-48470353D02*
X113109470Y-47870353D01*
X113109470Y-47470353D02*
X113109470Y-47870353D01*
X113109470Y-47870353D02*
X113509470Y-48470353D01*
X113109470Y-48470353D02*
X113109470Y-48970353D01*
X113509470Y-48470353D02*
X112709470Y-48470353D01*
X113659470Y-47870353D02*
X112559470Y-47870353D01*
D12*
X83387500Y-66718750D02*
X83387500Y-80918750D01*
X83387500Y-80918750D02*
X97587500Y-80918750D01*
X97587500Y-66718750D02*
X83387500Y-66718750D01*
X97587500Y-80918750D02*
X97587500Y-66718750D01*
X216737500Y-66718750D02*
X216737500Y-80918750D01*
X216737500Y-80918750D02*
X230937500Y-80918750D01*
X230937500Y-66718750D02*
X216737500Y-66718750D01*
X230937500Y-80918750D02*
X230937500Y-66718750D01*
D13*
X163350000Y-50250000D02*
X163750000Y-49650000D01*
X163750000Y-49250000D02*
X163750000Y-49650000D01*
X163750000Y-49650000D02*
X164150000Y-50250000D01*
X163750000Y-50250000D02*
X163750000Y-50750000D01*
X164150000Y-50250000D02*
X163350000Y-50250000D01*
X164300000Y-49650000D02*
X163200000Y-49650000D01*
X199100000Y-50250000D02*
X199500000Y-49650000D01*
X199500000Y-49250000D02*
X199500000Y-49650000D01*
X199500000Y-49650000D02*
X199900000Y-50250000D01*
X199500000Y-50250000D02*
X199500000Y-50750000D01*
X199900000Y-50250000D02*
X199100000Y-50250000D01*
X200050000Y-49650000D02*
X198950000Y-49650000D01*
D12*
X116725000Y-104818750D02*
X116725000Y-119018750D01*
X116725000Y-119018750D02*
X130925000Y-119018750D01*
X130925000Y-104818750D02*
X116725000Y-104818750D01*
X130925000Y-119018750D02*
X130925000Y-104818750D01*
D10*
X41080000Y-42740000D02*
X41080000Y-60520000D01*
X41080000Y-60520000D02*
X74100000Y-60520000D01*
X43620000Y-57980000D02*
X43620000Y-60520000D01*
X43620000Y-57980000D02*
X46160000Y-57980000D01*
X46160000Y-57980000D02*
X46160000Y-60520000D01*
X74100000Y-42740000D02*
X41080000Y-42740000D01*
X74100000Y-60520000D02*
X74100000Y-42740000D01*
D11*
X49499360Y-46698432D02*
X49599360Y-46698432D01*
X49599360Y-47198432D01*
X49499360Y-47198432D01*
X49499360Y-46698432D01*
G36*
X49599360Y-47198432D02*
G01*
X49499360Y-47198432D01*
X49499360Y-46698432D01*
X49599360Y-46698432D01*
X49599360Y-47198432D01*
G37*
X49499360Y-46698432D02*
X49799360Y-46698432D01*
X49799360Y-46798432D01*
X49499360Y-46798432D01*
X49499360Y-46698432D01*
G36*
X49799360Y-46798432D02*
G01*
X49499360Y-46798432D01*
X49499360Y-46698432D01*
X49799360Y-46698432D01*
X49799360Y-46798432D01*
G37*
X49499360Y-47098432D02*
X50299360Y-47098432D01*
X50299360Y-47198432D01*
X49499360Y-47198432D01*
X49499360Y-47098432D01*
G36*
X50299360Y-47198432D02*
G01*
X49499360Y-47198432D01*
X49499360Y-47098432D01*
X50299360Y-47098432D01*
X50299360Y-47198432D01*
G37*
X49899360Y-46898432D02*
X49999360Y-46898432D01*
X49999360Y-46998432D01*
X49899360Y-46998432D01*
X49899360Y-46898432D01*
G36*
X49999360Y-46998432D02*
G01*
X49899360Y-46998432D01*
X49899360Y-46898432D01*
X49999360Y-46898432D01*
X49999360Y-46998432D01*
G37*
X50099360Y-46698432D02*
X50299360Y-46698432D01*
X50299360Y-46798432D01*
X50099360Y-46798432D01*
X50099360Y-46698432D01*
G36*
X50299360Y-46798432D02*
G01*
X50099360Y-46798432D01*
X50099360Y-46698432D01*
X50299360Y-46698432D01*
X50299360Y-46798432D01*
G37*
D13*
X181100000Y-50250000D02*
X181500000Y-49650000D01*
X181500000Y-49250000D02*
X181500000Y-49650000D01*
X181500000Y-49650000D02*
X181900000Y-50250000D01*
X181500000Y-50250000D02*
X181500000Y-50750000D01*
X181900000Y-50250000D02*
X181100000Y-50250000D01*
X182050000Y-49650000D02*
X180950000Y-49650000D01*
X160334510Y-48470353D02*
X160734510Y-47870353D01*
X160734510Y-47470353D02*
X160734510Y-47870353D01*
X160734510Y-47870353D02*
X161134510Y-48470353D01*
X160734510Y-48470353D02*
X160734510Y-48970353D01*
X161134510Y-48470353D02*
X160334510Y-48470353D01*
X161284510Y-47870353D02*
X160184510Y-47870353D01*
D12*
X197687500Y-66718750D02*
X197687500Y-80918750D01*
X197687500Y-80918750D02*
X211887500Y-80918750D01*
X211887500Y-66718750D02*
X197687500Y-66718750D01*
X211887500Y-80918750D02*
X211887500Y-66718750D01*
D13*
X184147030Y-46684414D02*
X184547030Y-46084414D01*
X184547030Y-45684414D02*
X184547030Y-46084414D01*
X184547030Y-46084414D02*
X184947030Y-46684414D01*
X184547030Y-46684414D02*
X184547030Y-47184414D01*
X184947030Y-46684414D02*
X184147030Y-46684414D01*
X185097030Y-46084414D02*
X183997030Y-46084414D01*
D12*
X173875000Y-104818750D02*
X173875000Y-119018750D01*
X173875000Y-119018750D02*
X188075000Y-119018750D01*
X188075000Y-104818750D02*
X173875000Y-104818750D01*
X188075000Y-119018750D02*
X188075000Y-104818750D01*
D13*
X202100000Y-46684414D02*
X202500000Y-46084414D01*
X202500000Y-45684414D02*
X202500000Y-46084414D01*
X202500000Y-46084414D02*
X202900000Y-46684414D01*
X202500000Y-46684414D02*
X202500000Y-47184414D01*
X202900000Y-46684414D02*
X202100000Y-46684414D01*
X203050000Y-46084414D02*
X201950000Y-46084414D01*
X204982985Y-48470353D02*
X205382985Y-47870353D01*
X205382985Y-47470353D02*
X205382985Y-47870353D01*
X205382985Y-47870353D02*
X205782985Y-48470353D01*
X205382985Y-48470353D02*
X205382985Y-48970353D01*
X205782985Y-48470353D02*
X204982985Y-48470353D01*
X205932985Y-47870353D02*
X204832985Y-47870353D01*
X142475120Y-52042231D02*
X142875120Y-51442231D01*
X142875120Y-51042231D02*
X142875120Y-51442231D01*
X142875120Y-51442231D02*
X143275120Y-52042231D01*
X142875120Y-52042231D02*
X142875120Y-52542231D01*
X143275120Y-52042231D02*
X142475120Y-52042231D01*
X143425120Y-51442231D02*
X142325120Y-51442231D01*
D12*
X78625000Y-104818750D02*
X78625000Y-119018750D01*
X78625000Y-119018750D02*
X92825000Y-119018750D01*
X92825000Y-104818750D02*
X78625000Y-104818750D01*
X92825000Y-119018750D02*
X92825000Y-104818750D01*
D13*
X157350000Y-46500000D02*
X157750000Y-45900000D01*
X157750000Y-45500000D02*
X157750000Y-45900000D01*
X157750000Y-45900000D02*
X158150000Y-46500000D01*
X157750000Y-46500000D02*
X157750000Y-47000000D01*
X158150000Y-46500000D02*
X157350000Y-46500000D01*
X158300000Y-45900000D02*
X157200000Y-45900000D01*
D12*
X88150000Y-85768750D02*
X88150000Y-99968750D01*
X88150000Y-99968750D02*
X102350000Y-99968750D01*
X102350000Y-85768750D02*
X88150000Y-85768750D01*
X102350000Y-99968750D02*
X102350000Y-85768750D01*
X107200000Y-85768750D02*
X107200000Y-99968750D01*
X107200000Y-99968750D02*
X121400000Y-99968750D01*
X121400000Y-85768750D02*
X107200000Y-85768750D01*
X121400000Y-99968750D02*
X121400000Y-85768750D01*
D13*
X207850000Y-46750000D02*
X208250000Y-46150000D01*
X208250000Y-45750000D02*
X208250000Y-46150000D01*
X208250000Y-46150000D02*
X208650000Y-46750000D01*
X208250000Y-46750000D02*
X208250000Y-47250000D01*
X208650000Y-46750000D02*
X207850000Y-46750000D01*
X208800000Y-46150000D02*
X207700000Y-46150000D01*
D12*
X140537500Y-66718750D02*
X140537500Y-80918750D01*
X140537500Y-80918750D02*
X154737500Y-80918750D01*
X154737500Y-66718750D02*
X140537500Y-66718750D01*
X154737500Y-80918750D02*
X154737500Y-66718750D01*
X107200000Y-123868750D02*
X107200000Y-138068750D01*
X107200000Y-138068750D02*
X121400000Y-138068750D01*
X121400000Y-123868750D02*
X107200000Y-123868750D01*
X121400000Y-138068750D02*
X121400000Y-123868750D01*
D13*
X175100000Y-46500000D02*
X175500000Y-45900000D01*
X175500000Y-45500000D02*
X175500000Y-45900000D01*
X175500000Y-45900000D02*
X175900000Y-46500000D01*
X175500000Y-46500000D02*
X175500000Y-47000000D01*
X175900000Y-46500000D02*
X175100000Y-46500000D01*
X176050000Y-45900000D02*
X174950000Y-45900000D01*
D14*
G36*
X223323379Y-51890488D02*
G01*
X223660542Y-52007305D01*
X223968692Y-52208816D01*
X224038339Y-52268933D01*
X224262332Y-52530772D01*
X224411592Y-52833208D01*
X224486119Y-53159984D01*
X224485915Y-53494844D01*
X224410978Y-53821532D01*
X224261309Y-54123790D01*
X224038339Y-54384070D01*
X223745008Y-54591182D01*
X223406428Y-54733709D01*
X223047371Y-54804761D01*
X222692608Y-54797447D01*
X222606527Y-54782364D01*
X222261679Y-54664293D01*
X221950906Y-54468852D01*
X221692419Y-54210141D01*
X221524289Y-53944661D01*
X221414395Y-53618008D01*
X221388020Y-53275438D01*
X221441550Y-52935740D01*
X221571371Y-52617701D01*
X221773867Y-52340108D01*
X221846688Y-52268933D01*
X222150159Y-52046753D01*
X222479200Y-51910576D01*
X222848499Y-51854823D01*
X222942514Y-51852789D01*
X223323379Y-51890488D01*
G37*
G36*
X215753657Y-51533166D02*
G01*
X215950729Y-51574165D01*
X216064325Y-51618437D01*
X216323927Y-51781241D01*
X216563253Y-52010563D01*
X216755759Y-52279231D01*
X216808420Y-52380204D01*
X216871907Y-52530741D01*
X216909690Y-52670692D01*
X216927956Y-52834257D01*
X216932894Y-53055633D01*
X216932902Y-53068276D01*
X216928448Y-53293281D01*
X216910961Y-53458835D01*
X216874254Y-53599137D01*
X216812140Y-53748387D01*
X216808420Y-53756348D01*
X216643379Y-54027073D01*
X216424610Y-54268980D01*
X216178025Y-54455601D01*
X216067199Y-54513466D01*
X215781457Y-54599692D01*
X215467991Y-54626591D01*
X215166812Y-54592340D01*
X215054508Y-54559605D01*
X214737629Y-54400136D01*
X214477345Y-54177227D01*
X214276368Y-53904337D01*
X214137408Y-53594927D01*
X214063174Y-53262455D01*
X214056377Y-52920381D01*
X214119727Y-52582165D01*
X214255934Y-52261266D01*
X214467709Y-51971144D01*
X214522078Y-51915347D01*
X214768027Y-51712478D01*
X215021652Y-51587473D01*
X215311310Y-51528905D01*
X215500924Y-51520866D01*
X215753657Y-51533166D01*
G37*
G36*
X246127697Y-44242336D02*
G01*
X246296852Y-44338824D01*
X246431296Y-44491795D01*
X246515027Y-44693067D01*
X246534935Y-44866042D01*
X246545002Y-44987980D01*
X246572195Y-45173203D01*
X246612004Y-45393619D01*
X246646501Y-45560887D01*
X246695205Y-45786978D01*
X246739138Y-45995712D01*
X246772650Y-46159972D01*
X246787432Y-46237038D01*
X246811079Y-46337447D01*
X246853713Y-46385643D01*
X246944175Y-46401097D01*
X247032871Y-46402751D01*
X247176257Y-46413571D01*
X247279510Y-46457209D01*
X247385871Y-46553857D01*
X247408391Y-46578125D01*
X247533086Y-46755501D01*
X247576229Y-46933947D01*
X247536479Y-47123156D01*
X247412494Y-47332822D01*
X247282409Y-47488717D01*
X247153055Y-47651503D01*
X247028390Y-47841415D01*
X246981370Y-47926433D01*
X246881528Y-48092211D01*
X246770294Y-48198524D01*
X246661520Y-48258288D01*
X246525347Y-48316709D01*
X246431001Y-48338937D01*
X246335423Y-48328918D01*
X246222792Y-48298501D01*
X246098007Y-48235482D01*
X245967861Y-48130772D01*
X245934341Y-48095506D01*
X245867262Y-48003467D01*
X245812792Y-47887911D01*
X245768141Y-47735763D01*
X245730515Y-47533945D01*
X245697124Y-47269383D01*
X245665175Y-46929000D01*
X245652825Y-46776964D01*
X245626001Y-46521108D01*
X245583662Y-46213762D01*
X245531778Y-45894846D01*
X245480168Y-45622732D01*
X245415060Y-45279197D01*
X245380099Y-45010131D01*
X245376374Y-44800715D01*
X245404974Y-44636129D01*
X245466990Y-44501552D01*
X245563509Y-44382163D01*
X245571976Y-44373601D01*
X245749258Y-44251542D01*
X245939832Y-44210515D01*
X246127697Y-44242336D01*
G37*
G36*
X221929691Y-47101595D02*
G01*
X222028442Y-47113902D01*
X222113603Y-47138880D01*
X222184808Y-47168326D01*
X222365941Y-47291491D01*
X222479451Y-47457346D01*
X222526084Y-47645998D01*
X222506588Y-47837556D01*
X222421709Y-48012128D01*
X222272193Y-48149823D01*
X222145762Y-48208479D01*
X222048554Y-48226918D01*
X221875378Y-48246127D01*
X221644140Y-48264669D01*
X221372746Y-48281111D01*
X221079102Y-48294015D01*
X221078382Y-48294041D01*
X220172458Y-48326317D01*
X220115860Y-48981795D01*
X220096589Y-49218938D01*
X220082515Y-49420267D01*
X220074670Y-49568503D01*
X220074086Y-49646365D01*
X220075716Y-49653727D01*
X220125360Y-49656073D01*
X220254695Y-49653239D01*
X220449685Y-49645783D01*
X220696295Y-49634265D01*
X220980490Y-49619243D01*
X221071316Y-49614117D01*
X221449663Y-49597353D01*
X221853871Y-49588117D01*
X222271769Y-49585921D01*
X222691185Y-49590277D01*
X223099951Y-49600699D01*
X223485894Y-49616696D01*
X223836846Y-49637783D01*
X224140635Y-49663472D01*
X224385091Y-49693273D01*
X224558043Y-49726701D01*
X224638985Y-49757112D01*
X224786055Y-49901846D01*
X224870570Y-50092083D01*
X224888243Y-50300397D01*
X224834783Y-50499362D01*
X224770549Y-50598420D01*
X224693066Y-50678364D01*
X224604879Y-50737285D01*
X224492386Y-50777161D01*
X224341981Y-50799970D01*
X224140059Y-50807689D01*
X223873016Y-50802297D01*
X223527247Y-50785771D01*
X223494336Y-50783947D01*
X223149171Y-50769465D01*
X222749703Y-50760366D01*
X222335399Y-50757101D01*
X221945728Y-50760119D01*
X221768761Y-50764237D01*
X221469374Y-50771757D01*
X221090906Y-50778901D01*
X220647040Y-50785579D01*
X220151459Y-50791705D01*
X219617848Y-50797191D01*
X219059888Y-50801947D01*
X218491264Y-50805887D01*
X217925660Y-50808923D01*
X217376758Y-50810965D01*
X216858242Y-50811928D01*
X216383796Y-50811721D01*
X215967103Y-50810258D01*
X215621846Y-50807451D01*
X215444490Y-50804904D01*
X214566429Y-50789141D01*
X214399850Y-50632037D01*
X214294688Y-50519283D01*
X214245955Y-50414858D01*
X214233331Y-50272990D01*
X214233271Y-50256775D01*
X214245346Y-50104452D01*
X214294342Y-49986944D01*
X214393988Y-49863243D01*
X214554705Y-49687869D01*
X216700928Y-49677571D01*
X217140489Y-49675093D01*
X217550514Y-49672070D01*
X217921605Y-49668621D01*
X218244364Y-49664869D01*
X218509392Y-49660933D01*
X218707293Y-49656934D01*
X218828667Y-49652993D01*
X218864641Y-49649783D01*
X218876275Y-49598588D01*
X218893555Y-49474722D01*
X218913780Y-49299043D01*
X218927209Y-49167106D01*
X218950563Y-48936836D01*
X218975000Y-48713404D01*
X218996595Y-48532065D01*
X219004471Y-48472660D01*
X219036656Y-48243402D01*
X218735980Y-48273035D01*
X218585717Y-48286083D01*
X218365301Y-48302944D01*
X218098317Y-48321919D01*
X217808349Y-48341312D01*
X217626629Y-48352848D01*
X217297436Y-48371542D01*
X217047297Y-48379312D01*
X216861707Y-48373227D01*
X216726162Y-48350357D01*
X216626156Y-48307772D01*
X216547183Y-48242542D01*
X216474740Y-48151737D01*
X216449375Y-48115041D01*
X216369767Y-47923235D01*
X216371704Y-47724241D01*
X216446733Y-47537661D01*
X216586403Y-47383097D01*
X216782261Y-47280151D01*
X216813290Y-47271078D01*
X217012453Y-47232316D01*
X217290323Y-47198738D01*
X217631825Y-47170869D01*
X218021882Y-47149232D01*
X218445418Y-47134352D01*
X218887356Y-47126752D01*
X219332620Y-47126957D01*
X219766133Y-47135491D01*
X220172820Y-47152877D01*
X220188382Y-47153768D01*
X220457314Y-47161724D01*
X220776702Y-47159577D01*
X221103735Y-47148130D01*
X221352250Y-47131977D01*
X221611560Y-47111504D01*
X221797386Y-47101086D01*
X221929691Y-47101595D01*
G37*
G36*
X241504513Y-44582681D02*
G01*
X241693105Y-44676279D01*
X241841157Y-44841542D01*
X241847316Y-44852010D01*
X241908586Y-45004754D01*
X241961904Y-45223107D01*
X242002235Y-45478826D01*
X242024544Y-45743664D01*
X242027371Y-45862171D01*
X242027726Y-46121131D01*
X242532440Y-46086734D01*
X243018127Y-46054096D01*
X243419383Y-46028411D01*
X243745404Y-46009460D01*
X244005385Y-45997027D01*
X244208521Y-45990893D01*
X244364008Y-45990842D01*
X244481041Y-45996655D01*
X244568814Y-46008115D01*
X244636525Y-46025005D01*
X244667767Y-46036220D01*
X244837785Y-46146356D01*
X244965605Y-46310384D01*
X245029108Y-46497272D01*
X245032356Y-46547755D01*
X244990187Y-46734366D01*
X244879349Y-46909459D01*
X244722640Y-47040278D01*
X244672313Y-47065072D01*
X244542394Y-47099377D01*
X244326840Y-47131139D01*
X244033907Y-47159356D01*
X243722602Y-47180238D01*
X243419736Y-47197505D01*
X243110410Y-47215443D01*
X242823795Y-47232341D01*
X242589061Y-47246485D01*
X242510445Y-47251351D01*
X242077638Y-47278481D01*
X242064420Y-48518420D01*
X242051201Y-49758359D01*
X242296902Y-49758327D01*
X242470747Y-49767035D01*
X242712971Y-49791001D01*
X243002117Y-49826931D01*
X243316728Y-49871534D01*
X243635346Y-49921517D01*
X243936516Y-49973588D01*
X244198781Y-50024455D01*
X244400683Y-50070825D01*
X244477088Y-50092846D01*
X245006543Y-50298824D01*
X245454300Y-50543351D01*
X245818858Y-50825303D01*
X246098714Y-51143558D01*
X246262997Y-51428763D01*
X246313615Y-51556246D01*
X246345508Y-51688192D01*
X246362673Y-51851752D01*
X246369106Y-52074083D01*
X246369533Y-52152749D01*
X246367938Y-52381632D01*
X246358243Y-52546477D01*
X246334860Y-52677113D01*
X246292201Y-52803369D01*
X246224675Y-52955075D01*
X246215594Y-52974376D01*
X246007858Y-53317346D01*
X245721843Y-53643948D01*
X245373149Y-53939996D01*
X244977372Y-54191304D01*
X244759047Y-54299186D01*
X244558874Y-54380905D01*
X244316952Y-54467485D01*
X244051388Y-54553796D01*
X243780288Y-54634708D01*
X243521760Y-54705093D01*
X243293910Y-54759822D01*
X243114845Y-54793764D01*
X243002674Y-54801790D01*
X242990892Y-54800067D01*
X242777512Y-54719521D01*
X242635344Y-54582538D01*
X242559831Y-54382960D01*
X242544177Y-54196212D01*
X242588299Y-53986558D01*
X242711469Y-53806516D01*
X242899895Y-53671633D01*
X243061776Y-53612767D01*
X243633520Y-53455420D01*
X244113909Y-53286858D01*
X244504939Y-53106017D01*
X244808607Y-52911830D01*
X245026906Y-52703232D01*
X245155371Y-52494645D01*
X245209887Y-52283250D01*
X245212281Y-52054102D01*
X245162927Y-51851699D01*
X245149732Y-51823760D01*
X245066617Y-51725031D01*
X244918303Y-51605345D01*
X244726707Y-51478779D01*
X244513746Y-51359414D01*
X244301341Y-51261328D01*
X244234380Y-51235771D01*
X244083757Y-51192540D01*
X243862240Y-51142642D01*
X243592222Y-51090144D01*
X243296093Y-51039111D01*
X242996246Y-50993611D01*
X242715071Y-50957711D01*
X242685027Y-50954390D01*
X242512104Y-50930144D01*
X242367474Y-50900173D01*
X242291820Y-50874923D01*
X242174438Y-50857114D01*
X242092282Y-50888238D01*
X241980776Y-50947914D01*
X241980776Y-52655167D01*
X241980364Y-53130426D01*
X241978359Y-53521212D01*
X241973611Y-53836950D01*
X241964967Y-54087066D01*
X241951276Y-54280987D01*
X241931387Y-54428137D01*
X241904148Y-54537943D01*
X241868407Y-54619830D01*
X241823014Y-54683224D01*
X241766815Y-54737552D01*
X241721908Y-54774072D01*
X241545444Y-54861435D01*
X241325276Y-54877326D01*
X241056328Y-54821288D01*
X240733526Y-54692862D01*
X240713123Y-54683221D01*
X240496457Y-54582142D01*
X240273263Y-54481440D01*
X240083246Y-54398945D01*
X240040069Y-54380995D01*
X239610136Y-54165139D01*
X239204599Y-53885328D01*
X238840991Y-53557303D01*
X238536845Y-53196806D01*
X238316462Y-52833526D01*
X238206000Y-52544609D01*
X238133210Y-52222067D01*
X238103817Y-51906223D01*
X239269230Y-51906223D01*
X239278749Y-52005999D01*
X239355306Y-52285201D01*
X239517794Y-52560441D01*
X239758341Y-52823470D01*
X240069074Y-53066036D01*
X240442124Y-53279888D01*
X240536644Y-53324478D01*
X240830499Y-53457892D01*
X240843016Y-52211400D01*
X240845725Y-51879230D01*
X240846970Y-51579114D01*
X240846798Y-51323474D01*
X240845255Y-51124732D01*
X240842387Y-50995312D01*
X240838345Y-50947718D01*
X240787263Y-50947845D01*
X240670292Y-50964877D01*
X240518959Y-50993874D01*
X240267845Y-51066659D01*
X240001867Y-51177154D01*
X239748165Y-51311124D01*
X239533881Y-51454331D01*
X239392601Y-51584701D01*
X239309873Y-51693205D01*
X239272495Y-51786519D01*
X239269230Y-51906223D01*
X238103817Y-51906223D01*
X238103321Y-51900896D01*
X238121561Y-51616095D01*
X238128910Y-51578029D01*
X238255116Y-51211535D01*
X238469386Y-50875344D01*
X238770432Y-50570879D01*
X239156968Y-50299564D01*
X239405701Y-50164905D01*
X239639527Y-50057129D01*
X239867111Y-49971797D01*
X240114250Y-49901428D01*
X240406740Y-49838540D01*
X240719433Y-49783886D01*
X240890067Y-49756076D01*
X240919680Y-48782971D01*
X240927036Y-48471232D01*
X240930137Y-48174307D01*
X240929078Y-47911308D01*
X240923959Y-47701351D01*
X240914877Y-47563549D01*
X240913370Y-47551640D01*
X240877449Y-47293415D01*
X240360998Y-47264810D01*
X239782462Y-47230717D01*
X239282628Y-47196952D01*
X238864199Y-47163764D01*
X238529877Y-47131406D01*
X238282363Y-47100127D01*
X238124361Y-47070179D01*
X238072623Y-47052434D01*
X237908683Y-46921950D01*
X237813622Y-46748153D01*
X237787477Y-46551592D01*
X237830283Y-46352811D01*
X237942076Y-46172358D01*
X238070875Y-46061629D01*
X238177543Y-46020340D01*
X238349583Y-45995862D01*
X238592856Y-45988138D01*
X238913219Y-45997112D01*
X239316533Y-46022727D01*
X239609796Y-46046852D01*
X239874257Y-46069710D01*
X240154917Y-46093369D01*
X240408290Y-46114185D01*
X240515410Y-46122723D01*
X240904573Y-46153234D01*
X240872554Y-45831272D01*
X240850326Y-45650154D01*
X240823716Y-45493287D01*
X240800304Y-45400617D01*
X240754549Y-45159296D01*
X240797505Y-44934673D01*
X240912690Y-44754523D01*
X241092586Y-44619538D01*
X241297100Y-44563012D01*
X241504513Y-44582681D01*
G37*
G36*
X229708091Y-45481239D02*
G01*
X229883426Y-45607342D01*
X230016856Y-45815760D01*
X230107184Y-46105055D01*
X230123774Y-46195272D01*
X230151149Y-46364781D01*
X230467164Y-46276200D01*
X230754577Y-46219414D01*
X230990696Y-46222462D01*
X231165416Y-46285030D01*
X231184409Y-46298528D01*
X231333902Y-46470000D01*
X231410048Y-46686338D01*
X231417005Y-46777705D01*
X231409626Y-46864179D01*
X231382362Y-46958199D01*
X231327524Y-47074966D01*
X231237423Y-47229683D01*
X231104371Y-47437554D01*
X231014721Y-47573105D01*
X230860424Y-47809472D01*
X230712472Y-48044332D01*
X230584829Y-48254962D01*
X230491457Y-48418635D01*
X230469801Y-48459940D01*
X230327167Y-48742497D01*
X230555173Y-48551372D01*
X230693353Y-48431395D01*
X230814912Y-48318771D01*
X230877079Y-48255550D01*
X231048173Y-48098607D01*
X231286502Y-47926084D01*
X231569707Y-47750519D01*
X231875431Y-47584448D01*
X232181318Y-47440409D01*
X232465009Y-47330939D01*
X232595069Y-47292166D01*
X232791630Y-47257881D01*
X233051231Y-47236382D01*
X233350869Y-47227152D01*
X233667544Y-47229678D01*
X233978252Y-47243443D01*
X234259993Y-47267933D01*
X234489763Y-47302632D01*
X234621077Y-47337534D01*
X234887888Y-47479187D01*
X235141602Y-47695135D01*
X235362207Y-47966024D01*
X235482480Y-48170513D01*
X235609101Y-48445626D01*
X235698823Y-48705102D01*
X235757053Y-48975101D01*
X235789196Y-49281782D01*
X235800660Y-49651305D01*
X235800925Y-49711345D01*
X235799533Y-49981838D01*
X235791958Y-50185035D01*
X235774834Y-50347496D01*
X235744791Y-50495780D01*
X235698462Y-50656450D01*
X235669955Y-50744247D01*
X235588353Y-50963118D01*
X235479168Y-51217800D01*
X235354058Y-51484582D01*
X235224682Y-51739752D01*
X235102697Y-51959597D01*
X234999762Y-52120407D01*
X234981291Y-52144924D01*
X234922773Y-52229698D01*
X234905738Y-52276512D01*
X234906389Y-52277376D01*
X234956563Y-52274260D01*
X235067205Y-52248439D01*
X235153534Y-52223767D01*
X235343605Y-52180429D01*
X235544013Y-52155545D01*
X235605667Y-52153258D01*
X235828671Y-52192317D01*
X236007573Y-52299507D01*
X236130652Y-52458191D01*
X236186181Y-52651726D01*
X236162438Y-52863474D01*
X236143212Y-52916184D01*
X236078918Y-53036234D01*
X235988521Y-53130175D01*
X235854214Y-53209254D01*
X235658187Y-53284714D01*
X235465491Y-53344089D01*
X235190798Y-53436916D01*
X234943744Y-53544719D01*
X234745589Y-53656933D01*
X234617594Y-53762993D01*
X234614055Y-53767173D01*
X234568958Y-53851566D01*
X234518095Y-53989640D01*
X234491399Y-54080878D01*
X234394233Y-54327534D01*
X234249806Y-54497813D01*
X234062619Y-54596486D01*
X233844239Y-54627146D01*
X233649717Y-54572078D01*
X233483204Y-54437360D01*
X233348854Y-54229076D01*
X233250821Y-53953304D01*
X233193258Y-53616127D01*
X233179147Y-53303027D01*
X233189559Y-53069081D01*
X233223788Y-52856385D01*
X233289021Y-52647417D01*
X233392442Y-52424657D01*
X233541236Y-52170584D01*
X233742588Y-51867679D01*
X233803950Y-51779455D01*
X234107596Y-51316101D01*
X234349065Y-50883726D01*
X234523152Y-50492155D01*
X234587511Y-50300441D01*
X234642258Y-50019283D01*
X234657118Y-49711119D01*
X234635623Y-49395962D01*
X234581309Y-49093827D01*
X234497709Y-48824730D01*
X234388358Y-48608684D01*
X234264524Y-48471318D01*
X234200483Y-48430194D01*
X234126251Y-48402612D01*
X234022876Y-48386110D01*
X233871407Y-48378231D01*
X233652894Y-48376514D01*
X233538024Y-48377030D01*
X233269079Y-48381365D01*
X233069574Y-48392488D01*
X232915122Y-48413489D01*
X232781338Y-48447459D01*
X232670400Y-48486984D01*
X232319531Y-48660042D01*
X231947726Y-48909771D01*
X231567504Y-49225101D01*
X231191384Y-49594966D01*
X230831885Y-50008296D01*
X230591395Y-50325152D01*
X230305712Y-50724821D01*
X230271976Y-51638323D01*
X230259912Y-51987952D01*
X230247179Y-52396411D01*
X230234787Y-52828643D01*
X230223747Y-53249592D01*
X230215910Y-53584727D01*
X230206887Y-53901784D01*
X230194574Y-54189891D01*
X230179923Y-54433960D01*
X230163888Y-54618905D01*
X230147424Y-54729638D01*
X230142467Y-54746327D01*
X230044143Y-54884235D01*
X229886939Y-54995129D01*
X229705725Y-55057295D01*
X229632902Y-55063655D01*
X229477230Y-55034308D01*
X229315034Y-54959896D01*
X229184010Y-54860861D01*
X229133308Y-54792742D01*
X229119468Y-54721391D01*
X229105053Y-54572695D01*
X229091169Y-54363193D01*
X229078927Y-54109425D01*
X229069962Y-53847365D01*
X229046026Y-52983202D01*
X228822737Y-53659565D01*
X228741035Y-53915232D01*
X228668566Y-54157242D01*
X228611655Y-54363337D01*
X228576629Y-54511260D01*
X228570427Y-54547204D01*
X228504043Y-54825529D01*
X228390005Y-55024764D01*
X228224441Y-55148886D01*
X228003481Y-55201874D01*
X227930761Y-55204505D01*
X227751583Y-55182357D01*
X227586919Y-55104371D01*
X227528876Y-55064581D01*
X227364563Y-54928149D01*
X227263554Y-54790883D01*
X227217256Y-54628726D01*
X227217075Y-54417626D01*
X227236947Y-54247441D01*
X227273396Y-54014758D01*
X227316921Y-53769178D01*
X227358178Y-53563394D01*
X227358649Y-53561252D01*
X227399449Y-53372908D01*
X227450136Y-53134166D01*
X227501901Y-52886650D01*
X227519714Y-52800443D01*
X227579817Y-52536525D01*
X227653281Y-52272064D01*
X227746478Y-51988241D01*
X227865781Y-51666238D01*
X228017562Y-51287237D01*
X228096778Y-51096372D01*
X228310277Y-50584951D01*
X228489737Y-50151755D01*
X228638125Y-49788711D01*
X228758408Y-49487743D01*
X228853553Y-49240778D01*
X228926529Y-49039742D01*
X228980301Y-48876558D01*
X229017838Y-48743154D01*
X229042107Y-48631454D01*
X229056075Y-48533384D01*
X229061083Y-48472348D01*
X229070102Y-48302889D01*
X229067246Y-48208176D01*
X229046693Y-48169252D01*
X229002626Y-48167157D01*
X228969532Y-48174094D01*
X228461749Y-48288277D01*
X228036165Y-48381538D01*
X227683712Y-48455039D01*
X227395323Y-48509942D01*
X227161929Y-48547408D01*
X226974464Y-48568598D01*
X226823859Y-48574674D01*
X226701047Y-48566799D01*
X226596960Y-48546134D01*
X226502531Y-48513840D01*
X226460209Y-48495567D01*
X226298958Y-48382447D01*
X226176188Y-48221745D01*
X226114753Y-48045901D01*
X226111645Y-48000800D01*
X226155230Y-47800280D01*
X226272937Y-47624176D01*
X226445187Y-47490729D01*
X226652406Y-47418179D01*
X226745471Y-47410253D01*
X226923297Y-47397804D01*
X227170232Y-47364533D01*
X227464870Y-47314617D01*
X227785810Y-47252233D01*
X228111648Y-47181560D01*
X228420981Y-47106775D01*
X228692405Y-47032056D01*
X228709769Y-47026834D01*
X228875859Y-46974820D01*
X228969895Y-46934941D01*
X229009787Y-46892439D01*
X229013448Y-46832553D01*
X229005830Y-46782873D01*
X228967888Y-46509980D01*
X228946586Y-46247139D01*
X228942593Y-46016797D01*
X228956578Y-45841395D01*
X228975575Y-45767598D01*
X229082008Y-45618475D01*
X229246804Y-45502793D01*
X229435102Y-45442739D01*
X229492051Y-45438886D01*
X229708091Y-45481239D01*
G37*
D13*
X118662600Y-52042231D02*
X119062600Y-51442231D01*
X119062600Y-51042231D02*
X119062600Y-51442231D01*
X119062600Y-51442231D02*
X119462600Y-52042231D01*
X119062600Y-52042231D02*
X119062600Y-52542231D01*
X119462600Y-52042231D02*
X118662600Y-52042231D01*
X119612600Y-51442231D02*
X118512600Y-51442231D01*
D12*
X176256250Y-123868750D02*
X176256250Y-138068750D01*
X176256250Y-138068750D02*
X190456250Y-138068750D01*
X190456250Y-123868750D02*
X176256250Y-123868750D01*
X190456250Y-138068750D02*
X190456250Y-123868750D01*
X64337500Y-66718750D02*
X64337500Y-80918750D01*
X64337500Y-80918750D02*
X78537500Y-80918750D01*
X78537500Y-66718750D02*
X64337500Y-66718750D01*
X78537500Y-80918750D02*
X78537500Y-66718750D01*
X145300000Y-85768750D02*
X145300000Y-99968750D01*
X145300000Y-99968750D02*
X159500000Y-99968750D01*
X159500000Y-85768750D02*
X145300000Y-85768750D01*
X159500000Y-99968750D02*
X159500000Y-85768750D01*
D15*
X44890000Y-59250000D03*
D16*
X47430000Y-59250000D03*
X49970000Y-59250000D03*
X52510000Y-59250000D03*
X55050000Y-59250000D03*
X57590000Y-59250000D03*
X60130000Y-59250000D03*
X62670000Y-59250000D03*
X65210000Y-59250000D03*
X67750000Y-59250000D03*
X70290000Y-59250000D03*
X72830000Y-59250000D03*
X72830000Y-44010000D03*
X70290000Y-44010000D03*
X67750000Y-44010000D03*
X65210000Y-44010000D03*
X62670000Y-44010000D03*
X60130000Y-44010000D03*
X57590000Y-44010000D03*
X55050000Y-44010000D03*
X52510000Y-44010000D03*
X49970000Y-44010000D03*
X47430000Y-44010000D03*
X44890000Y-44010000D03*
%LPC*%
D17*
X185420000Y-92868750D03*
D18*
X190500000Y-92868750D03*
D17*
X195580000Y-92868750D03*
D19*
X186690000Y-90328750D03*
X193040000Y-87788750D03*
D20*
X172500000Y-46190000D03*
D21*
X172500000Y-53810000D03*
D20*
X130968860Y-47982231D03*
D21*
X130968860Y-55602231D03*
D20*
X139898555Y-46196292D03*
D21*
X139898555Y-53816292D03*
D17*
X123500000Y-73818750D03*
D18*
X128580000Y-73818750D03*
D17*
X133660000Y-73818750D03*
D19*
X124770000Y-71278750D03*
X131120000Y-68738750D03*
D17*
X147320000Y-130968750D03*
D18*
X152400000Y-130968750D03*
D17*
X157480000Y-130968750D03*
D19*
X148590000Y-128428750D03*
X154940000Y-125888750D03*
D20*
X190500000Y-46190000D03*
D21*
X190500000Y-53810000D03*
D17*
X237807500Y-73818750D03*
D18*
X242887500Y-73818750D03*
D17*
X247967500Y-73818750D03*
D19*
X239077500Y-71278750D03*
X245427500Y-68738750D03*
D17*
X223520000Y-92868750D03*
D18*
X228600000Y-92868750D03*
D17*
X233680000Y-92868750D03*
D19*
X224790000Y-90328750D03*
X231140000Y-87788750D03*
D20*
X133945335Y-42624414D03*
D21*
X133945335Y-50244414D03*
D20*
X166750000Y-42440000D03*
D21*
X166750000Y-50060000D03*
D17*
X197326250Y-130968750D03*
D18*
X202406250Y-130968750D03*
D17*
X207486250Y-130968750D03*
D19*
X198596250Y-128428750D03*
X204946250Y-125888750D03*
D17*
X156845000Y-111918750D03*
D18*
X161925000Y-111918750D03*
D17*
X167005000Y-111918750D03*
D19*
X158115000Y-109378750D03*
X164465000Y-106838750D03*
D17*
X166370000Y-92868750D03*
D18*
X171450000Y-92868750D03*
D17*
X176530000Y-92868750D03*
D19*
X167640000Y-90328750D03*
X173990000Y-87788750D03*
D20*
X125015730Y-44410353D03*
D21*
X125015730Y-52030353D03*
D20*
X148828250Y-44410353D03*
D21*
X148828250Y-52030353D03*
D20*
X116086035Y-46196292D03*
D21*
X116086035Y-53816292D03*
D22*
X85725000Y-128587500D03*
D17*
X54451250Y-111918750D03*
D18*
X59531250Y-111918750D03*
D17*
X64611250Y-111918750D03*
D19*
X55721250Y-109378750D03*
X62071250Y-106838750D03*
D23*
X140462000Y-123983750D03*
D24*
X140462000Y-139193750D03*
D23*
X164338000Y-123983750D03*
D24*
X164338000Y-139193750D03*
D20*
X187523595Y-44410353D03*
D21*
X187523595Y-52030353D03*
D20*
X193500000Y-42624414D03*
D21*
X193500000Y-50244414D03*
D17*
X47307500Y-73818750D03*
D18*
X52387500Y-73818750D03*
D17*
X57467500Y-73818750D03*
D19*
X48577500Y-71278750D03*
X54927500Y-68738750D03*
D17*
X104420000Y-73818750D03*
D18*
X109500000Y-73818750D03*
D17*
X114580000Y-73818750D03*
D19*
X105690000Y-71278750D03*
X112040000Y-68738750D03*
D17*
X137795000Y-111918750D03*
D18*
X142875000Y-111918750D03*
D17*
X147955000Y-111918750D03*
D19*
X139065000Y-109378750D03*
X145415000Y-106838750D03*
D17*
X204470000Y-92868750D03*
D18*
X209550000Y-92868750D03*
D17*
X214630000Y-92868750D03*
D19*
X205740000Y-90328750D03*
X212090000Y-87788750D03*
D20*
X196453290Y-44410353D03*
D21*
X196453290Y-52030353D03*
D17*
X225901250Y-111918750D03*
D18*
X230981250Y-111918750D03*
D17*
X236061250Y-111918750D03*
D19*
X227171250Y-109378750D03*
X233521250Y-106838750D03*
D20*
X127992295Y-46196292D03*
D21*
X127992295Y-53816292D03*
D20*
X169664205Y-44410353D03*
D21*
X169664205Y-52030353D03*
D17*
X180657500Y-73818750D03*
D18*
X185737500Y-73818750D03*
D17*
X190817500Y-73818750D03*
D19*
X181927500Y-71278750D03*
X188277500Y-68738750D03*
D22*
X221456250Y-128587500D03*
X247650000Y-38100000D03*
D20*
X154781380Y-47982231D03*
D21*
X154781380Y-55602231D03*
D22*
X50006250Y-38100000D03*
D17*
X49688750Y-92868750D03*
D18*
X54768750Y-92868750D03*
D17*
X59848750Y-92868750D03*
D19*
X50958750Y-90328750D03*
X57308750Y-87788750D03*
D17*
X161607500Y-73818750D03*
D18*
X166687500Y-73818750D03*
D17*
X171767500Y-73818750D03*
D19*
X162877500Y-71278750D03*
X169227500Y-68738750D03*
D20*
X151750000Y-45940000D03*
D21*
X151750000Y-53560000D03*
D20*
X110132835Y-42624377D03*
D21*
X110132835Y-50244377D03*
D20*
X146000000Y-42690000D03*
D21*
X146000000Y-50310000D03*
D20*
X136921990Y-44410353D03*
D21*
X136921990Y-52030353D03*
D20*
X178593900Y-44410353D03*
D21*
X178593900Y-52030353D03*
D17*
X99695000Y-111918750D03*
D18*
X104775000Y-111918750D03*
D17*
X109855000Y-111918750D03*
D19*
X100965000Y-109378750D03*
X107315000Y-106838750D03*
D17*
X71120000Y-92868750D03*
D18*
X76200000Y-92868750D03*
D17*
X81280000Y-92868750D03*
D19*
X72390000Y-90328750D03*
X78740000Y-87788750D03*
D20*
X122039165Y-42624414D03*
D21*
X122039165Y-50244414D03*
D23*
X219043250Y-104933750D03*
D24*
X219043250Y-120143750D03*
D23*
X242919250Y-104933750D03*
D24*
X242919250Y-120143750D03*
D17*
X128270000Y-92868750D03*
D18*
X133350000Y-92868750D03*
D17*
X138430000Y-92868750D03*
D19*
X129540000Y-90328750D03*
X135890000Y-87788750D03*
D17*
X194945000Y-111918750D03*
D18*
X200025000Y-111918750D03*
D17*
X205105000Y-111918750D03*
D19*
X196215000Y-109378750D03*
X202565000Y-106838750D03*
D20*
X113109470Y-44410353D03*
D21*
X113109470Y-52030353D03*
D17*
X85407500Y-73818750D03*
D18*
X90487500Y-73818750D03*
D17*
X95567500Y-73818750D03*
D19*
X86677500Y-71278750D03*
X93027500Y-68738750D03*
D17*
X218757500Y-73818750D03*
D18*
X223837500Y-73818750D03*
D17*
X228917500Y-73818750D03*
D19*
X220027500Y-71278750D03*
X226377500Y-68738750D03*
D20*
X163750000Y-46190000D03*
D21*
X163750000Y-53810000D03*
D20*
X199500000Y-46190000D03*
D21*
X199500000Y-53810000D03*
D17*
X118745000Y-111918750D03*
D18*
X123825000Y-111918750D03*
D17*
X128905000Y-111918750D03*
D19*
X120015000Y-109378750D03*
X126365000Y-106838750D03*
D15*
X44890000Y-59250000D03*
D16*
X47430000Y-59250000D03*
X49970000Y-59250000D03*
X52510000Y-59250000D03*
X55050000Y-59250000D03*
X57590000Y-59250000D03*
X60130000Y-59250000D03*
X62670000Y-59250000D03*
X65210000Y-59250000D03*
X67750000Y-59250000D03*
X70290000Y-59250000D03*
X72830000Y-59250000D03*
X72830000Y-44010000D03*
X70290000Y-44010000D03*
X67750000Y-44010000D03*
X65210000Y-44010000D03*
X62670000Y-44010000D03*
X60130000Y-44010000D03*
X57590000Y-44010000D03*
X55050000Y-44010000D03*
X52510000Y-44010000D03*
X49970000Y-44010000D03*
X47430000Y-44010000D03*
X44890000Y-44010000D03*
D23*
X102330250Y-123983750D03*
D24*
X102330250Y-139193750D03*
D23*
X126206250Y-123983750D03*
D24*
X126206250Y-139193750D03*
D20*
X181500000Y-46190000D03*
D21*
X181500000Y-53810000D03*
D20*
X160734510Y-44410353D03*
D21*
X160734510Y-52030353D03*
D17*
X199707500Y-73818750D03*
D18*
X204787500Y-73818750D03*
D17*
X209867500Y-73818750D03*
D19*
X200977500Y-71278750D03*
X207327500Y-68738750D03*
D20*
X184547030Y-42624414D03*
D21*
X184547030Y-50244414D03*
D17*
X175895000Y-111918750D03*
D18*
X180975000Y-111918750D03*
D17*
X186055000Y-111918750D03*
D19*
X177165000Y-109378750D03*
X183515000Y-106838750D03*
D20*
X202500000Y-42624414D03*
D21*
X202500000Y-50244414D03*
D20*
X205382985Y-44410353D03*
D21*
X205382985Y-52030353D03*
D20*
X142875120Y-47982231D03*
D21*
X142875120Y-55602231D03*
D17*
X80645000Y-111918750D03*
D18*
X85725000Y-111918750D03*
D17*
X90805000Y-111918750D03*
D19*
X81915000Y-109378750D03*
X88265000Y-106838750D03*
D20*
X157750000Y-42440000D03*
D21*
X157750000Y-50060000D03*
D17*
X90170000Y-92868750D03*
D18*
X95250000Y-92868750D03*
D17*
X100330000Y-92868750D03*
D19*
X91440000Y-90328750D03*
X97790000Y-87788750D03*
D17*
X109220000Y-92868750D03*
D18*
X114300000Y-92868750D03*
D17*
X119380000Y-92868750D03*
D19*
X110490000Y-90328750D03*
X116840000Y-87788750D03*
D20*
X208250000Y-42690000D03*
D21*
X208250000Y-50310000D03*
D17*
X142557500Y-73818750D03*
D18*
X147637500Y-73818750D03*
D17*
X152717500Y-73818750D03*
D19*
X143827500Y-71278750D03*
X150177500Y-68738750D03*
D17*
X109220000Y-130968750D03*
D18*
X114300000Y-130968750D03*
D17*
X119380000Y-130968750D03*
D19*
X110490000Y-128428750D03*
X116840000Y-125888750D03*
D20*
X175500000Y-42440000D03*
D21*
X175500000Y-50060000D03*
D20*
X119062600Y-47982231D03*
D21*
X119062600Y-55602231D03*
D17*
X178276250Y-130968750D03*
D18*
X183356250Y-130968750D03*
D17*
X188436250Y-130968750D03*
D19*
X179546250Y-128428750D03*
X185896250Y-125888750D03*
D17*
X66357500Y-73818750D03*
D18*
X71437500Y-73818750D03*
D17*
X76517500Y-73818750D03*
D19*
X67627500Y-71278750D03*
X73977500Y-68738750D03*
D17*
X147320000Y-92868750D03*
D18*
X152400000Y-92868750D03*
D17*
X157480000Y-92868750D03*
D19*
X148590000Y-90328750D03*
X154940000Y-87788750D03*
%LPD*%
M02*
