%TF.GenerationSoftware,KiCad,Pcbnew,10.0.4*%
%TF.CreationDate,2026-07-09T13:34:58-06:00*%
%TF.ProjectId,#im_keyboard,23696d5f-6b65-4796-926f-6172642e6b69,rev?*%
%TF.SameCoordinates,Original*%
%TF.FileFunction,Drillmap*%
%TF.FilePolarity,Positive*%
%FSLAX45Y45*%
G04 Gerber Fmt 4.5, Leading zero omitted, Abs format (unit mm)*
G04 Created by KiCad (PCBNEW 10.0.4) date 2026-07-09 13:34:58*
%MOMM*%
%LPD*%
G01*
G04 APERTURE LIST*
%ADD10C,0.050000*%
%ADD11C,0.200000*%
%ADD12C,0.175000*%
%ADD13C,0.220000*%
%ADD14C,0.304800*%
%ADD15C,0.398780*%
%ADD16C,0.400000*%
G04 APERTURE END LIST*
D10*
X4047677Y-4142409D02*
X4044446Y-11330174D01*
X4047677Y-4142409D02*
G75*
G02*
X5045365Y-3142861I999999J-449D01*
G01*
X4658757Y-12253252D02*
G75*
G02*
X4044446Y-11330174I385689J922629D01*
G01*
X4658757Y-12253252D02*
X9339916Y-14210129D01*
X9725605Y-14287500D02*
G75*
G02*
X9339917Y-14210127I5J1000000D01*
G01*
X9725605Y-14287500D02*
X20933999Y-14287500D01*
X21419642Y-14161657D02*
G75*
G02*
X20933999Y-14287498I-485642J874167D01*
G01*
X21419642Y-14161657D02*
X24965018Y-12192004D01*
X24477063Y-3097942D02*
X5045365Y-3142861D01*
X24477063Y-3097942D02*
G75*
G02*
X25479381Y-4097939I2317J-999998D01*
G01*
X25479375Y-11317847D02*
G75*
G02*
X24965020Y-12192007I-999985J-13D01*
G01*
X25479375Y-11317847D02*
X25479375Y-4097939D01*
D11*
D12*
X4643250Y-7294375D02*
X4818250Y-7469375D01*
X4818250Y-7294375D02*
X4643250Y-7469375D01*
X4881375Y-9199375D02*
X5056375Y-9374375D01*
X5056375Y-9199375D02*
X4881375Y-9374375D01*
X5357625Y-11104375D02*
X5532625Y-11279375D01*
X5532625Y-11104375D02*
X5357625Y-11279375D01*
X5659250Y-7294375D02*
X5834250Y-7469375D01*
X5834250Y-7294375D02*
X5659250Y-7469375D01*
X5897375Y-9199375D02*
X6072375Y-9374375D01*
X6072375Y-9199375D02*
X5897375Y-9374375D01*
X6373625Y-11104375D02*
X6548625Y-11279375D01*
X6548625Y-11104375D02*
X6373625Y-11279375D01*
X6548250Y-7294375D02*
X6723250Y-7469375D01*
X6723250Y-7294375D02*
X6548250Y-7469375D01*
X7024500Y-9199375D02*
X7199500Y-9374375D01*
X7199500Y-9199375D02*
X7024500Y-9374375D01*
X7564250Y-7294375D02*
X7739250Y-7469375D01*
X7739250Y-7294375D02*
X7564250Y-7469375D01*
X7977000Y-11104375D02*
X8152000Y-11279375D01*
X8152000Y-11104375D02*
X7977000Y-11279375D01*
X8040500Y-9199375D02*
X8215500Y-9374375D01*
X8215500Y-9199375D02*
X8040500Y-9374375D01*
X8453250Y-7294375D02*
X8628250Y-7469375D01*
X8628250Y-7294375D02*
X8453250Y-7469375D01*
X8929500Y-9199375D02*
X9104500Y-9374375D01*
X9104500Y-9199375D02*
X8929500Y-9374375D01*
X8993000Y-11104375D02*
X9168000Y-11279375D01*
X9168000Y-11104375D02*
X8993000Y-11279375D01*
X9469250Y-7294375D02*
X9644250Y-7469375D01*
X9644250Y-7294375D02*
X9469250Y-7469375D01*
X9882000Y-11104375D02*
X10057000Y-11279375D01*
X10057000Y-11104375D02*
X9882000Y-11279375D01*
X9945500Y-9199375D02*
X10120500Y-9374375D01*
X10120500Y-9199375D02*
X9945500Y-9374375D01*
X10354500Y-7294375D02*
X10529500Y-7469375D01*
X10529500Y-7294375D02*
X10354500Y-7469375D01*
X10834500Y-9199375D02*
X11009500Y-9374375D01*
X11009500Y-9199375D02*
X10834500Y-9374375D01*
X10834500Y-13009375D02*
X11009500Y-13184375D01*
X11009500Y-13009375D02*
X10834500Y-13184375D01*
X10898000Y-11104375D02*
X11073000Y-11279375D01*
X11073000Y-11104375D02*
X10898000Y-11279375D01*
X11370500Y-7294375D02*
X11545500Y-7469375D01*
X11545500Y-7294375D02*
X11370500Y-7469375D01*
X11787000Y-11104375D02*
X11962000Y-11279375D01*
X11962000Y-11104375D02*
X11787000Y-11279375D01*
X11850500Y-9199375D02*
X12025500Y-9374375D01*
X12025500Y-9199375D02*
X11850500Y-9374375D01*
X11850500Y-13009375D02*
X12025500Y-13184375D01*
X12025500Y-13009375D02*
X11850500Y-13184375D01*
X12262500Y-7294375D02*
X12437500Y-7469375D01*
X12437500Y-7294375D02*
X12262500Y-7469375D01*
X12739500Y-9199375D02*
X12914500Y-9374375D01*
X12914500Y-9199375D02*
X12739500Y-9374375D01*
X12803000Y-11104375D02*
X12978000Y-11279375D01*
X12978000Y-11104375D02*
X12803000Y-11279375D01*
X13278500Y-7294375D02*
X13453500Y-7469375D01*
X13453500Y-7294375D02*
X13278500Y-7469375D01*
X13692000Y-11104375D02*
X13867000Y-11279375D01*
X13867000Y-11104375D02*
X13692000Y-11279375D01*
X13755500Y-9199375D02*
X13930500Y-9374375D01*
X13930500Y-9199375D02*
X13755500Y-9374375D01*
X14168250Y-7294375D02*
X14343250Y-7469375D01*
X14343250Y-7294375D02*
X14168250Y-7469375D01*
X14644500Y-9199375D02*
X14819500Y-9374375D01*
X14819500Y-9199375D02*
X14644500Y-9374375D01*
X14644500Y-13009375D02*
X14819500Y-13184375D01*
X14819500Y-13009375D02*
X14644500Y-13184375D01*
X14708000Y-11104375D02*
X14883000Y-11279375D01*
X14883000Y-11104375D02*
X14708000Y-11279375D01*
X15184250Y-7294375D02*
X15359250Y-7469375D01*
X15359250Y-7294375D02*
X15184250Y-7469375D01*
X15597000Y-11104375D02*
X15772000Y-11279375D01*
X15772000Y-11104375D02*
X15597000Y-11279375D01*
X15660500Y-9199375D02*
X15835500Y-9374375D01*
X15835500Y-9199375D02*
X15660500Y-9374375D01*
X15660500Y-13009375D02*
X15835500Y-13184375D01*
X15835500Y-13009375D02*
X15660500Y-13184375D01*
X16073250Y-7294375D02*
X16248250Y-7469375D01*
X16248250Y-7294375D02*
X16073250Y-7469375D01*
X16549500Y-9199375D02*
X16724500Y-9374375D01*
X16724500Y-9199375D02*
X16549500Y-9374375D01*
X16613000Y-11104375D02*
X16788000Y-11279375D01*
X16788000Y-11104375D02*
X16613000Y-11279375D01*
X17089250Y-7294375D02*
X17264250Y-7469375D01*
X17264250Y-7294375D02*
X17089250Y-7469375D01*
X17502000Y-11104375D02*
X17677000Y-11279375D01*
X17677000Y-11104375D02*
X17502000Y-11279375D01*
X17565500Y-9199375D02*
X17740500Y-9374375D01*
X17740500Y-9199375D02*
X17565500Y-9374375D01*
X17740125Y-13009375D02*
X17915125Y-13184375D01*
X17915125Y-13009375D02*
X17740125Y-13184375D01*
X17978250Y-7294375D02*
X18153250Y-7469375D01*
X18153250Y-7294375D02*
X17978250Y-7469375D01*
X18454500Y-9199375D02*
X18629500Y-9374375D01*
X18629500Y-9199375D02*
X18454500Y-9374375D01*
X18518000Y-11104375D02*
X18693000Y-11279375D01*
X18693000Y-11104375D02*
X18518000Y-11279375D01*
X18756125Y-13009375D02*
X18931125Y-13184375D01*
X18931125Y-13009375D02*
X18756125Y-13184375D01*
X18994250Y-7294375D02*
X19169250Y-7469375D01*
X19169250Y-7294375D02*
X18994250Y-7469375D01*
X19407000Y-11104375D02*
X19582000Y-11279375D01*
X19582000Y-11104375D02*
X19407000Y-11279375D01*
X19470500Y-9199375D02*
X19645500Y-9374375D01*
X19645500Y-9199375D02*
X19470500Y-9374375D01*
X19645125Y-13009375D02*
X19820125Y-13184375D01*
X19820125Y-13009375D02*
X19645125Y-13184375D01*
X19883250Y-7294375D02*
X20058250Y-7469375D01*
X20058250Y-7294375D02*
X19883250Y-7469375D01*
X20359500Y-9199375D02*
X20534500Y-9374375D01*
X20534500Y-9199375D02*
X20359500Y-9374375D01*
X20423000Y-11104375D02*
X20598000Y-11279375D01*
X20598000Y-11104375D02*
X20423000Y-11279375D01*
X20661125Y-13009375D02*
X20836125Y-13184375D01*
X20836125Y-13009375D02*
X20661125Y-13184375D01*
X20899250Y-7294375D02*
X21074250Y-7469375D01*
X21074250Y-7294375D02*
X20899250Y-7469375D01*
X21375500Y-9199375D02*
X21550500Y-9374375D01*
X21550500Y-9199375D02*
X21375500Y-9374375D01*
X21788250Y-7294375D02*
X21963250Y-7469375D01*
X21963250Y-7294375D02*
X21788250Y-7469375D01*
X22264500Y-9199375D02*
X22439500Y-9374375D01*
X22439500Y-9199375D02*
X22264500Y-9374375D01*
X22502625Y-11104375D02*
X22677625Y-11279375D01*
X22677625Y-11104375D02*
X22502625Y-11279375D01*
X22804250Y-7294375D02*
X22979250Y-7469375D01*
X22979250Y-7294375D02*
X22804250Y-7469375D01*
X23280500Y-9199375D02*
X23455500Y-9374375D01*
X23455500Y-9199375D02*
X23280500Y-9374375D01*
X23518625Y-11104375D02*
X23693625Y-11279375D01*
X23693625Y-11104375D02*
X23518625Y-11279375D01*
X23693250Y-7294375D02*
X23868250Y-7469375D01*
X23868250Y-7294375D02*
X23693250Y-7469375D01*
X24709250Y-7294375D02*
X24884250Y-7469375D01*
X24884250Y-7294375D02*
X24709250Y-7469375D01*
D13*
X5110625Y-3810000D02*
G75*
G02*
X4890625Y-3810000I-110000J0D01*
G01*
X4890625Y-3810000D02*
G75*
G02*
X5110625Y-3810000I110000J0D01*
G01*
X8682500Y-12858750D02*
G75*
G02*
X8462500Y-12858750I-110000J0D01*
G01*
X8462500Y-12858750D02*
G75*
G02*
X8682500Y-12858750I110000J0D01*
G01*
X22255625Y-12858750D02*
G75*
G02*
X22035625Y-12858750I-110000J0D01*
G01*
X22035625Y-12858750D02*
G75*
G02*
X22255625Y-12858750I110000J0D01*
G01*
X24875000Y-3810000D02*
G75*
G02*
X24655000Y-3810000I-110000J0D01*
G01*
X24655000Y-3810000D02*
G75*
G02*
X24875000Y-3810000I110000J0D01*
G01*
D14*
X10233025Y-12245975D02*
X10233025Y-12550775D01*
X10080625Y-12398375D02*
X10385425Y-12398375D01*
X12620625Y-12245975D02*
X12620625Y-12550775D01*
X12468225Y-12398375D02*
X12773025Y-12398375D01*
X14046200Y-12245975D02*
X14046200Y-12550775D01*
X13893800Y-12398375D02*
X14198600Y-12398375D01*
X16433800Y-12245975D02*
X16433800Y-12550775D01*
X16281400Y-12398375D02*
X16586200Y-12398375D01*
X21904325Y-10340975D02*
X21904325Y-10645775D01*
X21751925Y-10493375D02*
X22056725Y-10493375D01*
X24291925Y-10340975D02*
X24291925Y-10645775D01*
X24139525Y-10493375D02*
X24444325Y-10493375D01*
D15*
X10374016Y-14060366D02*
X10374016Y-13778384D01*
X10092034Y-13778384D01*
X10092034Y-14060366D01*
X10374016Y-14060366D01*
X12761616Y-14060366D02*
X12761616Y-13778384D01*
X12479634Y-13778384D01*
X12479634Y-14060366D01*
X12761616Y-14060366D01*
X14187191Y-14060366D02*
X14187191Y-13778384D01*
X13905209Y-13778384D01*
X13905209Y-14060366D01*
X14187191Y-14060366D01*
X16574791Y-14060366D02*
X16574791Y-13778384D01*
X16292809Y-13778384D01*
X16292809Y-14060366D01*
X16574791Y-14060366D01*
X22045316Y-12155366D02*
X22045316Y-11873384D01*
X21763334Y-11873384D01*
X21763334Y-12155366D01*
X22045316Y-12155366D01*
X24432916Y-12155366D02*
X24432916Y-11873384D01*
X24150934Y-11873384D01*
X24150934Y-12155366D01*
X24432916Y-12155366D01*
D16*
X5238750Y-7581875D02*
X5438750Y-7381875D01*
X5238750Y-7181875D01*
X5038750Y-7381875D01*
X5238750Y-7581875D01*
X5476875Y-9486875D02*
X5676875Y-9286875D01*
X5476875Y-9086875D01*
X5276875Y-9286875D01*
X5476875Y-9486875D01*
X5953125Y-11391875D02*
X6153125Y-11191875D01*
X5953125Y-10991875D01*
X5753125Y-11191875D01*
X5953125Y-11391875D01*
X7143750Y-7581875D02*
X7343750Y-7381875D01*
X7143750Y-7181875D01*
X6943750Y-7381875D01*
X7143750Y-7581875D01*
X7620000Y-9486875D02*
X7820000Y-9286875D01*
X7620000Y-9086875D01*
X7420000Y-9286875D01*
X7620000Y-9486875D01*
X8572500Y-11391875D02*
X8772500Y-11191875D01*
X8572500Y-10991875D01*
X8372500Y-11191875D01*
X8572500Y-11391875D01*
X9048750Y-7581875D02*
X9248750Y-7381875D01*
X9048750Y-7181875D01*
X8848750Y-7381875D01*
X9048750Y-7581875D01*
X9525000Y-9486875D02*
X9725000Y-9286875D01*
X9525000Y-9086875D01*
X9325000Y-9286875D01*
X9525000Y-9486875D01*
X10477500Y-11391875D02*
X10677500Y-11191875D01*
X10477500Y-10991875D01*
X10277500Y-11191875D01*
X10477500Y-11391875D01*
X10950000Y-7581875D02*
X11150000Y-7381875D01*
X10950000Y-7181875D01*
X10750000Y-7381875D01*
X10950000Y-7581875D01*
X11430000Y-9486875D02*
X11630000Y-9286875D01*
X11430000Y-9086875D01*
X11230000Y-9286875D01*
X11430000Y-9486875D01*
X11430000Y-13296875D02*
X11630000Y-13096875D01*
X11430000Y-12896875D01*
X11230000Y-13096875D01*
X11430000Y-13296875D01*
X12382500Y-11391875D02*
X12582500Y-11191875D01*
X12382500Y-10991875D01*
X12182500Y-11191875D01*
X12382500Y-11391875D01*
X12858000Y-7581875D02*
X13058000Y-7381875D01*
X12858000Y-7181875D01*
X12658000Y-7381875D01*
X12858000Y-7581875D01*
X13335000Y-9486875D02*
X13535000Y-9286875D01*
X13335000Y-9086875D01*
X13135000Y-9286875D01*
X13335000Y-9486875D01*
X14287500Y-11391875D02*
X14487500Y-11191875D01*
X14287500Y-10991875D01*
X14087500Y-11191875D01*
X14287500Y-11391875D01*
X14763750Y-7581875D02*
X14963750Y-7381875D01*
X14763750Y-7181875D01*
X14563750Y-7381875D01*
X14763750Y-7581875D01*
X15240000Y-9486875D02*
X15440000Y-9286875D01*
X15240000Y-9086875D01*
X15040000Y-9286875D01*
X15240000Y-9486875D01*
X15240000Y-13296875D02*
X15440000Y-13096875D01*
X15240000Y-12896875D01*
X15040000Y-13096875D01*
X15240000Y-13296875D01*
X16192500Y-11391875D02*
X16392500Y-11191875D01*
X16192500Y-10991875D01*
X15992500Y-11191875D01*
X16192500Y-11391875D01*
X16668750Y-7581875D02*
X16868750Y-7381875D01*
X16668750Y-7181875D01*
X16468750Y-7381875D01*
X16668750Y-7581875D01*
X17145000Y-9486875D02*
X17345000Y-9286875D01*
X17145000Y-9086875D01*
X16945000Y-9286875D01*
X17145000Y-9486875D01*
X18097500Y-11391875D02*
X18297500Y-11191875D01*
X18097500Y-10991875D01*
X17897500Y-11191875D01*
X18097500Y-11391875D01*
X18335625Y-13296875D02*
X18535625Y-13096875D01*
X18335625Y-12896875D01*
X18135625Y-13096875D01*
X18335625Y-13296875D01*
X18573750Y-7581875D02*
X18773750Y-7381875D01*
X18573750Y-7181875D01*
X18373750Y-7381875D01*
X18573750Y-7581875D01*
X19050000Y-9486875D02*
X19250000Y-9286875D01*
X19050000Y-9086875D01*
X18850000Y-9286875D01*
X19050000Y-9486875D01*
X20002500Y-11391875D02*
X20202500Y-11191875D01*
X20002500Y-10991875D01*
X19802500Y-11191875D01*
X20002500Y-11391875D01*
X20240625Y-13296875D02*
X20440625Y-13096875D01*
X20240625Y-12896875D01*
X20040625Y-13096875D01*
X20240625Y-13296875D01*
X20478750Y-7581875D02*
X20678750Y-7381875D01*
X20478750Y-7181875D01*
X20278750Y-7381875D01*
X20478750Y-7581875D01*
X20955000Y-9486875D02*
X21155000Y-9286875D01*
X20955000Y-9086875D01*
X20755000Y-9286875D01*
X20955000Y-9486875D01*
X22383750Y-7581875D02*
X22583750Y-7381875D01*
X22383750Y-7181875D01*
X22183750Y-7381875D01*
X22383750Y-7581875D01*
X22860000Y-9486875D02*
X23060000Y-9286875D01*
X22860000Y-9086875D01*
X22660000Y-9286875D01*
X22860000Y-9486875D01*
X23098125Y-11391875D02*
X23298125Y-11191875D01*
X23098125Y-10991875D01*
X22898125Y-11191875D01*
X23098125Y-11391875D01*
X24288750Y-7581875D02*
X24488750Y-7381875D01*
X24288750Y-7181875D01*
X24088750Y-7381875D01*
X24288750Y-7581875D01*
D11*
X4302722Y-14601484D02*
X4302722Y-14401484D01*
X4302722Y-14401484D02*
X4350341Y-14401484D01*
X4350341Y-14401484D02*
X4378913Y-14411008D01*
X4378913Y-14411008D02*
X4397961Y-14430055D01*
X4397961Y-14430055D02*
X4407484Y-14449103D01*
X4407484Y-14449103D02*
X4417008Y-14487198D01*
X4417008Y-14487198D02*
X4417008Y-14515769D01*
X4417008Y-14515769D02*
X4407484Y-14553865D01*
X4407484Y-14553865D02*
X4397961Y-14572912D01*
X4397961Y-14572912D02*
X4378913Y-14591960D01*
X4378913Y-14591960D02*
X4350341Y-14601484D01*
X4350341Y-14601484D02*
X4302722Y-14601484D01*
X4502722Y-14601484D02*
X4502722Y-14468150D01*
X4502722Y-14506246D02*
X4512246Y-14487198D01*
X4512246Y-14487198D02*
X4521770Y-14477674D01*
X4521770Y-14477674D02*
X4540818Y-14468150D01*
X4540818Y-14468150D02*
X4559865Y-14468150D01*
X4626532Y-14601484D02*
X4626532Y-14468150D01*
X4626532Y-14401484D02*
X4617008Y-14411008D01*
X4617008Y-14411008D02*
X4626532Y-14420531D01*
X4626532Y-14420531D02*
X4636056Y-14411008D01*
X4636056Y-14411008D02*
X4626532Y-14401484D01*
X4626532Y-14401484D02*
X4626532Y-14420531D01*
X4750341Y-14601484D02*
X4731294Y-14591960D01*
X4731294Y-14591960D02*
X4721770Y-14572912D01*
X4721770Y-14572912D02*
X4721770Y-14401484D01*
X4855103Y-14601484D02*
X4836056Y-14591960D01*
X4836056Y-14591960D02*
X4826532Y-14572912D01*
X4826532Y-14572912D02*
X4826532Y-14401484D01*
X5083675Y-14601484D02*
X5083675Y-14401484D01*
X5083675Y-14401484D02*
X5150342Y-14544341D01*
X5150342Y-14544341D02*
X5217008Y-14401484D01*
X5217008Y-14401484D02*
X5217008Y-14601484D01*
X5397961Y-14601484D02*
X5397961Y-14496722D01*
X5397961Y-14496722D02*
X5388437Y-14477674D01*
X5388437Y-14477674D02*
X5369389Y-14468150D01*
X5369389Y-14468150D02*
X5331294Y-14468150D01*
X5331294Y-14468150D02*
X5312246Y-14477674D01*
X5397961Y-14591960D02*
X5378913Y-14601484D01*
X5378913Y-14601484D02*
X5331294Y-14601484D01*
X5331294Y-14601484D02*
X5312246Y-14591960D01*
X5312246Y-14591960D02*
X5302722Y-14572912D01*
X5302722Y-14572912D02*
X5302722Y-14553865D01*
X5302722Y-14553865D02*
X5312246Y-14534817D01*
X5312246Y-14534817D02*
X5331294Y-14525293D01*
X5331294Y-14525293D02*
X5378913Y-14525293D01*
X5378913Y-14525293D02*
X5397961Y-14515769D01*
X5493199Y-14468150D02*
X5493199Y-14668150D01*
X5493199Y-14477674D02*
X5512246Y-14468150D01*
X5512246Y-14468150D02*
X5550342Y-14468150D01*
X5550342Y-14468150D02*
X5569389Y-14477674D01*
X5569389Y-14477674D02*
X5578913Y-14487198D01*
X5578913Y-14487198D02*
X5588437Y-14506246D01*
X5588437Y-14506246D02*
X5588437Y-14563388D01*
X5588437Y-14563388D02*
X5578913Y-14582436D01*
X5578913Y-14582436D02*
X5569389Y-14591960D01*
X5569389Y-14591960D02*
X5550342Y-14601484D01*
X5550342Y-14601484D02*
X5512246Y-14601484D01*
X5512246Y-14601484D02*
X5493199Y-14591960D01*
X5674151Y-14582436D02*
X5683675Y-14591960D01*
X5683675Y-14591960D02*
X5674151Y-14601484D01*
X5674151Y-14601484D02*
X5664627Y-14591960D01*
X5664627Y-14591960D02*
X5674151Y-14582436D01*
X5674151Y-14582436D02*
X5674151Y-14601484D01*
X5674151Y-14477674D02*
X5683675Y-14487198D01*
X5683675Y-14487198D02*
X5674151Y-14496722D01*
X5674151Y-14496722D02*
X5664627Y-14487198D01*
X5664627Y-14487198D02*
X5674151Y-14477674D01*
X5674151Y-14477674D02*
X5674151Y-14496722D01*
D12*
X3866946Y-14842500D02*
X4041946Y-15017500D01*
X4041946Y-14842500D02*
X3866946Y-15017500D01*
D11*
X4407484Y-15021484D02*
X4293199Y-15021484D01*
X4350341Y-15021484D02*
X4350341Y-14821484D01*
X4350341Y-14821484D02*
X4331294Y-14850055D01*
X4331294Y-14850055D02*
X4312246Y-14869103D01*
X4312246Y-14869103D02*
X4293199Y-14878627D01*
X4493199Y-15002436D02*
X4502722Y-15011960D01*
X4502722Y-15011960D02*
X4493199Y-15021484D01*
X4493199Y-15021484D02*
X4483675Y-15011960D01*
X4483675Y-15011960D02*
X4493199Y-15002436D01*
X4493199Y-15002436D02*
X4493199Y-15021484D01*
X4569389Y-14821484D02*
X4702722Y-14821484D01*
X4702722Y-14821484D02*
X4617008Y-15021484D01*
X4874151Y-14821484D02*
X4778913Y-14821484D01*
X4778913Y-14821484D02*
X4769389Y-14916722D01*
X4769389Y-14916722D02*
X4778913Y-14907198D01*
X4778913Y-14907198D02*
X4797961Y-14897674D01*
X4797961Y-14897674D02*
X4845580Y-14897674D01*
X4845580Y-14897674D02*
X4864627Y-14907198D01*
X4864627Y-14907198D02*
X4874151Y-14916722D01*
X4874151Y-14916722D02*
X4883675Y-14935769D01*
X4883675Y-14935769D02*
X4883675Y-14983388D01*
X4883675Y-14983388D02*
X4874151Y-15002436D01*
X4874151Y-15002436D02*
X4864627Y-15011960D01*
X4864627Y-15011960D02*
X4845580Y-15021484D01*
X4845580Y-15021484D02*
X4797961Y-15021484D01*
X4797961Y-15021484D02*
X4778913Y-15011960D01*
X4778913Y-15011960D02*
X4769389Y-15002436D01*
X5007484Y-14821484D02*
X5026532Y-14821484D01*
X5026532Y-14821484D02*
X5045580Y-14831008D01*
X5045580Y-14831008D02*
X5055103Y-14840531D01*
X5055103Y-14840531D02*
X5064627Y-14859579D01*
X5064627Y-14859579D02*
X5074151Y-14897674D01*
X5074151Y-14897674D02*
X5074151Y-14945293D01*
X5074151Y-14945293D02*
X5064627Y-14983388D01*
X5064627Y-14983388D02*
X5055103Y-15002436D01*
X5055103Y-15002436D02*
X5045580Y-15011960D01*
X5045580Y-15011960D02*
X5026532Y-15021484D01*
X5026532Y-15021484D02*
X5007484Y-15021484D01*
X5007484Y-15021484D02*
X4988437Y-15011960D01*
X4988437Y-15011960D02*
X4978913Y-15002436D01*
X4978913Y-15002436D02*
X4969389Y-14983388D01*
X4969389Y-14983388D02*
X4959865Y-14945293D01*
X4959865Y-14945293D02*
X4959865Y-14897674D01*
X4959865Y-14897674D02*
X4969389Y-14859579D01*
X4969389Y-14859579D02*
X4978913Y-14840531D01*
X4978913Y-14840531D02*
X4988437Y-14831008D01*
X4988437Y-14831008D02*
X5007484Y-14821484D01*
X5159865Y-15021484D02*
X5159865Y-14888150D01*
X5159865Y-14907198D02*
X5169389Y-14897674D01*
X5169389Y-14897674D02*
X5188437Y-14888150D01*
X5188437Y-14888150D02*
X5217008Y-14888150D01*
X5217008Y-14888150D02*
X5236056Y-14897674D01*
X5236056Y-14897674D02*
X5245580Y-14916722D01*
X5245580Y-14916722D02*
X5245580Y-15021484D01*
X5245580Y-14916722D02*
X5255103Y-14897674D01*
X5255103Y-14897674D02*
X5274151Y-14888150D01*
X5274151Y-14888150D02*
X5302722Y-14888150D01*
X5302722Y-14888150D02*
X5321770Y-14897674D01*
X5321770Y-14897674D02*
X5331294Y-14916722D01*
X5331294Y-14916722D02*
X5331294Y-15021484D01*
X5426532Y-15021484D02*
X5426532Y-14888150D01*
X5426532Y-14907198D02*
X5436056Y-14897674D01*
X5436056Y-14897674D02*
X5455103Y-14888150D01*
X5455103Y-14888150D02*
X5483675Y-14888150D01*
X5483675Y-14888150D02*
X5502723Y-14897674D01*
X5502723Y-14897674D02*
X5512246Y-14916722D01*
X5512246Y-14916722D02*
X5512246Y-15021484D01*
X5512246Y-14916722D02*
X5521770Y-14897674D01*
X5521770Y-14897674D02*
X5540818Y-14888150D01*
X5540818Y-14888150D02*
X5569389Y-14888150D01*
X5569389Y-14888150D02*
X5588437Y-14897674D01*
X5588437Y-14897674D02*
X5597961Y-14916722D01*
X5597961Y-14916722D02*
X5597961Y-15021484D01*
X5988437Y-14811960D02*
X5817008Y-15069103D01*
X6245580Y-14821484D02*
X6264627Y-14821484D01*
X6264627Y-14821484D02*
X6283675Y-14831008D01*
X6283675Y-14831008D02*
X6293199Y-14840531D01*
X6293199Y-14840531D02*
X6302723Y-14859579D01*
X6302723Y-14859579D02*
X6312246Y-14897674D01*
X6312246Y-14897674D02*
X6312246Y-14945293D01*
X6312246Y-14945293D02*
X6302723Y-14983388D01*
X6302723Y-14983388D02*
X6293199Y-15002436D01*
X6293199Y-15002436D02*
X6283675Y-15011960D01*
X6283675Y-15011960D02*
X6264627Y-15021484D01*
X6264627Y-15021484D02*
X6245580Y-15021484D01*
X6245580Y-15021484D02*
X6226532Y-15011960D01*
X6226532Y-15011960D02*
X6217008Y-15002436D01*
X6217008Y-15002436D02*
X6207484Y-14983388D01*
X6207484Y-14983388D02*
X6197961Y-14945293D01*
X6197961Y-14945293D02*
X6197961Y-14897674D01*
X6197961Y-14897674D02*
X6207484Y-14859579D01*
X6207484Y-14859579D02*
X6217008Y-14840531D01*
X6217008Y-14840531D02*
X6226532Y-14831008D01*
X6226532Y-14831008D02*
X6245580Y-14821484D01*
X6397961Y-15002436D02*
X6407484Y-15011960D01*
X6407484Y-15011960D02*
X6397961Y-15021484D01*
X6397961Y-15021484D02*
X6388437Y-15011960D01*
X6388437Y-15011960D02*
X6397961Y-15002436D01*
X6397961Y-15002436D02*
X6397961Y-15021484D01*
X6531294Y-14821484D02*
X6550342Y-14821484D01*
X6550342Y-14821484D02*
X6569389Y-14831008D01*
X6569389Y-14831008D02*
X6578913Y-14840531D01*
X6578913Y-14840531D02*
X6588437Y-14859579D01*
X6588437Y-14859579D02*
X6597961Y-14897674D01*
X6597961Y-14897674D02*
X6597961Y-14945293D01*
X6597961Y-14945293D02*
X6588437Y-14983388D01*
X6588437Y-14983388D02*
X6578913Y-15002436D01*
X6578913Y-15002436D02*
X6569389Y-15011960D01*
X6569389Y-15011960D02*
X6550342Y-15021484D01*
X6550342Y-15021484D02*
X6531294Y-15021484D01*
X6531294Y-15021484D02*
X6512246Y-15011960D01*
X6512246Y-15011960D02*
X6502723Y-15002436D01*
X6502723Y-15002436D02*
X6493199Y-14983388D01*
X6493199Y-14983388D02*
X6483675Y-14945293D01*
X6483675Y-14945293D02*
X6483675Y-14897674D01*
X6483675Y-14897674D02*
X6493199Y-14859579D01*
X6493199Y-14859579D02*
X6502723Y-14840531D01*
X6502723Y-14840531D02*
X6512246Y-14831008D01*
X6512246Y-14831008D02*
X6531294Y-14821484D01*
X6769389Y-14821484D02*
X6731294Y-14821484D01*
X6731294Y-14821484D02*
X6712246Y-14831008D01*
X6712246Y-14831008D02*
X6702723Y-14840531D01*
X6702723Y-14840531D02*
X6683675Y-14869103D01*
X6683675Y-14869103D02*
X6674151Y-14907198D01*
X6674151Y-14907198D02*
X6674151Y-14983388D01*
X6674151Y-14983388D02*
X6683675Y-15002436D01*
X6683675Y-15002436D02*
X6693199Y-15011960D01*
X6693199Y-15011960D02*
X6712246Y-15021484D01*
X6712246Y-15021484D02*
X6750342Y-15021484D01*
X6750342Y-15021484D02*
X6769389Y-15011960D01*
X6769389Y-15011960D02*
X6778913Y-15002436D01*
X6778913Y-15002436D02*
X6788437Y-14983388D01*
X6788437Y-14983388D02*
X6788437Y-14935769D01*
X6788437Y-14935769D02*
X6778913Y-14916722D01*
X6778913Y-14916722D02*
X6769389Y-14907198D01*
X6769389Y-14907198D02*
X6750342Y-14897674D01*
X6750342Y-14897674D02*
X6712246Y-14897674D01*
X6712246Y-14897674D02*
X6693199Y-14907198D01*
X6693199Y-14907198D02*
X6683675Y-14916722D01*
X6683675Y-14916722D02*
X6674151Y-14935769D01*
X6902723Y-14907198D02*
X6883675Y-14897674D01*
X6883675Y-14897674D02*
X6874151Y-14888150D01*
X6874151Y-14888150D02*
X6864627Y-14869103D01*
X6864627Y-14869103D02*
X6864627Y-14859579D01*
X6864627Y-14859579D02*
X6874151Y-14840531D01*
X6874151Y-14840531D02*
X6883675Y-14831008D01*
X6883675Y-14831008D02*
X6902723Y-14821484D01*
X6902723Y-14821484D02*
X6940818Y-14821484D01*
X6940818Y-14821484D02*
X6959865Y-14831008D01*
X6959865Y-14831008D02*
X6969389Y-14840531D01*
X6969389Y-14840531D02*
X6978913Y-14859579D01*
X6978913Y-14859579D02*
X6978913Y-14869103D01*
X6978913Y-14869103D02*
X6969389Y-14888150D01*
X6969389Y-14888150D02*
X6959865Y-14897674D01*
X6959865Y-14897674D02*
X6940818Y-14907198D01*
X6940818Y-14907198D02*
X6902723Y-14907198D01*
X6902723Y-14907198D02*
X6883675Y-14916722D01*
X6883675Y-14916722D02*
X6874151Y-14926246D01*
X6874151Y-14926246D02*
X6864627Y-14945293D01*
X6864627Y-14945293D02*
X6864627Y-14983388D01*
X6864627Y-14983388D02*
X6874151Y-15002436D01*
X6874151Y-15002436D02*
X6883675Y-15011960D01*
X6883675Y-15011960D02*
X6902723Y-15021484D01*
X6902723Y-15021484D02*
X6940818Y-15021484D01*
X6940818Y-15021484D02*
X6959865Y-15011960D01*
X6959865Y-15011960D02*
X6969389Y-15002436D01*
X6969389Y-15002436D02*
X6978913Y-14983388D01*
X6978913Y-14983388D02*
X6978913Y-14945293D01*
X6978913Y-14945293D02*
X6969389Y-14926246D01*
X6969389Y-14926246D02*
X6959865Y-14916722D01*
X6959865Y-14916722D02*
X6940818Y-14907198D01*
X7074151Y-15021484D02*
X7112246Y-15021484D01*
X7112246Y-15021484D02*
X7131294Y-15011960D01*
X7131294Y-15011960D02*
X7140818Y-15002436D01*
X7140818Y-15002436D02*
X7159865Y-14973865D01*
X7159865Y-14973865D02*
X7169389Y-14935769D01*
X7169389Y-14935769D02*
X7169389Y-14859579D01*
X7169389Y-14859579D02*
X7159865Y-14840531D01*
X7159865Y-14840531D02*
X7150342Y-14831008D01*
X7150342Y-14831008D02*
X7131294Y-14821484D01*
X7131294Y-14821484D02*
X7093199Y-14821484D01*
X7093199Y-14821484D02*
X7074151Y-14831008D01*
X7074151Y-14831008D02*
X7064627Y-14840531D01*
X7064627Y-14840531D02*
X7055104Y-14859579D01*
X7055104Y-14859579D02*
X7055104Y-14907198D01*
X7055104Y-14907198D02*
X7064627Y-14926246D01*
X7064627Y-14926246D02*
X7074151Y-14935769D01*
X7074151Y-14935769D02*
X7093199Y-14945293D01*
X7093199Y-14945293D02*
X7131294Y-14945293D01*
X7131294Y-14945293D02*
X7150342Y-14935769D01*
X7150342Y-14935769D02*
X7159865Y-14926246D01*
X7159865Y-14926246D02*
X7169389Y-14907198D01*
X7245580Y-14821484D02*
X7245580Y-14859579D01*
X7321770Y-14821484D02*
X7321770Y-14859579D01*
X7617008Y-15097674D02*
X7607485Y-15088150D01*
X7607485Y-15088150D02*
X7588437Y-15059579D01*
X7588437Y-15059579D02*
X7578913Y-15040531D01*
X7578913Y-15040531D02*
X7569389Y-15011960D01*
X7569389Y-15011960D02*
X7559866Y-14964341D01*
X7559866Y-14964341D02*
X7559866Y-14926246D01*
X7559866Y-14926246D02*
X7569389Y-14878627D01*
X7569389Y-14878627D02*
X7578913Y-14850055D01*
X7578913Y-14850055D02*
X7588437Y-14831008D01*
X7588437Y-14831008D02*
X7607485Y-14802436D01*
X7607485Y-14802436D02*
X7617008Y-14792912D01*
X7778913Y-14821484D02*
X7740818Y-14821484D01*
X7740818Y-14821484D02*
X7721770Y-14831008D01*
X7721770Y-14831008D02*
X7712246Y-14840531D01*
X7712246Y-14840531D02*
X7693199Y-14869103D01*
X7693199Y-14869103D02*
X7683675Y-14907198D01*
X7683675Y-14907198D02*
X7683675Y-14983388D01*
X7683675Y-14983388D02*
X7693199Y-15002436D01*
X7693199Y-15002436D02*
X7702723Y-15011960D01*
X7702723Y-15011960D02*
X7721770Y-15021484D01*
X7721770Y-15021484D02*
X7759866Y-15021484D01*
X7759866Y-15021484D02*
X7778913Y-15011960D01*
X7778913Y-15011960D02*
X7788437Y-15002436D01*
X7788437Y-15002436D02*
X7797961Y-14983388D01*
X7797961Y-14983388D02*
X7797961Y-14935769D01*
X7797961Y-14935769D02*
X7788437Y-14916722D01*
X7788437Y-14916722D02*
X7778913Y-14907198D01*
X7778913Y-14907198D02*
X7759866Y-14897674D01*
X7759866Y-14897674D02*
X7721770Y-14897674D01*
X7721770Y-14897674D02*
X7702723Y-14907198D01*
X7702723Y-14907198D02*
X7693199Y-14916722D01*
X7693199Y-14916722D02*
X7683675Y-14935769D01*
X7912246Y-14907198D02*
X7893199Y-14897674D01*
X7893199Y-14897674D02*
X7883675Y-14888150D01*
X7883675Y-14888150D02*
X7874151Y-14869103D01*
X7874151Y-14869103D02*
X7874151Y-14859579D01*
X7874151Y-14859579D02*
X7883675Y-14840531D01*
X7883675Y-14840531D02*
X7893199Y-14831008D01*
X7893199Y-14831008D02*
X7912246Y-14821484D01*
X7912246Y-14821484D02*
X7950342Y-14821484D01*
X7950342Y-14821484D02*
X7969389Y-14831008D01*
X7969389Y-14831008D02*
X7978913Y-14840531D01*
X7978913Y-14840531D02*
X7988437Y-14859579D01*
X7988437Y-14859579D02*
X7988437Y-14869103D01*
X7988437Y-14869103D02*
X7978913Y-14888150D01*
X7978913Y-14888150D02*
X7969389Y-14897674D01*
X7969389Y-14897674D02*
X7950342Y-14907198D01*
X7950342Y-14907198D02*
X7912246Y-14907198D01*
X7912246Y-14907198D02*
X7893199Y-14916722D01*
X7893199Y-14916722D02*
X7883675Y-14926246D01*
X7883675Y-14926246D02*
X7874151Y-14945293D01*
X7874151Y-14945293D02*
X7874151Y-14983388D01*
X7874151Y-14983388D02*
X7883675Y-15002436D01*
X7883675Y-15002436D02*
X7893199Y-15011960D01*
X7893199Y-15011960D02*
X7912246Y-15021484D01*
X7912246Y-15021484D02*
X7950342Y-15021484D01*
X7950342Y-15021484D02*
X7969389Y-15011960D01*
X7969389Y-15011960D02*
X7978913Y-15002436D01*
X7978913Y-15002436D02*
X7988437Y-14983388D01*
X7988437Y-14983388D02*
X7988437Y-14945293D01*
X7988437Y-14945293D02*
X7978913Y-14926246D01*
X7978913Y-14926246D02*
X7969389Y-14916722D01*
X7969389Y-14916722D02*
X7950342Y-14907198D01*
X8226532Y-15021484D02*
X8226532Y-14821484D01*
X8312247Y-15021484D02*
X8312247Y-14916722D01*
X8312247Y-14916722D02*
X8302723Y-14897674D01*
X8302723Y-14897674D02*
X8283675Y-14888150D01*
X8283675Y-14888150D02*
X8255104Y-14888150D01*
X8255104Y-14888150D02*
X8236056Y-14897674D01*
X8236056Y-14897674D02*
X8226532Y-14907198D01*
X8436056Y-15021484D02*
X8417009Y-15011960D01*
X8417009Y-15011960D02*
X8407485Y-15002436D01*
X8407485Y-15002436D02*
X8397961Y-14983388D01*
X8397961Y-14983388D02*
X8397961Y-14926246D01*
X8397961Y-14926246D02*
X8407485Y-14907198D01*
X8407485Y-14907198D02*
X8417009Y-14897674D01*
X8417009Y-14897674D02*
X8436056Y-14888150D01*
X8436056Y-14888150D02*
X8464628Y-14888150D01*
X8464628Y-14888150D02*
X8483675Y-14897674D01*
X8483675Y-14897674D02*
X8493199Y-14907198D01*
X8493199Y-14907198D02*
X8502723Y-14926246D01*
X8502723Y-14926246D02*
X8502723Y-14983388D01*
X8502723Y-14983388D02*
X8493199Y-15002436D01*
X8493199Y-15002436D02*
X8483675Y-15011960D01*
X8483675Y-15011960D02*
X8464628Y-15021484D01*
X8464628Y-15021484D02*
X8436056Y-15021484D01*
X8617009Y-15021484D02*
X8597961Y-15011960D01*
X8597961Y-15011960D02*
X8588437Y-14992912D01*
X8588437Y-14992912D02*
X8588437Y-14821484D01*
X8769390Y-15011960D02*
X8750342Y-15021484D01*
X8750342Y-15021484D02*
X8712247Y-15021484D01*
X8712247Y-15021484D02*
X8693199Y-15011960D01*
X8693199Y-15011960D02*
X8683675Y-14992912D01*
X8683675Y-14992912D02*
X8683675Y-14916722D01*
X8683675Y-14916722D02*
X8693199Y-14897674D01*
X8693199Y-14897674D02*
X8712247Y-14888150D01*
X8712247Y-14888150D02*
X8750342Y-14888150D01*
X8750342Y-14888150D02*
X8769390Y-14897674D01*
X8769390Y-14897674D02*
X8778913Y-14916722D01*
X8778913Y-14916722D02*
X8778913Y-14935769D01*
X8778913Y-14935769D02*
X8683675Y-14954817D01*
X8855104Y-15011960D02*
X8874151Y-15021484D01*
X8874151Y-15021484D02*
X8912247Y-15021484D01*
X8912247Y-15021484D02*
X8931294Y-15011960D01*
X8931294Y-15011960D02*
X8940818Y-14992912D01*
X8940818Y-14992912D02*
X8940818Y-14983388D01*
X8940818Y-14983388D02*
X8931294Y-14964341D01*
X8931294Y-14964341D02*
X8912247Y-14954817D01*
X8912247Y-14954817D02*
X8883675Y-14954817D01*
X8883675Y-14954817D02*
X8864628Y-14945293D01*
X8864628Y-14945293D02*
X8855104Y-14926246D01*
X8855104Y-14926246D02*
X8855104Y-14916722D01*
X8855104Y-14916722D02*
X8864628Y-14897674D01*
X8864628Y-14897674D02*
X8883675Y-14888150D01*
X8883675Y-14888150D02*
X8912247Y-14888150D01*
X8912247Y-14888150D02*
X8931294Y-14897674D01*
X9007485Y-15097674D02*
X9017009Y-15088150D01*
X9017009Y-15088150D02*
X9036056Y-15059579D01*
X9036056Y-15059579D02*
X9045580Y-15040531D01*
X9045580Y-15040531D02*
X9055104Y-15011960D01*
X9055104Y-15011960D02*
X9064628Y-14964341D01*
X9064628Y-14964341D02*
X9064628Y-14926246D01*
X9064628Y-14926246D02*
X9055104Y-14878627D01*
X9055104Y-14878627D02*
X9045580Y-14850055D01*
X9045580Y-14850055D02*
X9036056Y-14831008D01*
X9036056Y-14831008D02*
X9017009Y-14802436D01*
X9017009Y-14802436D02*
X9007485Y-14792912D01*
X9369390Y-15097674D02*
X9359866Y-15088150D01*
X9359866Y-15088150D02*
X9340818Y-15059579D01*
X9340818Y-15059579D02*
X9331294Y-15040531D01*
X9331294Y-15040531D02*
X9321771Y-15011960D01*
X9321771Y-15011960D02*
X9312247Y-14964341D01*
X9312247Y-14964341D02*
X9312247Y-14926246D01*
X9312247Y-14926246D02*
X9321771Y-14878627D01*
X9321771Y-14878627D02*
X9331294Y-14850055D01*
X9331294Y-14850055D02*
X9340818Y-14831008D01*
X9340818Y-14831008D02*
X9359866Y-14802436D01*
X9359866Y-14802436D02*
X9369390Y-14792912D01*
X9445580Y-14888150D02*
X9445580Y-15021484D01*
X9445580Y-14907198D02*
X9455104Y-14897674D01*
X9455104Y-14897674D02*
X9474151Y-14888150D01*
X9474151Y-14888150D02*
X9502723Y-14888150D01*
X9502723Y-14888150D02*
X9521771Y-14897674D01*
X9521771Y-14897674D02*
X9531294Y-14916722D01*
X9531294Y-14916722D02*
X9531294Y-15021484D01*
X9655104Y-15021484D02*
X9636056Y-15011960D01*
X9636056Y-15011960D02*
X9626532Y-15002436D01*
X9626532Y-15002436D02*
X9617009Y-14983388D01*
X9617009Y-14983388D02*
X9617009Y-14926246D01*
X9617009Y-14926246D02*
X9626532Y-14907198D01*
X9626532Y-14907198D02*
X9636056Y-14897674D01*
X9636056Y-14897674D02*
X9655104Y-14888150D01*
X9655104Y-14888150D02*
X9683675Y-14888150D01*
X9683675Y-14888150D02*
X9702723Y-14897674D01*
X9702723Y-14897674D02*
X9712247Y-14907198D01*
X9712247Y-14907198D02*
X9721771Y-14926246D01*
X9721771Y-14926246D02*
X9721771Y-14983388D01*
X9721771Y-14983388D02*
X9712247Y-15002436D01*
X9712247Y-15002436D02*
X9702723Y-15011960D01*
X9702723Y-15011960D02*
X9683675Y-15021484D01*
X9683675Y-15021484D02*
X9655104Y-15021484D01*
X9778913Y-14888150D02*
X9855104Y-14888150D01*
X9807485Y-14821484D02*
X9807485Y-14992912D01*
X9807485Y-14992912D02*
X9817009Y-15011960D01*
X9817009Y-15011960D02*
X9836056Y-15021484D01*
X9836056Y-15021484D02*
X9855104Y-15021484D01*
X10074152Y-14888150D02*
X10074152Y-15088150D01*
X10074152Y-14897674D02*
X10093199Y-14888150D01*
X10093199Y-14888150D02*
X10131294Y-14888150D01*
X10131294Y-14888150D02*
X10150342Y-14897674D01*
X10150342Y-14897674D02*
X10159866Y-14907198D01*
X10159866Y-14907198D02*
X10169390Y-14926246D01*
X10169390Y-14926246D02*
X10169390Y-14983388D01*
X10169390Y-14983388D02*
X10159866Y-15002436D01*
X10159866Y-15002436D02*
X10150342Y-15011960D01*
X10150342Y-15011960D02*
X10131294Y-15021484D01*
X10131294Y-15021484D02*
X10093199Y-15021484D01*
X10093199Y-15021484D02*
X10074152Y-15011960D01*
X10283675Y-15021484D02*
X10264628Y-15011960D01*
X10264628Y-15011960D02*
X10255104Y-14992912D01*
X10255104Y-14992912D02*
X10255104Y-14821484D01*
X10445580Y-15021484D02*
X10445580Y-14916722D01*
X10445580Y-14916722D02*
X10436056Y-14897674D01*
X10436056Y-14897674D02*
X10417009Y-14888150D01*
X10417009Y-14888150D02*
X10378913Y-14888150D01*
X10378913Y-14888150D02*
X10359866Y-14897674D01*
X10445580Y-15011960D02*
X10426533Y-15021484D01*
X10426533Y-15021484D02*
X10378913Y-15021484D01*
X10378913Y-15021484D02*
X10359866Y-15011960D01*
X10359866Y-15011960D02*
X10350342Y-14992912D01*
X10350342Y-14992912D02*
X10350342Y-14973865D01*
X10350342Y-14973865D02*
X10359866Y-14954817D01*
X10359866Y-14954817D02*
X10378913Y-14945293D01*
X10378913Y-14945293D02*
X10426533Y-14945293D01*
X10426533Y-14945293D02*
X10445580Y-14935769D01*
X10512247Y-14888150D02*
X10588437Y-14888150D01*
X10540818Y-14821484D02*
X10540818Y-14992912D01*
X10540818Y-14992912D02*
X10550342Y-15011960D01*
X10550342Y-15011960D02*
X10569390Y-15021484D01*
X10569390Y-15021484D02*
X10588437Y-15021484D01*
X10731294Y-15011960D02*
X10712247Y-15021484D01*
X10712247Y-15021484D02*
X10674152Y-15021484D01*
X10674152Y-15021484D02*
X10655104Y-15011960D01*
X10655104Y-15011960D02*
X10645580Y-14992912D01*
X10645580Y-14992912D02*
X10645580Y-14916722D01*
X10645580Y-14916722D02*
X10655104Y-14897674D01*
X10655104Y-14897674D02*
X10674152Y-14888150D01*
X10674152Y-14888150D02*
X10712247Y-14888150D01*
X10712247Y-14888150D02*
X10731294Y-14897674D01*
X10731294Y-14897674D02*
X10740818Y-14916722D01*
X10740818Y-14916722D02*
X10740818Y-14935769D01*
X10740818Y-14935769D02*
X10645580Y-14954817D01*
X10912247Y-15021484D02*
X10912247Y-14821484D01*
X10912247Y-15011960D02*
X10893199Y-15021484D01*
X10893199Y-15021484D02*
X10855104Y-15021484D01*
X10855104Y-15021484D02*
X10836056Y-15011960D01*
X10836056Y-15011960D02*
X10826533Y-15002436D01*
X10826533Y-15002436D02*
X10817009Y-14983388D01*
X10817009Y-14983388D02*
X10817009Y-14926246D01*
X10817009Y-14926246D02*
X10826533Y-14907198D01*
X10826533Y-14907198D02*
X10836056Y-14897674D01*
X10836056Y-14897674D02*
X10855104Y-14888150D01*
X10855104Y-14888150D02*
X10893199Y-14888150D01*
X10893199Y-14888150D02*
X10912247Y-14897674D01*
X10988437Y-15097674D02*
X10997961Y-15088150D01*
X10997961Y-15088150D02*
X11017009Y-15059579D01*
X11017009Y-15059579D02*
X11026533Y-15040531D01*
X11026533Y-15040531D02*
X11036056Y-15011960D01*
X11036056Y-15011960D02*
X11045580Y-14964341D01*
X11045580Y-14964341D02*
X11045580Y-14926246D01*
X11045580Y-14926246D02*
X11036056Y-14878627D01*
X11036056Y-14878627D02*
X11026533Y-14850055D01*
X11026533Y-14850055D02*
X11017009Y-14831008D01*
X11017009Y-14831008D02*
X10997961Y-14802436D01*
X10997961Y-14802436D02*
X10988437Y-14792912D01*
X4041946Y-15225000D02*
G75*
G02*
X3841946Y-15225000I-100000J0D01*
G01*
X3841946Y-15225000D02*
G75*
G02*
X4041946Y-15225000I100000J0D01*
G01*
X4293199Y-15135531D02*
X4302722Y-15126008D01*
X4302722Y-15126008D02*
X4321770Y-15116484D01*
X4321770Y-15116484D02*
X4369389Y-15116484D01*
X4369389Y-15116484D02*
X4388437Y-15126008D01*
X4388437Y-15126008D02*
X4397961Y-15135531D01*
X4397961Y-15135531D02*
X4407484Y-15154579D01*
X4407484Y-15154579D02*
X4407484Y-15173627D01*
X4407484Y-15173627D02*
X4397961Y-15202198D01*
X4397961Y-15202198D02*
X4283675Y-15316484D01*
X4283675Y-15316484D02*
X4407484Y-15316484D01*
X4493199Y-15297436D02*
X4502722Y-15306960D01*
X4502722Y-15306960D02*
X4493199Y-15316484D01*
X4493199Y-15316484D02*
X4483675Y-15306960D01*
X4483675Y-15306960D02*
X4493199Y-15297436D01*
X4493199Y-15297436D02*
X4493199Y-15316484D01*
X4578913Y-15135531D02*
X4588437Y-15126008D01*
X4588437Y-15126008D02*
X4607484Y-15116484D01*
X4607484Y-15116484D02*
X4655103Y-15116484D01*
X4655103Y-15116484D02*
X4674151Y-15126008D01*
X4674151Y-15126008D02*
X4683675Y-15135531D01*
X4683675Y-15135531D02*
X4693199Y-15154579D01*
X4693199Y-15154579D02*
X4693199Y-15173627D01*
X4693199Y-15173627D02*
X4683675Y-15202198D01*
X4683675Y-15202198D02*
X4569389Y-15316484D01*
X4569389Y-15316484D02*
X4693199Y-15316484D01*
X4817008Y-15116484D02*
X4836056Y-15116484D01*
X4836056Y-15116484D02*
X4855103Y-15126008D01*
X4855103Y-15126008D02*
X4864627Y-15135531D01*
X4864627Y-15135531D02*
X4874151Y-15154579D01*
X4874151Y-15154579D02*
X4883675Y-15192674D01*
X4883675Y-15192674D02*
X4883675Y-15240293D01*
X4883675Y-15240293D02*
X4874151Y-15278388D01*
X4874151Y-15278388D02*
X4864627Y-15297436D01*
X4864627Y-15297436D02*
X4855103Y-15306960D01*
X4855103Y-15306960D02*
X4836056Y-15316484D01*
X4836056Y-15316484D02*
X4817008Y-15316484D01*
X4817008Y-15316484D02*
X4797961Y-15306960D01*
X4797961Y-15306960D02*
X4788437Y-15297436D01*
X4788437Y-15297436D02*
X4778913Y-15278388D01*
X4778913Y-15278388D02*
X4769389Y-15240293D01*
X4769389Y-15240293D02*
X4769389Y-15192674D01*
X4769389Y-15192674D02*
X4778913Y-15154579D01*
X4778913Y-15154579D02*
X4788437Y-15135531D01*
X4788437Y-15135531D02*
X4797961Y-15126008D01*
X4797961Y-15126008D02*
X4817008Y-15116484D01*
X5007484Y-15116484D02*
X5026532Y-15116484D01*
X5026532Y-15116484D02*
X5045580Y-15126008D01*
X5045580Y-15126008D02*
X5055103Y-15135531D01*
X5055103Y-15135531D02*
X5064627Y-15154579D01*
X5064627Y-15154579D02*
X5074151Y-15192674D01*
X5074151Y-15192674D02*
X5074151Y-15240293D01*
X5074151Y-15240293D02*
X5064627Y-15278388D01*
X5064627Y-15278388D02*
X5055103Y-15297436D01*
X5055103Y-15297436D02*
X5045580Y-15306960D01*
X5045580Y-15306960D02*
X5026532Y-15316484D01*
X5026532Y-15316484D02*
X5007484Y-15316484D01*
X5007484Y-15316484D02*
X4988437Y-15306960D01*
X4988437Y-15306960D02*
X4978913Y-15297436D01*
X4978913Y-15297436D02*
X4969389Y-15278388D01*
X4969389Y-15278388D02*
X4959865Y-15240293D01*
X4959865Y-15240293D02*
X4959865Y-15192674D01*
X4959865Y-15192674D02*
X4969389Y-15154579D01*
X4969389Y-15154579D02*
X4978913Y-15135531D01*
X4978913Y-15135531D02*
X4988437Y-15126008D01*
X4988437Y-15126008D02*
X5007484Y-15116484D01*
X5159865Y-15316484D02*
X5159865Y-15183150D01*
X5159865Y-15202198D02*
X5169389Y-15192674D01*
X5169389Y-15192674D02*
X5188437Y-15183150D01*
X5188437Y-15183150D02*
X5217008Y-15183150D01*
X5217008Y-15183150D02*
X5236056Y-15192674D01*
X5236056Y-15192674D02*
X5245580Y-15211722D01*
X5245580Y-15211722D02*
X5245580Y-15316484D01*
X5245580Y-15211722D02*
X5255103Y-15192674D01*
X5255103Y-15192674D02*
X5274151Y-15183150D01*
X5274151Y-15183150D02*
X5302722Y-15183150D01*
X5302722Y-15183150D02*
X5321770Y-15192674D01*
X5321770Y-15192674D02*
X5331294Y-15211722D01*
X5331294Y-15211722D02*
X5331294Y-15316484D01*
X5426532Y-15316484D02*
X5426532Y-15183150D01*
X5426532Y-15202198D02*
X5436056Y-15192674D01*
X5436056Y-15192674D02*
X5455103Y-15183150D01*
X5455103Y-15183150D02*
X5483675Y-15183150D01*
X5483675Y-15183150D02*
X5502723Y-15192674D01*
X5502723Y-15192674D02*
X5512246Y-15211722D01*
X5512246Y-15211722D02*
X5512246Y-15316484D01*
X5512246Y-15211722D02*
X5521770Y-15192674D01*
X5521770Y-15192674D02*
X5540818Y-15183150D01*
X5540818Y-15183150D02*
X5569389Y-15183150D01*
X5569389Y-15183150D02*
X5588437Y-15192674D01*
X5588437Y-15192674D02*
X5597961Y-15211722D01*
X5597961Y-15211722D02*
X5597961Y-15316484D01*
X5988437Y-15106960D02*
X5817008Y-15364103D01*
X6245580Y-15116484D02*
X6264627Y-15116484D01*
X6264627Y-15116484D02*
X6283675Y-15126008D01*
X6283675Y-15126008D02*
X6293199Y-15135531D01*
X6293199Y-15135531D02*
X6302723Y-15154579D01*
X6302723Y-15154579D02*
X6312246Y-15192674D01*
X6312246Y-15192674D02*
X6312246Y-15240293D01*
X6312246Y-15240293D02*
X6302723Y-15278388D01*
X6302723Y-15278388D02*
X6293199Y-15297436D01*
X6293199Y-15297436D02*
X6283675Y-15306960D01*
X6283675Y-15306960D02*
X6264627Y-15316484D01*
X6264627Y-15316484D02*
X6245580Y-15316484D01*
X6245580Y-15316484D02*
X6226532Y-15306960D01*
X6226532Y-15306960D02*
X6217008Y-15297436D01*
X6217008Y-15297436D02*
X6207484Y-15278388D01*
X6207484Y-15278388D02*
X6197961Y-15240293D01*
X6197961Y-15240293D02*
X6197961Y-15192674D01*
X6197961Y-15192674D02*
X6207484Y-15154579D01*
X6207484Y-15154579D02*
X6217008Y-15135531D01*
X6217008Y-15135531D02*
X6226532Y-15126008D01*
X6226532Y-15126008D02*
X6245580Y-15116484D01*
X6397961Y-15297436D02*
X6407484Y-15306960D01*
X6407484Y-15306960D02*
X6397961Y-15316484D01*
X6397961Y-15316484D02*
X6388437Y-15306960D01*
X6388437Y-15306960D02*
X6397961Y-15297436D01*
X6397961Y-15297436D02*
X6397961Y-15316484D01*
X6531294Y-15116484D02*
X6550342Y-15116484D01*
X6550342Y-15116484D02*
X6569389Y-15126008D01*
X6569389Y-15126008D02*
X6578913Y-15135531D01*
X6578913Y-15135531D02*
X6588437Y-15154579D01*
X6588437Y-15154579D02*
X6597961Y-15192674D01*
X6597961Y-15192674D02*
X6597961Y-15240293D01*
X6597961Y-15240293D02*
X6588437Y-15278388D01*
X6588437Y-15278388D02*
X6578913Y-15297436D01*
X6578913Y-15297436D02*
X6569389Y-15306960D01*
X6569389Y-15306960D02*
X6550342Y-15316484D01*
X6550342Y-15316484D02*
X6531294Y-15316484D01*
X6531294Y-15316484D02*
X6512246Y-15306960D01*
X6512246Y-15306960D02*
X6502723Y-15297436D01*
X6502723Y-15297436D02*
X6493199Y-15278388D01*
X6493199Y-15278388D02*
X6483675Y-15240293D01*
X6483675Y-15240293D02*
X6483675Y-15192674D01*
X6483675Y-15192674D02*
X6493199Y-15154579D01*
X6493199Y-15154579D02*
X6502723Y-15135531D01*
X6502723Y-15135531D02*
X6512246Y-15126008D01*
X6512246Y-15126008D02*
X6531294Y-15116484D01*
X6712246Y-15202198D02*
X6693199Y-15192674D01*
X6693199Y-15192674D02*
X6683675Y-15183150D01*
X6683675Y-15183150D02*
X6674151Y-15164103D01*
X6674151Y-15164103D02*
X6674151Y-15154579D01*
X6674151Y-15154579D02*
X6683675Y-15135531D01*
X6683675Y-15135531D02*
X6693199Y-15126008D01*
X6693199Y-15126008D02*
X6712246Y-15116484D01*
X6712246Y-15116484D02*
X6750342Y-15116484D01*
X6750342Y-15116484D02*
X6769389Y-15126008D01*
X6769389Y-15126008D02*
X6778913Y-15135531D01*
X6778913Y-15135531D02*
X6788437Y-15154579D01*
X6788437Y-15154579D02*
X6788437Y-15164103D01*
X6788437Y-15164103D02*
X6778913Y-15183150D01*
X6778913Y-15183150D02*
X6769389Y-15192674D01*
X6769389Y-15192674D02*
X6750342Y-15202198D01*
X6750342Y-15202198D02*
X6712246Y-15202198D01*
X6712246Y-15202198D02*
X6693199Y-15211722D01*
X6693199Y-15211722D02*
X6683675Y-15221246D01*
X6683675Y-15221246D02*
X6674151Y-15240293D01*
X6674151Y-15240293D02*
X6674151Y-15278388D01*
X6674151Y-15278388D02*
X6683675Y-15297436D01*
X6683675Y-15297436D02*
X6693199Y-15306960D01*
X6693199Y-15306960D02*
X6712246Y-15316484D01*
X6712246Y-15316484D02*
X6750342Y-15316484D01*
X6750342Y-15316484D02*
X6769389Y-15306960D01*
X6769389Y-15306960D02*
X6778913Y-15297436D01*
X6778913Y-15297436D02*
X6788437Y-15278388D01*
X6788437Y-15278388D02*
X6788437Y-15240293D01*
X6788437Y-15240293D02*
X6778913Y-15221246D01*
X6778913Y-15221246D02*
X6769389Y-15211722D01*
X6769389Y-15211722D02*
X6750342Y-15202198D01*
X6959865Y-15116484D02*
X6921770Y-15116484D01*
X6921770Y-15116484D02*
X6902723Y-15126008D01*
X6902723Y-15126008D02*
X6893199Y-15135531D01*
X6893199Y-15135531D02*
X6874151Y-15164103D01*
X6874151Y-15164103D02*
X6864627Y-15202198D01*
X6864627Y-15202198D02*
X6864627Y-15278388D01*
X6864627Y-15278388D02*
X6874151Y-15297436D01*
X6874151Y-15297436D02*
X6883675Y-15306960D01*
X6883675Y-15306960D02*
X6902723Y-15316484D01*
X6902723Y-15316484D02*
X6940818Y-15316484D01*
X6940818Y-15316484D02*
X6959865Y-15306960D01*
X6959865Y-15306960D02*
X6969389Y-15297436D01*
X6969389Y-15297436D02*
X6978913Y-15278388D01*
X6978913Y-15278388D02*
X6978913Y-15230769D01*
X6978913Y-15230769D02*
X6969389Y-15211722D01*
X6969389Y-15211722D02*
X6959865Y-15202198D01*
X6959865Y-15202198D02*
X6940818Y-15192674D01*
X6940818Y-15192674D02*
X6902723Y-15192674D01*
X6902723Y-15192674D02*
X6883675Y-15202198D01*
X6883675Y-15202198D02*
X6874151Y-15211722D01*
X6874151Y-15211722D02*
X6864627Y-15230769D01*
X7150342Y-15116484D02*
X7112246Y-15116484D01*
X7112246Y-15116484D02*
X7093199Y-15126008D01*
X7093199Y-15126008D02*
X7083675Y-15135531D01*
X7083675Y-15135531D02*
X7064627Y-15164103D01*
X7064627Y-15164103D02*
X7055104Y-15202198D01*
X7055104Y-15202198D02*
X7055104Y-15278388D01*
X7055104Y-15278388D02*
X7064627Y-15297436D01*
X7064627Y-15297436D02*
X7074151Y-15306960D01*
X7074151Y-15306960D02*
X7093199Y-15316484D01*
X7093199Y-15316484D02*
X7131294Y-15316484D01*
X7131294Y-15316484D02*
X7150342Y-15306960D01*
X7150342Y-15306960D02*
X7159865Y-15297436D01*
X7159865Y-15297436D02*
X7169389Y-15278388D01*
X7169389Y-15278388D02*
X7169389Y-15230769D01*
X7169389Y-15230769D02*
X7159865Y-15211722D01*
X7159865Y-15211722D02*
X7150342Y-15202198D01*
X7150342Y-15202198D02*
X7131294Y-15192674D01*
X7131294Y-15192674D02*
X7093199Y-15192674D01*
X7093199Y-15192674D02*
X7074151Y-15202198D01*
X7074151Y-15202198D02*
X7064627Y-15211722D01*
X7064627Y-15211722D02*
X7055104Y-15230769D01*
X7245580Y-15116484D02*
X7245580Y-15154579D01*
X7321770Y-15116484D02*
X7321770Y-15154579D01*
X7617008Y-15392674D02*
X7607485Y-15383150D01*
X7607485Y-15383150D02*
X7588437Y-15354579D01*
X7588437Y-15354579D02*
X7578913Y-15335531D01*
X7578913Y-15335531D02*
X7569389Y-15306960D01*
X7569389Y-15306960D02*
X7559866Y-15259341D01*
X7559866Y-15259341D02*
X7559866Y-15221246D01*
X7559866Y-15221246D02*
X7569389Y-15173627D01*
X7569389Y-15173627D02*
X7578913Y-15145055D01*
X7578913Y-15145055D02*
X7588437Y-15126008D01*
X7588437Y-15126008D02*
X7607485Y-15097436D01*
X7607485Y-15097436D02*
X7617008Y-15087912D01*
X7778913Y-15183150D02*
X7778913Y-15316484D01*
X7731294Y-15106960D02*
X7683675Y-15249817D01*
X7683675Y-15249817D02*
X7807485Y-15249817D01*
X8036056Y-15316484D02*
X8036056Y-15116484D01*
X8121770Y-15316484D02*
X8121770Y-15211722D01*
X8121770Y-15211722D02*
X8112247Y-15192674D01*
X8112247Y-15192674D02*
X8093199Y-15183150D01*
X8093199Y-15183150D02*
X8064627Y-15183150D01*
X8064627Y-15183150D02*
X8045580Y-15192674D01*
X8045580Y-15192674D02*
X8036056Y-15202198D01*
X8245580Y-15316484D02*
X8226532Y-15306960D01*
X8226532Y-15306960D02*
X8217008Y-15297436D01*
X8217008Y-15297436D02*
X8207485Y-15278388D01*
X8207485Y-15278388D02*
X8207485Y-15221246D01*
X8207485Y-15221246D02*
X8217008Y-15202198D01*
X8217008Y-15202198D02*
X8226532Y-15192674D01*
X8226532Y-15192674D02*
X8245580Y-15183150D01*
X8245580Y-15183150D02*
X8274151Y-15183150D01*
X8274151Y-15183150D02*
X8293199Y-15192674D01*
X8293199Y-15192674D02*
X8302723Y-15202198D01*
X8302723Y-15202198D02*
X8312247Y-15221246D01*
X8312247Y-15221246D02*
X8312247Y-15278388D01*
X8312247Y-15278388D02*
X8302723Y-15297436D01*
X8302723Y-15297436D02*
X8293199Y-15306960D01*
X8293199Y-15306960D02*
X8274151Y-15316484D01*
X8274151Y-15316484D02*
X8245580Y-15316484D01*
X8426532Y-15316484D02*
X8407485Y-15306960D01*
X8407485Y-15306960D02*
X8397961Y-15287912D01*
X8397961Y-15287912D02*
X8397961Y-15116484D01*
X8578913Y-15306960D02*
X8559866Y-15316484D01*
X8559866Y-15316484D02*
X8521770Y-15316484D01*
X8521770Y-15316484D02*
X8502723Y-15306960D01*
X8502723Y-15306960D02*
X8493199Y-15287912D01*
X8493199Y-15287912D02*
X8493199Y-15211722D01*
X8493199Y-15211722D02*
X8502723Y-15192674D01*
X8502723Y-15192674D02*
X8521770Y-15183150D01*
X8521770Y-15183150D02*
X8559866Y-15183150D01*
X8559866Y-15183150D02*
X8578913Y-15192674D01*
X8578913Y-15192674D02*
X8588437Y-15211722D01*
X8588437Y-15211722D02*
X8588437Y-15230769D01*
X8588437Y-15230769D02*
X8493199Y-15249817D01*
X8664628Y-15306960D02*
X8683675Y-15316484D01*
X8683675Y-15316484D02*
X8721770Y-15316484D01*
X8721770Y-15316484D02*
X8740818Y-15306960D01*
X8740818Y-15306960D02*
X8750342Y-15287912D01*
X8750342Y-15287912D02*
X8750342Y-15278388D01*
X8750342Y-15278388D02*
X8740818Y-15259341D01*
X8740818Y-15259341D02*
X8721770Y-15249817D01*
X8721770Y-15249817D02*
X8693199Y-15249817D01*
X8693199Y-15249817D02*
X8674151Y-15240293D01*
X8674151Y-15240293D02*
X8664628Y-15221246D01*
X8664628Y-15221246D02*
X8664628Y-15211722D01*
X8664628Y-15211722D02*
X8674151Y-15192674D01*
X8674151Y-15192674D02*
X8693199Y-15183150D01*
X8693199Y-15183150D02*
X8721770Y-15183150D01*
X8721770Y-15183150D02*
X8740818Y-15192674D01*
X8817009Y-15392674D02*
X8826532Y-15383150D01*
X8826532Y-15383150D02*
X8845580Y-15354579D01*
X8845580Y-15354579D02*
X8855104Y-15335531D01*
X8855104Y-15335531D02*
X8864628Y-15306960D01*
X8864628Y-15306960D02*
X8874151Y-15259341D01*
X8874151Y-15259341D02*
X8874151Y-15221246D01*
X8874151Y-15221246D02*
X8864628Y-15173627D01*
X8864628Y-15173627D02*
X8855104Y-15145055D01*
X8855104Y-15145055D02*
X8845580Y-15126008D01*
X8845580Y-15126008D02*
X8826532Y-15097436D01*
X8826532Y-15097436D02*
X8817009Y-15087912D01*
X9178913Y-15392674D02*
X9169390Y-15383150D01*
X9169390Y-15383150D02*
X9150342Y-15354579D01*
X9150342Y-15354579D02*
X9140818Y-15335531D01*
X9140818Y-15335531D02*
X9131294Y-15306960D01*
X9131294Y-15306960D02*
X9121771Y-15259341D01*
X9121771Y-15259341D02*
X9121771Y-15221246D01*
X9121771Y-15221246D02*
X9131294Y-15173627D01*
X9131294Y-15173627D02*
X9140818Y-15145055D01*
X9140818Y-15145055D02*
X9150342Y-15126008D01*
X9150342Y-15126008D02*
X9169390Y-15097436D01*
X9169390Y-15097436D02*
X9178913Y-15087912D01*
X9255104Y-15183150D02*
X9255104Y-15316484D01*
X9255104Y-15202198D02*
X9264628Y-15192674D01*
X9264628Y-15192674D02*
X9283675Y-15183150D01*
X9283675Y-15183150D02*
X9312247Y-15183150D01*
X9312247Y-15183150D02*
X9331294Y-15192674D01*
X9331294Y-15192674D02*
X9340818Y-15211722D01*
X9340818Y-15211722D02*
X9340818Y-15316484D01*
X9464628Y-15316484D02*
X9445580Y-15306960D01*
X9445580Y-15306960D02*
X9436056Y-15297436D01*
X9436056Y-15297436D02*
X9426532Y-15278388D01*
X9426532Y-15278388D02*
X9426532Y-15221246D01*
X9426532Y-15221246D02*
X9436056Y-15202198D01*
X9436056Y-15202198D02*
X9445580Y-15192674D01*
X9445580Y-15192674D02*
X9464628Y-15183150D01*
X9464628Y-15183150D02*
X9493199Y-15183150D01*
X9493199Y-15183150D02*
X9512247Y-15192674D01*
X9512247Y-15192674D02*
X9521771Y-15202198D01*
X9521771Y-15202198D02*
X9531294Y-15221246D01*
X9531294Y-15221246D02*
X9531294Y-15278388D01*
X9531294Y-15278388D02*
X9521771Y-15297436D01*
X9521771Y-15297436D02*
X9512247Y-15306960D01*
X9512247Y-15306960D02*
X9493199Y-15316484D01*
X9493199Y-15316484D02*
X9464628Y-15316484D01*
X9588437Y-15183150D02*
X9664628Y-15183150D01*
X9617009Y-15116484D02*
X9617009Y-15287912D01*
X9617009Y-15287912D02*
X9626532Y-15306960D01*
X9626532Y-15306960D02*
X9645580Y-15316484D01*
X9645580Y-15316484D02*
X9664628Y-15316484D01*
X9883675Y-15183150D02*
X9883675Y-15383150D01*
X9883675Y-15192674D02*
X9902723Y-15183150D01*
X9902723Y-15183150D02*
X9940818Y-15183150D01*
X9940818Y-15183150D02*
X9959866Y-15192674D01*
X9959866Y-15192674D02*
X9969390Y-15202198D01*
X9969390Y-15202198D02*
X9978913Y-15221246D01*
X9978913Y-15221246D02*
X9978913Y-15278388D01*
X9978913Y-15278388D02*
X9969390Y-15297436D01*
X9969390Y-15297436D02*
X9959866Y-15306960D01*
X9959866Y-15306960D02*
X9940818Y-15316484D01*
X9940818Y-15316484D02*
X9902723Y-15316484D01*
X9902723Y-15316484D02*
X9883675Y-15306960D01*
X10093199Y-15316484D02*
X10074152Y-15306960D01*
X10074152Y-15306960D02*
X10064628Y-15287912D01*
X10064628Y-15287912D02*
X10064628Y-15116484D01*
X10255104Y-15316484D02*
X10255104Y-15211722D01*
X10255104Y-15211722D02*
X10245580Y-15192674D01*
X10245580Y-15192674D02*
X10226533Y-15183150D01*
X10226533Y-15183150D02*
X10188437Y-15183150D01*
X10188437Y-15183150D02*
X10169390Y-15192674D01*
X10255104Y-15306960D02*
X10236056Y-15316484D01*
X10236056Y-15316484D02*
X10188437Y-15316484D01*
X10188437Y-15316484D02*
X10169390Y-15306960D01*
X10169390Y-15306960D02*
X10159866Y-15287912D01*
X10159866Y-15287912D02*
X10159866Y-15268865D01*
X10159866Y-15268865D02*
X10169390Y-15249817D01*
X10169390Y-15249817D02*
X10188437Y-15240293D01*
X10188437Y-15240293D02*
X10236056Y-15240293D01*
X10236056Y-15240293D02*
X10255104Y-15230769D01*
X10321771Y-15183150D02*
X10397961Y-15183150D01*
X10350342Y-15116484D02*
X10350342Y-15287912D01*
X10350342Y-15287912D02*
X10359866Y-15306960D01*
X10359866Y-15306960D02*
X10378913Y-15316484D01*
X10378913Y-15316484D02*
X10397961Y-15316484D01*
X10540818Y-15306960D02*
X10521771Y-15316484D01*
X10521771Y-15316484D02*
X10483675Y-15316484D01*
X10483675Y-15316484D02*
X10464628Y-15306960D01*
X10464628Y-15306960D02*
X10455104Y-15287912D01*
X10455104Y-15287912D02*
X10455104Y-15211722D01*
X10455104Y-15211722D02*
X10464628Y-15192674D01*
X10464628Y-15192674D02*
X10483675Y-15183150D01*
X10483675Y-15183150D02*
X10521771Y-15183150D01*
X10521771Y-15183150D02*
X10540818Y-15192674D01*
X10540818Y-15192674D02*
X10550342Y-15211722D01*
X10550342Y-15211722D02*
X10550342Y-15230769D01*
X10550342Y-15230769D02*
X10455104Y-15249817D01*
X10721771Y-15316484D02*
X10721771Y-15116484D01*
X10721771Y-15306960D02*
X10702723Y-15316484D01*
X10702723Y-15316484D02*
X10664628Y-15316484D01*
X10664628Y-15316484D02*
X10645580Y-15306960D01*
X10645580Y-15306960D02*
X10636056Y-15297436D01*
X10636056Y-15297436D02*
X10626533Y-15278388D01*
X10626533Y-15278388D02*
X10626533Y-15221246D01*
X10626533Y-15221246D02*
X10636056Y-15202198D01*
X10636056Y-15202198D02*
X10645580Y-15192674D01*
X10645580Y-15192674D02*
X10664628Y-15183150D01*
X10664628Y-15183150D02*
X10702723Y-15183150D01*
X10702723Y-15183150D02*
X10721771Y-15192674D01*
X10797961Y-15392674D02*
X10807485Y-15383150D01*
X10807485Y-15383150D02*
X10826533Y-15354579D01*
X10826533Y-15354579D02*
X10836056Y-15335531D01*
X10836056Y-15335531D02*
X10845580Y-15306960D01*
X10845580Y-15306960D02*
X10855104Y-15259341D01*
X10855104Y-15259341D02*
X10855104Y-15221246D01*
X10855104Y-15221246D02*
X10845580Y-15173627D01*
X10845580Y-15173627D02*
X10836056Y-15145055D01*
X10836056Y-15145055D02*
X10826533Y-15126008D01*
X10826533Y-15126008D02*
X10807485Y-15097436D01*
X10807485Y-15097436D02*
X10797961Y-15087912D01*
X3941946Y-15445000D02*
X3941946Y-15645000D01*
X3841946Y-15545000D02*
X4041946Y-15545000D01*
X4283675Y-15436484D02*
X4407484Y-15436484D01*
X4407484Y-15436484D02*
X4340818Y-15512674D01*
X4340818Y-15512674D02*
X4369389Y-15512674D01*
X4369389Y-15512674D02*
X4388437Y-15522198D01*
X4388437Y-15522198D02*
X4397961Y-15531722D01*
X4397961Y-15531722D02*
X4407484Y-15550769D01*
X4407484Y-15550769D02*
X4407484Y-15598388D01*
X4407484Y-15598388D02*
X4397961Y-15617436D01*
X4397961Y-15617436D02*
X4388437Y-15626960D01*
X4388437Y-15626960D02*
X4369389Y-15636484D01*
X4369389Y-15636484D02*
X4312246Y-15636484D01*
X4312246Y-15636484D02*
X4293199Y-15626960D01*
X4293199Y-15626960D02*
X4283675Y-15617436D01*
X4493199Y-15617436D02*
X4502722Y-15626960D01*
X4502722Y-15626960D02*
X4493199Y-15636484D01*
X4493199Y-15636484D02*
X4483675Y-15626960D01*
X4483675Y-15626960D02*
X4493199Y-15617436D01*
X4493199Y-15617436D02*
X4493199Y-15636484D01*
X4626532Y-15436484D02*
X4645580Y-15436484D01*
X4645580Y-15436484D02*
X4664627Y-15446008D01*
X4664627Y-15446008D02*
X4674151Y-15455531D01*
X4674151Y-15455531D02*
X4683675Y-15474579D01*
X4683675Y-15474579D02*
X4693199Y-15512674D01*
X4693199Y-15512674D02*
X4693199Y-15560293D01*
X4693199Y-15560293D02*
X4683675Y-15598388D01*
X4683675Y-15598388D02*
X4674151Y-15617436D01*
X4674151Y-15617436D02*
X4664627Y-15626960D01*
X4664627Y-15626960D02*
X4645580Y-15636484D01*
X4645580Y-15636484D02*
X4626532Y-15636484D01*
X4626532Y-15636484D02*
X4607484Y-15626960D01*
X4607484Y-15626960D02*
X4597961Y-15617436D01*
X4597961Y-15617436D02*
X4588437Y-15598388D01*
X4588437Y-15598388D02*
X4578913Y-15560293D01*
X4578913Y-15560293D02*
X4578913Y-15512674D01*
X4578913Y-15512674D02*
X4588437Y-15474579D01*
X4588437Y-15474579D02*
X4597961Y-15455531D01*
X4597961Y-15455531D02*
X4607484Y-15446008D01*
X4607484Y-15446008D02*
X4626532Y-15436484D01*
X4864627Y-15503150D02*
X4864627Y-15636484D01*
X4817008Y-15426960D02*
X4769389Y-15569817D01*
X4769389Y-15569817D02*
X4893199Y-15569817D01*
X4997961Y-15522198D02*
X4978913Y-15512674D01*
X4978913Y-15512674D02*
X4969389Y-15503150D01*
X4969389Y-15503150D02*
X4959865Y-15484103D01*
X4959865Y-15484103D02*
X4959865Y-15474579D01*
X4959865Y-15474579D02*
X4969389Y-15455531D01*
X4969389Y-15455531D02*
X4978913Y-15446008D01*
X4978913Y-15446008D02*
X4997961Y-15436484D01*
X4997961Y-15436484D02*
X5036056Y-15436484D01*
X5036056Y-15436484D02*
X5055103Y-15446008D01*
X5055103Y-15446008D02*
X5064627Y-15455531D01*
X5064627Y-15455531D02*
X5074151Y-15474579D01*
X5074151Y-15474579D02*
X5074151Y-15484103D01*
X5074151Y-15484103D02*
X5064627Y-15503150D01*
X5064627Y-15503150D02*
X5055103Y-15512674D01*
X5055103Y-15512674D02*
X5036056Y-15522198D01*
X5036056Y-15522198D02*
X4997961Y-15522198D01*
X4997961Y-15522198D02*
X4978913Y-15531722D01*
X4978913Y-15531722D02*
X4969389Y-15541246D01*
X4969389Y-15541246D02*
X4959865Y-15560293D01*
X4959865Y-15560293D02*
X4959865Y-15598388D01*
X4959865Y-15598388D02*
X4969389Y-15617436D01*
X4969389Y-15617436D02*
X4978913Y-15626960D01*
X4978913Y-15626960D02*
X4997961Y-15636484D01*
X4997961Y-15636484D02*
X5036056Y-15636484D01*
X5036056Y-15636484D02*
X5055103Y-15626960D01*
X5055103Y-15626960D02*
X5064627Y-15617436D01*
X5064627Y-15617436D02*
X5074151Y-15598388D01*
X5074151Y-15598388D02*
X5074151Y-15560293D01*
X5074151Y-15560293D02*
X5064627Y-15541246D01*
X5064627Y-15541246D02*
X5055103Y-15531722D01*
X5055103Y-15531722D02*
X5036056Y-15522198D01*
X5159865Y-15636484D02*
X5159865Y-15503150D01*
X5159865Y-15522198D02*
X5169389Y-15512674D01*
X5169389Y-15512674D02*
X5188437Y-15503150D01*
X5188437Y-15503150D02*
X5217008Y-15503150D01*
X5217008Y-15503150D02*
X5236056Y-15512674D01*
X5236056Y-15512674D02*
X5245580Y-15531722D01*
X5245580Y-15531722D02*
X5245580Y-15636484D01*
X5245580Y-15531722D02*
X5255103Y-15512674D01*
X5255103Y-15512674D02*
X5274151Y-15503150D01*
X5274151Y-15503150D02*
X5302722Y-15503150D01*
X5302722Y-15503150D02*
X5321770Y-15512674D01*
X5321770Y-15512674D02*
X5331294Y-15531722D01*
X5331294Y-15531722D02*
X5331294Y-15636484D01*
X5426532Y-15636484D02*
X5426532Y-15503150D01*
X5426532Y-15522198D02*
X5436056Y-15512674D01*
X5436056Y-15512674D02*
X5455103Y-15503150D01*
X5455103Y-15503150D02*
X5483675Y-15503150D01*
X5483675Y-15503150D02*
X5502723Y-15512674D01*
X5502723Y-15512674D02*
X5512246Y-15531722D01*
X5512246Y-15531722D02*
X5512246Y-15636484D01*
X5512246Y-15531722D02*
X5521770Y-15512674D01*
X5521770Y-15512674D02*
X5540818Y-15503150D01*
X5540818Y-15503150D02*
X5569389Y-15503150D01*
X5569389Y-15503150D02*
X5588437Y-15512674D01*
X5588437Y-15512674D02*
X5597961Y-15531722D01*
X5597961Y-15531722D02*
X5597961Y-15636484D01*
X5988437Y-15426960D02*
X5817008Y-15684103D01*
X6245580Y-15436484D02*
X6264627Y-15436484D01*
X6264627Y-15436484D02*
X6283675Y-15446008D01*
X6283675Y-15446008D02*
X6293199Y-15455531D01*
X6293199Y-15455531D02*
X6302723Y-15474579D01*
X6302723Y-15474579D02*
X6312246Y-15512674D01*
X6312246Y-15512674D02*
X6312246Y-15560293D01*
X6312246Y-15560293D02*
X6302723Y-15598388D01*
X6302723Y-15598388D02*
X6293199Y-15617436D01*
X6293199Y-15617436D02*
X6283675Y-15626960D01*
X6283675Y-15626960D02*
X6264627Y-15636484D01*
X6264627Y-15636484D02*
X6245580Y-15636484D01*
X6245580Y-15636484D02*
X6226532Y-15626960D01*
X6226532Y-15626960D02*
X6217008Y-15617436D01*
X6217008Y-15617436D02*
X6207484Y-15598388D01*
X6207484Y-15598388D02*
X6197961Y-15560293D01*
X6197961Y-15560293D02*
X6197961Y-15512674D01*
X6197961Y-15512674D02*
X6207484Y-15474579D01*
X6207484Y-15474579D02*
X6217008Y-15455531D01*
X6217008Y-15455531D02*
X6226532Y-15446008D01*
X6226532Y-15446008D02*
X6245580Y-15436484D01*
X6397961Y-15617436D02*
X6407484Y-15626960D01*
X6407484Y-15626960D02*
X6397961Y-15636484D01*
X6397961Y-15636484D02*
X6388437Y-15626960D01*
X6388437Y-15626960D02*
X6397961Y-15617436D01*
X6397961Y-15617436D02*
X6397961Y-15636484D01*
X6597961Y-15636484D02*
X6483675Y-15636484D01*
X6540818Y-15636484D02*
X6540818Y-15436484D01*
X6540818Y-15436484D02*
X6521770Y-15465055D01*
X6521770Y-15465055D02*
X6502723Y-15484103D01*
X6502723Y-15484103D02*
X6483675Y-15493627D01*
X6674151Y-15455531D02*
X6683675Y-15446008D01*
X6683675Y-15446008D02*
X6702723Y-15436484D01*
X6702723Y-15436484D02*
X6750342Y-15436484D01*
X6750342Y-15436484D02*
X6769389Y-15446008D01*
X6769389Y-15446008D02*
X6778913Y-15455531D01*
X6778913Y-15455531D02*
X6788437Y-15474579D01*
X6788437Y-15474579D02*
X6788437Y-15493627D01*
X6788437Y-15493627D02*
X6778913Y-15522198D01*
X6778913Y-15522198D02*
X6664627Y-15636484D01*
X6664627Y-15636484D02*
X6788437Y-15636484D01*
X6912246Y-15436484D02*
X6931294Y-15436484D01*
X6931294Y-15436484D02*
X6950342Y-15446008D01*
X6950342Y-15446008D02*
X6959865Y-15455531D01*
X6959865Y-15455531D02*
X6969389Y-15474579D01*
X6969389Y-15474579D02*
X6978913Y-15512674D01*
X6978913Y-15512674D02*
X6978913Y-15560293D01*
X6978913Y-15560293D02*
X6969389Y-15598388D01*
X6969389Y-15598388D02*
X6959865Y-15617436D01*
X6959865Y-15617436D02*
X6950342Y-15626960D01*
X6950342Y-15626960D02*
X6931294Y-15636484D01*
X6931294Y-15636484D02*
X6912246Y-15636484D01*
X6912246Y-15636484D02*
X6893199Y-15626960D01*
X6893199Y-15626960D02*
X6883675Y-15617436D01*
X6883675Y-15617436D02*
X6874151Y-15598388D01*
X6874151Y-15598388D02*
X6864627Y-15560293D01*
X6864627Y-15560293D02*
X6864627Y-15512674D01*
X6864627Y-15512674D02*
X6874151Y-15474579D01*
X6874151Y-15474579D02*
X6883675Y-15455531D01*
X6883675Y-15455531D02*
X6893199Y-15446008D01*
X6893199Y-15446008D02*
X6912246Y-15436484D01*
X7102723Y-15436484D02*
X7121770Y-15436484D01*
X7121770Y-15436484D02*
X7140818Y-15446008D01*
X7140818Y-15446008D02*
X7150342Y-15455531D01*
X7150342Y-15455531D02*
X7159865Y-15474579D01*
X7159865Y-15474579D02*
X7169389Y-15512674D01*
X7169389Y-15512674D02*
X7169389Y-15560293D01*
X7169389Y-15560293D02*
X7159865Y-15598388D01*
X7159865Y-15598388D02*
X7150342Y-15617436D01*
X7150342Y-15617436D02*
X7140818Y-15626960D01*
X7140818Y-15626960D02*
X7121770Y-15636484D01*
X7121770Y-15636484D02*
X7102723Y-15636484D01*
X7102723Y-15636484D02*
X7083675Y-15626960D01*
X7083675Y-15626960D02*
X7074151Y-15617436D01*
X7074151Y-15617436D02*
X7064627Y-15598388D01*
X7064627Y-15598388D02*
X7055104Y-15560293D01*
X7055104Y-15560293D02*
X7055104Y-15512674D01*
X7055104Y-15512674D02*
X7064627Y-15474579D01*
X7064627Y-15474579D02*
X7074151Y-15455531D01*
X7074151Y-15455531D02*
X7083675Y-15446008D01*
X7083675Y-15446008D02*
X7102723Y-15436484D01*
X7245580Y-15436484D02*
X7245580Y-15474579D01*
X7321770Y-15436484D02*
X7321770Y-15474579D01*
X7617008Y-15712674D02*
X7607485Y-15703150D01*
X7607485Y-15703150D02*
X7588437Y-15674579D01*
X7588437Y-15674579D02*
X7578913Y-15655531D01*
X7578913Y-15655531D02*
X7569389Y-15626960D01*
X7569389Y-15626960D02*
X7559866Y-15579341D01*
X7559866Y-15579341D02*
X7559866Y-15541246D01*
X7559866Y-15541246D02*
X7569389Y-15493627D01*
X7569389Y-15493627D02*
X7578913Y-15465055D01*
X7578913Y-15465055D02*
X7588437Y-15446008D01*
X7588437Y-15446008D02*
X7607485Y-15417436D01*
X7607485Y-15417436D02*
X7617008Y-15407912D01*
X7778913Y-15436484D02*
X7740818Y-15436484D01*
X7740818Y-15436484D02*
X7721770Y-15446008D01*
X7721770Y-15446008D02*
X7712246Y-15455531D01*
X7712246Y-15455531D02*
X7693199Y-15484103D01*
X7693199Y-15484103D02*
X7683675Y-15522198D01*
X7683675Y-15522198D02*
X7683675Y-15598388D01*
X7683675Y-15598388D02*
X7693199Y-15617436D01*
X7693199Y-15617436D02*
X7702723Y-15626960D01*
X7702723Y-15626960D02*
X7721770Y-15636484D01*
X7721770Y-15636484D02*
X7759866Y-15636484D01*
X7759866Y-15636484D02*
X7778913Y-15626960D01*
X7778913Y-15626960D02*
X7788437Y-15617436D01*
X7788437Y-15617436D02*
X7797961Y-15598388D01*
X7797961Y-15598388D02*
X7797961Y-15550769D01*
X7797961Y-15550769D02*
X7788437Y-15531722D01*
X7788437Y-15531722D02*
X7778913Y-15522198D01*
X7778913Y-15522198D02*
X7759866Y-15512674D01*
X7759866Y-15512674D02*
X7721770Y-15512674D01*
X7721770Y-15512674D02*
X7702723Y-15522198D01*
X7702723Y-15522198D02*
X7693199Y-15531722D01*
X7693199Y-15531722D02*
X7683675Y-15550769D01*
X8036056Y-15636484D02*
X8036056Y-15436484D01*
X8121770Y-15636484D02*
X8121770Y-15531722D01*
X8121770Y-15531722D02*
X8112247Y-15512674D01*
X8112247Y-15512674D02*
X8093199Y-15503150D01*
X8093199Y-15503150D02*
X8064627Y-15503150D01*
X8064627Y-15503150D02*
X8045580Y-15512674D01*
X8045580Y-15512674D02*
X8036056Y-15522198D01*
X8245580Y-15636484D02*
X8226532Y-15626960D01*
X8226532Y-15626960D02*
X8217008Y-15617436D01*
X8217008Y-15617436D02*
X8207485Y-15598388D01*
X8207485Y-15598388D02*
X8207485Y-15541246D01*
X8207485Y-15541246D02*
X8217008Y-15522198D01*
X8217008Y-15522198D02*
X8226532Y-15512674D01*
X8226532Y-15512674D02*
X8245580Y-15503150D01*
X8245580Y-15503150D02*
X8274151Y-15503150D01*
X8274151Y-15503150D02*
X8293199Y-15512674D01*
X8293199Y-15512674D02*
X8302723Y-15522198D01*
X8302723Y-15522198D02*
X8312247Y-15541246D01*
X8312247Y-15541246D02*
X8312247Y-15598388D01*
X8312247Y-15598388D02*
X8302723Y-15617436D01*
X8302723Y-15617436D02*
X8293199Y-15626960D01*
X8293199Y-15626960D02*
X8274151Y-15636484D01*
X8274151Y-15636484D02*
X8245580Y-15636484D01*
X8426532Y-15636484D02*
X8407485Y-15626960D01*
X8407485Y-15626960D02*
X8397961Y-15607912D01*
X8397961Y-15607912D02*
X8397961Y-15436484D01*
X8578913Y-15626960D02*
X8559866Y-15636484D01*
X8559866Y-15636484D02*
X8521770Y-15636484D01*
X8521770Y-15636484D02*
X8502723Y-15626960D01*
X8502723Y-15626960D02*
X8493199Y-15607912D01*
X8493199Y-15607912D02*
X8493199Y-15531722D01*
X8493199Y-15531722D02*
X8502723Y-15512674D01*
X8502723Y-15512674D02*
X8521770Y-15503150D01*
X8521770Y-15503150D02*
X8559866Y-15503150D01*
X8559866Y-15503150D02*
X8578913Y-15512674D01*
X8578913Y-15512674D02*
X8588437Y-15531722D01*
X8588437Y-15531722D02*
X8588437Y-15550769D01*
X8588437Y-15550769D02*
X8493199Y-15569817D01*
X8664628Y-15626960D02*
X8683675Y-15636484D01*
X8683675Y-15636484D02*
X8721770Y-15636484D01*
X8721770Y-15636484D02*
X8740818Y-15626960D01*
X8740818Y-15626960D02*
X8750342Y-15607912D01*
X8750342Y-15607912D02*
X8750342Y-15598388D01*
X8750342Y-15598388D02*
X8740818Y-15579341D01*
X8740818Y-15579341D02*
X8721770Y-15569817D01*
X8721770Y-15569817D02*
X8693199Y-15569817D01*
X8693199Y-15569817D02*
X8674151Y-15560293D01*
X8674151Y-15560293D02*
X8664628Y-15541246D01*
X8664628Y-15541246D02*
X8664628Y-15531722D01*
X8664628Y-15531722D02*
X8674151Y-15512674D01*
X8674151Y-15512674D02*
X8693199Y-15503150D01*
X8693199Y-15503150D02*
X8721770Y-15503150D01*
X8721770Y-15503150D02*
X8740818Y-15512674D01*
X8817009Y-15712674D02*
X8826532Y-15703150D01*
X8826532Y-15703150D02*
X8845580Y-15674579D01*
X8845580Y-15674579D02*
X8855104Y-15655531D01*
X8855104Y-15655531D02*
X8864628Y-15626960D01*
X8864628Y-15626960D02*
X8874151Y-15579341D01*
X8874151Y-15579341D02*
X8874151Y-15541246D01*
X8874151Y-15541246D02*
X8864628Y-15493627D01*
X8864628Y-15493627D02*
X8855104Y-15465055D01*
X8855104Y-15465055D02*
X8845580Y-15446008D01*
X8845580Y-15446008D02*
X8826532Y-15417436D01*
X8826532Y-15417436D02*
X8817009Y-15407912D01*
X9178913Y-15712674D02*
X9169390Y-15703150D01*
X9169390Y-15703150D02*
X9150342Y-15674579D01*
X9150342Y-15674579D02*
X9140818Y-15655531D01*
X9140818Y-15655531D02*
X9131294Y-15626960D01*
X9131294Y-15626960D02*
X9121771Y-15579341D01*
X9121771Y-15579341D02*
X9121771Y-15541246D01*
X9121771Y-15541246D02*
X9131294Y-15493627D01*
X9131294Y-15493627D02*
X9140818Y-15465055D01*
X9140818Y-15465055D02*
X9150342Y-15446008D01*
X9150342Y-15446008D02*
X9169390Y-15417436D01*
X9169390Y-15417436D02*
X9178913Y-15407912D01*
X9255104Y-15503150D02*
X9255104Y-15636484D01*
X9255104Y-15522198D02*
X9264628Y-15512674D01*
X9264628Y-15512674D02*
X9283675Y-15503150D01*
X9283675Y-15503150D02*
X9312247Y-15503150D01*
X9312247Y-15503150D02*
X9331294Y-15512674D01*
X9331294Y-15512674D02*
X9340818Y-15531722D01*
X9340818Y-15531722D02*
X9340818Y-15636484D01*
X9464628Y-15636484D02*
X9445580Y-15626960D01*
X9445580Y-15626960D02*
X9436056Y-15617436D01*
X9436056Y-15617436D02*
X9426532Y-15598388D01*
X9426532Y-15598388D02*
X9426532Y-15541246D01*
X9426532Y-15541246D02*
X9436056Y-15522198D01*
X9436056Y-15522198D02*
X9445580Y-15512674D01*
X9445580Y-15512674D02*
X9464628Y-15503150D01*
X9464628Y-15503150D02*
X9493199Y-15503150D01*
X9493199Y-15503150D02*
X9512247Y-15512674D01*
X9512247Y-15512674D02*
X9521771Y-15522198D01*
X9521771Y-15522198D02*
X9531294Y-15541246D01*
X9531294Y-15541246D02*
X9531294Y-15598388D01*
X9531294Y-15598388D02*
X9521771Y-15617436D01*
X9521771Y-15617436D02*
X9512247Y-15626960D01*
X9512247Y-15626960D02*
X9493199Y-15636484D01*
X9493199Y-15636484D02*
X9464628Y-15636484D01*
X9588437Y-15503150D02*
X9664628Y-15503150D01*
X9617009Y-15436484D02*
X9617009Y-15607912D01*
X9617009Y-15607912D02*
X9626532Y-15626960D01*
X9626532Y-15626960D02*
X9645580Y-15636484D01*
X9645580Y-15636484D02*
X9664628Y-15636484D01*
X9883675Y-15503150D02*
X9883675Y-15703150D01*
X9883675Y-15512674D02*
X9902723Y-15503150D01*
X9902723Y-15503150D02*
X9940818Y-15503150D01*
X9940818Y-15503150D02*
X9959866Y-15512674D01*
X9959866Y-15512674D02*
X9969390Y-15522198D01*
X9969390Y-15522198D02*
X9978913Y-15541246D01*
X9978913Y-15541246D02*
X9978913Y-15598388D01*
X9978913Y-15598388D02*
X9969390Y-15617436D01*
X9969390Y-15617436D02*
X9959866Y-15626960D01*
X9959866Y-15626960D02*
X9940818Y-15636484D01*
X9940818Y-15636484D02*
X9902723Y-15636484D01*
X9902723Y-15636484D02*
X9883675Y-15626960D01*
X10093199Y-15636484D02*
X10074152Y-15626960D01*
X10074152Y-15626960D02*
X10064628Y-15607912D01*
X10064628Y-15607912D02*
X10064628Y-15436484D01*
X10255104Y-15636484D02*
X10255104Y-15531722D01*
X10255104Y-15531722D02*
X10245580Y-15512674D01*
X10245580Y-15512674D02*
X10226533Y-15503150D01*
X10226533Y-15503150D02*
X10188437Y-15503150D01*
X10188437Y-15503150D02*
X10169390Y-15512674D01*
X10255104Y-15626960D02*
X10236056Y-15636484D01*
X10236056Y-15636484D02*
X10188437Y-15636484D01*
X10188437Y-15636484D02*
X10169390Y-15626960D01*
X10169390Y-15626960D02*
X10159866Y-15607912D01*
X10159866Y-15607912D02*
X10159866Y-15588865D01*
X10159866Y-15588865D02*
X10169390Y-15569817D01*
X10169390Y-15569817D02*
X10188437Y-15560293D01*
X10188437Y-15560293D02*
X10236056Y-15560293D01*
X10236056Y-15560293D02*
X10255104Y-15550769D01*
X10321771Y-15503150D02*
X10397961Y-15503150D01*
X10350342Y-15436484D02*
X10350342Y-15607912D01*
X10350342Y-15607912D02*
X10359866Y-15626960D01*
X10359866Y-15626960D02*
X10378913Y-15636484D01*
X10378913Y-15636484D02*
X10397961Y-15636484D01*
X10540818Y-15626960D02*
X10521771Y-15636484D01*
X10521771Y-15636484D02*
X10483675Y-15636484D01*
X10483675Y-15636484D02*
X10464628Y-15626960D01*
X10464628Y-15626960D02*
X10455104Y-15607912D01*
X10455104Y-15607912D02*
X10455104Y-15531722D01*
X10455104Y-15531722D02*
X10464628Y-15512674D01*
X10464628Y-15512674D02*
X10483675Y-15503150D01*
X10483675Y-15503150D02*
X10521771Y-15503150D01*
X10521771Y-15503150D02*
X10540818Y-15512674D01*
X10540818Y-15512674D02*
X10550342Y-15531722D01*
X10550342Y-15531722D02*
X10550342Y-15550769D01*
X10550342Y-15550769D02*
X10455104Y-15569817D01*
X10721771Y-15636484D02*
X10721771Y-15436484D01*
X10721771Y-15626960D02*
X10702723Y-15636484D01*
X10702723Y-15636484D02*
X10664628Y-15636484D01*
X10664628Y-15636484D02*
X10645580Y-15626960D01*
X10645580Y-15626960D02*
X10636056Y-15617436D01*
X10636056Y-15617436D02*
X10626533Y-15598388D01*
X10626533Y-15598388D02*
X10626533Y-15541246D01*
X10626533Y-15541246D02*
X10636056Y-15522198D01*
X10636056Y-15522198D02*
X10645580Y-15512674D01*
X10645580Y-15512674D02*
X10664628Y-15503150D01*
X10664628Y-15503150D02*
X10702723Y-15503150D01*
X10702723Y-15503150D02*
X10721771Y-15512674D01*
X10797961Y-15712674D02*
X10807485Y-15703150D01*
X10807485Y-15703150D02*
X10826533Y-15674579D01*
X10826533Y-15674579D02*
X10836056Y-15655531D01*
X10836056Y-15655531D02*
X10845580Y-15626960D01*
X10845580Y-15626960D02*
X10855104Y-15579341D01*
X10855104Y-15579341D02*
X10855104Y-15541246D01*
X10855104Y-15541246D02*
X10845580Y-15493627D01*
X10845580Y-15493627D02*
X10836056Y-15465055D01*
X10836056Y-15465055D02*
X10826533Y-15446008D01*
X10826533Y-15446008D02*
X10807485Y-15417436D01*
X10807485Y-15417436D02*
X10797961Y-15407912D01*
X4012657Y-15935711D02*
X4012657Y-15794289D01*
X3871234Y-15794289D01*
X3871234Y-15935711D01*
X4012657Y-15935711D01*
X4283675Y-15756484D02*
X4407484Y-15756484D01*
X4407484Y-15756484D02*
X4340818Y-15832674D01*
X4340818Y-15832674D02*
X4369389Y-15832674D01*
X4369389Y-15832674D02*
X4388437Y-15842198D01*
X4388437Y-15842198D02*
X4397961Y-15851722D01*
X4397961Y-15851722D02*
X4407484Y-15870769D01*
X4407484Y-15870769D02*
X4407484Y-15918388D01*
X4407484Y-15918388D02*
X4397961Y-15937436D01*
X4397961Y-15937436D02*
X4388437Y-15946960D01*
X4388437Y-15946960D02*
X4369389Y-15956484D01*
X4369389Y-15956484D02*
X4312246Y-15956484D01*
X4312246Y-15956484D02*
X4293199Y-15946960D01*
X4293199Y-15946960D02*
X4283675Y-15937436D01*
X4493199Y-15937436D02*
X4502722Y-15946960D01*
X4502722Y-15946960D02*
X4493199Y-15956484D01*
X4493199Y-15956484D02*
X4483675Y-15946960D01*
X4483675Y-15946960D02*
X4493199Y-15937436D01*
X4493199Y-15937436D02*
X4493199Y-15956484D01*
X4597961Y-15956484D02*
X4636056Y-15956484D01*
X4636056Y-15956484D02*
X4655103Y-15946960D01*
X4655103Y-15946960D02*
X4664627Y-15937436D01*
X4664627Y-15937436D02*
X4683675Y-15908865D01*
X4683675Y-15908865D02*
X4693199Y-15870769D01*
X4693199Y-15870769D02*
X4693199Y-15794579D01*
X4693199Y-15794579D02*
X4683675Y-15775531D01*
X4683675Y-15775531D02*
X4674151Y-15766008D01*
X4674151Y-15766008D02*
X4655103Y-15756484D01*
X4655103Y-15756484D02*
X4617008Y-15756484D01*
X4617008Y-15756484D02*
X4597961Y-15766008D01*
X4597961Y-15766008D02*
X4588437Y-15775531D01*
X4588437Y-15775531D02*
X4578913Y-15794579D01*
X4578913Y-15794579D02*
X4578913Y-15842198D01*
X4578913Y-15842198D02*
X4588437Y-15861246D01*
X4588437Y-15861246D02*
X4597961Y-15870769D01*
X4597961Y-15870769D02*
X4617008Y-15880293D01*
X4617008Y-15880293D02*
X4655103Y-15880293D01*
X4655103Y-15880293D02*
X4674151Y-15870769D01*
X4674151Y-15870769D02*
X4683675Y-15861246D01*
X4683675Y-15861246D02*
X4693199Y-15842198D01*
X4807484Y-15842198D02*
X4788437Y-15832674D01*
X4788437Y-15832674D02*
X4778913Y-15823150D01*
X4778913Y-15823150D02*
X4769389Y-15804103D01*
X4769389Y-15804103D02*
X4769389Y-15794579D01*
X4769389Y-15794579D02*
X4778913Y-15775531D01*
X4778913Y-15775531D02*
X4788437Y-15766008D01*
X4788437Y-15766008D02*
X4807484Y-15756484D01*
X4807484Y-15756484D02*
X4845580Y-15756484D01*
X4845580Y-15756484D02*
X4864627Y-15766008D01*
X4864627Y-15766008D02*
X4874151Y-15775531D01*
X4874151Y-15775531D02*
X4883675Y-15794579D01*
X4883675Y-15794579D02*
X4883675Y-15804103D01*
X4883675Y-15804103D02*
X4874151Y-15823150D01*
X4874151Y-15823150D02*
X4864627Y-15832674D01*
X4864627Y-15832674D02*
X4845580Y-15842198D01*
X4845580Y-15842198D02*
X4807484Y-15842198D01*
X4807484Y-15842198D02*
X4788437Y-15851722D01*
X4788437Y-15851722D02*
X4778913Y-15861246D01*
X4778913Y-15861246D02*
X4769389Y-15880293D01*
X4769389Y-15880293D02*
X4769389Y-15918388D01*
X4769389Y-15918388D02*
X4778913Y-15937436D01*
X4778913Y-15937436D02*
X4788437Y-15946960D01*
X4788437Y-15946960D02*
X4807484Y-15956484D01*
X4807484Y-15956484D02*
X4845580Y-15956484D01*
X4845580Y-15956484D02*
X4864627Y-15946960D01*
X4864627Y-15946960D02*
X4874151Y-15937436D01*
X4874151Y-15937436D02*
X4883675Y-15918388D01*
X4883675Y-15918388D02*
X4883675Y-15880293D01*
X4883675Y-15880293D02*
X4874151Y-15861246D01*
X4874151Y-15861246D02*
X4864627Y-15851722D01*
X4864627Y-15851722D02*
X4845580Y-15842198D01*
X4997961Y-15842198D02*
X4978913Y-15832674D01*
X4978913Y-15832674D02*
X4969389Y-15823150D01*
X4969389Y-15823150D02*
X4959865Y-15804103D01*
X4959865Y-15804103D02*
X4959865Y-15794579D01*
X4959865Y-15794579D02*
X4969389Y-15775531D01*
X4969389Y-15775531D02*
X4978913Y-15766008D01*
X4978913Y-15766008D02*
X4997961Y-15756484D01*
X4997961Y-15756484D02*
X5036056Y-15756484D01*
X5036056Y-15756484D02*
X5055103Y-15766008D01*
X5055103Y-15766008D02*
X5064627Y-15775531D01*
X5064627Y-15775531D02*
X5074151Y-15794579D01*
X5074151Y-15794579D02*
X5074151Y-15804103D01*
X5074151Y-15804103D02*
X5064627Y-15823150D01*
X5064627Y-15823150D02*
X5055103Y-15832674D01*
X5055103Y-15832674D02*
X5036056Y-15842198D01*
X5036056Y-15842198D02*
X4997961Y-15842198D01*
X4997961Y-15842198D02*
X4978913Y-15851722D01*
X4978913Y-15851722D02*
X4969389Y-15861246D01*
X4969389Y-15861246D02*
X4959865Y-15880293D01*
X4959865Y-15880293D02*
X4959865Y-15918388D01*
X4959865Y-15918388D02*
X4969389Y-15937436D01*
X4969389Y-15937436D02*
X4978913Y-15946960D01*
X4978913Y-15946960D02*
X4997961Y-15956484D01*
X4997961Y-15956484D02*
X5036056Y-15956484D01*
X5036056Y-15956484D02*
X5055103Y-15946960D01*
X5055103Y-15946960D02*
X5064627Y-15937436D01*
X5064627Y-15937436D02*
X5074151Y-15918388D01*
X5074151Y-15918388D02*
X5074151Y-15880293D01*
X5074151Y-15880293D02*
X5064627Y-15861246D01*
X5064627Y-15861246D02*
X5055103Y-15851722D01*
X5055103Y-15851722D02*
X5036056Y-15842198D01*
X5159865Y-15956484D02*
X5159865Y-15823150D01*
X5159865Y-15842198D02*
X5169389Y-15832674D01*
X5169389Y-15832674D02*
X5188437Y-15823150D01*
X5188437Y-15823150D02*
X5217008Y-15823150D01*
X5217008Y-15823150D02*
X5236056Y-15832674D01*
X5236056Y-15832674D02*
X5245580Y-15851722D01*
X5245580Y-15851722D02*
X5245580Y-15956484D01*
X5245580Y-15851722D02*
X5255103Y-15832674D01*
X5255103Y-15832674D02*
X5274151Y-15823150D01*
X5274151Y-15823150D02*
X5302722Y-15823150D01*
X5302722Y-15823150D02*
X5321770Y-15832674D01*
X5321770Y-15832674D02*
X5331294Y-15851722D01*
X5331294Y-15851722D02*
X5331294Y-15956484D01*
X5426532Y-15956484D02*
X5426532Y-15823150D01*
X5426532Y-15842198D02*
X5436056Y-15832674D01*
X5436056Y-15832674D02*
X5455103Y-15823150D01*
X5455103Y-15823150D02*
X5483675Y-15823150D01*
X5483675Y-15823150D02*
X5502723Y-15832674D01*
X5502723Y-15832674D02*
X5512246Y-15851722D01*
X5512246Y-15851722D02*
X5512246Y-15956484D01*
X5512246Y-15851722D02*
X5521770Y-15832674D01*
X5521770Y-15832674D02*
X5540818Y-15823150D01*
X5540818Y-15823150D02*
X5569389Y-15823150D01*
X5569389Y-15823150D02*
X5588437Y-15832674D01*
X5588437Y-15832674D02*
X5597961Y-15851722D01*
X5597961Y-15851722D02*
X5597961Y-15956484D01*
X5988437Y-15746960D02*
X5817008Y-16004103D01*
X6245580Y-15756484D02*
X6264627Y-15756484D01*
X6264627Y-15756484D02*
X6283675Y-15766008D01*
X6283675Y-15766008D02*
X6293199Y-15775531D01*
X6293199Y-15775531D02*
X6302723Y-15794579D01*
X6302723Y-15794579D02*
X6312246Y-15832674D01*
X6312246Y-15832674D02*
X6312246Y-15880293D01*
X6312246Y-15880293D02*
X6302723Y-15918388D01*
X6302723Y-15918388D02*
X6293199Y-15937436D01*
X6293199Y-15937436D02*
X6283675Y-15946960D01*
X6283675Y-15946960D02*
X6264627Y-15956484D01*
X6264627Y-15956484D02*
X6245580Y-15956484D01*
X6245580Y-15956484D02*
X6226532Y-15946960D01*
X6226532Y-15946960D02*
X6217008Y-15937436D01*
X6217008Y-15937436D02*
X6207484Y-15918388D01*
X6207484Y-15918388D02*
X6197961Y-15880293D01*
X6197961Y-15880293D02*
X6197961Y-15832674D01*
X6197961Y-15832674D02*
X6207484Y-15794579D01*
X6207484Y-15794579D02*
X6217008Y-15775531D01*
X6217008Y-15775531D02*
X6226532Y-15766008D01*
X6226532Y-15766008D02*
X6245580Y-15756484D01*
X6397961Y-15937436D02*
X6407484Y-15946960D01*
X6407484Y-15946960D02*
X6397961Y-15956484D01*
X6397961Y-15956484D02*
X6388437Y-15946960D01*
X6388437Y-15946960D02*
X6397961Y-15937436D01*
X6397961Y-15937436D02*
X6397961Y-15956484D01*
X6597961Y-15956484D02*
X6483675Y-15956484D01*
X6540818Y-15956484D02*
X6540818Y-15756484D01*
X6540818Y-15756484D02*
X6521770Y-15785055D01*
X6521770Y-15785055D02*
X6502723Y-15804103D01*
X6502723Y-15804103D02*
X6483675Y-15813627D01*
X6778913Y-15756484D02*
X6683675Y-15756484D01*
X6683675Y-15756484D02*
X6674151Y-15851722D01*
X6674151Y-15851722D02*
X6683675Y-15842198D01*
X6683675Y-15842198D02*
X6702723Y-15832674D01*
X6702723Y-15832674D02*
X6750342Y-15832674D01*
X6750342Y-15832674D02*
X6769389Y-15842198D01*
X6769389Y-15842198D02*
X6778913Y-15851722D01*
X6778913Y-15851722D02*
X6788437Y-15870769D01*
X6788437Y-15870769D02*
X6788437Y-15918388D01*
X6788437Y-15918388D02*
X6778913Y-15937436D01*
X6778913Y-15937436D02*
X6769389Y-15946960D01*
X6769389Y-15946960D02*
X6750342Y-15956484D01*
X6750342Y-15956484D02*
X6702723Y-15956484D01*
X6702723Y-15956484D02*
X6683675Y-15946960D01*
X6683675Y-15946960D02*
X6674151Y-15937436D01*
X6855104Y-15756484D02*
X6988437Y-15756484D01*
X6988437Y-15756484D02*
X6902723Y-15956484D01*
X7102723Y-15756484D02*
X7121770Y-15756484D01*
X7121770Y-15756484D02*
X7140818Y-15766008D01*
X7140818Y-15766008D02*
X7150342Y-15775531D01*
X7150342Y-15775531D02*
X7159865Y-15794579D01*
X7159865Y-15794579D02*
X7169389Y-15832674D01*
X7169389Y-15832674D02*
X7169389Y-15880293D01*
X7169389Y-15880293D02*
X7159865Y-15918388D01*
X7159865Y-15918388D02*
X7150342Y-15937436D01*
X7150342Y-15937436D02*
X7140818Y-15946960D01*
X7140818Y-15946960D02*
X7121770Y-15956484D01*
X7121770Y-15956484D02*
X7102723Y-15956484D01*
X7102723Y-15956484D02*
X7083675Y-15946960D01*
X7083675Y-15946960D02*
X7074151Y-15937436D01*
X7074151Y-15937436D02*
X7064627Y-15918388D01*
X7064627Y-15918388D02*
X7055104Y-15880293D01*
X7055104Y-15880293D02*
X7055104Y-15832674D01*
X7055104Y-15832674D02*
X7064627Y-15794579D01*
X7064627Y-15794579D02*
X7074151Y-15775531D01*
X7074151Y-15775531D02*
X7083675Y-15766008D01*
X7083675Y-15766008D02*
X7102723Y-15756484D01*
X7245580Y-15756484D02*
X7245580Y-15794579D01*
X7321770Y-15756484D02*
X7321770Y-15794579D01*
X7617008Y-16032674D02*
X7607485Y-16023150D01*
X7607485Y-16023150D02*
X7588437Y-15994579D01*
X7588437Y-15994579D02*
X7578913Y-15975531D01*
X7578913Y-15975531D02*
X7569389Y-15946960D01*
X7569389Y-15946960D02*
X7559866Y-15899341D01*
X7559866Y-15899341D02*
X7559866Y-15861246D01*
X7559866Y-15861246D02*
X7569389Y-15813627D01*
X7569389Y-15813627D02*
X7578913Y-15785055D01*
X7578913Y-15785055D02*
X7588437Y-15766008D01*
X7588437Y-15766008D02*
X7607485Y-15737436D01*
X7607485Y-15737436D02*
X7617008Y-15727912D01*
X7778913Y-15756484D02*
X7740818Y-15756484D01*
X7740818Y-15756484D02*
X7721770Y-15766008D01*
X7721770Y-15766008D02*
X7712246Y-15775531D01*
X7712246Y-15775531D02*
X7693199Y-15804103D01*
X7693199Y-15804103D02*
X7683675Y-15842198D01*
X7683675Y-15842198D02*
X7683675Y-15918388D01*
X7683675Y-15918388D02*
X7693199Y-15937436D01*
X7693199Y-15937436D02*
X7702723Y-15946960D01*
X7702723Y-15946960D02*
X7721770Y-15956484D01*
X7721770Y-15956484D02*
X7759866Y-15956484D01*
X7759866Y-15956484D02*
X7778913Y-15946960D01*
X7778913Y-15946960D02*
X7788437Y-15937436D01*
X7788437Y-15937436D02*
X7797961Y-15918388D01*
X7797961Y-15918388D02*
X7797961Y-15870769D01*
X7797961Y-15870769D02*
X7788437Y-15851722D01*
X7788437Y-15851722D02*
X7778913Y-15842198D01*
X7778913Y-15842198D02*
X7759866Y-15832674D01*
X7759866Y-15832674D02*
X7721770Y-15832674D01*
X7721770Y-15832674D02*
X7702723Y-15842198D01*
X7702723Y-15842198D02*
X7693199Y-15851722D01*
X7693199Y-15851722D02*
X7683675Y-15870769D01*
X8036056Y-15956484D02*
X8036056Y-15756484D01*
X8121770Y-15956484D02*
X8121770Y-15851722D01*
X8121770Y-15851722D02*
X8112247Y-15832674D01*
X8112247Y-15832674D02*
X8093199Y-15823150D01*
X8093199Y-15823150D02*
X8064627Y-15823150D01*
X8064627Y-15823150D02*
X8045580Y-15832674D01*
X8045580Y-15832674D02*
X8036056Y-15842198D01*
X8245580Y-15956484D02*
X8226532Y-15946960D01*
X8226532Y-15946960D02*
X8217008Y-15937436D01*
X8217008Y-15937436D02*
X8207485Y-15918388D01*
X8207485Y-15918388D02*
X8207485Y-15861246D01*
X8207485Y-15861246D02*
X8217008Y-15842198D01*
X8217008Y-15842198D02*
X8226532Y-15832674D01*
X8226532Y-15832674D02*
X8245580Y-15823150D01*
X8245580Y-15823150D02*
X8274151Y-15823150D01*
X8274151Y-15823150D02*
X8293199Y-15832674D01*
X8293199Y-15832674D02*
X8302723Y-15842198D01*
X8302723Y-15842198D02*
X8312247Y-15861246D01*
X8312247Y-15861246D02*
X8312247Y-15918388D01*
X8312247Y-15918388D02*
X8302723Y-15937436D01*
X8302723Y-15937436D02*
X8293199Y-15946960D01*
X8293199Y-15946960D02*
X8274151Y-15956484D01*
X8274151Y-15956484D02*
X8245580Y-15956484D01*
X8426532Y-15956484D02*
X8407485Y-15946960D01*
X8407485Y-15946960D02*
X8397961Y-15927912D01*
X8397961Y-15927912D02*
X8397961Y-15756484D01*
X8578913Y-15946960D02*
X8559866Y-15956484D01*
X8559866Y-15956484D02*
X8521770Y-15956484D01*
X8521770Y-15956484D02*
X8502723Y-15946960D01*
X8502723Y-15946960D02*
X8493199Y-15927912D01*
X8493199Y-15927912D02*
X8493199Y-15851722D01*
X8493199Y-15851722D02*
X8502723Y-15832674D01*
X8502723Y-15832674D02*
X8521770Y-15823150D01*
X8521770Y-15823150D02*
X8559866Y-15823150D01*
X8559866Y-15823150D02*
X8578913Y-15832674D01*
X8578913Y-15832674D02*
X8588437Y-15851722D01*
X8588437Y-15851722D02*
X8588437Y-15870769D01*
X8588437Y-15870769D02*
X8493199Y-15889817D01*
X8664628Y-15946960D02*
X8683675Y-15956484D01*
X8683675Y-15956484D02*
X8721770Y-15956484D01*
X8721770Y-15956484D02*
X8740818Y-15946960D01*
X8740818Y-15946960D02*
X8750342Y-15927912D01*
X8750342Y-15927912D02*
X8750342Y-15918388D01*
X8750342Y-15918388D02*
X8740818Y-15899341D01*
X8740818Y-15899341D02*
X8721770Y-15889817D01*
X8721770Y-15889817D02*
X8693199Y-15889817D01*
X8693199Y-15889817D02*
X8674151Y-15880293D01*
X8674151Y-15880293D02*
X8664628Y-15861246D01*
X8664628Y-15861246D02*
X8664628Y-15851722D01*
X8664628Y-15851722D02*
X8674151Y-15832674D01*
X8674151Y-15832674D02*
X8693199Y-15823150D01*
X8693199Y-15823150D02*
X8721770Y-15823150D01*
X8721770Y-15823150D02*
X8740818Y-15832674D01*
X8817009Y-16032674D02*
X8826532Y-16023150D01*
X8826532Y-16023150D02*
X8845580Y-15994579D01*
X8845580Y-15994579D02*
X8855104Y-15975531D01*
X8855104Y-15975531D02*
X8864628Y-15946960D01*
X8864628Y-15946960D02*
X8874151Y-15899341D01*
X8874151Y-15899341D02*
X8874151Y-15861246D01*
X8874151Y-15861246D02*
X8864628Y-15813627D01*
X8864628Y-15813627D02*
X8855104Y-15785055D01*
X8855104Y-15785055D02*
X8845580Y-15766008D01*
X8845580Y-15766008D02*
X8826532Y-15737436D01*
X8826532Y-15737436D02*
X8817009Y-15727912D01*
X9178913Y-16032674D02*
X9169390Y-16023150D01*
X9169390Y-16023150D02*
X9150342Y-15994579D01*
X9150342Y-15994579D02*
X9140818Y-15975531D01*
X9140818Y-15975531D02*
X9131294Y-15946960D01*
X9131294Y-15946960D02*
X9121771Y-15899341D01*
X9121771Y-15899341D02*
X9121771Y-15861246D01*
X9121771Y-15861246D02*
X9131294Y-15813627D01*
X9131294Y-15813627D02*
X9140818Y-15785055D01*
X9140818Y-15785055D02*
X9150342Y-15766008D01*
X9150342Y-15766008D02*
X9169390Y-15737436D01*
X9169390Y-15737436D02*
X9178913Y-15727912D01*
X9255104Y-15823150D02*
X9255104Y-15956484D01*
X9255104Y-15842198D02*
X9264628Y-15832674D01*
X9264628Y-15832674D02*
X9283675Y-15823150D01*
X9283675Y-15823150D02*
X9312247Y-15823150D01*
X9312247Y-15823150D02*
X9331294Y-15832674D01*
X9331294Y-15832674D02*
X9340818Y-15851722D01*
X9340818Y-15851722D02*
X9340818Y-15956484D01*
X9464628Y-15956484D02*
X9445580Y-15946960D01*
X9445580Y-15946960D02*
X9436056Y-15937436D01*
X9436056Y-15937436D02*
X9426532Y-15918388D01*
X9426532Y-15918388D02*
X9426532Y-15861246D01*
X9426532Y-15861246D02*
X9436056Y-15842198D01*
X9436056Y-15842198D02*
X9445580Y-15832674D01*
X9445580Y-15832674D02*
X9464628Y-15823150D01*
X9464628Y-15823150D02*
X9493199Y-15823150D01*
X9493199Y-15823150D02*
X9512247Y-15832674D01*
X9512247Y-15832674D02*
X9521771Y-15842198D01*
X9521771Y-15842198D02*
X9531294Y-15861246D01*
X9531294Y-15861246D02*
X9531294Y-15918388D01*
X9531294Y-15918388D02*
X9521771Y-15937436D01*
X9521771Y-15937436D02*
X9512247Y-15946960D01*
X9512247Y-15946960D02*
X9493199Y-15956484D01*
X9493199Y-15956484D02*
X9464628Y-15956484D01*
X9588437Y-15823150D02*
X9664628Y-15823150D01*
X9617009Y-15756484D02*
X9617009Y-15927912D01*
X9617009Y-15927912D02*
X9626532Y-15946960D01*
X9626532Y-15946960D02*
X9645580Y-15956484D01*
X9645580Y-15956484D02*
X9664628Y-15956484D01*
X9883675Y-15823150D02*
X9883675Y-16023150D01*
X9883675Y-15832674D02*
X9902723Y-15823150D01*
X9902723Y-15823150D02*
X9940818Y-15823150D01*
X9940818Y-15823150D02*
X9959866Y-15832674D01*
X9959866Y-15832674D02*
X9969390Y-15842198D01*
X9969390Y-15842198D02*
X9978913Y-15861246D01*
X9978913Y-15861246D02*
X9978913Y-15918388D01*
X9978913Y-15918388D02*
X9969390Y-15937436D01*
X9969390Y-15937436D02*
X9959866Y-15946960D01*
X9959866Y-15946960D02*
X9940818Y-15956484D01*
X9940818Y-15956484D02*
X9902723Y-15956484D01*
X9902723Y-15956484D02*
X9883675Y-15946960D01*
X10093199Y-15956484D02*
X10074152Y-15946960D01*
X10074152Y-15946960D02*
X10064628Y-15927912D01*
X10064628Y-15927912D02*
X10064628Y-15756484D01*
X10255104Y-15956484D02*
X10255104Y-15851722D01*
X10255104Y-15851722D02*
X10245580Y-15832674D01*
X10245580Y-15832674D02*
X10226533Y-15823150D01*
X10226533Y-15823150D02*
X10188437Y-15823150D01*
X10188437Y-15823150D02*
X10169390Y-15832674D01*
X10255104Y-15946960D02*
X10236056Y-15956484D01*
X10236056Y-15956484D02*
X10188437Y-15956484D01*
X10188437Y-15956484D02*
X10169390Y-15946960D01*
X10169390Y-15946960D02*
X10159866Y-15927912D01*
X10159866Y-15927912D02*
X10159866Y-15908865D01*
X10159866Y-15908865D02*
X10169390Y-15889817D01*
X10169390Y-15889817D02*
X10188437Y-15880293D01*
X10188437Y-15880293D02*
X10236056Y-15880293D01*
X10236056Y-15880293D02*
X10255104Y-15870769D01*
X10321771Y-15823150D02*
X10397961Y-15823150D01*
X10350342Y-15756484D02*
X10350342Y-15927912D01*
X10350342Y-15927912D02*
X10359866Y-15946960D01*
X10359866Y-15946960D02*
X10378913Y-15956484D01*
X10378913Y-15956484D02*
X10397961Y-15956484D01*
X10540818Y-15946960D02*
X10521771Y-15956484D01*
X10521771Y-15956484D02*
X10483675Y-15956484D01*
X10483675Y-15956484D02*
X10464628Y-15946960D01*
X10464628Y-15946960D02*
X10455104Y-15927912D01*
X10455104Y-15927912D02*
X10455104Y-15851722D01*
X10455104Y-15851722D02*
X10464628Y-15832674D01*
X10464628Y-15832674D02*
X10483675Y-15823150D01*
X10483675Y-15823150D02*
X10521771Y-15823150D01*
X10521771Y-15823150D02*
X10540818Y-15832674D01*
X10540818Y-15832674D02*
X10550342Y-15851722D01*
X10550342Y-15851722D02*
X10550342Y-15870769D01*
X10550342Y-15870769D02*
X10455104Y-15889817D01*
X10721771Y-15956484D02*
X10721771Y-15756484D01*
X10721771Y-15946960D02*
X10702723Y-15956484D01*
X10702723Y-15956484D02*
X10664628Y-15956484D01*
X10664628Y-15956484D02*
X10645580Y-15946960D01*
X10645580Y-15946960D02*
X10636056Y-15937436D01*
X10636056Y-15937436D02*
X10626533Y-15918388D01*
X10626533Y-15918388D02*
X10626533Y-15861246D01*
X10626533Y-15861246D02*
X10636056Y-15842198D01*
X10636056Y-15842198D02*
X10645580Y-15832674D01*
X10645580Y-15832674D02*
X10664628Y-15823150D01*
X10664628Y-15823150D02*
X10702723Y-15823150D01*
X10702723Y-15823150D02*
X10721771Y-15832674D01*
X10797961Y-16032674D02*
X10807485Y-16023150D01*
X10807485Y-16023150D02*
X10826533Y-15994579D01*
X10826533Y-15994579D02*
X10836056Y-15975531D01*
X10836056Y-15975531D02*
X10845580Y-15946960D01*
X10845580Y-15946960D02*
X10855104Y-15899341D01*
X10855104Y-15899341D02*
X10855104Y-15861246D01*
X10855104Y-15861246D02*
X10845580Y-15813627D01*
X10845580Y-15813627D02*
X10836056Y-15785055D01*
X10836056Y-15785055D02*
X10826533Y-15766008D01*
X10826533Y-15766008D02*
X10807485Y-15737436D01*
X10807485Y-15737436D02*
X10797961Y-15727912D01*
X3941946Y-16285000D02*
X4041946Y-16185000D01*
X3941946Y-16085000D01*
X3841946Y-16185000D01*
X3941946Y-16285000D01*
X4388437Y-16143150D02*
X4388437Y-16276484D01*
X4340818Y-16066960D02*
X4293199Y-16209817D01*
X4293199Y-16209817D02*
X4417008Y-16209817D01*
X4493199Y-16257436D02*
X4502722Y-16266960D01*
X4502722Y-16266960D02*
X4493199Y-16276484D01*
X4493199Y-16276484D02*
X4483675Y-16266960D01*
X4483675Y-16266960D02*
X4493199Y-16257436D01*
X4493199Y-16257436D02*
X4493199Y-16276484D01*
X4626532Y-16076484D02*
X4645580Y-16076484D01*
X4645580Y-16076484D02*
X4664627Y-16086008D01*
X4664627Y-16086008D02*
X4674151Y-16095531D01*
X4674151Y-16095531D02*
X4683675Y-16114579D01*
X4683675Y-16114579D02*
X4693199Y-16152674D01*
X4693199Y-16152674D02*
X4693199Y-16200293D01*
X4693199Y-16200293D02*
X4683675Y-16238388D01*
X4683675Y-16238388D02*
X4674151Y-16257436D01*
X4674151Y-16257436D02*
X4664627Y-16266960D01*
X4664627Y-16266960D02*
X4645580Y-16276484D01*
X4645580Y-16276484D02*
X4626532Y-16276484D01*
X4626532Y-16276484D02*
X4607484Y-16266960D01*
X4607484Y-16266960D02*
X4597961Y-16257436D01*
X4597961Y-16257436D02*
X4588437Y-16238388D01*
X4588437Y-16238388D02*
X4578913Y-16200293D01*
X4578913Y-16200293D02*
X4578913Y-16152674D01*
X4578913Y-16152674D02*
X4588437Y-16114579D01*
X4588437Y-16114579D02*
X4597961Y-16095531D01*
X4597961Y-16095531D02*
X4607484Y-16086008D01*
X4607484Y-16086008D02*
X4626532Y-16076484D01*
X4817008Y-16076484D02*
X4836056Y-16076484D01*
X4836056Y-16076484D02*
X4855103Y-16086008D01*
X4855103Y-16086008D02*
X4864627Y-16095531D01*
X4864627Y-16095531D02*
X4874151Y-16114579D01*
X4874151Y-16114579D02*
X4883675Y-16152674D01*
X4883675Y-16152674D02*
X4883675Y-16200293D01*
X4883675Y-16200293D02*
X4874151Y-16238388D01*
X4874151Y-16238388D02*
X4864627Y-16257436D01*
X4864627Y-16257436D02*
X4855103Y-16266960D01*
X4855103Y-16266960D02*
X4836056Y-16276484D01*
X4836056Y-16276484D02*
X4817008Y-16276484D01*
X4817008Y-16276484D02*
X4797961Y-16266960D01*
X4797961Y-16266960D02*
X4788437Y-16257436D01*
X4788437Y-16257436D02*
X4778913Y-16238388D01*
X4778913Y-16238388D02*
X4769389Y-16200293D01*
X4769389Y-16200293D02*
X4769389Y-16152674D01*
X4769389Y-16152674D02*
X4778913Y-16114579D01*
X4778913Y-16114579D02*
X4788437Y-16095531D01*
X4788437Y-16095531D02*
X4797961Y-16086008D01*
X4797961Y-16086008D02*
X4817008Y-16076484D01*
X5007484Y-16076484D02*
X5026532Y-16076484D01*
X5026532Y-16076484D02*
X5045580Y-16086008D01*
X5045580Y-16086008D02*
X5055103Y-16095531D01*
X5055103Y-16095531D02*
X5064627Y-16114579D01*
X5064627Y-16114579D02*
X5074151Y-16152674D01*
X5074151Y-16152674D02*
X5074151Y-16200293D01*
X5074151Y-16200293D02*
X5064627Y-16238388D01*
X5064627Y-16238388D02*
X5055103Y-16257436D01*
X5055103Y-16257436D02*
X5045580Y-16266960D01*
X5045580Y-16266960D02*
X5026532Y-16276484D01*
X5026532Y-16276484D02*
X5007484Y-16276484D01*
X5007484Y-16276484D02*
X4988437Y-16266960D01*
X4988437Y-16266960D02*
X4978913Y-16257436D01*
X4978913Y-16257436D02*
X4969389Y-16238388D01*
X4969389Y-16238388D02*
X4959865Y-16200293D01*
X4959865Y-16200293D02*
X4959865Y-16152674D01*
X4959865Y-16152674D02*
X4969389Y-16114579D01*
X4969389Y-16114579D02*
X4978913Y-16095531D01*
X4978913Y-16095531D02*
X4988437Y-16086008D01*
X4988437Y-16086008D02*
X5007484Y-16076484D01*
X5159865Y-16276484D02*
X5159865Y-16143150D01*
X5159865Y-16162198D02*
X5169389Y-16152674D01*
X5169389Y-16152674D02*
X5188437Y-16143150D01*
X5188437Y-16143150D02*
X5217008Y-16143150D01*
X5217008Y-16143150D02*
X5236056Y-16152674D01*
X5236056Y-16152674D02*
X5245580Y-16171722D01*
X5245580Y-16171722D02*
X5245580Y-16276484D01*
X5245580Y-16171722D02*
X5255103Y-16152674D01*
X5255103Y-16152674D02*
X5274151Y-16143150D01*
X5274151Y-16143150D02*
X5302722Y-16143150D01*
X5302722Y-16143150D02*
X5321770Y-16152674D01*
X5321770Y-16152674D02*
X5331294Y-16171722D01*
X5331294Y-16171722D02*
X5331294Y-16276484D01*
X5426532Y-16276484D02*
X5426532Y-16143150D01*
X5426532Y-16162198D02*
X5436056Y-16152674D01*
X5436056Y-16152674D02*
X5455103Y-16143150D01*
X5455103Y-16143150D02*
X5483675Y-16143150D01*
X5483675Y-16143150D02*
X5502723Y-16152674D01*
X5502723Y-16152674D02*
X5512246Y-16171722D01*
X5512246Y-16171722D02*
X5512246Y-16276484D01*
X5512246Y-16171722D02*
X5521770Y-16152674D01*
X5521770Y-16152674D02*
X5540818Y-16143150D01*
X5540818Y-16143150D02*
X5569389Y-16143150D01*
X5569389Y-16143150D02*
X5588437Y-16152674D01*
X5588437Y-16152674D02*
X5597961Y-16171722D01*
X5597961Y-16171722D02*
X5597961Y-16276484D01*
X5988437Y-16066960D02*
X5817008Y-16324103D01*
X6245580Y-16076484D02*
X6264627Y-16076484D01*
X6264627Y-16076484D02*
X6283675Y-16086008D01*
X6283675Y-16086008D02*
X6293199Y-16095531D01*
X6293199Y-16095531D02*
X6302723Y-16114579D01*
X6302723Y-16114579D02*
X6312246Y-16152674D01*
X6312246Y-16152674D02*
X6312246Y-16200293D01*
X6312246Y-16200293D02*
X6302723Y-16238388D01*
X6302723Y-16238388D02*
X6293199Y-16257436D01*
X6293199Y-16257436D02*
X6283675Y-16266960D01*
X6283675Y-16266960D02*
X6264627Y-16276484D01*
X6264627Y-16276484D02*
X6245580Y-16276484D01*
X6245580Y-16276484D02*
X6226532Y-16266960D01*
X6226532Y-16266960D02*
X6217008Y-16257436D01*
X6217008Y-16257436D02*
X6207484Y-16238388D01*
X6207484Y-16238388D02*
X6197961Y-16200293D01*
X6197961Y-16200293D02*
X6197961Y-16152674D01*
X6197961Y-16152674D02*
X6207484Y-16114579D01*
X6207484Y-16114579D02*
X6217008Y-16095531D01*
X6217008Y-16095531D02*
X6226532Y-16086008D01*
X6226532Y-16086008D02*
X6245580Y-16076484D01*
X6397961Y-16257436D02*
X6407484Y-16266960D01*
X6407484Y-16266960D02*
X6397961Y-16276484D01*
X6397961Y-16276484D02*
X6388437Y-16266960D01*
X6388437Y-16266960D02*
X6397961Y-16257436D01*
X6397961Y-16257436D02*
X6397961Y-16276484D01*
X6597961Y-16276484D02*
X6483675Y-16276484D01*
X6540818Y-16276484D02*
X6540818Y-16076484D01*
X6540818Y-16076484D02*
X6521770Y-16105055D01*
X6521770Y-16105055D02*
X6502723Y-16124103D01*
X6502723Y-16124103D02*
X6483675Y-16133627D01*
X6778913Y-16076484D02*
X6683675Y-16076484D01*
X6683675Y-16076484D02*
X6674151Y-16171722D01*
X6674151Y-16171722D02*
X6683675Y-16162198D01*
X6683675Y-16162198D02*
X6702723Y-16152674D01*
X6702723Y-16152674D02*
X6750342Y-16152674D01*
X6750342Y-16152674D02*
X6769389Y-16162198D01*
X6769389Y-16162198D02*
X6778913Y-16171722D01*
X6778913Y-16171722D02*
X6788437Y-16190769D01*
X6788437Y-16190769D02*
X6788437Y-16238388D01*
X6788437Y-16238388D02*
X6778913Y-16257436D01*
X6778913Y-16257436D02*
X6769389Y-16266960D01*
X6769389Y-16266960D02*
X6750342Y-16276484D01*
X6750342Y-16276484D02*
X6702723Y-16276484D01*
X6702723Y-16276484D02*
X6683675Y-16266960D01*
X6683675Y-16266960D02*
X6674151Y-16257436D01*
X6855104Y-16076484D02*
X6988437Y-16076484D01*
X6988437Y-16076484D02*
X6902723Y-16276484D01*
X7159865Y-16076484D02*
X7064627Y-16076484D01*
X7064627Y-16076484D02*
X7055104Y-16171722D01*
X7055104Y-16171722D02*
X7064627Y-16162198D01*
X7064627Y-16162198D02*
X7083675Y-16152674D01*
X7083675Y-16152674D02*
X7131294Y-16152674D01*
X7131294Y-16152674D02*
X7150342Y-16162198D01*
X7150342Y-16162198D02*
X7159865Y-16171722D01*
X7159865Y-16171722D02*
X7169389Y-16190769D01*
X7169389Y-16190769D02*
X7169389Y-16238388D01*
X7169389Y-16238388D02*
X7159865Y-16257436D01*
X7159865Y-16257436D02*
X7150342Y-16266960D01*
X7150342Y-16266960D02*
X7131294Y-16276484D01*
X7131294Y-16276484D02*
X7083675Y-16276484D01*
X7083675Y-16276484D02*
X7064627Y-16266960D01*
X7064627Y-16266960D02*
X7055104Y-16257436D01*
X7245580Y-16076484D02*
X7245580Y-16114579D01*
X7321770Y-16076484D02*
X7321770Y-16114579D01*
X7617008Y-16352674D02*
X7607485Y-16343150D01*
X7607485Y-16343150D02*
X7588437Y-16314579D01*
X7588437Y-16314579D02*
X7578913Y-16295531D01*
X7578913Y-16295531D02*
X7569389Y-16266960D01*
X7569389Y-16266960D02*
X7559866Y-16219341D01*
X7559866Y-16219341D02*
X7559866Y-16181246D01*
X7559866Y-16181246D02*
X7569389Y-16133627D01*
X7569389Y-16133627D02*
X7578913Y-16105055D01*
X7578913Y-16105055D02*
X7588437Y-16086008D01*
X7588437Y-16086008D02*
X7607485Y-16057436D01*
X7607485Y-16057436D02*
X7617008Y-16047912D01*
X7674151Y-16076484D02*
X7797961Y-16076484D01*
X7797961Y-16076484D02*
X7731294Y-16152674D01*
X7731294Y-16152674D02*
X7759866Y-16152674D01*
X7759866Y-16152674D02*
X7778913Y-16162198D01*
X7778913Y-16162198D02*
X7788437Y-16171722D01*
X7788437Y-16171722D02*
X7797961Y-16190769D01*
X7797961Y-16190769D02*
X7797961Y-16238388D01*
X7797961Y-16238388D02*
X7788437Y-16257436D01*
X7788437Y-16257436D02*
X7778913Y-16266960D01*
X7778913Y-16266960D02*
X7759866Y-16276484D01*
X7759866Y-16276484D02*
X7702723Y-16276484D01*
X7702723Y-16276484D02*
X7683675Y-16266960D01*
X7683675Y-16266960D02*
X7674151Y-16257436D01*
X7969389Y-16143150D02*
X7969389Y-16276484D01*
X7921770Y-16066960D02*
X7874151Y-16209817D01*
X7874151Y-16209817D02*
X7997961Y-16209817D01*
X8226532Y-16276484D02*
X8226532Y-16076484D01*
X8312247Y-16276484D02*
X8312247Y-16171722D01*
X8312247Y-16171722D02*
X8302723Y-16152674D01*
X8302723Y-16152674D02*
X8283675Y-16143150D01*
X8283675Y-16143150D02*
X8255104Y-16143150D01*
X8255104Y-16143150D02*
X8236056Y-16152674D01*
X8236056Y-16152674D02*
X8226532Y-16162198D01*
X8436056Y-16276484D02*
X8417009Y-16266960D01*
X8417009Y-16266960D02*
X8407485Y-16257436D01*
X8407485Y-16257436D02*
X8397961Y-16238388D01*
X8397961Y-16238388D02*
X8397961Y-16181246D01*
X8397961Y-16181246D02*
X8407485Y-16162198D01*
X8407485Y-16162198D02*
X8417009Y-16152674D01*
X8417009Y-16152674D02*
X8436056Y-16143150D01*
X8436056Y-16143150D02*
X8464628Y-16143150D01*
X8464628Y-16143150D02*
X8483675Y-16152674D01*
X8483675Y-16152674D02*
X8493199Y-16162198D01*
X8493199Y-16162198D02*
X8502723Y-16181246D01*
X8502723Y-16181246D02*
X8502723Y-16238388D01*
X8502723Y-16238388D02*
X8493199Y-16257436D01*
X8493199Y-16257436D02*
X8483675Y-16266960D01*
X8483675Y-16266960D02*
X8464628Y-16276484D01*
X8464628Y-16276484D02*
X8436056Y-16276484D01*
X8617009Y-16276484D02*
X8597961Y-16266960D01*
X8597961Y-16266960D02*
X8588437Y-16247912D01*
X8588437Y-16247912D02*
X8588437Y-16076484D01*
X8769390Y-16266960D02*
X8750342Y-16276484D01*
X8750342Y-16276484D02*
X8712247Y-16276484D01*
X8712247Y-16276484D02*
X8693199Y-16266960D01*
X8693199Y-16266960D02*
X8683675Y-16247912D01*
X8683675Y-16247912D02*
X8683675Y-16171722D01*
X8683675Y-16171722D02*
X8693199Y-16152674D01*
X8693199Y-16152674D02*
X8712247Y-16143150D01*
X8712247Y-16143150D02*
X8750342Y-16143150D01*
X8750342Y-16143150D02*
X8769390Y-16152674D01*
X8769390Y-16152674D02*
X8778913Y-16171722D01*
X8778913Y-16171722D02*
X8778913Y-16190769D01*
X8778913Y-16190769D02*
X8683675Y-16209817D01*
X8855104Y-16266960D02*
X8874151Y-16276484D01*
X8874151Y-16276484D02*
X8912247Y-16276484D01*
X8912247Y-16276484D02*
X8931294Y-16266960D01*
X8931294Y-16266960D02*
X8940818Y-16247912D01*
X8940818Y-16247912D02*
X8940818Y-16238388D01*
X8940818Y-16238388D02*
X8931294Y-16219341D01*
X8931294Y-16219341D02*
X8912247Y-16209817D01*
X8912247Y-16209817D02*
X8883675Y-16209817D01*
X8883675Y-16209817D02*
X8864628Y-16200293D01*
X8864628Y-16200293D02*
X8855104Y-16181246D01*
X8855104Y-16181246D02*
X8855104Y-16171722D01*
X8855104Y-16171722D02*
X8864628Y-16152674D01*
X8864628Y-16152674D02*
X8883675Y-16143150D01*
X8883675Y-16143150D02*
X8912247Y-16143150D01*
X8912247Y-16143150D02*
X8931294Y-16152674D01*
X9007485Y-16352674D02*
X9017009Y-16343150D01*
X9017009Y-16343150D02*
X9036056Y-16314579D01*
X9036056Y-16314579D02*
X9045580Y-16295531D01*
X9045580Y-16295531D02*
X9055104Y-16266960D01*
X9055104Y-16266960D02*
X9064628Y-16219341D01*
X9064628Y-16219341D02*
X9064628Y-16181246D01*
X9064628Y-16181246D02*
X9055104Y-16133627D01*
X9055104Y-16133627D02*
X9045580Y-16105055D01*
X9045580Y-16105055D02*
X9036056Y-16086008D01*
X9036056Y-16086008D02*
X9017009Y-16057436D01*
X9017009Y-16057436D02*
X9007485Y-16047912D01*
X9369390Y-16352674D02*
X9359866Y-16343150D01*
X9359866Y-16343150D02*
X9340818Y-16314579D01*
X9340818Y-16314579D02*
X9331294Y-16295531D01*
X9331294Y-16295531D02*
X9321771Y-16266960D01*
X9321771Y-16266960D02*
X9312247Y-16219341D01*
X9312247Y-16219341D02*
X9312247Y-16181246D01*
X9312247Y-16181246D02*
X9321771Y-16133627D01*
X9321771Y-16133627D02*
X9331294Y-16105055D01*
X9331294Y-16105055D02*
X9340818Y-16086008D01*
X9340818Y-16086008D02*
X9359866Y-16057436D01*
X9359866Y-16057436D02*
X9369390Y-16047912D01*
X9445580Y-16143150D02*
X9445580Y-16276484D01*
X9445580Y-16162198D02*
X9455104Y-16152674D01*
X9455104Y-16152674D02*
X9474151Y-16143150D01*
X9474151Y-16143150D02*
X9502723Y-16143150D01*
X9502723Y-16143150D02*
X9521771Y-16152674D01*
X9521771Y-16152674D02*
X9531294Y-16171722D01*
X9531294Y-16171722D02*
X9531294Y-16276484D01*
X9655104Y-16276484D02*
X9636056Y-16266960D01*
X9636056Y-16266960D02*
X9626532Y-16257436D01*
X9626532Y-16257436D02*
X9617009Y-16238388D01*
X9617009Y-16238388D02*
X9617009Y-16181246D01*
X9617009Y-16181246D02*
X9626532Y-16162198D01*
X9626532Y-16162198D02*
X9636056Y-16152674D01*
X9636056Y-16152674D02*
X9655104Y-16143150D01*
X9655104Y-16143150D02*
X9683675Y-16143150D01*
X9683675Y-16143150D02*
X9702723Y-16152674D01*
X9702723Y-16152674D02*
X9712247Y-16162198D01*
X9712247Y-16162198D02*
X9721771Y-16181246D01*
X9721771Y-16181246D02*
X9721771Y-16238388D01*
X9721771Y-16238388D02*
X9712247Y-16257436D01*
X9712247Y-16257436D02*
X9702723Y-16266960D01*
X9702723Y-16266960D02*
X9683675Y-16276484D01*
X9683675Y-16276484D02*
X9655104Y-16276484D01*
X9778913Y-16143150D02*
X9855104Y-16143150D01*
X9807485Y-16076484D02*
X9807485Y-16247912D01*
X9807485Y-16247912D02*
X9817009Y-16266960D01*
X9817009Y-16266960D02*
X9836056Y-16276484D01*
X9836056Y-16276484D02*
X9855104Y-16276484D01*
X10074152Y-16143150D02*
X10074152Y-16343150D01*
X10074152Y-16152674D02*
X10093199Y-16143150D01*
X10093199Y-16143150D02*
X10131294Y-16143150D01*
X10131294Y-16143150D02*
X10150342Y-16152674D01*
X10150342Y-16152674D02*
X10159866Y-16162198D01*
X10159866Y-16162198D02*
X10169390Y-16181246D01*
X10169390Y-16181246D02*
X10169390Y-16238388D01*
X10169390Y-16238388D02*
X10159866Y-16257436D01*
X10159866Y-16257436D02*
X10150342Y-16266960D01*
X10150342Y-16266960D02*
X10131294Y-16276484D01*
X10131294Y-16276484D02*
X10093199Y-16276484D01*
X10093199Y-16276484D02*
X10074152Y-16266960D01*
X10283675Y-16276484D02*
X10264628Y-16266960D01*
X10264628Y-16266960D02*
X10255104Y-16247912D01*
X10255104Y-16247912D02*
X10255104Y-16076484D01*
X10445580Y-16276484D02*
X10445580Y-16171722D01*
X10445580Y-16171722D02*
X10436056Y-16152674D01*
X10436056Y-16152674D02*
X10417009Y-16143150D01*
X10417009Y-16143150D02*
X10378913Y-16143150D01*
X10378913Y-16143150D02*
X10359866Y-16152674D01*
X10445580Y-16266960D02*
X10426533Y-16276484D01*
X10426533Y-16276484D02*
X10378913Y-16276484D01*
X10378913Y-16276484D02*
X10359866Y-16266960D01*
X10359866Y-16266960D02*
X10350342Y-16247912D01*
X10350342Y-16247912D02*
X10350342Y-16228865D01*
X10350342Y-16228865D02*
X10359866Y-16209817D01*
X10359866Y-16209817D02*
X10378913Y-16200293D01*
X10378913Y-16200293D02*
X10426533Y-16200293D01*
X10426533Y-16200293D02*
X10445580Y-16190769D01*
X10512247Y-16143150D02*
X10588437Y-16143150D01*
X10540818Y-16076484D02*
X10540818Y-16247912D01*
X10540818Y-16247912D02*
X10550342Y-16266960D01*
X10550342Y-16266960D02*
X10569390Y-16276484D01*
X10569390Y-16276484D02*
X10588437Y-16276484D01*
X10731294Y-16266960D02*
X10712247Y-16276484D01*
X10712247Y-16276484D02*
X10674152Y-16276484D01*
X10674152Y-16276484D02*
X10655104Y-16266960D01*
X10655104Y-16266960D02*
X10645580Y-16247912D01*
X10645580Y-16247912D02*
X10645580Y-16171722D01*
X10645580Y-16171722D02*
X10655104Y-16152674D01*
X10655104Y-16152674D02*
X10674152Y-16143150D01*
X10674152Y-16143150D02*
X10712247Y-16143150D01*
X10712247Y-16143150D02*
X10731294Y-16152674D01*
X10731294Y-16152674D02*
X10740818Y-16171722D01*
X10740818Y-16171722D02*
X10740818Y-16190769D01*
X10740818Y-16190769D02*
X10645580Y-16209817D01*
X10912247Y-16276484D02*
X10912247Y-16076484D01*
X10912247Y-16266960D02*
X10893199Y-16276484D01*
X10893199Y-16276484D02*
X10855104Y-16276484D01*
X10855104Y-16276484D02*
X10836056Y-16266960D01*
X10836056Y-16266960D02*
X10826533Y-16257436D01*
X10826533Y-16257436D02*
X10817009Y-16238388D01*
X10817009Y-16238388D02*
X10817009Y-16181246D01*
X10817009Y-16181246D02*
X10826533Y-16162198D01*
X10826533Y-16162198D02*
X10836056Y-16152674D01*
X10836056Y-16152674D02*
X10855104Y-16143150D01*
X10855104Y-16143150D02*
X10893199Y-16143150D01*
X10893199Y-16143150D02*
X10912247Y-16152674D01*
X10988437Y-16352674D02*
X10997961Y-16343150D01*
X10997961Y-16343150D02*
X11017009Y-16314579D01*
X11017009Y-16314579D02*
X11026533Y-16295531D01*
X11026533Y-16295531D02*
X11036056Y-16266960D01*
X11036056Y-16266960D02*
X11045580Y-16219341D01*
X11045580Y-16219341D02*
X11045580Y-16181246D01*
X11045580Y-16181246D02*
X11036056Y-16133627D01*
X11036056Y-16133627D02*
X11026533Y-16105055D01*
X11026533Y-16105055D02*
X11017009Y-16086008D01*
X11017009Y-16086008D02*
X10997961Y-16057436D01*
X10997961Y-16057436D02*
X10988437Y-16047912D01*
M02*
